<svg width="124" height="120" viewBox="0 0 124 120" fill="none" xmlns="http://www.w3.org/2000/svg">
<path fill-rule="evenodd" clip-rule="evenodd" d="M75.7644 56.2575C75.9736 56.2323 76.1758 56.1656 76.359 56.0615C76.5423 55.9573 76.703 55.8177 76.8317 55.6508C76.9604 55.4839 77.0547 55.2931 77.1089 55.0894C77.1631 54.8857 77.1763 54.6733 77.1476 54.4644C77.1332 52.0712 77.848 49.7303 79.1968 47.7533C80.4779 45.8268 81.9173 44.0104 83.5001 42.3229C85.8005 39.6625 88.2462 37.1313 90.826 34.7409C92.3926 35.0878 93.9871 35.2935 95.5904 35.3556C95.918 35.2929 96.2136 35.1178 96.4261 34.8607C96.6387 34.6036 96.755 34.2804 96.755 33.9468C96.755 33.6132 96.6387 33.29 96.4261 33.0329C96.2136 32.7757 95.918 32.6007 95.5904 32.538C86.4714 31.6158 82.4755 25.6731 82.9878 19.7817C83.3869 16.5368 85.0314 13.5739 87.574 11.5187C90.1167 9.46358 93.3585 8.47697 96.615 8.76722C99.5527 8.71079 102.396 9.80382 104.54 11.8134C106.683 13.823 107.958 16.5903 108.091 19.5255C108.389 21.0327 108.386 22.5838 108.084 24.0901C107.781 25.5963 107.185 27.0281 106.328 28.3035C105.472 29.5789 104.372 30.6727 103.092 31.5224C101.812 32.3721 100.377 32.9609 98.8691 33.2552C98.4479 33.3095 98.0656 33.529 97.8062 33.8652C97.5468 34.2015 97.4316 34.627 97.4859 35.0482C97.5403 35.4694 97.7597 35.8518 98.096 36.1112C98.4322 36.3706 98.8578 36.4858 99.279 36.4315C101.067 36.2733 102.807 35.7687 104.402 34.9458C105.671 36.3675 106.819 37.8926 107.834 39.5053C108.449 40.4274 109.013 41.3495 109.525 42.2717C110.089 43.245 110.652 44.2184 111.164 45.1918C112.408 47.6134 113.453 50.1319 114.289 52.7226C114.326 52.9264 114.403 53.1206 114.517 53.2938C114.63 53.4669 114.777 53.6154 114.95 53.7302C115.122 53.845 115.316 53.9239 115.519 53.962C115.722 54.0001 115.932 53.9968 116.134 53.9521C116.548 53.8773 116.916 53.641 117.156 53.2951C117.396 52.9493 117.489 52.5222 117.414 52.1079C117.245 49.1002 116.712 46.1242 115.826 43.245C115.464 41.9496 114.966 40.6961 114.341 39.5053C113.665 38.3374 112.876 37.2392 111.984 36.2265C110.679 34.9083 109.216 33.7556 107.629 32.7941C109.439 31.0115 110.836 28.8536 111.721 26.4725C112.606 24.0914 112.958 21.5452 112.752 19.0132C112.732 16.8987 112.294 14.8091 111.464 12.8645C110.633 10.92 109.425 9.15898 107.911 7.68289C106.397 6.20681 104.606 5.0448 102.641 4.26375C100.676 3.4827 98.5756 3.09804 96.4613 3.13191C91.9313 2.99122 87.5257 4.62696 84.1852 7.68991C80.8447 10.7529 78.8338 15.0003 78.582 19.5255C78.4989 22.4218 79.2645 25.2792 80.7846 27.746C82.3047 30.2127 84.5129 32.1811 87.1374 33.4089C84.9563 34.546 82.8965 35.902 80.9898 37.4561C79.1702 39.0004 77.598 40.8145 76.3279 42.8352C75.1459 44.5804 74.328 46.5461 73.9231 48.6147C73.5182 50.6832 73.5346 52.8122 73.9713 54.8743C73.9895 55.0864 74.0516 55.2925 74.1536 55.4793C74.2556 55.6662 74.3953 55.8299 74.5639 55.9599C74.7324 56.09 74.9262 56.1836 75.1329 56.2348C75.3395 56.286 75.5546 56.2938 75.7644 56.2575Z" fill="#FFE6E3"/>
<path fill-rule="evenodd" clip-rule="evenodd" d="M43.1819 100.008C42.5684 98.8665 41.8479 97.7858 41.0303 96.7804C39.7432 95.3983 38.279 94.1925 36.6757 93.1943C38.4746 91.4253 39.8651 89.2845 40.75 86.9217C41.635 84.559 41.9929 82.0314 41.7987 79.5159C41.7929 77.3774 41.3581 75.2618 40.52 73.2943C39.6818 71.3269 38.4574 69.5477 36.9191 68.062C35.3809 66.5764 33.5602 65.4145 31.5649 64.6452C29.5695 63.8759 27.4401 63.5148 25.3026 63.5834C20.774 63.4157 16.361 65.0354 13.016 68.0928C9.671 71.1502 7.66228 75.4003 7.42333 79.9258C7.33573 82.8165 8.09373 85.6699 9.60436 88.136C11.115 90.6022 13.3126 92.5738 15.9275 93.8091C13.7464 94.9462 11.6866 96.3022 9.77992 97.8563C7.97848 99.4045 6.4237 101.218 5.16921 103.235C3.98039 104.987 3.15869 106.961 2.75367 109.039C2.34866 111.117 2.36871 113.256 2.81263 115.326C2.83733 115.533 2.90414 115.734 3.00896 115.915C3.11379 116.096 3.25443 116.253 3.42228 116.378C3.59012 116.503 3.78165 116.592 3.98513 116.64C4.18861 116.688 4.39977 116.694 4.60568 116.658C4.81495 116.632 5.0171 116.566 5.20034 116.462C5.38359 116.358 5.54427 116.218 5.67302 116.051C5.80177 115.884 5.896 115.693 5.95023 115.49C6.00446 115.286 6.01761 115.073 5.98889 114.865C5.97454 112.471 6.68931 110.131 8.03809 108.154C9.31922 106.227 10.7586 104.411 12.3414 102.723C14.655 100.075 17.1 97.5443 19.6673 95.1411C21.2248 95.5379 22.8246 95.7443 24.4317 95.7558C24.7594 95.6931 25.0549 95.5181 25.2675 95.2609C25.48 95.0038 25.5963 94.6806 25.5963 94.347C25.5963 94.0134 25.48 93.6902 25.2675 93.4331C25.0549 93.176 24.7594 93.001 24.4317 92.9382C15.4152 92.016 11.5217 86.0734 12.034 80.1819C12.3838 76.8998 14.0072 73.886 16.5554 71.788C19.1036 69.6901 22.3731 68.6756 25.6612 68.9625C28.5979 68.9614 31.419 70.1066 33.524 72.1542C35.6291 74.2018 36.8518 76.9902 36.9318 79.9258C37.5349 82.9623 36.9078 86.114 35.1883 88.6885C33.4688 91.2629 30.7976 93.0494 27.7617 93.6554C27.5531 93.679 27.3512 93.7433 27.1676 93.8449C26.9839 93.9465 26.822 94.0832 26.6912 94.2473C26.5604 94.4115 26.4632 94.5997 26.4051 94.8014C26.3471 95.0031 26.3293 95.2143 26.3528 95.4228C26.3764 95.6314 26.4408 95.8333 26.5423 96.0169C26.6439 96.2006 26.7807 96.3625 26.9448 96.4933C27.1089 96.6241 27.2972 96.7213 27.4989 96.7794C27.7006 96.8375 27.9117 96.8552 28.1203 96.8317C29.9082 96.6735 31.6482 96.1689 33.2433 95.346C34.5122 96.7678 35.6603 98.2929 36.6757 99.9055C37.2878 100.815 37.8521 101.755 38.3663 102.723C38.9298 103.645 39.4934 104.619 40.0057 105.592C41.2494 108.014 42.2945 110.532 43.1307 113.123C43.2825 113.444 43.5377 113.705 43.8553 113.864C44.173 114.023 44.5348 114.071 44.8829 114C45.2311 113.929 45.5454 113.744 45.7757 113.473C46.006 113.203 46.1389 112.863 46.1533 112.508C45.9842 109.5 45.451 106.524 44.5651 103.645C44.2205 102.392 43.7573 101.174 43.1819 100.008Z" fill="#FFE6E3"/>
<path fill-rule="evenodd" clip-rule="evenodd" d="M9.2165 51.1345C15.2997 55.49 22.6394 57.7387 30.1184 57.5382C40.6278 57.236 51.1122 56.3466 61.5224 54.8743C61.7134 54.8684 61.9011 54.823 62.0736 54.741C62.2462 54.6589 62.3999 54.542 62.5251 54.3976C62.6502 54.2532 62.7441 54.0845 62.8008 53.902C62.8574 53.7195 62.8757 53.5273 62.8544 53.3374C62.8414 53.1555 62.7926 52.9781 62.7108 52.8152C62.6291 52.6523 62.5159 52.5071 62.3778 52.3881C62.2397 52.2691 62.0795 52.1785 61.9063 52.1216C61.7332 52.0647 61.5504 52.0426 61.3687 52.0566C51.1618 53.1992 40.9012 53.7978 30.6307 53.8497C24.1116 53.8128 17.7817 51.6549 12.5977 47.7021C10.1256 45.3281 8.18532 42.4568 6.90483 39.2776C5.62434 36.0985 5.03282 32.6839 5.16932 29.2592C4.84029 22.4327 7.06884 15.7288 11.4194 10.4578C14.4568 7.44753 18.475 5.62933 22.7412 5.3348C27.2154 4.81562 31.748 5.45054 35.9074 7.17908C37.9621 8.02379 39.8093 9.3039 41.3216 10.9312C42.834 12.5586 43.9755 14.4944 44.6677 16.6054C47.1267 23.6752 46.512 32.2306 49.3809 39.0954C50.5655 41.8866 52.4543 44.3226 54.8625 46.1652C58.2089 48.7056 61.8569 50.8221 65.7233 52.4665C65.9112 52.5628 66.1165 52.6206 66.3271 52.6366C66.5377 52.6526 66.7493 52.6265 66.9497 52.5597C67.1501 52.4929 67.3351 52.3868 67.494 52.2477C67.6528 52.1085 67.7823 51.9391 67.8749 51.7492C68.0016 51.3844 67.9995 50.9871 67.869 50.6236C67.7385 50.2601 67.4875 49.9523 67.1577 49.7513C63.51 48.1168 60.0704 46.053 56.9117 43.6037C55.0428 42.0711 53.582 40.0999 52.6596 37.8659C49.7395 29.2592 51.2764 19.0132 47.2292 11.2775C45.118 7.43214 41.7821 4.40276 37.7516 2.67084C32.9214 0.552143 27.6389 -0.328266 22.3826 0.109336C16.7852 0.467911 11.4992 2.81119 7.47467 6.71801C2.26165 13.0356 -0.389406 21.0802 0.046315 29.2592C-0.047028 33.345 0.72132 37.4046 2.30132 41.1736C3.88132 44.9427 6.23753 48.3366 9.2165 51.1345Z" fill="#FFE6E3"/>
<path fill-rule="evenodd" clip-rule="evenodd" d="M115.57 69.2187C111.614 65.3032 106.372 62.9551 100.816 62.61C95.5586 62.1458 90.2695 63.0273 85.4469 65.1715C81.4114 66.8699 78.0705 69.8857 75.9694 73.727C71.7173 81.5139 73.4591 91.9136 70.334 100.213C69.3964 102.523 67.879 104.552 65.9283 106.104C62.7711 108.57 59.3315 110.651 55.6822 112.303C55.3084 112.5 55.0251 112.834 54.8915 113.235C54.7579 113.636 54.7842 114.073 54.965 114.455C55.171 114.82 55.5052 115.095 55.9027 115.228C56.3003 115.36 56.7329 115.34 57.1167 115.172C60.9747 113.49 64.6203 111.358 67.9775 108.82C70.3722 106.985 72.2589 104.569 73.4591 101.801C76.328 94.885 75.7132 86.432 78.1722 79.2598C78.8604 77.0909 80.0216 75.1018 81.572 73.4362C83.1224 71.7706 85.0233 70.4701 87.1375 69.6286C91.2545 67.9434 95.7307 67.3266 100.15 67.8355C104.416 68.13 108.434 69.9482 111.472 72.9585C115.849 78.183 118.131 84.8464 117.876 91.6575C118.054 95.0145 117.536 98.3721 116.355 101.52C115.173 104.667 113.354 107.536 111.011 109.947C105.822 113.884 99.4915 116.025 92.9777 116.043C82.7056 116.042 72.4423 115.443 62.2397 114.25C62.0322 114.21 61.8185 114.217 61.6139 114.269C61.4093 114.322 61.2187 114.419 61.0559 114.553C60.8931 114.688 60.762 114.857 60.672 115.048C60.582 115.239 60.5354 115.448 60.5354 115.659C60.5354 115.87 60.582 116.079 60.672 116.27C60.762 116.461 60.8931 116.63 61.0559 116.764C61.2187 116.899 61.4093 116.996 61.6139 117.048C61.8185 117.101 62.0322 117.107 62.2397 117.068C72.5942 118.62 83.0271 119.595 93.49 119.988C100.969 120.188 108.309 117.939 114.392 113.584C117.263 110.743 119.51 107.335 120.992 103.578C122.474 99.8204 123.157 95.7958 122.999 91.76C123.455 83.5782 120.801 75.5264 115.57 69.2187Z" fill="#FFE6E3"/>
<path fill-rule="evenodd" clip-rule="evenodd" d="M22.9973 22.2407H25.6612H28.3252H34.729C35.1569 22.3086 35.5944 22.2037 35.9451 21.9491C36.2957 21.6945 36.5309 21.3111 36.5989 20.8831C36.6668 20.4551 36.5619 20.0176 36.3073 19.667C36.0527 19.3163 35.6692 19.0811 35.2413 19.0132C33.0896 18.3472 30.9892 17.6812 28.7863 17.2201C27.8414 17.022 26.8819 16.902 25.9174 16.8615C24.9455 16.7848 23.9691 16.7848 22.9973 16.8615C20.7307 17.1716 18.5 17.7035 16.3374 18.4497C16.1496 18.5008 15.9747 18.591 15.8242 18.7144C15.6737 18.8378 15.5509 18.9915 15.4639 19.1656C15.3769 19.3397 15.3275 19.5301 15.3192 19.7246C15.3108 19.919 15.3435 20.113 15.4152 20.2939C15.4663 20.666 15.6613 21.0031 15.9582 21.233C16.2551 21.4629 16.6304 21.5672 17.0034 21.5235C18.8989 21.5747 20.8968 22.0358 22.9973 22.2407Z" fill="#FFE6E3"/>
<path fill-rule="evenodd" clip-rule="evenodd" d="M88.3157 84.8439H94.7195H97.3834H100.047C102.148 84.8439 104.146 84.1779 106.349 84.0754C106.547 84.1297 106.754 84.1409 106.957 84.1081C107.16 84.0753 107.353 83.9993 107.524 83.8854C107.695 83.7714 107.839 83.622 107.948 83.4474C108.056 83.2727 108.125 83.0769 108.151 82.8732C108.177 82.6694 108.159 82.4624 108.098 82.2663C108.037 82.0701 107.934 81.8893 107.798 81.7362C107.661 81.583 107.493 81.461 107.304 81.3785C107.116 81.296 106.913 81.2548 106.707 81.2578C104.546 80.5057 102.315 79.9737 100.047 79.6696C99.0755 79.5929 98.0991 79.5929 97.1273 79.6696C96.1653 79.7386 95.2077 79.8583 94.2584 80.0282C92.0728 80.5173 89.9175 81.1331 87.8034 81.8725C87.3859 81.9478 87.0138 82.1821 86.7654 82.526C86.517 82.8699 86.4117 83.2968 86.4714 83.7168C86.5798 84.1027 86.8302 84.4334 87.1723 84.6425C87.5143 84.8515 87.9228 84.9235 88.3157 84.8439Z" fill="#FFE6E3"/>
<path fill-rule="evenodd" clip-rule="evenodd" d="M14.0833 36.4314C14.1252 36.6107 14.2026 36.7798 14.3107 36.9288C14.4189 37.0778 14.5557 37.2037 14.7132 37.2991C14.8706 37.3946 15.0456 37.4576 15.2277 37.4845C15.4098 37.5115 15.5955 37.5018 15.7739 37.456H22.9973H26.0711L29.1449 37.1487L36.4708 36.2265C36.6794 36.2334 36.8873 36.199 37.0826 36.1255C37.2779 36.0519 37.4568 35.9406 37.609 35.7978C37.7613 35.6551 37.8839 35.4838 37.9699 35.2936C38.0559 35.1034 38.1035 34.8982 38.1102 34.6896C38.117 34.481 38.0827 34.2731 38.0091 34.0778C37.9356 33.8825 37.8242 33.7036 37.6815 33.5514C37.5388 33.3991 37.3674 33.2765 37.1772 33.1905C36.9871 33.1045 36.7819 33.0569 36.5733 33.0502C34.0819 32.5935 31.5681 32.2686 29.0424 32.0769C27.9509 32.0001 26.8553 32.0001 25.7637 32.0769C24.6772 32.1091 23.5963 32.2464 22.5362 32.4867C20.0955 33.0069 17.7107 33.7618 15.4152 34.7408C15.212 34.7521 15.0134 34.8064 14.8328 34.9003C14.6521 34.9942 14.4935 35.1255 14.3675 35.2854C14.2415 35.4453 14.151 35.6302 14.102 35.8278C14.053 36.0254 14.0466 36.2312 14.0833 36.4314Z" fill="#FFE6E3"/>
<path fill-rule="evenodd" clip-rule="evenodd" d="M84.9345 97.0878C84.9409 97.301 84.9902 97.5106 85.0794 97.7043C85.1686 97.8979 85.2959 98.0717 85.4536 98.2151C85.6114 98.3585 85.7964 98.4687 85.9977 98.5391C86.199 98.6095 86.4123 98.6386 86.6251 98.6247L93.8998 99.5469L96.9736 99.8543H100.047H107.271C107.637 99.931 108.019 99.8615 108.335 99.6605C108.651 99.4595 108.876 99.1429 108.961 98.7784C109.007 98.6001 109.017 98.4144 108.99 98.2323C108.963 98.0501 108.9 97.8752 108.805 97.7177C108.709 97.5603 108.583 97.4234 108.434 97.3153C108.285 97.2071 108.116 97.1298 107.937 97.0878C105.563 96.0578 103.091 95.2683 100.56 94.7313C99.4839 94.7313 98.408 94.4239 97.281 94.3214C96.1539 94.219 95.1293 94.3214 94.0535 94.3214C91.5275 94.5098 89.0135 94.8348 86.5227 95.2948C86.2981 95.3008 86.0773 95.3529 85.8737 95.4478C85.6702 95.5427 85.4883 95.6785 85.3394 95.8466C85.1905 96.0147 85.0777 96.2117 85.0081 96.4252C84.9384 96.6387 84.9134 96.8642 84.9345 97.0878Z" fill="#FFE6E3"/>
</svg>
