<svg width="115" height="120" viewBox="0 0 115 120" fill="none" xmlns="http://www.w3.org/2000/svg">
<path d="M88.4906 58.4172C87.9857 51.7089 85.7352 45.2494 81.9623 39.6797C78.0615 33.9028 72.4552 29.4871 65.9251 27.0484C59.395 24.6097 52.2666 24.2694 45.534 26.0751C38.8207 27.6039 32.7222 31.1155 28.0301 36.1542C23.338 41.1929 20.2691 47.5258 19.2218 54.3308C18.847 56.9587 18.847 59.6265 19.2218 62.2543C19.6057 64.9873 20.6116 67.5957 22.162 69.8789C24.9028 73.7659 29.1387 74.8623 31.2815 77.9021C32.1118 79.0746 32.484 80.5105 32.328 81.9386C32.3145 82.1154 32.336 82.2932 32.3913 82.4616C32.4466 82.6301 32.5347 82.7859 32.6505 82.9202C32.7663 83.0545 32.9075 83.1646 33.0659 83.2442C33.2244 83.3237 33.397 83.3712 33.5739 83.3838H34.9692C38.5372 84.3695 42.1663 85.1187 45.833 85.6263C47.4032 85.8252 48.9844 85.9251 50.5672 85.9253H55.3013C58.9392 85.9253 62.5272 85.2277 66.2149 84.7293C66.4178 84.7229 66.6175 84.6765 66.8024 84.5929C66.9874 84.5092 67.1541 84.3899 67.2929 84.2418C67.4318 84.0937 67.5401 83.9197 67.6116 83.7297C67.6832 83.5398 67.7166 83.3375 67.7099 83.1346C67.7037 82.9273 67.6557 82.7234 67.569 82.535C67.4822 82.3466 67.3584 82.1776 67.205 82.0381C67.0515 81.8986 66.8715 81.7914 66.6757 81.723C66.4799 81.6545 66.2724 81.6262 66.0654 81.6396L55.3013 81.0416H50.7167H46.132H35.3679H35.0689C35.0709 79.3856 34.5666 77.7685 33.6237 76.4071C31.5805 73.4669 27.4443 72.1214 24.853 68.2344C23.7125 66.3198 23.0144 64.1745 22.8098 61.9553C22.5013 59.6208 22.5348 57.2537 22.9095 54.9288C24.0227 49.0051 26.8803 43.549 31.1156 39.2604C35.3509 34.9718 40.7708 32.0463 46.6801 30.8592C52.4286 29.3729 58.4966 29.7058 64.0479 31.8122C69.5993 33.9185 74.3609 37.6945 77.6767 42.6199C80.931 47.4035 82.8884 52.9496 83.3577 58.7162C83.6651 61.4817 83.3797 64.2811 82.5204 66.9277C81.6611 69.5743 80.2477 72.0074 78.3743 74.0649C77.6147 74.8202 76.8163 75.5354 75.9823 76.2078C73.7398 77.9519 71.4973 79.3473 69.3046 81.1911C68.4937 81.996 67.8946 82.9889 67.5604 84.0815C67.0935 85.7186 66.7274 87.3829 66.4641 89.0648C66.415 90.2117 66.0342 91.3196 65.3677 92.2542C62.2721 94.9095 58.279 96.2821 54.205 96.0914C47.9687 95.8991 41.8205 94.5647 36.0656 92.1545C36.5141 91.3572 36.0656 88.9153 36.0656 87.4203C36.0399 87.0062 35.8537 86.6183 35.5466 86.3392C35.2396 86.06 34.8358 85.9116 34.4211 85.9253C34.218 85.938 34.0195 85.9906 33.8369 86.0802C33.6543 86.1698 33.4912 86.2946 33.3569 86.4474C33.2226 86.6002 33.1198 86.778 33.0544 86.9706C32.9891 87.1632 32.9624 87.3669 32.9759 87.5698C32.9759 89.5632 32.627 92.1047 32.9759 93.201C33.0436 93.5399 33.1922 93.8574 33.4092 94.1264C33.6261 94.3954 33.9049 94.6079 34.2217 94.7459C40.616 97.6977 47.5193 99.3897 54.5538 99.7292C59.623 100.064 64.6244 98.4204 68.5073 95.1445C69.3059 94.3692 69.9045 93.4115 70.2514 92.3539C70.7739 90.7249 71.1737 89.0591 71.4475 87.3705C71.4237 86.4916 71.6117 85.6199 71.9956 84.829C74.1883 82.9353 76.381 81.6895 78.5737 79.8456C79.608 79.0827 80.575 78.2324 81.464 77.3041C83.9224 74.8449 85.8224 71.8852 87.0349 68.6261C88.2474 65.3671 88.7438 61.8852 88.4906 58.4172Z" fill="#FFE6E3"/>
<path d="M45.5339 69.879C45.8329 66.9886 46.0322 64.0484 46.2814 61.1581C47.0597 61.9618 47.9491 62.6498 48.9226 63.2012C50.5143 64.208 52.3725 64.7116 54.2548 64.6464C56.0053 64.5975 57.7168 64.1183 59.2382 63.2511V67.3873C59.2177 70.6271 59.4845 73.8623 60.0355 77.055C60.0355 78.1015 62.5272 78.7493 63.0255 77.055C62.7228 73.8395 62.7228 70.6027 63.0255 67.3873C63.7195 63.0084 64.7017 58.6801 65.9657 54.4305C66.1241 53.9499 66.1114 53.4293 65.9298 52.957C65.7481 52.4847 65.4087 52.0898 64.969 51.8392C64.5183 51.4957 63.9543 51.3356 63.3903 51.3911C62.8264 51.4466 62.3043 51.7135 61.9292 52.1382C61.7297 52.3816 61.5623 52.6496 61.4308 52.9355L60.8827 54.0319L59.6867 55.9754C59.0142 56.9134 58.1473 57.6953 57.1452 58.2677C56.2518 58.8401 55.216 59.1508 54.1551 59.1647C53.0079 59.1555 51.899 58.7506 51.0156 58.0185C49.9342 57.2336 49.0476 56.2106 48.4243 55.0285L47.5273 52.786C47.5273 52.3375 47.1784 51.2412 47.0788 50.9422C46.8467 50.6327 46.5457 50.3815 46.1997 50.2086C45.8537 50.0356 45.4722 49.9455 45.0854 49.9455C44.6879 49.8427 44.27 49.8487 43.8755 49.9626C43.481 50.0766 43.1244 50.2944 42.8429 50.5933C41.2482 52.2877 42.4941 61.8557 41.7964 72.9686C41.9186 74.0449 41.9186 75.1316 41.7964 76.2078C41.7964 78.3008 44.1386 78.8988 44.6867 76.7062C45.2172 74.4681 45.5013 72.1788 45.5339 69.879Z" fill="#FFE6E3"/>
<path d="M12.5446 30.9087C11.9272 30.1668 11.2433 29.4829 10.5014 28.8655L8.20909 27.1712C6.36525 25.9752 4.42174 25.0283 2.47822 23.932C2.13906 23.6938 1.7205 23.597 1.31121 23.6621C0.901912 23.7273 0.534047 23.9492 0.285545 24.2808C0.0501607 24.6121 -0.0452168 25.0228 0.020078 25.4239C0.0853728 25.825 0.306081 26.1842 0.63438 26.4237C2.12939 27.9685 3.57457 29.5134 5.11941 31.0084C5.76725 31.6562 6.41508 32.3041 7.06292 32.8522C7.71076 33.4004 8.40843 33.9984 9.1061 34.5466C10.8322 35.7212 12.4956 36.9853 14.0895 38.3339C14.3414 38.5835 14.6817 38.7235 15.0363 38.7235C15.3909 38.7235 15.7312 38.5835 15.9831 38.3339C16.1317 38.2261 16.2566 38.0891 16.3502 37.9312C16.4439 37.7734 16.5042 37.598 16.5275 37.416C16.5509 37.2339 16.5367 37.049 16.486 36.8727C16.4352 36.6963 16.3489 36.5322 16.2323 36.3904C15.2174 34.4278 13.98 32.5885 12.5446 30.9087Z" fill="#FFE6E3"/>
<path d="M32.3781 8.68313C32.6267 9.60234 32.9432 10.5018 33.325 11.3741C33.6738 12.2213 34.0226 13.0685 34.4712 13.9157C35.5177 15.8592 36.7635 17.6034 37.8598 19.5967C38.0202 19.8893 38.2801 20.1148 38.5925 20.2322C38.9048 20.3496 39.2489 20.3512 39.5623 20.2367C39.8758 20.1222 40.1378 19.8991 40.3008 19.608C40.4639 19.3169 40.5172 18.9769 40.4512 18.6499C40.1281 16.417 39.6789 14.2041 39.1057 12.022C38.8565 11.125 38.5077 10.228 38.1588 9.33097C37.8689 8.46073 37.5192 7.61154 37.1123 6.78945C35.8167 4.79611 34.6207 3.0021 33.4745 1.05858C33.4081 0.858313 33.3013 0.673769 33.1609 0.516333C33.0204 0.358897 32.8491 0.231906 32.6577 0.143191C32.4663 0.0544751 32.2587 0.00591599 32.0478 0.000507624C31.8368 -0.00490074 31.627 0.0329563 31.4313 0.111744C31.0569 0.266559 30.7583 0.56224 30.5999 0.935089C30.4414 1.30794 30.4358 1.72811 30.5841 2.10509C31.1821 4.44727 31.6805 6.59012 32.3781 8.68313Z" fill="#FFE6E3"/>
<path d="M69.6043 21.7896C69.7811 21.8104 69.9604 21.7958 70.1316 21.7468C70.3028 21.6977 70.4626 21.6152 70.6016 21.5039C70.7407 21.3927 70.8563 21.2549 70.9417 21.0987C71.0271 20.9424 71.0807 20.7707 71.0993 20.5936C71.8041 18.7811 72.4194 16.935 72.9431 15.0621C73.1923 13.9657 73.292 12.8196 73.4415 11.7232C73.4871 10.0499 73.6704 8.38312 73.9896 6.73985C74.0976 6.55334 74.1678 6.34739 74.1962 6.13375C74.2246 5.92012 74.2106 5.70298 74.1551 5.49475C74.0995 5.28651 74.0035 5.09125 73.8725 4.92011C73.7415 4.74898 73.5781 4.60532 73.3916 4.49734C73.2051 4.38936 72.9992 4.31917 72.7855 4.29079C72.5719 4.2624 72.3547 4.27637 72.1465 4.3319C71.9383 4.38743 71.743 4.48343 71.5719 4.61442C71.4007 4.74542 71.2571 4.90883 71.1491 5.09534C70.0903 6.63973 69.236 8.31479 68.6076 10.0787C68.3618 10.83 68.1621 11.5955 68.0096 12.3711C67.9603 13.151 67.9603 13.9333 68.0096 14.7132C68.0096 16.6069 68.4083 18.3013 68.5578 19.9956C68.5054 20.1822 68.4911 20.3773 68.5156 20.5695C68.5402 20.7617 68.6032 20.947 68.7008 21.1144C68.7985 21.2817 68.9288 21.4278 69.084 21.5438C69.2392 21.6598 69.4161 21.7434 69.6043 21.7896Z" fill="#FFE6E3"/>
<path d="M112.461 37.4868C110.119 37.4868 107.927 37.1379 105.634 37.1379H102.694C101.747 37.1379 100.751 37.4868 99.8037 37.7359C97.5783 38.4839 95.4264 39.4347 93.3751 40.5765C93.1722 40.6064 92.9783 40.6808 92.8073 40.7943C92.6364 40.9077 92.4925 41.0575 92.3861 41.2329C92.2796 41.4083 92.2132 41.605 92.1914 41.809C92.1697 42.0131 92.1932 42.2194 92.2604 42.4133C92.3275 42.6072 92.4365 42.7839 92.5797 42.9308C92.723 43.0777 92.8968 43.1913 93.0889 43.2633C93.281 43.3354 93.4867 43.3642 93.6912 43.3477C93.8957 43.3311 94.0941 43.2697 94.2721 43.1678C96.5146 42.819 98.6077 42.819 100.751 42.6695L103.442 42.3705L106.182 41.8721C108.325 41.4236 110.418 40.8755 112.661 40.427C113.07 40.3773 113.446 40.1755 113.714 39.8616C113.981 39.5478 114.121 39.1448 114.106 38.7326C114.034 38.3588 113.826 38.0249 113.522 37.7949C113.219 37.565 112.841 37.4553 112.461 37.4868Z" fill="#FFE6E3"/>
<path d="M61.6303 105.011C59.9708 105.115 58.3064 105.115 56.6469 105.011C55.0523 105.011 53.4576 104.762 51.6636 104.663L46.6802 104.413C43.3912 104.413 40.152 104.413 36.7135 104.065C36.357 103.99 35.9855 104.058 35.6782 104.253C35.3709 104.449 35.1523 104.757 35.069 105.111C34.9943 105.468 35.0619 105.839 35.2575 106.146C35.453 106.454 35.7609 106.672 36.1155 106.756C38.9089 107.867 41.7935 108.734 44.7367 109.347C46.0204 109.578 47.3198 109.711 48.6237 109.746C49.9175 109.845 51.217 109.845 52.5107 109.746C55.7263 109.483 58.9118 108.933 62.029 108.101C62.4351 108.028 62.797 107.8 63.0386 107.465C63.2803 107.131 63.3828 106.716 63.3246 106.307C63.2629 105.915 63.0525 105.561 62.737 105.32C62.4215 105.079 62.0251 104.968 61.6303 105.011Z" fill="#FFE6E3"/>
<path d="M56.2487 115.078C54.5801 115.029 52.9159 114.879 51.2654 114.629C50.1703 114.555 49.0714 114.555 47.9763 114.629C45.983 114.629 44.1392 115.128 42.1956 115.327C42.0188 115.306 41.8395 115.321 41.6683 115.37C41.4971 115.419 41.3373 115.501 41.1983 115.613C41.0592 115.724 40.9436 115.862 40.8582 116.018C40.7728 116.174 40.7192 116.346 40.7006 116.523C40.6834 116.888 40.8007 117.247 41.0302 117.532C41.2598 117.817 41.5858 118.007 41.9465 118.068C43.6257 118.711 45.3393 119.26 47.0793 119.712C47.8206 119.845 48.5697 119.928 49.3219 119.961C50.0851 120.013 50.8509 120.013 51.6142 119.961C53.5004 119.597 55.3279 118.977 57.0461 118.118C57.4492 118.032 57.8016 117.789 58.0259 117.443C58.2502 117.098 58.328 116.677 58.2421 116.274C58.1562 115.871 57.9136 115.518 57.5679 115.294C57.2221 115.07 56.8013 114.992 56.3982 115.078H56.2487Z" fill="#FFE6E3"/>
</svg>
