<svg width="72" height="72" viewBox="0 0 72 72" fill="none" xmlns="http://www.w3.org/2000/svg">
<path d="M64.08 12.7971H54.5283C54.6518 9.95587 54.5339 8.06688 54.5207 7.87133C54.495 7.49375 54.1811 7.2002 53.8024 7.2002H18.1976C17.8189 7.2002 17.505 7.49375 17.4793 7.87133C17.4661 8.06688 17.3482 9.95587 17.4717 12.7971H7.92C7.5259 12.7971 7.20492 13.1142 7.2 13.5083C7.19437 13.9639 7.13426 24.7396 13.2638 30.9444C15.9613 33.6748 19.4496 35.0751 23.6265 35.1236C25.3488 37.8799 27.4674 40.0425 30.6229 41.4895V46.7039H27.6391C25.7934 46.7039 24.2916 48.2057 24.2916 50.0514V55.5741H22.9236C22.526 55.5741 22.2036 55.8965 22.2036 56.2941V64.0802C22.2036 64.4778 22.526 64.8002 22.9236 64.8002H49.0764C49.474 64.8002 49.7964 64.4778 49.7964 64.0802V56.2941C49.7964 55.8965 49.474 55.5741 49.0764 55.5741H47.7084V50.0514C47.7084 48.2057 46.2066 46.7039 44.3609 46.7039H41.3771V41.4819C44.5282 40.0353 46.6506 37.8771 48.3715 35.1235C52.5473 35.0744 56.0351 33.6742 58.7327 30.944C64.8633 24.7396 64.8053 13.9643 64.8 13.5083C64.7951 13.1142 64.4745 12.7971 64.08 12.7971ZM14.2921 29.9364C9.44965 25.0385 8.75461 16.71 8.65617 14.2371H17.5515C17.8602 18.8287 18.8101 25.2201 21.5009 31.091C21.9106 31.9849 22.3288 32.8378 22.7685 33.648C19.3745 33.4315 16.5233 32.1928 14.2921 29.9364ZM48.3564 63.3602H23.6436V57.0141H48.3564V63.3602ZM46.2684 50.0514V55.5741H25.7316V50.0514C25.7316 48.9996 26.5873 48.1439 27.6391 48.1439H44.3609C45.4127 48.1439 46.2684 48.9996 46.2684 50.0514ZM40.3786 40.3568C40.2899 40.394 40.2109 40.4491 40.1445 40.5167C40.1145 40.5472 40.0979 40.5862 40.074 40.6212C40.0455 40.6627 40.0118 40.6999 39.9924 40.747C39.9599 40.8259 39.9449 40.9108 39.9419 40.9971C39.9416 41.0053 39.9371 41.0122 39.9371 41.0205V41.0215V41.0232V46.7039H32.0629V41.0205C32.0629 40.7315 31.8902 40.4707 31.6245 40.3578C27.2004 38.478 24.9012 35.0538 22.8101 30.4912C18.7738 21.6846 18.8012 11.3416 18.8866 8.6402H53.1134C53.1988 11.3416 53.2262 21.6846 49.1899 30.4912C47.0993 35.0527 44.8005 38.4763 40.3786 40.3568ZM57.7041 29.9361C55.4735 32.1918 52.6233 33.4304 49.2313 33.6478C49.6709 32.8375 50.0894 31.985 50.4991 31.091C53.1899 25.2201 54.1398 18.8287 54.4485 14.2371H63.3438C63.2447 16.71 62.5479 25.0385 57.7041 29.9361Z" fill="#B80000"/>
<path d="M35.9999 12.5215C30.0529 12.5215 25.2144 17.36 25.2144 23.3071C25.2144 29.2541 30.0529 34.0923 35.9999 34.0923C41.947 34.0923 46.7855 29.2541 46.7855 23.3071C46.7855 17.36 41.947 12.5215 35.9999 12.5215ZM30.3732 30.7509C30.453 28.3308 32.0272 26.2507 34.3585 25.5427C34.6362 25.4583 34.8363 25.2154 34.8654 24.9267C34.895 24.6381 34.7484 24.36 34.4935 24.2211C33.391 23.621 32.7062 22.4693 32.7062 21.2156C32.7062 19.3302 34.2404 17.796 36.1262 17.796C38.0116 17.796 39.5458 19.3302 39.5458 21.2156C39.5458 22.5066 38.8283 23.6741 37.673 24.2623C37.4139 24.3941 37.2596 24.6687 37.2817 24.9584C37.3035 25.248 37.4976 25.4959 37.7732 25.5873C40.0263 26.3335 41.5477 28.395 41.6268 30.7508C40.0593 31.9386 38.1138 32.6523 35.9999 32.6523C33.8862 32.6523 31.9406 31.9386 30.3732 30.7509ZM42.9299 29.5548C42.5254 27.5245 41.2633 25.7667 39.4516 24.7583C40.4194 23.8541 40.9858 22.5839 40.9858 21.2156C40.9858 18.536 38.8058 16.356 36.1262 16.356C33.4462 16.356 31.2662 18.536 31.2662 21.2156C31.2662 22.5315 31.7967 23.768 32.7051 24.668C30.8046 25.6583 29.4822 27.4526 29.0686 29.5533C27.5735 27.896 26.6544 25.7095 26.6544 23.3071C26.6544 18.1539 30.8467 13.9615 35.9999 13.9615C41.1531 13.9615 45.3455 18.1539 45.3455 23.3071C45.3455 25.7102 44.4259 27.8972 42.9299 29.5548Z" fill="#B80000"/>
</svg>
