<svg width="100" height="30" viewBox="0 0 100 30" fill="none" xmlns="http://www.w3.org/2000/svg">
<g clip-path="url(#clip0_2063_2311)">
<path fill-rule="evenodd" clip-rule="evenodd" d="M61.8138 23.4605C56.05 27.7206 47.661 29.9998 40.4176 29.9998C30.7636 30.0476 21.4438 26.4915 14.272 20.0356C13.7469 19.5464 14.2004 18.8781 14.8686 19.2719C28.9498 27.3745 46.0023 28.4247 60.9665 22.1001C61.957 21.7182 62.7565 22.7683 61.8138 23.4605Z" fill="#504E4E"/>
<path fill-rule="evenodd" clip-rule="evenodd" d="M64.2245 20.7041C63.4966 19.7614 59.3319 20.2506 57.4823 20.4893C56.9214 20.5609 56.814 20.0716 57.3391 19.7256C60.6565 17.3867 66.0741 18.0788 66.7066 18.8545C67.3391 19.6301 66.5276 25.0716 63.425 27.6611C62.9357 28.043 62.4823 27.8401 62.6971 27.3151C63.3892 25.5609 64.9644 21.6826 64.2245 20.7041Z" fill="#504E4E"/>
<path fill-rule="evenodd" clip-rule="evenodd" d="M57.5895 3.2937V1.0264C57.5776 0.728067 57.8043 0.47747 58.0907 0.465537C58.1146 0.465537 58.1265 0.465537 58.1504 0.465537H68.2816C68.6038 0.453604 68.8664 0.7042 68.8783 1.0264V2.94764C68.8783 3.2579 68.6038 3.67556 68.1146 4.37962L62.8759 11.8617C64.8687 11.7543 66.8616 12.172 68.6516 13.0789C68.9618 13.2579 69.1647 13.592 69.1766 13.95V16.3605C69.1766 16.7066 68.8306 17.0884 68.4368 16.8856C65.0835 15.1433 61.0859 15.1553 57.7446 16.9214C57.4582 17.0288 57.148 16.8737 57.0406 16.5873C57.0167 16.5276 57.0048 16.456 57.0048 16.3963V14.0813C56.969 13.5443 57.1002 13.0073 57.3866 12.5419L63.4726 3.84263H58.1981C57.864 3.85456 57.6014 3.60396 57.5895 3.2937ZM20.6444 17.3748H17.5656C17.2792 17.351 17.0525 17.1362 17.0048 16.8498V1.0622C17.0167 0.74 17.2792 0.489403 17.6014 0.501336H20.4654C20.7637 0.501336 21.0024 0.728067 21.0263 1.0264V3.09084H21.0979C21.8019 0.871265 24.1766 -0.357852 26.3962 0.358138C27.6969 0.775799 28.7112 1.79012 29.1289 3.09084C29.7613 1.28893 31.4797 0.0956084 33.389 0.155274C34.7852 0.131408 36.1217 0.775799 36.957 1.89752C37.9356 3.2221 37.7208 5.14334 37.7208 6.86172V16.8617C37.7088 17.1839 37.4463 17.4345 37.1241 17.4226H34.0811C33.7828 17.3987 33.5442 17.16 33.5203 16.8617V8.4727C33.568 7.48224 33.5442 6.49179 33.4487 5.50134C33.3174 4.63021 32.506 4.02162 31.6348 4.14095C30.8115 4.16482 30.0835 4.67795 29.7852 5.42974C29.5346 6.42019 29.4391 7.44644 29.5107 8.4727V16.8617C29.4988 17.1839 29.2363 17.4345 28.9141 17.4226H25.8353C25.537 17.3987 25.2983 17.16 25.2745 16.8617V8.4727C25.2745 6.73045 25.5489 4.10515 23.389 4.10515C21.1814 4.10515 21.253 6.62305 21.253 8.4727V16.8617C21.2172 17.16 20.9427 17.3868 20.6444 17.3748ZM77.6134 0.143341C82.1957 0.143341 84.6778 4.05742 84.6778 9.05742C84.6778 13.8784 81.9451 17.7209 77.6134 17.7209C73.1384 17.7209 70.6921 13.8068 70.6921 8.91422C70.6563 3.98582 73.1384 0.143341 77.6134 0.143341ZM77.6134 3.38916C75.3461 3.38916 75.2029 6.50372 75.2029 8.42496C75.2029 10.3462 75.1671 14.4751 77.5776 14.4751C79.9523 14.4751 80.0955 11.1577 80.0955 9.12902C80.1432 7.72091 79.9881 6.30086 79.642 4.92854C79.4391 3.98582 78.58 3.3295 77.6134 3.38916ZM90.5728 17.3748H87.494C87.1957 17.351 86.957 17.1123 86.9332 16.814V0.990596C86.969 0.692267 87.2315 0.465537 87.5298 0.465537H90.3938C90.6563 0.47747 90.895 0.656468 90.9547 0.918997V3.3295H91.0263C91.8974 1.15766 93.0907 0.143341 95.2148 0.143341C96.6587 0.0836753 98.031 0.787732 98.8186 1.99298C99.6181 3.24597 99.6181 5.382 99.6181 6.92138V16.8856C99.5704 17.172 99.3198 17.3868 99.0215 17.3748H95.9427C95.6683 17.351 95.4415 17.1481 95.3819 16.8856V8.2937C95.3819 6.55146 95.5967 4.03356 93.4606 4.03356C92.673 4.06936 91.9809 4.55862 91.6826 5.28654C91.3127 6.24119 91.1456 7.26745 91.1933 8.2937V16.8259C91.1695 17.1362 90.895 17.3748 90.5728 17.3748ZM49.5107 9.82115C49.6301 10.9429 49.4272 12.0765 48.9499 13.1028C48.5561 13.9262 47.7327 14.4632 46.8138 14.4989C45.6205 14.4989 44.9284 13.592 44.9284 12.2555C44.9284 9.63021 47.2673 9.14095 49.5107 9.14095V9.82115ZM52.6253 17.339C52.4224 17.518 52.1241 17.5419 51.8854 17.4106C51.1695 16.8379 50.5728 16.1338 50.1074 15.3462C48.8664 16.8617 46.9928 17.6851 45.0358 17.5896C42.6253 17.7328 40.5489 15.8951 40.4057 13.4727C40.3938 13.246 40.3938 13.0192 40.4177 12.7925C40.3461 10.5849 41.6587 8.5801 43.6993 7.75671C45.5728 7.13618 47.5298 6.76625 49.4988 6.67079V6.30086C49.6062 5.53714 49.4749 4.74955 49.117 4.05742C48.7112 3.53236 48.0668 3.23403 47.4105 3.2579C46.2291 3.1505 45.1671 3.95002 44.9284 5.10754C44.8568 5.382 44.6778 5.6684 44.4033 5.6684L41.432 5.35814C41.1337 5.32234 40.9308 5.04788 40.9785 4.74955C40.9785 4.73761 40.9785 4.73761 40.9785 4.72568C41.6826 1.08606 44.9284 0.0120762 47.864 0.0120762C49.5465 -0.0595228 51.2053 0.489403 52.5179 1.55146C54.0215 2.94764 53.8783 4.83308 53.8783 6.86172V11.6469C53.9022 12.709 54.3079 13.7352 55.0358 14.5109C55.2506 14.7853 55.2864 15.1433 55.0358 15.3104C54.3675 15.8474 53.2458 16.8259 52.6253 17.339ZM9.14081 9.82115C9.26014 10.9429 9.05728 12.0765 8.57995 13.1028C8.18616 13.9262 7.36277 14.4632 6.44391 14.4989C5.2506 14.4989 4.55847 13.592 4.55847 12.2555C4.55847 9.63021 6.89738 9.14095 9.14081 9.14095V9.82115ZM12.2196 17.339C12.0167 17.518 11.7184 17.5419 11.4797 17.4106C10.7637 16.8379 10.1671 16.1338 9.70167 15.3462C8.46062 16.8617 6.58711 17.6851 4.63007 17.5896C2.21957 17.7328 0.143198 15.8951 0 13.4727C0 13.246 0 13.0192 0.0238663 12.8044C-0.0477327 10.5968 1.26492 8.59203 3.30549 7.76864C5.179 7.14811 7.13604 6.77819 9.10501 6.68272V6.30086C9.21241 5.53714 9.08115 4.74955 8.72315 4.05742C8.31742 3.53236 7.67303 3.23403 7.00477 3.2579C5.83532 3.1505 4.76134 3.95002 4.52267 5.10754C4.46301 5.39394 4.28401 5.6684 4.00955 5.6684L1.03819 5.35814C0.739857 5.31041 0.536993 5.03594 0.572792 4.74955C0.572792 4.73761 0.572792 4.73761 0.572792 4.72568C1.27685 1.08606 4.52267 0.0120762 7.45823 0.0120762C9.14081 -0.0595228 10.7995 0.489403 12.1122 1.55146C13.6158 2.94764 13.4726 4.83308 13.4726 6.86172V11.6469C13.4964 12.709 13.9021 13.7352 14.6301 14.5109C14.8449 14.7853 14.8807 15.1433 14.6301 15.3104C13.9737 15.8355 12.852 16.814 12.2196 17.339Z" fill="#504E4E"/>
</g>
<defs>
<clipPath id="clip0_2063_2311">
<rect width="99.6301" height="30" fill="white"/>
</clipPath>
</defs>
</svg>
