<svg width="160" height="30" viewBox="0 0 160 30" fill="none" xmlns="http://www.w3.org/2000/svg">
<path fill-rule="evenodd" clip-rule="evenodd" d="M43.2766 6.00002C46.2834 6.00002 48.169 7.36775 49.1628 8.8129C49.1421 8.50321 49.1382 8.22655 49.1374 7.91688L49.1372 6.5419H52.8829V20.8647C52.8829 26.4903 49.7232 30 44.0919 30C39.7856 30 36.9063 27.729 36.0144 24.3486H40.1933C40.8813 25.897 42.2828 26.6968 44.0919 26.6968C47.8377 26.6968 49.2391 24.3486 49.2391 20.1419H49.1626C48.2963 21.5871 46.3597 22.9548 43.3784 22.9548C38.4606 22.9548 35.4283 19.4454 35.4283 14.542C35.4283 9.43228 38.7665 6.00002 43.2766 6.00002ZM79.1252 1.63639V6.3541H82.3375V9.35157H79.1252V18.8392C79.1252 20.4554 79.8765 20.9767 81.1977 20.9767C81.5344 20.9767 81.7935 20.9503 82.0266 20.8984V23.8697C81.664 23.9743 81.2495 24 80.4723 24C77.2082 24 75.1099 22.9317 75.1099 19.5169V9.32552H72.5193V6.32812H75.1099V1.63645L79.1252 1.63639ZM26.8479 6.00002C27.2562 6.00002 27.5624 6.02559 27.7921 6.07672V9.83336C27.5114 9.73111 27.0521 9.70552 26.6693 9.70552C23.5561 9.70552 23.0457 11.9033 23.0457 15.4044V23.4545H19.0904V9.47557C19.0904 8.40224 19.0903 7.43113 19.0648 6.4089H22.765V7.5589C22.765 7.94223 22.765 8.32551 22.7395 8.6833C23.3519 6.97107 24.9085 6.00002 26.8479 6.00002ZM33.7646 6.23186V23.4545H29.5108V6.23186H33.7646ZM60.1343 0V4.75817C60.1343 6.02529 60.1086 6.85274 60.0572 8.17156C61.1353 6.72344 62.7268 5.68911 65.2423 5.68911C69.1695 5.68911 71.4284 8.45607 71.4284 12.6712V23.4545H67.5011V14.6106C67.5011 11.1971 66.731 9.02492 64.0102 9.02492C61.315 9.02492 60.1342 11.0678 60.1342 13.9382V23.4545H56.1556V0H60.1343ZM88.3375 0V23.4545H84.5193V0H88.3375ZM153.031 5.45456C156.993 5.45456 159.247 8.02223 159.247 12.6336V23.4545H155.232V14.1532C155.232 10.5637 154.274 8.83448 151.918 8.83448C149.432 8.83448 148.163 10.7209 148.163 13.341V23.4545H144.148V14.0484C144.148 10.4851 143.19 8.83448 140.808 8.83448C138.192 8.83448 137.104 10.9305 137.104 13.7078V23.4545H133.09V8.70343C133.09 7.76021 133.09 6.94797 133.065 6.00474H136.897L136.923 7.10523C136.923 7.47204 136.923 7.8126 136.897 8.20559C137.778 6.63355 139.487 5.45456 142.077 5.45456C144.537 5.45456 146.22 6.52875 147.231 8.41522C148.292 6.92177 150.001 5.45456 153.031 5.45456ZM15.7887 5.79895C15.7887 8.56874 14.0692 10.2259 12.2193 10.8472C14.2255 11.4685 16.883 13.1512 16.883 16.7236C16.883 22.4451 11.8025 23.4545 7.37329 23.4545H0V0H5.60161C12.3496 0 15.7887 1.21673 15.7887 5.79895ZM7.73805 13.0218H4.06442V19.8563H6.56562C9.9787 19.8563 12.6362 19.4418 12.6362 16.4129C12.6362 13.8502 10.5258 13.0218 7.73805 13.0218ZM44.2959 9.32905C41.3146 9.30328 39.4799 11.3677 39.4799 14.5161C39.4799 17.5613 41.2127 19.729 44.2959 19.729C47.0478 19.729 49.1373 17.871 49.1373 14.4387C49.1373 11.3935 47.2517 9.32905 44.2959 9.32905ZM6.95642 3.62434H4.09048V9.44921H7.55566C10.1871 9.31974 11.5419 8.67256 11.5419 6.42029C11.5419 4.01268 9.6921 3.62434 6.95642 3.62434ZM33.7921 0V3.7496H29.4285V0H33.7921Z" fill="#504E4E"/>
<path fill-rule="evenodd" clip-rule="evenodd" d="M99.9675 6C104.084 6 107.196 8.42407 111.261 12.4986C115.325 8.42407 118.438 6 122.554 6H122.657L122.843 6.00151C128.039 6.0881 131.455 9.80171 131.43 15.0515C131.43 20.2091 128.137 24 122.709 24H122.503C118.001 24 114.682 20.8796 111.261 17.4498C107.839 20.8796 104.521 24 100.07 24H99.7876C94.3852 24 91.0664 20.2091 91.0664 15.0515C91.0664 9.7392 94.5653 6 99.8645 6H99.9675ZM122.297 9.48133C119.133 9.48133 116.714 11.467 113.242 14.8968C115.917 17.424 118.747 20.5959 122.4 20.5959C125.615 20.5959 127.442 18.3008 127.442 15.0773C127.442 11.5702 125.667 9.48133 122.297 9.48133ZM100.225 9.48133C96.8545 9.48133 95.0797 11.596 95.0797 15.0773C95.0797 18.275 96.9059 20.5959 100.122 20.5959C103.698 20.5959 106.605 17.424 109.28 14.8968C105.678 11.467 103.44 9.48133 100.225 9.48133Z" fill="#504E4E"/>
</svg>
