<svg width="124" height="30" viewBox="0 0 124 30" fill="none" xmlns="http://www.w3.org/2000/svg">
<path d="M14.2279 8.19518C13.4454 6.98035 12.4571 6.07438 11.2217 5.47727C10.0069 4.88015 8.73027 4.57129 7.3919 4.57129C6.19767 4.57129 5.10638 4.81837 4.13864 5.29195C3.1709 5.78611 2.40906 6.46559 1.83253 7.37157V4.90073H0V29.4649H1.8943V20.7964V19.1904V17.5432C2.24434 17.9755 2.59437 18.3462 2.94441 18.6344C3.29444 18.9227 3.5827 19.1286 3.8092 19.2727C4.03569 19.4169 4.46809 19.6228 5.0652 19.911C5.66232 20.1993 6.48593 20.3434 7.55662 20.3434C8.50378 20.3434 9.45093 20.1581 10.4187 19.7669C11.3658 19.3757 12.21 18.8609 12.9513 18.202C13.6719 17.5432 14.269 16.7195 14.7014 15.69C15.1338 14.6605 15.3809 13.6104 15.3809 12.4574C15.3809 10.8307 14.9897 9.41 14.2279 8.19518ZM12.5806 15.4224C12.3336 15.9165 12.0453 16.3283 11.6953 16.699C11.3452 17.0696 10.8511 17.4402 10.1716 17.852C9.49211 18.2638 8.64791 18.4491 7.59781 18.4491C6.85656 18.4491 6.1359 18.305 5.43583 17.9755C4.73576 17.6461 4.13864 17.1931 3.60329 16.6166C3.06795 16.0195 2.65614 15.3606 2.34729 14.5987C2.05903 13.8369 1.8943 13.0751 1.8943 12.3338C1.8943 11.6132 2.03844 10.8719 2.34729 10.1512C2.65614 9.41 3.06795 8.75112 3.64448 8.154C4.20041 7.57747 4.81812 7.12449 5.47701 6.81563C6.1359 6.50678 6.83596 6.36264 7.55662 6.36264H8.09197C8.4626 6.40382 8.83322 6.4656 9.22444 6.58914C9.59506 6.71268 10.0069 6.8774 10.4599 7.14507C10.9128 7.39215 11.3658 7.80396 11.8394 8.3599C12.313 8.91584 12.6836 9.57473 12.9719 10.2954C13.2189 11.0778 13.3425 11.8191 13.3425 12.5397C13.3425 13.5692 13.0954 14.537 12.5806 15.4224Z" fill="#504E4E"/>
<path d="M28.5798 11.2835V19.9314H26.6649V11.4276C26.6649 9.88332 26.3354 8.6479 25.6765 7.76252C25.0176 6.85655 23.9058 6.40357 22.3821 6.40357C21.5791 6.40357 20.8378 6.56829 20.1377 6.89774C19.4377 7.22718 18.9435 7.70076 18.5935 8.25669C18.264 8.83322 18.0581 9.34797 17.9758 9.84214C17.914 10.3363 17.8728 10.6863 17.8522 10.9128C17.8316 11.1393 17.8316 11.51 17.8316 12.0041V12.5601V19.9108H15.9785V0H17.8316V6.60947C18.7376 5.66232 19.52 5.10638 20.1995 4.94166C20.879 4.77694 21.3938 4.67399 21.7438 4.61222C22.0732 4.55045 22.4233 4.52986 22.7527 4.52986C23.9058 4.52986 25.1618 4.94166 26.5207 5.76527C27.9003 6.60947 28.5798 8.442 28.5798 11.2835Z" fill="#504E4E"/>
<path d="M31.6883 19.9313H29.7734V4.87981H31.6883V19.9313ZM29.7734 0.0205078H31.6883V3.12963H29.7734V0.0205078Z" fill="#504E4E"/>
<path d="M35.3954 0.0205078H33.4805V19.9313H35.3954V0.0205078Z" fill="#504E4E"/>
<path d="M41.3247 12.3747C41.3247 13.4865 41.6953 14.3719 42.416 15.0308C43.1572 15.6691 44.0014 15.9985 44.9897 15.9985C45.6486 15.9985 46.2663 15.8544 46.8429 15.5456C47.4194 15.2573 47.8724 14.8249 48.2224 14.2896C48.5519 13.7542 48.7372 13.0953 48.7372 12.3541C48.7372 11.5511 48.5725 10.8922 48.2224 10.3568C47.893 9.82147 47.4194 9.40966 46.8429 9.10081C46.2663 8.79196 45.6486 8.64783 44.9692 8.64783C44.3514 8.64783 43.7543 8.79196 43.1984 9.05963C42.6425 9.3479 42.1895 9.7597 41.8394 10.3156C41.51 10.8716 41.3247 11.5511 41.3247 12.3747ZM41.3247 18.2223V19.8695H37.0625V0.0205078H41.5512V6.56821C42.663 5.27102 44.0426 4.61214 45.731 4.61214C46.637 4.61214 47.5429 4.81804 48.4283 5.20925C49.2931 5.60047 50.0961 6.13581 50.8168 6.83588C51.5374 7.53595 52.0934 8.35956 52.5052 9.30671C52.9376 10.1921 53.1435 11.201 53.1435 12.3335C53.1435 13.4248 52.9376 14.4337 52.5464 15.3808C52.1346 16.328 51.5992 17.1516 50.8991 17.8517C50.2197 18.5517 49.4578 19.0871 48.6136 19.4371C47.79 19.7872 46.8841 19.9931 45.9163 19.9931C44.1867 20.0342 42.663 19.4165 41.3247 18.2223Z" fill="#504E4E"/>
<path d="M57.3449 10.8713H64.325C64.0573 10.0683 63.5631 9.47121 62.8631 9.0594C62.163 8.6476 61.4423 8.4417 60.7011 8.4417C60.2481 8.4417 59.7745 8.52406 59.2804 8.72996C58.7862 8.91527 58.3744 9.18294 58.0449 9.55357C57.7361 9.88301 57.489 10.3154 57.3449 10.8713ZM63.2337 15.6071H68.0724C66.5281 18.7368 64.0985 20.3017 60.7834 20.3017C59.3421 20.3017 58.0038 19.9516 56.8095 19.231C55.6153 18.5103 54.6681 17.5426 53.9681 16.3278C53.268 15.1129 52.918 13.7952 52.918 12.3744V11.5302C52.918 10.8713 53.0415 10.2536 53.268 9.67711C53.4945 9.10058 53.9063 8.40051 54.5034 7.55631C55.1005 6.7327 55.9859 5.99145 57.1801 5.39433C58.3744 4.77663 59.6304 4.46777 60.907 4.46777C61.6276 4.46777 62.4513 4.59132 63.3572 4.8384C64.2632 5.08548 65.128 5.57965 65.9722 6.3209C66.8164 7.06215 67.4341 7.86517 67.8253 8.72996C68.2371 9.59475 68.4842 10.4389 68.5872 11.2626C68.7107 11.9832 68.7725 12.8892 68.7725 13.9805H57.4272C57.6331 14.6805 57.942 15.2159 58.3744 15.6071C58.8068 15.9983 59.3627 16.2454 60.0834 16.3689L60.907 16.4513C61.6276 16.4513 62.3895 16.163 63.2337 15.6071Z" fill="#504E4E"/>
<path d="M73.0128 12.3541C73.0128 13.0953 73.1776 13.7542 73.5276 14.2896C73.8776 14.8455 74.3306 15.2573 74.9277 15.525C75.5043 15.8132 76.122 15.9368 76.7603 15.9368C77.3986 15.9368 77.9957 15.8132 78.5516 15.525C79.1076 15.2573 79.5605 14.8455 79.9106 14.2896C80.24 13.7336 80.4047 13.0953 80.4047 12.3541C80.4047 11.5511 80.24 10.8716 79.9106 10.3156C79.5811 9.7597 79.1281 9.3479 78.5516 9.05963C77.9751 8.77137 77.378 8.62724 76.7397 8.62724C76.1014 8.62724 75.5043 8.77137 74.9277 9.05963C74.3512 9.3479 73.8982 9.78029 73.5482 10.3568C73.1776 10.9539 73.0128 11.5922 73.0128 12.3541ZM84.6875 4.9004V19.8901H80.4047V18.2429C79.087 19.4371 77.5839 20.0342 75.8543 20.0342C74.866 20.0342 73.9806 19.8489 73.1158 19.4783C72.2716 19.1077 71.5098 18.5723 70.8097 17.8929C70.1302 17.1928 69.5743 16.3692 69.1831 15.4014C68.7712 14.4337 68.5859 13.4248 68.5859 12.3747C68.5859 11.3246 68.7918 10.3362 69.2242 9.36849C69.636 8.42134 70.2126 7.59773 70.9126 6.89766C71.6127 6.19759 72.4157 5.64165 73.3217 5.25044C74.2277 4.85922 75.1336 4.65332 76.0396 4.65332C76.8014 4.65332 77.5633 4.79745 78.2839 5.1063C79.0252 5.41516 79.6841 5.90933 80.2812 6.60939V4.92099H84.6875V4.9004Z" fill="#504E4E"/>
<path d="M95.416 13.0536V4.8999H99.7194V19.9514H95.6219V17.9335C95.1072 18.6748 94.4894 19.2513 93.7276 19.6425C92.9658 20.0337 92.1627 20.2396 91.2774 20.2396H90.8656C90.5361 20.2396 90.2273 20.1985 89.8772 20.0749C89.5478 19.972 89.1154 19.8073 88.6006 19.5602C88.0859 19.3131 87.6947 19.0454 87.427 18.716C87.1593 18.4071 86.974 18.1394 86.871 17.9541C86.7681 17.7688 86.6446 17.5629 86.5416 17.3364C86.3975 16.904 86.2945 16.5128 86.2328 16.1628L86.1504 14.7832V4.8999H90.5773V13.0536C90.5773 13.2595 90.5773 13.4655 90.5979 13.6714C90.5979 13.8773 90.6597 14.2067 90.742 14.6391C90.845 15.0715 91.0509 15.4215 91.3803 15.7098C91.7098 15.9775 92.1833 16.1216 92.8216 16.1216C93.707 16.1216 94.3453 15.8333 94.7571 15.2774C95.2101 14.7009 95.416 13.9596 95.416 13.0536Z" fill="#504E4E"/>
<path d="M106.369 19.9313H101.881V8.17425H98.998V4.9004H101.881V0.0205078H106.369V4.9004H109.252L109.89 8.17425H106.369V19.9313Z" fill="#504E4E"/>
<path d="M112.814 29.9994L123.562 4.8999H118.785L115.635 13.6302L112.772 4.8999H107.893L113.39 18.9836L108.387 29.9994H112.814Z" fill="#504E4E"/>
<path d="M6.05227 23.0603V24.7899H6.56702L6.85529 24.7693C6.89647 24.7487 6.93765 24.7487 6.97883 24.7487C7.02001 24.7281 7.0406 24.7075 7.08178 24.687C7.12296 24.6664 7.16414 24.6458 7.18473 24.6046C7.22591 24.584 7.2465 24.5428 7.30827 24.4811C7.34945 24.4193 7.37004 24.3369 7.41122 24.2546C7.43181 24.1722 7.4524 24.1104 7.4524 24.0487C7.4524 24.0075 7.4524 23.9457 7.4524 23.8839C7.4524 23.7192 7.43181 23.5545 7.34945 23.4309C7.28768 23.2868 7.18473 23.1839 7.06119 23.1221C6.91706 23.0603 6.71115 23.0397 6.4023 23.0397H6.1964H6.05227V23.0603ZM6.05227 25.2223V27.096H5.68164V22.6279H6.54643C6.73174 22.6279 6.91706 22.6485 7.08178 22.6691C7.22591 22.7103 7.34945 22.7927 7.47299 22.9162C7.59653 23.0397 7.6789 23.1633 7.76126 23.3692C7.82303 23.5545 7.86421 23.7398 7.86421 23.9251V23.9663V24.0075C7.86421 24.234 7.80244 24.4605 7.6583 24.687C7.51417 24.8929 7.34945 25.037 7.16414 25.1399C6.97883 25.2223 6.75233 25.2635 6.48466 25.2635H6.38171H6.23758H6.05227V25.2223Z" fill="#504E4E"/>
<path d="M11.0778 25.1399V27.0754H10.7277V25.1605C10.7277 24.8105 10.666 24.5428 10.5424 24.3369C10.4189 24.131 10.213 24.0281 9.9247 24.0281C9.78057 24.0281 9.63644 24.0692 9.5129 24.131C9.38936 24.1928 9.28641 24.2957 9.22464 24.4399C9.16286 24.5634 9.12168 24.687 9.10109 24.7899C9.10109 24.8929 9.0805 24.9752 9.0805 25.037C9.0805 25.0782 9.0805 25.1605 9.0805 25.2841V25.4076V27.0548H8.73047V22.6279H9.0805V24.1104C9.24522 23.9045 9.38936 23.781 9.5129 23.7398C9.63644 23.7192 9.73939 23.678 9.80116 23.6574C9.86293 23.6574 9.9247 23.6369 9.98647 23.6369C10.1924 23.6369 10.4395 23.7192 10.6865 23.9251C10.9542 24.0898 11.0778 24.5016 11.0778 25.1399Z" fill="#504E4E"/>
<path d="M12.0859 27.0754H12.436V23.6986H12.0859V27.0754ZM12.0859 23.328H12.436V22.6279H12.0859V23.328Z" fill="#504E4E"/>
<path d="M13.8149 22.6279H13.4648V27.096H13.8149V22.6279Z" fill="#504E4E"/>
<path d="M14.8262 27.0754H15.1762V23.6986H14.8262V27.0754ZM14.8262 23.328H15.1762V22.6279H14.8262V23.328Z" fill="#504E4E"/>
<path d="M16.5336 25.388C16.5336 25.5527 16.5542 25.7174 16.616 25.9027C16.6778 26.0674 16.7395 26.2322 16.8425 26.3557C16.9454 26.4998 17.0484 26.5822 17.1925 26.6645C17.3161 26.7469 17.4602 26.7675 17.6043 26.7675C17.8102 26.7675 17.9544 26.7263 18.0779 26.6234C18.2014 26.541 18.3044 26.4381 18.3662 26.3557C18.4279 26.2733 18.4897 26.191 18.5309 26.0674C18.6338 25.8615 18.675 25.6556 18.675 25.4085C18.675 25.2644 18.6544 25.0791 18.6132 24.9144C18.5721 24.7497 18.4897 24.6055 18.4073 24.482C18.325 24.3584 18.2426 24.2761 18.1603 24.2143C18.0779 24.1525 17.9955 24.1114 17.9338 24.0908C17.872 24.0702 17.7896 24.0496 17.7279 24.0496H17.6249C17.5014 24.0496 17.3572 24.0908 17.2337 24.1525C17.1102 24.2143 16.9866 24.3173 16.8837 24.4614C16.7807 24.5849 16.6984 24.7291 16.6366 24.9144C16.5748 25.0585 16.5336 25.2232 16.5336 25.388ZM16.5336 28.1676H16.1836V23.6996H16.5336V24.2555C16.6366 24.0496 16.7807 23.9055 16.966 23.7819C17.1513 23.679 17.3572 23.6172 17.5837 23.6172C17.8308 23.6172 18.0779 23.679 18.3044 23.8231C18.5309 23.9672 18.7162 24.1525 18.8603 24.4408C19.0045 24.7085 19.0662 25.0379 19.0662 25.388C19.0662 25.6556 19.025 25.8821 18.9427 26.1086C18.8603 26.3351 18.7574 26.5204 18.6132 26.6645C18.4691 26.8087 18.325 26.9322 18.1397 27.0146C17.9544 27.0969 17.7896 27.1381 17.6043 27.1381C17.3984 27.1381 17.2543 27.0969 17.1307 27.0352C17.0278 26.9734 16.9454 26.9116 16.9043 26.891C16.8631 26.8499 16.8013 26.8087 16.7395 26.7469C16.6778 26.6851 16.616 26.6028 16.5336 26.4998V26.8705V27.2411V28.1676Z" fill="#504E4E"/>
<path d="M20.2602 25.388C20.2602 25.5527 20.2808 25.7174 20.3426 25.9027C20.4043 26.0674 20.4661 26.2322 20.569 26.3557C20.672 26.4998 20.7749 26.5822 20.9191 26.6645C21.0426 26.7469 21.1868 26.7675 21.3309 26.7675C21.5162 26.7675 21.6809 26.7263 21.8045 26.6234C21.928 26.541 22.031 26.4381 22.0927 26.3557C22.1545 26.2733 22.2163 26.191 22.2574 26.0674C22.3604 25.8615 22.4016 25.6556 22.4016 25.4085C22.4016 25.2644 22.381 25.0791 22.3398 24.9144C22.278 24.7497 22.2163 24.6055 22.1339 24.482C22.0515 24.3584 21.9486 24.2761 21.8662 24.2143C21.7839 24.1525 21.7015 24.1114 21.6397 24.0908C21.578 24.0702 21.4956 24.0496 21.4338 24.0496H21.3309C21.1868 24.0496 21.0632 24.0908 20.9397 24.1525C20.8161 24.2143 20.6926 24.3173 20.5896 24.4614C20.4867 24.5849 20.4043 24.7291 20.3426 24.9144C20.3014 25.0585 20.2602 25.2232 20.2602 25.388ZM20.2602 28.1676H19.9102V23.6996H20.2602V24.2555C20.3631 24.0496 20.5073 23.9055 20.6926 23.7819C20.8779 23.679 21.0838 23.6172 21.2897 23.6172C21.5368 23.6172 21.7839 23.679 22.0104 23.8231C22.2369 23.9672 22.4222 24.1525 22.5663 24.4408C22.7104 24.7085 22.7928 25.0379 22.7928 25.388C22.7928 25.6556 22.7516 25.8821 22.6692 26.1086C22.5869 26.3351 22.4839 26.5204 22.3398 26.6645C22.1957 26.8087 22.0515 26.9322 21.8662 27.0146C21.6809 27.0969 21.5162 27.1381 21.3309 27.1381C21.125 27.1381 20.9808 27.0969 20.8573 27.0352C20.7544 26.9734 20.672 26.9116 20.6102 26.891C20.569 26.8499 20.5073 26.8087 20.4455 26.7469C20.3837 26.6851 20.322 26.6028 20.2396 26.4998V26.8705V27.2411V28.1676H20.2602Z" fill="#504E4E"/>
<path d="M23.6582 27.0754H24.0082V23.6986H23.6582V27.0754ZM23.6582 23.328H24.0082V22.6279H23.6582V23.328Z" fill="#504E4E"/>
<path d="M27.364 25.1409V27.0764H27.0139V25.182C27.0139 24.9556 26.9933 24.7497 26.9728 24.6055C26.9316 24.4614 26.8698 24.3379 26.7463 24.2143C26.6227 24.0908 26.458 24.029 26.2521 24.029H26.108C26.0462 24.029 25.9638 24.0496 25.9021 24.0702C25.8403 24.0908 25.7579 24.1525 25.655 24.2143C25.5726 24.2967 25.4903 24.3996 25.4285 24.5643C25.3667 24.7291 25.3461 24.9556 25.3461 25.2644V25.4291V27.0764H24.9961V23.6996H25.3461V24.0702C25.5932 23.7613 25.8815 23.6172 26.2521 23.6172C26.4168 23.6172 26.5815 23.6584 26.7669 23.7407C27.1787 23.9878 27.364 24.4408 27.364 25.1409Z" fill="#504E4E"/>
<path d="M28.6 25.182H30.7208C30.6385 24.832 30.5149 24.5437 30.3502 24.3378C30.1649 24.1525 29.9384 24.0496 29.6295 24.0496C29.4236 24.0496 29.2589 24.1114 29.1148 24.1937C28.9707 24.2761 28.8471 24.4202 28.7648 24.5849C28.703 24.7497 28.6412 24.9556 28.6 25.182ZM31.1326 25.5321H28.6C28.6206 25.6968 28.6412 25.7792 28.6412 25.7792C28.6412 25.7998 28.6618 25.8409 28.6824 25.9645C28.703 26.0674 28.7648 26.1704 28.8471 26.2939C28.9295 26.3969 29.0118 26.4998 29.1354 26.5822C29.2383 26.6646 29.3413 26.7057 29.4236 26.7263C29.5266 26.7469 29.609 26.7675 29.6913 26.7675C29.8766 26.7675 30.0619 26.7057 30.2267 26.6028C30.3914 26.4792 30.5561 26.2939 30.6591 26.0263H31.0709C30.9885 26.2733 30.8856 26.4586 30.7414 26.644C30.6179 26.8087 30.4737 26.9528 30.2884 27.0558C30.1031 27.1587 29.9178 27.1999 29.7119 27.1999C29.4442 27.1999 29.1972 27.1175 28.9707 26.9528C28.7442 26.7881 28.5589 26.5822 28.4353 26.2939C28.3118 26.0262 28.25 25.7174 28.25 25.388C28.25 25.0585 28.3118 24.7497 28.4559 24.482C28.5794 24.2143 28.7648 23.9878 28.9912 23.8437C29.2177 23.6995 29.4648 23.6172 29.7325 23.6172H29.856C29.8766 23.6172 29.9796 23.6172 30.1237 23.6584C30.2678 23.6996 30.412 23.7819 30.5973 23.926C30.762 24.0908 30.9061 24.2555 31.0091 24.5026C31.0709 24.6261 31.112 24.7908 31.1532 24.9556C31.112 25.1203 31.1326 25.3262 31.1326 25.5321Z" fill="#504E4E"/>
<path d="M31.7715 26.0262H32.1421C32.1421 26.1909 32.1627 26.335 32.2245 26.4586C32.2862 26.5821 32.348 26.6645 32.451 26.7262C32.5333 26.7674 32.6157 26.788 32.6775 26.788C32.7598 26.788 32.8422 26.7674 32.9245 26.7056C33.0069 26.6439 33.0687 26.5821 33.1099 26.4997C33.151 26.4174 33.1716 26.3144 33.1716 26.2321C33.1716 26.1085 33.1304 25.985 33.0687 25.8614C33.0069 25.7379 32.904 25.6761 32.7804 25.6144L32.4304 25.4496C32.3068 25.3879 32.2245 25.3261 32.1421 25.2437C32.0597 25.1614 31.998 25.0584 31.9774 24.9349C31.9362 24.8113 31.9156 24.6878 31.9156 24.6054C31.9156 24.5437 31.9156 24.4819 31.9362 24.4201C31.9362 24.3584 31.9568 24.2966 31.998 24.1936C32.0392 24.0907 32.1215 23.9877 32.2245 23.8436C32.348 23.7201 32.5127 23.6377 32.7392 23.6377C32.8628 23.6377 32.9863 23.6789 33.1099 23.7406C33.254 23.8024 33.3569 23.9054 33.4187 24.0495C33.4805 24.1936 33.5217 24.3584 33.5422 24.5643H33.1304C33.1099 24.3172 33.0069 24.1525 32.8628 24.0907L32.7186 24.0701C32.5951 24.0701 32.5127 24.1113 32.4098 24.2142C32.3274 24.2966 32.2862 24.4201 32.2862 24.5848C32.2862 24.6672 32.3068 24.729 32.3068 24.7908C32.3274 24.8525 32.3686 24.9143 32.451 24.9761C32.5127 25.0378 32.5951 25.079 32.6775 25.1202L32.9245 25.2231C32.9863 25.2437 33.0275 25.2643 33.0481 25.2643C33.0687 25.2643 33.1099 25.3055 33.2128 25.3673C33.3158 25.429 33.3775 25.532 33.4599 25.6761C33.5422 25.8203 33.5628 26.0056 33.5628 26.1909C33.5628 26.3556 33.5217 26.5203 33.4599 26.6851C33.3981 26.8498 33.2952 26.9733 33.151 27.0763C33.0069 27.1792 32.8628 27.2204 32.6775 27.2204C32.4921 27.2204 32.348 27.1792 32.2451 27.0969C32.1215 27.0145 32.0392 26.9321 31.998 26.8498C31.9362 26.7674 31.9156 26.7056 31.895 26.6439C31.8744 26.5821 31.8538 26.5203 31.8333 26.438C31.8127 26.3556 31.8127 26.2732 31.7921 26.2115C31.7921 26.1497 31.7715 26.0879 31.7715 26.0262Z" fill="#504E4E"/>
<path d="M36.6499 22.6279H36.2793V27.096H36.6499V22.6279Z" fill="#504E4E"/>
<path d="M40.0689 25.1409V27.0764H39.7189V25.182C39.7189 24.9556 39.6983 24.7497 39.6777 24.6055C39.6571 24.4614 39.5747 24.3379 39.4718 24.2143C39.3482 24.0908 39.1835 24.029 38.9776 24.029H38.8335C38.7717 24.029 38.6893 24.0496 38.6276 24.0702C38.5658 24.0908 38.4834 24.1525 38.4011 24.2143C38.2981 24.2967 38.2364 24.3996 38.1746 24.5643C38.1128 24.7291 38.0922 24.9556 38.0922 25.2644V25.4291V27.0764H37.7422V23.6996H38.0922V24.0702C38.3393 23.7613 38.6276 23.6172 38.9776 23.6172C39.1423 23.6172 39.307 23.6584 39.4924 23.7407C39.863 23.9878 40.0689 24.4408 40.0689 25.1409Z" fill="#504E4E"/>
<path d="M41.6755 24.1516V27.0754H41.3049V24.1516H40.7695V23.7192H41.3049V22.6279H41.6755V23.7192H42.2108V24.1516H41.6755Z" fill="#504E4E"/>
<path d="M43.138 25.182H45.2794C45.2177 24.832 45.0941 24.5437 44.9088 24.3378C44.7441 24.1525 44.497 24.0496 44.2087 24.0496C44.0028 24.0496 43.8175 24.1114 43.694 24.1937C43.5498 24.2761 43.4263 24.4202 43.3439 24.5849C43.241 24.7497 43.1792 24.9556 43.138 25.182ZM45.6706 25.5321H43.138C43.1586 25.6968 43.1792 25.7792 43.1792 25.7792C43.1792 25.7998 43.1998 25.8409 43.2204 25.9645C43.241 26.0674 43.3028 26.1704 43.3851 26.2939C43.4675 26.3969 43.5498 26.4998 43.6734 26.5822C43.7763 26.6646 43.8793 26.7057 43.9616 26.7263C44.0646 26.7469 44.147 26.7675 44.2293 26.7675C44.4146 26.7675 44.5999 26.7057 44.7647 26.6028C44.9294 26.4792 45.0941 26.2939 45.1971 26.0263H45.6089C45.5265 26.2733 45.4236 26.4586 45.3 26.644C45.1765 26.8087 45.0117 26.9528 44.847 27.0558C44.6617 27.1587 44.4764 27.1999 44.2705 27.1999C44.0028 27.1999 43.7557 27.1175 43.5293 26.9528C43.3028 26.7881 43.1174 26.5822 42.9939 26.2939C42.8704 26.0262 42.8086 25.7174 42.8086 25.388C42.8086 25.0585 42.8704 24.7497 43.0145 24.482C43.1586 24.2143 43.3234 23.9878 43.5498 23.8437C43.7763 23.6995 44.0234 23.6172 44.2911 23.6172H44.4146C44.4352 23.6172 44.5382 23.6172 44.6617 23.6584C44.8058 23.6996 44.95 23.7819 45.1353 23.926C45.3 24.0908 45.4441 24.2555 45.5471 24.5026C45.6089 24.6261 45.65 24.7908 45.6912 24.9556C45.65 25.1203 45.6706 25.3262 45.6706 25.5321Z" fill="#504E4E"/>
<path d="M46.8637 25.0378V27.0763H46.5137V23.6995H46.8431V24.0907C46.9255 23.9466 47.0284 23.8436 47.1314 23.7612C47.2343 23.6995 47.3579 23.6377 47.4814 23.6377V24.1113C47.3167 24.1113 47.152 24.1936 47.0078 24.3378C46.9461 24.4407 46.9049 24.5231 46.8843 24.6466C46.8637 24.7702 46.8637 24.8937 46.8637 25.0378Z" fill="#504E4E"/>
<path d="M50.5905 25.1409V27.0764H50.2199V25.182C50.2199 24.9556 50.2199 24.7497 50.1787 24.6055C50.1581 24.4614 50.0758 24.3379 49.9522 24.2143C49.8287 24.0908 49.6846 24.029 49.4581 24.029H49.3139C49.2522 24.029 49.1698 24.0496 49.108 24.0702C49.0463 24.0908 48.9639 24.1525 48.8815 24.2143C48.7992 24.2967 48.7168 24.3996 48.655 24.5643C48.5933 24.7291 48.5727 24.9556 48.5727 25.2644V25.4291V27.0764H48.2227V23.6996H48.5727V24.0702C48.8198 23.7613 49.108 23.6172 49.4581 23.6172C49.6228 23.6172 49.7875 23.6584 49.9728 23.7407C50.3846 23.9878 50.5905 24.4408 50.5905 25.1409Z" fill="#504E4E"/>
<path d="M53.9456 25.3878C53.9456 25.1613 53.9044 24.9348 53.8015 24.7289C53.6985 24.523 53.575 24.3583 53.4103 24.2347C53.2455 24.1112 53.0808 24.0494 52.8955 24.0494H52.7926C52.6484 24.07 52.5043 24.1112 52.4013 24.1936C52.2778 24.2553 52.1748 24.3789 52.0925 24.5024C51.9895 24.6465 51.9278 24.7907 51.8866 24.9348C51.8454 25.0995 51.8248 25.2642 51.8248 25.429V25.5525C51.8248 25.6555 51.8248 25.7584 51.866 25.8614C51.8866 25.9643 51.9484 26.0673 52.0101 26.2114C52.0925 26.3555 52.1954 26.4791 52.3602 26.6026C52.5249 26.7261 52.6896 26.7673 52.8955 26.7673C53.0808 26.7673 53.2661 26.7056 53.4309 26.5614C53.5956 26.4379 53.7191 26.2526 53.8221 26.0467C53.9044 25.8408 53.9456 25.6143 53.9456 25.3878ZM54.2956 27.0762H53.9456V26.5408C53.8221 26.7467 53.6779 26.9115 53.4926 27.0144C53.3073 27.1174 53.122 27.1791 52.8955 27.1791C52.7102 27.1791 52.5661 27.138 52.4219 27.0968C52.2778 27.035 52.1748 26.9938 52.1131 26.9321C52.0307 26.8909 51.9484 26.7879 51.8454 26.685C51.7424 26.5614 51.6395 26.3967 51.5571 26.1702C51.4748 25.9437 51.4336 25.6966 51.4336 25.429C51.4336 25.1819 51.4748 24.9348 51.5571 24.7083C51.6395 24.4818 51.763 24.2759 51.9072 24.1318C52.0513 23.9671 52.1954 23.8641 52.3807 23.7817C52.5455 23.6994 52.7308 23.6582 52.9161 23.6582C53.0602 23.6582 53.1838 23.6788 53.3073 23.72C53.4308 23.7612 53.5544 23.8435 53.6573 23.9259C53.7809 24.0082 53.8632 24.1318 53.9456 24.2759V23.7406H54.2956V27.0762Z" fill="#504E4E"/>
<path d="M55.9236 24.1516V27.0754H55.5529V24.1516H55.0176V23.7192H55.5529V22.6279H55.9236V23.7192H56.4383V24.1516H55.9236Z" fill="#504E4E"/>
<path d="M57.1582 27.0754H57.5082V23.6986H57.1582V27.0754ZM57.1582 23.328H57.5082V22.6279H57.1582V23.328Z" fill="#504E4E"/>
<path d="M58.7447 25.3875C58.7447 25.5317 58.7653 25.6552 58.7859 25.7993C58.8065 25.9229 58.8683 26.067 58.9506 26.2317C59.033 26.3759 59.1565 26.52 59.3213 26.623C59.486 26.7259 59.6713 26.7877 59.836 26.7877C60.0213 26.7877 60.1861 26.7465 60.3508 26.623C60.5155 26.52 60.639 26.3759 60.742 26.1494C60.8449 25.9435 60.8861 25.6964 60.8861 25.3875C60.8861 25.1816 60.8655 24.9757 60.8038 24.7904C60.742 24.6257 60.6596 24.4816 60.5773 24.358C60.4743 24.2345 60.3714 24.1521 60.2272 24.0904C60.1449 24.0492 60.0625 24.0286 60.0213 24.0286C59.9596 24.008 59.8978 24.008 59.836 24.008C59.6919 24.008 59.5683 24.0286 59.4448 24.0904C59.3213 24.1521 59.2183 24.2345 59.0948 24.358C58.9918 24.4816 58.9095 24.6257 58.8477 24.7904C58.7859 24.9757 58.7447 25.1816 58.7447 25.3875ZM58.3535 25.4081C58.3535 25.161 58.3947 24.9346 58.4771 24.7287C58.5594 24.5228 58.6624 24.3374 58.8065 24.1521C58.9506 23.9668 59.1154 23.8433 59.3007 23.7403C59.486 23.6374 59.6713 23.5962 59.8566 23.5962H59.9596C60.2066 23.6168 60.4125 23.7197 60.5773 23.8433C60.742 23.9668 60.8449 24.0904 60.9273 24.1933C61.0097 24.2963 61.092 24.4404 61.1744 24.6463C61.2567 24.8316 61.2979 25.0787 61.2979 25.3669C61.2979 25.6346 61.2567 25.8817 61.1744 26.1082C61.092 26.3347 60.9685 26.5406 60.8038 26.7259C60.6802 26.87 60.5567 26.973 60.3919 27.0554C60.2272 27.1377 60.0625 27.1789 59.8566 27.1789H59.7948C59.6095 27.1789 59.4448 27.1377 59.3213 27.0554C59.1977 26.973 59.0948 26.9112 59.0124 26.8494C58.93 26.7877 58.8683 26.7053 58.8065 26.623C58.683 26.4582 58.58 26.2729 58.4976 26.0464C58.4153 25.8199 58.3535 25.614 58.3535 25.4081Z" fill="#504E4E"/>
<path d="M64.4684 25.1409V27.0764H64.1184V25.182C64.1184 24.9556 64.0978 24.7497 64.0772 24.6055C64.0566 24.4614 63.9742 24.3379 63.8507 24.2143C63.7271 24.0908 63.5624 24.029 63.3771 24.029H63.2124C63.1506 24.029 63.0682 24.0496 63.0065 24.0702C62.9447 24.0908 62.8623 24.1525 62.78 24.2143C62.6976 24.2967 62.6153 24.3996 62.5535 24.5643C62.4917 24.7291 62.4711 24.9556 62.4711 25.2644V25.4291V27.0764H62.1211V23.6996H62.4711V24.0702C62.7182 23.7613 63.0065 23.6172 63.3771 23.6172C63.5418 23.6172 63.7065 23.6584 63.8713 23.7407C64.2625 23.9878 64.4684 24.4408 64.4684 25.1409Z" fill="#504E4E"/>
<path d="M67.846 25.3878C67.846 25.1613 67.8048 24.9348 67.7019 24.7289C67.5989 24.523 67.4754 24.3583 67.3107 24.2347C67.1459 24.1112 66.9812 24.0494 66.7959 24.0494H66.6929C66.5488 24.07 66.4253 24.1112 66.3017 24.1936C66.1782 24.2553 66.0752 24.3789 65.9929 24.5024C65.8899 24.6465 65.8282 24.7907 65.787 24.9348C65.7458 25.0995 65.7252 25.2642 65.7252 25.429V25.5525C65.7252 25.6555 65.7458 25.7584 65.7664 25.8614C65.787 25.9643 65.8487 26.0673 65.9311 26.2114C66.0135 26.3555 66.1164 26.4791 66.2811 26.6026C66.4459 26.7261 66.6106 26.7673 66.7959 26.7673C67.0018 26.7673 67.1665 26.7056 67.3312 26.5614C67.496 26.4379 67.6195 26.2526 67.7225 26.0467C67.8048 25.8408 67.846 25.6143 67.846 25.3878ZM68.196 27.0762H67.846V26.5408C67.7225 26.7467 67.5783 26.9115 67.393 27.0144C67.2077 27.1174 67.0224 27.1791 66.7959 27.1791C66.6106 27.1791 66.4665 27.138 66.3223 27.0968C66.1782 27.035 66.0752 26.9938 66.0135 26.9321C65.9311 26.8909 65.8487 26.7879 65.7458 26.685C65.6428 26.5614 65.5399 26.3967 65.4575 26.1702C65.3752 25.9437 65.334 25.6966 65.334 25.429C65.334 25.1819 65.3752 24.9348 65.4781 24.7083C65.5605 24.4818 65.684 24.2759 65.8281 24.1318C65.9723 23.9671 66.1164 23.8641 66.3017 23.7817C66.4665 23.6994 66.6518 23.6582 66.8371 23.6582C66.9812 23.6582 67.1047 23.6788 67.2283 23.72C67.3518 23.7612 67.4548 23.8435 67.5783 23.9259C67.6813 24.0082 67.7842 24.1318 67.8666 24.2759V23.7406H68.2166V27.0762H68.196Z" fill="#504E4E"/>
<path d="M69.5532 22.6279H69.2031V27.096H69.5532V22.6279Z" fill="#504E4E"/>
<path d="M72.7875 24.9546V26.6636L72.9728 26.6842H73.117H73.2199C73.467 26.6842 73.6935 26.643 73.8582 26.5401C74.0435 26.4371 74.1465 26.2518 74.1877 25.9841V25.8194C74.1877 25.7165 74.1877 25.6135 74.1465 25.5312C74.1259 25.4488 74.0847 25.3664 74.0435 25.3047C74.0024 25.2429 73.9612 25.2017 73.92 25.1811C73.8994 25.1605 73.8582 25.1194 73.817 25.0988C73.6935 25.0164 73.4876 24.9752 73.2199 24.9752H72.9934H72.7875V24.9546ZM72.7875 23.0397V24.5428H72.9934C73.1993 24.5428 73.3641 24.5222 73.4876 24.5016C73.6111 24.4811 73.7347 24.3987 73.817 24.2957C73.92 24.1722 73.9612 24.0075 73.9612 23.781C73.9612 23.6369 73.92 23.5133 73.8788 23.3898C73.817 23.2868 73.7553 23.225 73.6935 23.2045C73.6317 23.1633 73.57 23.1427 73.5082 23.1221C73.467 23.1015 73.4052 23.0809 73.3435 23.0809C73.2817 23.0809 73.1788 23.0809 73.014 23.0809H72.8699H72.7875V23.0397ZM73.2611 27.0754H72.4375V22.6279H73.2199C73.467 22.6279 73.6935 22.6897 73.8788 22.8132C74.0641 22.9368 74.1877 23.1015 74.2494 23.2868C74.3112 23.4721 74.3524 23.6574 74.3524 23.8016C74.3524 23.8839 74.3524 23.9251 74.3524 23.9663C74.3524 24.0075 74.3318 24.0692 74.3112 24.1722C74.2906 24.2752 74.27 24.3575 74.2289 24.4193C74.1877 24.4811 74.1465 24.5222 74.1053 24.5634C74.0641 24.6046 74.0229 24.6458 73.9818 24.6664C74.1053 24.7281 74.2083 24.8105 74.3112 24.9134C74.3936 25.0164 74.4553 25.1399 74.4965 25.2635C74.5377 25.4076 74.5583 25.5517 74.5583 25.6959C74.5583 25.7782 74.5583 25.84 74.5583 25.8812C74.5583 25.9224 74.5377 26.0253 74.4965 26.19C74.4553 26.3548 74.3936 26.5195 74.27 26.6636C74.1465 26.8078 74.0229 26.9107 73.8582 26.9519C73.6729 27.0548 73.4876 27.0754 73.2611 27.0754Z" fill="#504E4E"/>
<path d="M75.7115 25.182H77.8323C77.7706 24.832 77.6264 24.5437 77.4617 24.3378C77.2764 24.1525 77.0499 24.0496 76.7616 24.0496C76.5557 24.0496 76.3704 24.1114 76.2263 24.1937C76.0822 24.2761 75.9586 24.4202 75.8763 24.5849C75.7939 24.7497 75.7321 24.9556 75.7115 25.182ZM78.2235 25.5321H75.6909C75.7115 25.6968 75.7115 25.7792 75.7115 25.7792C75.7115 25.7998 75.7321 25.8409 75.7527 25.9645C75.7733 26.0674 75.8351 26.1704 75.9174 26.2939C75.9998 26.3969 76.0822 26.4998 76.1851 26.5822C76.2881 26.6646 76.391 26.7057 76.4734 26.7263C76.5763 26.7469 76.6587 26.7675 76.741 26.7675C76.9264 26.7675 77.1117 26.7057 77.2764 26.6028C77.4411 26.4792 77.6058 26.2939 77.7088 26.0263H78.1206C78.0382 26.2733 77.9353 26.4586 77.8117 26.644C77.6882 26.8087 77.5235 26.9528 77.3587 27.0558C77.1734 27.1587 76.9881 27.1999 76.7822 27.1999C76.5145 27.1999 76.2675 27.1175 76.041 26.9528C75.8145 26.7881 75.6292 26.5822 75.5056 26.2939C75.3821 26.0262 75.3203 25.7174 75.3203 25.388C75.3203 25.0585 75.3821 24.7497 75.5262 24.482C75.6498 24.2143 75.8351 23.9878 76.0616 23.8437C76.2881 23.6995 76.5351 23.6172 76.8028 23.6172H76.9264C76.9675 23.6172 77.0499 23.6172 77.1734 23.6584C77.3176 23.6996 77.4617 23.7819 77.647 23.926C77.8117 24.0908 77.9559 24.2555 78.0588 24.5026C78.1206 24.6261 78.1824 24.7908 78.2029 24.9556C78.2235 25.1203 78.2235 25.3262 78.2235 25.5321Z" fill="#504E4E"/>
<path d="M81.4339 25.3878C81.4339 25.1613 81.3927 24.9348 81.2898 24.7289C81.1868 24.523 81.0633 24.3583 80.8985 24.2347C80.7544 24.1112 80.5691 24.0494 80.3838 24.0494H80.2808C80.1367 24.07 79.9926 24.1112 79.8896 24.1936C79.7661 24.2553 79.6631 24.3789 79.5808 24.5024C79.4778 24.6465 79.416 24.7907 79.3749 24.9348C79.3337 25.0995 79.3131 25.2642 79.3131 25.429V25.5525C79.3131 25.6555 79.3337 25.7584 79.3543 25.8614C79.3749 25.9643 79.4366 26.0673 79.519 26.2114C79.6014 26.3555 79.7043 26.4791 79.869 26.6026C80.0338 26.7261 80.1985 26.7673 80.4044 26.7673C80.5897 26.7673 80.775 26.7056 80.9397 26.5614C81.1044 26.4379 81.228 26.2526 81.3309 26.0467C81.3927 25.8408 81.4339 25.6143 81.4339 25.3878ZM81.7839 27.0762H81.4339V26.5408C81.3103 26.7467 81.1662 26.9115 80.9809 27.0144C80.7956 27.1174 80.5897 27.1791 80.3838 27.1791C80.1985 27.1791 80.0543 27.138 79.9102 27.0968C79.7661 27.035 79.6631 26.9938 79.6014 26.9321C79.5396 26.8909 79.4366 26.7879 79.3337 26.685C79.2307 26.5614 79.1278 26.3967 79.0454 26.1702C78.9631 25.9437 78.9219 25.6966 78.9219 25.429C78.9219 25.1819 78.9631 24.9348 79.0454 24.7083C79.1278 24.4818 79.2513 24.2759 79.3955 24.1318C79.5396 23.9671 79.6837 23.8641 79.869 23.7817C80.0338 23.6994 80.2191 23.6582 80.4044 23.6582C80.5485 23.6582 80.672 23.6788 80.7956 23.72C80.9191 23.7612 81.0427 23.8435 81.1456 23.9259C81.2486 24.0082 81.3515 24.1318 81.4339 24.2759V23.7406H81.7839V27.0762Z" fill="#504E4E"/>
<path d="M82.7734 25.6548V23.6987H83.1235V25.6136C83.1235 25.696 83.1235 25.7783 83.1441 25.8607C83.1441 25.9431 83.1647 26.046 83.1852 26.149C83.2058 26.2519 83.2676 26.3755 83.3911 26.5402C83.4941 26.6843 83.6794 26.7667 83.9471 26.7667L84.153 26.7461C84.2765 26.7255 84.3795 26.6637 84.4824 26.5608C84.5854 26.4578 84.6471 26.3755 84.6883 26.2519C84.7295 26.149 84.7501 26.0254 84.7707 25.9019L84.7913 25.5313V25.3871V23.7193H85.1413V27.0961H84.7913V26.7255C84.5648 27.0343 84.2765 27.1785 83.9677 27.1785C83.8647 27.1785 83.7206 27.1579 83.5147 27.0961C83.3088 27.0344 83.1441 26.9314 83.0411 26.7255C82.9382 26.5402 82.8764 26.3549 82.8352 26.1901C82.794 26.0254 82.7734 25.8401 82.7734 25.6548Z" fill="#504E4E"/>
<path d="M86.7478 24.1516V27.0754H86.3771V24.1516H85.8418V23.7192H86.3771V22.6279H86.7478V23.7192H87.2831V24.1516H86.7478Z" fill="#504E4E"/>
<path d="M88.3114 28.1672L88.7026 27.0759L87.6113 23.7197H88.0231L88.8879 26.4376L89.7939 23.7197H90.2263L88.7026 28.1672H88.3114Z" fill="#504E4E"/>
<path d="M92.4922 25.8198H92.8628C92.8834 26.0051 92.9246 26.1699 92.9658 26.314C93.0069 26.4581 93.0893 26.5611 93.1717 26.6023C93.254 26.664 93.3158 26.7052 93.3776 26.7052C93.4188 26.7258 93.4805 26.7258 93.5423 26.7258C93.6452 26.7258 93.7482 26.7052 93.8511 26.6434C93.9541 26.6023 94.0365 26.5199 94.0982 26.4169C94.2012 26.2522 94.2424 26.0463 94.2424 25.8198C94.2424 25.7169 94.2424 25.6139 94.2218 25.511C94.1806 25.3668 94.1188 25.2639 94.0159 25.1815C93.9129 25.0786 93.81 25.0168 93.6658 24.955L93.254 24.8109C92.8422 24.6256 92.6363 24.3167 92.6157 23.8843V23.7402C92.6157 23.5755 92.6363 23.4314 92.6775 23.2666C92.7187 23.1019 92.7805 22.9784 92.8628 22.896C92.9452 22.7931 93.0275 22.7313 93.0893 22.6695C93.1305 22.6489 93.1717 22.6283 93.2128 22.6078C93.2334 22.5872 93.2952 22.5872 93.357 22.5666C93.4188 22.546 93.5011 22.5254 93.5835 22.5254C93.707 22.5254 93.8511 22.5666 93.9953 22.6078C94.1806 22.7107 94.3041 22.8548 94.3865 23.0401C94.4689 23.2255 94.51 23.4519 94.5306 23.7196H94.1806C94.1394 23.3078 94.0365 23.0813 93.8923 23.0196C93.7482 22.9784 93.6452 22.9578 93.5835 22.9578C93.5011 22.9578 93.4187 22.9784 93.3158 23.0401C93.2334 23.0813 93.1511 23.1637 93.0687 23.2666C92.9864 23.3902 92.9452 23.5343 92.9452 23.7196C92.9452 23.9049 92.9864 24.0491 93.0893 24.1726C93.1923 24.2756 93.2952 24.3579 93.4393 24.4197L93.8923 24.605C94.0571 24.6874 94.2012 24.7697 94.3041 24.8521C94.4071 24.955 94.4894 25.0786 94.5306 25.2227C94.5924 25.3874 94.613 25.5522 94.613 25.7169C94.613 25.9228 94.5924 26.0669 94.5512 26.211C94.51 26.3552 94.4689 26.4581 94.4277 26.5405C94.3865 26.6229 94.3247 26.7052 94.2424 26.8288C94.16 26.9317 94.0571 27.0141 93.9129 27.0758C93.7688 27.1376 93.6452 27.1582 93.5217 27.1582C93.3158 27.1582 93.1511 27.0964 93.0069 26.9935C92.8422 26.8699 92.7187 26.7052 92.6363 26.4993C92.5334 26.2934 92.4922 26.0669 92.4922 25.8198Z" fill="#504E4E"/>
<path d="M97.8453 25.1399V27.0754H97.4953V25.1605C97.4953 24.8105 97.4335 24.5428 97.31 24.3369C97.1865 24.131 96.9805 24.0281 96.6923 24.0281C96.5482 24.0281 96.404 24.0692 96.2805 24.131C96.1569 24.1928 96.054 24.2957 95.9922 24.4399C95.9304 24.5634 95.8893 24.687 95.8687 24.7899C95.8687 24.8929 95.8481 24.9752 95.8481 25.037C95.8481 25.0782 95.8481 25.1605 95.8481 25.2841V25.4076V27.0548H95.498V22.6279H95.8481V24.1104C96.0128 23.9045 96.1569 23.781 96.2805 23.7398C96.404 23.7192 96.507 23.678 96.5687 23.6574C96.6305 23.6574 96.6923 23.6369 96.7541 23.6369C96.9805 23.6369 97.207 23.7192 97.4541 23.9251C97.7218 24.0898 97.8453 24.5016 97.8453 25.1399Z" fill="#504E4E"/>
<path d="M99.0601 25.3875C99.0601 25.5317 99.0807 25.6552 99.1013 25.7993C99.1218 25.9229 99.1836 26.067 99.2454 26.2317C99.3278 26.3759 99.4513 26.52 99.616 26.623C99.7807 26.7259 99.9455 26.7877 100.131 26.7877C100.316 26.7877 100.481 26.7465 100.646 26.623C100.81 26.52 100.934 26.3759 101.057 26.1494C101.16 25.9435 101.201 25.6964 101.201 25.3875C101.201 25.1816 101.181 24.9757 101.119 24.7904C101.057 24.6257 100.975 24.4816 100.893 24.358C100.79 24.2345 100.687 24.1521 100.543 24.0904C100.46 24.0492 100.398 24.0286 100.316 24.0286C100.254 24.008 100.193 24.008 100.151 24.008C100.007 24.008 99.8837 24.0286 99.7601 24.0904C99.6366 24.1521 99.5131 24.2345 99.4101 24.358C99.3072 24.4816 99.2248 24.6257 99.163 24.7904C99.1013 24.9757 99.0601 25.1816 99.0601 25.3875ZM98.6895 25.4081C98.6895 25.161 98.7306 24.9346 98.813 24.7287C98.8748 24.5228 98.9777 24.3374 99.1424 24.1521C99.2866 23.9668 99.4513 23.8433 99.6366 23.7403C99.8219 23.658 99.9866 23.5962 100.172 23.5962H100.295C100.543 23.6168 100.748 23.7197 100.913 23.8433C101.057 23.9668 101.181 24.0904 101.263 24.1933C101.346 24.2963 101.428 24.4404 101.51 24.6463C101.593 24.8316 101.634 25.0787 101.634 25.3669C101.634 25.6346 101.593 25.8817 101.51 26.1082C101.428 26.3347 101.304 26.5406 101.14 26.7259C101.016 26.87 100.893 26.973 100.728 27.0554C100.563 27.1377 100.398 27.1789 100.213 27.1789H100.151C99.9661 27.1789 99.8013 27.1377 99.6778 27.0554C99.5542 26.973 99.4513 26.9112 99.3689 26.8494C99.2866 26.7877 99.2248 26.7053 99.163 26.623C99.0395 26.4582 98.9365 26.2729 98.8748 26.0464C98.71 25.8199 98.6895 25.614 98.6895 25.4081Z" fill="#504E4E"/>
<path d="M103.815 23.7197H104.104L104.742 26.2317L105.421 23.7197H105.813L104.845 27.0759H104.618L103.959 24.5228L103.301 27.0759H103.074L102.127 23.7197H102.498L103.177 26.2317L103.815 23.7197Z" fill="#504E4E"/>
</svg>
