<svg width="127" height="40" viewBox="0 0 127 40" fill="none" xmlns="http://www.w3.org/2000/svg">
<path opacity="0.5" fill-rule="evenodd" clip-rule="evenodd" d="M28.9888 7.00043L20.9165 4.83746C20.3593 4.68814 19.9075 5.03479 19.9075 5.61172V13.9688C19.9075 14.5457 20.3593 15.1345 20.9165 15.2838L28.9888 17.4468C29.5461 17.5961 29.9979 17.2494 29.9979 16.6725V8.31543C29.9979 7.7385 29.5461 7.14975 28.9888 7.00043ZM20.9165 1.70356C18.6874 1.10627 16.8804 2.49287 16.8804 4.80061V13.1577C16.8804 15.4654 18.6874 17.8204 20.9165 18.4177L28.9888 20.5807C31.2179 21.178 33.025 19.7914 33.025 17.4836V9.12655C33.025 6.8188 31.2179 4.46381 28.9888 3.86653L20.9165 1.70356Z" fill="#212527"/>
<path opacity="0.7" fill-rule="evenodd" clip-rule="evenodd" d="M22.6507 13.8089L12.5603 11.1052C12.003 10.9559 11.5513 11.3025 11.5513 11.8795V22.3258C11.5513 22.9028 12.003 23.4915 12.5603 23.6408L22.6507 26.3445C23.208 26.4939 23.6598 26.1472 23.6598 25.5703V15.1239C23.6598 14.547 23.208 13.9583 22.6507 13.8089ZM12.5603 7.97132C10.3312 7.37403 8.52417 8.76063 8.52417 11.0684V21.5147C8.52417 23.8225 10.3312 26.1774 12.5603 26.7747L22.6507 29.4784C24.8798 30.0757 26.6869 28.6891 26.6869 26.3814V15.9351C26.6869 13.6273 24.8798 11.2723 22.6507 10.675L12.5603 7.97132Z" fill="#212527"/>
<path fill-rule="evenodd" clip-rule="evenodd" d="M16.3111 20.6175L4.20266 17.373C3.64538 17.2237 3.19362 17.5704 3.19362 18.1473V30.6829C3.19362 31.2598 3.64538 31.8486 4.20266 31.9979L16.3111 35.2424C16.8684 35.3917 17.3202 35.045 17.3202 34.4681V21.9325C17.3202 21.3556 16.8684 20.7668 16.3111 20.6175ZM4.20266 14.2391C1.97355 13.6419 0.166504 15.0284 0.166504 17.3362V29.8718C0.166504 32.1795 1.97355 34.5345 4.20266 35.1318L16.3111 38.3763C18.5402 38.9736 20.3473 37.587 20.3473 35.2792V22.7436C20.3473 20.4359 18.5402 18.0809 16.3111 17.4836L4.20266 14.2391Z" fill="#212527"/>
<path d="M44.8666 27.1734C45.8155 27.6089 46.9044 27.8267 48.1333 27.8267C49.3621 27.8267 50.4355 27.6167 51.3533 27.1967C52.2866 26.7611 53.0099 26.1545 53.5233 25.3767C54.0366 24.5834 54.2933 23.6578 54.2933 22.6V22.32C54.2933 21.34 54.0677 20.5467 53.6166 19.94C53.1655 19.3178 52.5899 18.8589 51.8899 18.5634C51.2055 18.2678 50.4977 18.12 49.7666 18.12H48.9033V17.7467L53.8266 15.1334V11.1667H42.2533V13.8267H50.5133V14.2L45.2399 17V20.2667H48.5066C49.0355 20.2667 49.5099 20.3445 49.9299 20.5C50.3499 20.64 50.6844 20.8656 50.9333 21.1767C51.1821 21.4878 51.3066 21.8922 51.3066 22.39V22.6234C51.3066 23.3545 51.0266 23.9611 50.4666 24.4434C49.9221 24.9256 49.1444 25.1667 48.1333 25.1667C47.1377 25.1667 46.3366 24.91 45.7299 24.3967C45.1233 23.8678 44.8199 23.1678 44.8199 22.2967V21.97H41.8333V22.39C41.8333 23.51 42.0977 24.4822 42.6266 25.3067C43.171 26.1156 43.9177 26.7378 44.8666 27.1734Z" fill="#212527"/>
<path fill-rule="evenodd" clip-rule="evenodd" d="M65.0359 11.7967C64.2581 11.3767 63.3559 11.1667 62.3292 11.1667H55.6092V27.5H58.6892V21.5267H62.3292C63.3248 21.5267 64.2114 21.3245 64.9892 20.92C65.7825 20.5 66.4048 19.9167 66.8559 19.17C67.3225 18.4078 67.5559 17.5211 67.5559 16.51V16.1834C67.5559 15.1567 67.3303 14.27 66.8792 13.5234C66.4437 12.7767 65.8292 12.2011 65.0359 11.7967ZM63.7992 18.12C63.3481 18.5245 62.757 18.7267 62.0259 18.7267H58.6892V13.9667H62.0259C62.757 13.9667 63.3481 14.1689 63.7992 14.5734C64.2503 14.9778 64.4759 15.53 64.4759 16.23V16.4634C64.4759 17.1634 64.2503 17.7156 63.7992 18.12Z" fill="#212527"/>
<path fill-rule="evenodd" clip-rule="evenodd" d="M73.8511 27.8267C72.7 27.8267 71.6656 27.5934 70.7478 27.1267C69.83 26.66 69.1067 25.9834 68.5778 25.0967C68.0489 24.21 67.7845 23.1445 67.7845 21.9V21.5267C67.7845 20.2822 68.0489 19.2167 68.5778 18.33C69.1067 17.4434 69.83 16.7667 70.7478 16.3C71.6656 15.8334 72.7 15.6 73.8511 15.6C75.0022 15.6 76.0367 15.8334 76.9545 16.3C77.8722 16.7667 78.5956 17.4434 79.1245 18.33C79.6534 19.2167 79.9178 20.2822 79.9178 21.5267V21.9C79.9178 23.1445 79.6534 24.21 79.1245 25.0967C78.5956 25.9834 77.8722 26.66 76.9545 27.1267C76.0367 27.5934 75.0022 27.8267 73.8511 27.8267ZM73.8511 25.2134C74.7534 25.2134 75.5 24.9256 76.0911 24.35C76.6823 23.7589 76.9778 22.9189 76.9778 21.83V21.5967C76.9778 20.5078 76.6823 19.6756 76.0911 19.1C75.5156 18.5089 74.7689 18.2134 73.8511 18.2134C72.9489 18.2134 72.2022 18.5089 71.6111 19.1C71.02 19.6756 70.7245 20.5078 70.7245 21.5967V21.83C70.7245 22.9189 71.02 23.7589 71.6111 24.35C72.2022 24.9256 72.9489 25.2134 73.8511 25.2134Z" fill="#212527"/>
<path d="M85.6182 16.2067C85.2294 16.4245 84.9494 16.7667 84.7782 17.2334H84.3582V15.9267H81.4649V27.5H84.4049V20.92C84.4049 20.0956 84.646 19.4889 85.1282 19.1C85.6105 18.6956 86.2249 18.4934 86.9716 18.4934H88.4182V18.4917H91.4162V24.8867C91.4162 25.68 91.6495 26.3178 92.1162 26.8C92.5984 27.2667 93.2207 27.5 93.9829 27.5H97.2495V25.0734H95.0095C94.574 25.0734 94.3562 24.84 94.3562 24.3734V18.4917H97.5295V15.8833H94.3562V12.3334H91.4162V15.8833H88.4182V15.88H87.0182C86.4894 15.88 86.0227 15.9889 85.6182 16.2067Z" fill="#212527"/>
<path fill-rule="evenodd" clip-rule="evenodd" d="M100.401 27.4067C101.054 27.6867 101.793 27.8267 102.617 27.8267C103.426 27.8267 104.064 27.71 104.531 27.4767C104.997 27.2434 105.34 26.9789 105.557 26.6834C105.775 26.3722 105.915 26.1234 105.977 25.9367H106.421V25.96C106.421 26.4267 106.607 26.8 106.981 27.08C107.354 27.36 107.829 27.5 108.404 27.5H110.364V25.0734H109.431C108.995 25.0734 108.777 24.84 108.777 24.3734V20.0567C108.777 18.61 108.334 17.5056 107.447 16.7434C106.561 15.9811 105.355 15.6 103.831 15.6C102.835 15.6 101.987 15.7556 101.287 16.0667C100.603 16.3622 100.051 16.7589 99.6308 17.2567C99.2264 17.7389 98.9308 18.2756 98.7442 18.8667L101.451 19.7767C101.56 19.2478 101.793 18.82 102.151 18.4934C102.509 18.1511 103.053 17.98 103.784 17.98C104.531 17.98 105.075 18.1589 105.417 18.5167C105.76 18.8589 105.931 19.3022 105.931 19.8467V20.5H102.757C101.886 20.5 101.109 20.64 100.424 20.92C99.7553 21.1845 99.2264 21.5889 98.8375 22.1334C98.4642 22.6622 98.2775 23.3234 98.2775 24.1167C98.2775 24.91 98.4642 25.5867 98.8375 26.1467C99.2264 26.6911 99.7475 27.1111 100.401 27.4067ZM105.137 24.77C104.624 25.2211 103.955 25.4467 103.131 25.4467C102.509 25.4467 102.034 25.3145 101.707 25.05C101.381 24.7856 101.217 24.4434 101.217 24.0234C101.217 23.6034 101.373 23.2767 101.684 23.0434C101.995 22.81 102.423 22.6934 102.967 22.6934H105.931V22.9267C105.931 23.6889 105.666 24.3034 105.137 24.77Z" fill="#212527"/>
<path d="M117.475 26.8467C118.439 27.5 119.676 27.8267 121.185 27.8267C122.663 27.8267 123.837 27.5 124.708 26.8467C125.595 26.1778 126.038 25.2367 126.038 24.0234C126.038 23.2145 125.828 22.5767 125.408 22.11C125.004 21.6278 124.444 21.2622 123.728 21.0134C123.028 20.7489 122.243 20.5389 121.372 20.3834L120.718 20.2667C120.189 20.1734 119.769 20.0411 119.458 19.87C119.147 19.6834 118.992 19.4034 118.992 19.03C118.992 18.6878 119.139 18.4234 119.435 18.2367C119.731 18.0345 120.158 17.9334 120.718 17.9334C121.278 17.9334 121.745 18.0578 122.118 18.3067C122.507 18.5556 122.764 18.9756 122.888 19.5667L125.618 18.7267C125.354 17.7934 124.794 17.0389 123.938 16.4634C123.083 15.8878 122.009 15.6 120.718 15.6C119.349 15.6 118.245 15.9111 117.405 16.5334C116.565 17.14 116.145 18.0189 116.145 19.17C116.145 19.9322 116.347 20.5545 116.752 21.0367C117.156 21.5189 117.693 21.9 118.362 22.18C119.031 22.4445 119.769 22.6545 120.578 22.81L121.232 22.9267C121.916 23.0511 122.414 23.2145 122.725 23.4167C123.036 23.6034 123.192 23.8756 123.192 24.2334C123.192 24.5911 123.028 24.8945 122.702 25.1434C122.375 25.3767 121.869 25.4934 121.185 25.4934C120.734 25.4934 120.314 25.4311 119.925 25.3067C119.552 25.1667 119.233 24.9411 118.968 24.63C118.719 24.3189 118.541 23.8911 118.432 23.3467L115.725 24.0467C115.927 25.26 116.511 26.1934 117.475 26.8467Z" fill="#212527"/>
<path d="M111.347 27.5V11.1667H114.287V27.5H111.347Z" fill="#212527"/>
</svg>
