<svg width="110" height="30" viewBox="0 0 110 30" fill="none" xmlns="http://www.w3.org/2000/svg">
<path d="M39.8967 26.967V11.0954H43.4197C43.4197 11.0954 46.6158 11.1317 46.6158 14.3278C46.6158 17.524 43.8192 17.4513 43.8192 17.4513L40.7139 17.4876C40.7139 17.4876 42.5662 17.8327 43.1655 19.7395C44.7454 24.7152 45.8895 29.1462 50.0662 29.7455C52.427 30.0905 53.2986 29.7455 53.4439 29.691C53.5892 29.6365 53.6982 29.6002 53.8434 29.5094L53.6982 29.3823C53.68 29.3641 52.2091 28.0022 51.4463 25.2237C50.7744 22.7721 50.0662 20.9017 49.0129 19.685C50.0117 19.0857 52.0638 17.8327 52.0638 14.0918C52.0638 11.8218 51.3919 10.0421 50.0844 8.78912C47.9778 6.79155 44.9996 6.93682 44.8725 6.95498H44.8907H34.3398V24.0433C34.3398 26.0954 34.7394 26.9489 37.1728 26.9489L39.8967 26.967Z" fill="#504E4E"/>
<path d="M17.052 6.99097C17.052 6.99097 17.052 24.9691 17.052 27.0393H14.2736C11.822 27.0393 11.4407 26.1858 11.4407 24.1338V19.3033H5.62953C5.62953 19.3033 5.62953 25.5321 5.62953 27.0212H2.45157C0.290555 27.0212 0 26.4219 0 24.5151V6.99097H5.61137V14.6725H11.4225V6.99097H17.052Z" fill="#504E4E"/>
<path d="M88.5826 6.99097V11.313H97.9349C97.0269 12.4571 89.1637 22.3178 89.1637 22.3178C88.6371 22.9897 88.5645 23.6253 88.5645 24.1701V24.2064C88.5645 26.2585 88.964 27.112 91.3974 27.112H105.271L105.253 22.6265H97.1359C97.1359 22.6265 96.7 22.6265 96.6274 22.2996C96.5003 21.9546 97.0451 21.319 97.4627 20.8105L105.29 10.9316V7.00912L88.5826 6.99097Z" fill="#504E4E"/>
<path d="M15.1081 2.50635C15.1625 2.50635 15.1807 2.54267 15.217 2.61531C15.2533 2.68795 15.3986 2.9785 15.3986 3.05114C15.3986 3.19642 14.5451 3.66857 13.7824 3.66857C12.8563 3.66857 12.0391 3.05114 12.0391 1.97972C12.0391 0.81749 13.1468 0.0366211 14.3272 0.0366211C15.1807 0.0366211 15.217 0.1819 15.217 0.272699C15.217 0.327178 15.1989 0.635894 15.1807 0.726693C15.1625 0.763012 15.1625 0.817492 15.1081 0.817492C15.0173 0.817492 14.6904 0.763012 14.4906 0.763012C13.4737 0.763012 13.0742 1.41676 13.0742 1.99788C13.0742 2.56083 13.3647 2.94218 13.9458 2.94218C14.5814 2.92402 15.0354 2.50635 15.1081 2.50635Z" fill="#504E4E"/>
<path d="M19.9936 1.7615C19.9936 2.92372 19.1038 3.65011 18.0868 3.65011C16.852 3.65011 16.1074 2.81476 16.1074 1.79782C16.1074 0.617431 17.088 0 18.1413 0C19.2491 0.0181598 19.9936 0.72639 19.9936 1.7615ZM17.1788 1.87045C17.1788 2.56052 17.5239 2.96004 18.0687 2.96004C18.7224 2.96004 19.0856 2.37893 19.0856 1.74334C19.0856 1.16222 18.7769 0.70823 18.1776 0.70823C17.9234 0.70823 17.1788 0.817187 17.1788 1.87045Z" fill="#504E4E"/>
<path d="M24.2799 0.126803C24.4252 0.126803 24.4615 0.163122 24.4615 0.29024C24.4615 0.853193 24.3889 1.76118 24.3707 2.32413L24.3525 3.34108C24.3525 3.52268 24.3525 3.57716 24.1165 3.57716C24.062 3.57716 23.6625 3.57716 23.6261 3.559C23.5353 3.54084 23.5172 3.54084 23.2629 3.15948C23.1721 3.01421 22.0644 1.6159 21.8646 1.37983C21.8646 1.39799 21.8465 3.41372 21.8283 3.50452C21.8102 3.559 21.7738 3.559 21.4833 3.559C21.1383 3.559 21.0838 3.559 21.0475 3.52268C21.0293 3.50452 21.0293 3.41372 21.0293 3.3774C21.0293 3.21396 21.0475 2.3423 21.0475 2.08806C21.0475 1.77934 21.1019 0.36288 21.1019 0.217602C21.1201 0.144963 21.1383 0.108643 21.2654 0.108643C21.2835 0.108643 21.4833 0.108643 21.5196 0.108643C21.901 0.108643 21.9554 0.108644 22.0099 0.126803C22.1189 0.181283 23.1177 1.48878 23.154 1.50694C23.4627 1.94278 23.499 1.9791 23.5717 2.0699C23.5898 1.77934 23.6261 0.308399 23.6261 0.23576C23.6443 0.126802 23.6806 0.108643 23.9167 0.108643L24.2799 0.126803Z" fill="#504E4E"/>
<path d="M27.8212 0.853496C27.7304 0.853496 27.5488 0.871654 27.5306 0.871654C27.4035 0.871654 27.3672 0.853497 27.3672 0.726378C27.3672 0.59926 27.3672 0.254224 27.3853 0.217904C27.4035 0.163425 27.4217 0.163425 27.6033 0.163425C27.8757 0.145265 29.0016 0.145264 29.1287 0.145264C29.5282 0.145264 29.8551 0.145265 30.1275 0.163425C30.2183 0.163425 30.2364 0.181584 30.2364 0.290542V0.762697C30.2364 0.817177 30.2183 0.853495 30.1638 0.871654C30.0912 0.889814 30.0185 0.889815 29.728 0.889815H29.3103C29.2921 1.16221 29.2195 2.48787 29.2195 3.34138C29.2195 3.5593 29.2195 3.57746 29.0016 3.57746C28.9289 3.57746 28.5657 3.57746 28.4931 3.57746C28.2752 3.57746 28.2389 3.5593 28.2389 3.43218C28.2389 3.43218 28.257 2.45156 28.2752 2.39708C28.2933 1.32565 28.3115 1.21669 28.3297 0.871654L27.8212 0.853496Z" fill="#504E4E"/>
<path d="M34.7768 1.7615C34.7768 2.92372 33.887 3.65011 32.87 3.65011C31.6352 3.65011 30.8906 2.81476 30.8906 1.79782C30.8906 0.617431 31.8713 0 32.9245 0C34.0323 0.0181598 34.7768 0.72639 34.7768 1.7615ZM31.9439 1.87045C31.9439 2.56052 32.2889 2.96004 32.8337 2.96004C33.4875 2.96004 33.8507 2.37893 33.8507 1.74334C33.8507 1.16222 33.542 0.70823 32.9427 0.70823C32.6884 0.70823 31.9439 0.817187 31.9439 1.87045Z" fill="#504E4E"/>
<path d="M38.0079 0.308401C38.5345 0.526318 38.9885 1.08927 38.9885 1.85198C38.9885 2.45125 38.6616 3.1958 37.79 3.43188C37.4994 3.50452 37.1725 3.54084 36.5006 3.54084C36.3917 3.54084 35.9013 3.54084 35.8469 3.48636C35.8105 3.45004 35.8105 3.43188 35.8105 3.1958C35.8105 2.88709 35.8105 2.50573 35.8105 2.26966C35.8105 1.68854 35.8287 0.399198 35.8469 0.326559C35.865 0.126802 35.865 0.108643 36.428 0.108643C37.2452 0.108643 37.6084 0.144963 38.0079 0.308401ZM37.0273 0.780553C36.9365 0.780553 36.882 0.798714 36.8275 0.798714C36.8275 0.980312 36.8275 1.07111 36.8093 1.87014C36.7912 2.1607 36.7912 2.54205 36.7912 2.86893C36.8457 2.86893 36.9001 2.88709 36.9909 2.88709C37.5539 2.88709 37.9897 2.56021 37.9897 1.85198C37.9897 1.18007 37.572 0.780553 37.0273 0.780553Z" fill="#504E4E"/>
<path d="M40.7128 2.72396C40.6583 2.83292 40.4404 3.32323 40.4041 3.41403C40.3314 3.57747 40.3133 3.61379 40.2225 3.61379C40.1498 3.61379 39.8593 3.59563 39.6595 3.52299C39.5506 3.50483 39.4961 3.48667 39.4961 3.43219C39.4961 3.39587 39.4961 3.39587 39.5869 3.19612C39.9501 2.45157 40.059 2.21549 40.8218 0.762709C41.1486 0.163437 41.2031 0.127117 41.4029 0.0726379C41.53 0.0363184 41.7661 0 41.8569 0C41.9295 0 41.9477 0.0181592 42.0385 0.217917C42.2201 0.69007 43.0736 3.34139 43.0736 3.41403C43.0736 3.48667 43.0372 3.48667 42.6741 3.55931C42.3835 3.59563 42.2927 3.61379 42.1837 3.61379C42.1111 3.61379 42.1111 3.61379 42.0566 3.41403C42.0385 3.34139 41.9477 3.08716 41.8387 2.76028C41.6571 2.74212 40.8762 2.74212 40.7128 2.72396ZM41.53 1.61622C41.421 1.27118 41.421 1.23486 41.3847 1.1259C41.3484 1.2167 41.3121 1.3075 41.2758 1.43462C41.2394 1.52542 41.0215 1.99757 40.967 2.10653C41.076 2.10653 41.5663 2.12469 41.6753 2.12469C41.6389 2.01573 41.6389 1.96125 41.53 1.61622Z" fill="#504E4E"/>
<path d="M49.0495 2.50635C49.1039 2.50635 49.1221 2.54267 49.1584 2.61531C49.1947 2.68795 49.34 2.9785 49.34 3.05114C49.34 3.19642 48.4865 3.66857 47.7238 3.66857C46.7977 3.66857 45.9805 3.05114 45.9805 1.97972C45.9805 0.81749 47.0882 0.0366211 48.2686 0.0366211C49.1221 0.0366211 49.1584 0.1819 49.1584 0.272699C49.1584 0.327178 49.1403 0.635894 49.1221 0.726693C49.1039 0.763012 49.1039 0.817492 49.0495 0.817492C48.9587 0.817492 48.6318 0.763012 48.4139 0.763012C47.3969 0.763012 46.9974 1.41676 46.9974 1.99788C46.9974 2.56083 47.288 2.94218 47.8691 2.94218C48.5228 2.92402 48.9768 2.50635 49.0495 2.50635Z" fill="#504E4E"/>
<path d="M53.935 1.7615C53.935 2.92372 53.0452 3.65011 52.0282 3.65011C50.7934 3.65011 50.0488 2.81476 50.0488 1.79782C50.0488 0.617431 51.0295 0 52.0827 0C53.1905 0.0181598 53.935 0.72639 53.935 1.7615ZM51.1203 1.87045C51.1203 2.56052 51.4653 2.96004 52.0101 2.96004C52.6638 2.96004 53.027 2.37893 53.027 1.74334C53.027 1.16222 52.7183 0.70823 52.119 0.70823C51.8648 0.70823 51.1203 0.817187 51.1203 1.87045Z" fill="#504E4E"/>
<path d="M58.2193 0.126803C58.3646 0.126803 58.4009 0.163122 58.4009 0.29024C58.4009 0.853193 58.3283 1.76118 58.3101 2.32413L58.292 3.34108C58.292 3.52268 58.292 3.57716 58.0559 3.57716C58.0014 3.57716 57.6019 3.57716 57.5656 3.559C57.4748 3.54084 57.4566 3.54084 57.2024 3.15948C57.1116 3.01421 56.0039 1.6159 55.8041 1.37983C55.8041 1.39799 55.7859 3.41372 55.7678 3.50452C55.7496 3.559 55.7133 3.559 55.4227 3.559C55.0777 3.559 55.0232 3.559 54.9869 3.52268C54.9687 3.50452 54.9688 3.41372 54.9688 3.3774C54.9688 3.21396 54.9869 2.3423 54.9869 2.08806C54.9869 1.77934 55.0414 0.36288 55.0414 0.217602C55.0595 0.144963 55.0777 0.108643 55.2048 0.108643C55.223 0.108643 55.4227 0.108643 55.4591 0.108643C55.8404 0.108643 55.8949 0.108644 55.9494 0.126803C56.0583 0.181283 57.0571 1.48878 57.0934 1.50694C57.4022 1.94278 57.4385 1.9791 57.5111 2.0699C57.5293 1.77934 57.5656 0.308399 57.5656 0.23576C57.5838 0.126802 57.6201 0.108643 57.8562 0.108643L58.2193 0.126803Z" fill="#504E4E"/>
<path d="M60.4359 0.126953H61.3802C61.5981 0.126953 61.6526 0.126953 61.6889 0.163272C61.7253 0.181432 61.7253 0.21775 61.7253 0.417508C61.7253 0.817023 61.7071 0.817025 61.5073 0.817025H61.1078H60.5086L60.4722 1.54342C60.6902 1.54342 61.126 1.52525 61.3257 1.52525C61.5618 1.52525 61.5981 1.54341 61.5981 1.68869C61.5981 1.68869 61.5981 2.05189 61.58 2.14269C61.5618 2.21532 61.5073 2.21533 61.3621 2.21533C61.2713 2.21533 60.8354 2.19717 60.7628 2.19717C60.6538 2.19717 60.5449 2.19717 60.4541 2.19717C60.4541 2.46956 60.4359 3.01435 60.4359 3.28675C60.4359 3.52283 60.4359 3.54099 60.2543 3.54099C60.1454 3.54099 59.6006 3.54099 59.5461 3.50467C59.5098 3.48651 59.5098 3.45019 59.5098 3.37755C59.5098 2.633 59.5098 1.88845 59.5098 1.1439C59.5098 1.03494 59.5279 0.562787 59.5279 0.490148C59.5279 0.126953 59.5461 0.126953 59.8185 0.126953H60.4359Z" fill="#504E4E"/>
<path d="M63.5945 0.145111C63.649 0.163271 63.649 0.199592 63.649 0.254071C63.649 0.30855 63.5945 1.54341 63.5945 1.77949C63.5763 2.05189 63.5582 3.43203 63.5582 3.46835C63.54 3.52283 63.5037 3.54099 63.4129 3.54099C63.0679 3.54099 62.8318 3.54099 62.7047 3.54099C62.5957 3.54099 62.5957 3.50467 62.5957 3.37755C62.5957 3.10515 62.6139 2.23348 62.632 1.96109C62.632 1.65237 62.6683 0.399348 62.6865 0.23591C62.6865 0.181431 62.7047 0.126953 62.8318 0.126953C62.9226 0.126953 63.0497 0.126951 63.2676 0.145111C63.4129 0.126951 63.54 0.126951 63.5945 0.145111Z" fill="#504E4E"/>
<path d="M65.537 2.72396C65.4825 2.83292 65.2646 3.32323 65.2283 3.41403C65.1557 3.57747 65.1375 3.61379 65.0467 3.61379C64.9741 3.61379 64.6835 3.59563 64.4837 3.52299C64.3748 3.50483 64.3203 3.48667 64.3203 3.43219C64.3203 3.39587 64.3203 3.39587 64.4111 3.19612C64.7743 2.45157 64.8833 2.21549 65.646 0.762709C65.9729 0.163437 66.0273 0.127117 66.2271 0.0726379C66.3542 0.0363184 66.5903 0 66.6811 0C66.7537 0 66.7719 0.0181592 66.8627 0.217917C67.0443 0.69007 67.8978 3.34139 67.8978 3.41403C67.8978 3.48667 67.8615 3.48667 67.4983 3.55931C67.2077 3.59563 67.1169 3.61379 67.008 3.61379C66.9353 3.61379 66.9353 3.61379 66.8808 3.41403C66.8627 3.34139 66.7719 3.08716 66.6629 2.76028C66.4813 2.74212 65.7005 2.74212 65.537 2.72396ZM66.3542 1.61622C66.2452 1.27118 66.2452 1.23486 66.2089 1.1259C66.1726 1.2167 66.1363 1.3075 66.1 1.43462C66.0637 1.52542 65.8457 1.99757 65.7913 2.10653C65.9002 2.10653 66.3905 2.12469 66.4995 2.12469C66.4632 2.01573 66.4632 1.96125 66.3542 1.61622Z" fill="#504E4E"/>
<path d="M72.0397 0.126803C72.1849 0.126803 72.2213 0.163122 72.2213 0.29024C72.2213 0.853193 72.1486 1.76118 72.1305 2.32413L72.1123 3.34108C72.1123 3.52268 72.1123 3.57716 71.8762 3.57716C71.8217 3.57716 71.4222 3.57716 71.3859 3.559C71.2951 3.54084 71.277 3.54084 71.0227 3.15948C70.9319 3.01421 69.8242 1.6159 69.6244 1.37983C69.6244 1.39799 69.6063 3.41372 69.5881 3.50452C69.5699 3.559 69.5336 3.559 69.2431 3.559C68.898 3.559 68.8435 3.559 68.8072 3.52268C68.7891 3.50452 68.7891 3.41372 68.7891 3.3774C68.7891 3.21396 68.8072 2.3423 68.8072 2.08806C68.8072 1.77934 68.8617 0.36288 68.8617 0.217602C68.8799 0.144963 68.898 0.108643 69.0251 0.108643C69.0433 0.108643 69.2431 0.108643 69.2794 0.108643C69.6607 0.108643 69.7152 0.108644 69.7697 0.126803C69.8787 0.181283 70.8774 1.48878 70.9138 1.50694C71.2225 1.94278 71.2588 1.9791 71.3314 2.0699C71.3496 1.77934 71.3859 0.308399 71.3859 0.23576C71.4041 0.126802 71.4404 0.108643 71.6765 0.108643L72.0397 0.126803Z" fill="#504E4E"/>
<path d="M75.0177 3.54084H73.2562C73.0746 3.54084 73.002 3.50452 73.002 3.43188C73.002 3.35924 73.0564 3.25028 73.3107 2.88709C73.4923 2.63285 73.5467 2.54205 74.1642 1.65222C74.5819 1.05295 74.6363 0.998472 74.7634 0.798714C74.4729 0.798714 74.0552 0.816875 73.7828 0.816875C73.5286 0.816875 73.4378 0.816874 73.3833 0.798714C73.347 0.780554 73.347 0.762395 73.347 0.707915C73.347 0.653436 73.3833 0.272082 73.4015 0.217602C73.4196 0.144963 73.5104 0.126803 73.7465 0.126803C73.9463 0.126803 74.7998 0.108643 74.9814 0.108643C75.1811 0.108643 75.8894 0.108642 76.0528 0.144962C76.1073 0.144962 76.1618 0.181281 76.1618 0.23576C76.1618 0.308399 76.0891 0.3992 75.962 0.580798C75.4535 1.34351 74.9269 2.10622 74.4003 2.85077C74.6908 2.85077 75.4898 2.83261 75.8349 2.83261C76.0891 2.83261 76.1073 2.85077 76.1073 2.94157C76.1073 2.95973 76.0528 3.41372 76.0165 3.48636C75.9983 3.54084 75.962 3.54084 75.7986 3.559L75.0177 3.54084Z" fill="#504E4E"/>
<path d="M77.7597 2.72396C77.7052 2.83292 77.4873 3.32323 77.451 3.41403C77.3783 3.57747 77.3602 3.61379 77.2694 3.61379C77.1967 3.61379 76.9062 3.59563 76.7064 3.52299C76.5974 3.50483 76.543 3.48667 76.543 3.43219C76.543 3.39587 76.543 3.39587 76.6338 3.19612C76.997 2.45157 77.1059 2.21549 77.8686 0.762709C78.1955 0.163437 78.25 0.127117 78.4497 0.0726379C78.5769 0.0363184 78.8129 0 78.9037 0C78.9764 0 78.9945 0.0181592 79.0672 0.217917C79.2488 0.69007 80.1023 3.34139 80.1023 3.41403C80.1023 3.48667 80.066 3.48667 79.7028 3.55931C79.4122 3.59563 79.3214 3.61379 79.2125 3.61379C79.1398 3.61379 79.1398 3.61379 79.0853 3.41403C79.0672 3.34139 78.9764 3.08716 78.8674 2.76028C78.704 2.74212 77.9231 2.74212 77.7597 2.72396ZM78.5769 1.61622C78.4679 1.27118 78.4679 1.23486 78.4316 1.1259C78.3953 1.2167 78.3589 1.3075 78.3045 1.43462C78.2681 1.52542 78.0502 1.99757 77.9958 2.10653C78.1047 2.10653 78.595 2.12469 78.704 2.12469C78.6858 2.01573 78.6858 1.96125 78.5769 1.61622Z" fill="#504E4E"/>
<path d="M82.2816 3.23261C82.2816 3.45053 82.0092 3.66845 81.7186 3.66845C81.4644 3.66845 81.1738 3.48685 81.1738 3.30525C81.1738 3.06918 81.5189 2.81494 81.7913 2.81494C82.0637 2.81494 82.2816 3.06918 82.2816 3.23261Z" fill="#504E4E"/>
<path d="M84.4788 3.23261C84.4788 3.45053 84.2064 3.66845 83.9159 3.66845C83.6617 3.66845 83.3711 3.48685 83.3711 3.30525C83.3711 3.06918 83.7161 2.81494 83.9885 2.81494C84.2609 2.81494 84.4788 3.06918 84.4788 3.23261Z" fill="#504E4E"/>
<path d="M86.6761 3.23261C86.6761 3.45053 86.4037 3.66845 86.1132 3.66845C85.8589 3.66845 85.5684 3.48685 85.5684 3.30525C85.5684 3.06918 85.9134 2.81494 86.1858 2.81494C86.4582 2.81494 86.6761 3.06918 86.6761 3.23261Z" fill="#504E4E"/>
<path d="M88.7826 0.780553C88.7826 0.889512 88.7644 1.37983 88.7644 1.48879C88.8915 1.47063 89.1458 1.47062 89.4908 1.47062C89.5634 1.47062 89.9448 1.47062 89.9993 1.47062C90.0538 1.48878 90.0538 1.50694 90.0538 1.56142C90.0538 1.59774 90.0538 1.76118 90.0356 1.99726C90.0174 2.0699 90.0174 2.10622 89.8903 2.10622C89.5453 2.10622 89.0368 2.10622 88.7644 2.10622C88.7644 2.19702 88.7644 2.74181 88.7463 2.90525C89.0186 2.88709 89.1276 2.88709 90.1627 2.88709C90.2535 2.88709 90.2535 2.90525 90.2717 2.97789C90.2717 3.17764 90.2717 3.30476 90.2717 3.39556C90.2717 3.52268 90.2354 3.54084 89.9266 3.54084C89.6179 3.54084 89.291 3.54084 88.9823 3.54084H87.9109C87.7656 3.54084 87.7656 3.48636 87.7656 3.32292C87.7656 2.56021 87.7838 1.7975 87.8019 1.03479C87.8201 0.3992 87.8201 0.326561 87.8201 0.217602C87.8201 0.108644 87.8564 0.108643 88.0562 0.108643C88.8189 0.108643 89.2729 0.108644 89.8903 0.126803C90.0901 0.126803 90.1627 0.126802 90.1627 0.23576C90.1627 0.25392 90.1446 0.489997 90.1264 0.598956C90.1082 0.762394 90.1082 0.780553 89.9266 0.780553C89.854 0.780553 89.4726 0.762395 89.4 0.762395H88.7826V0.780553Z" fill="#504E4E"/>
<path d="M93.2504 0.235608C93.2504 0.308247 93.2323 0.435367 93.2323 0.580645C93.2141 0.707763 93.196 0.762243 93.1052 0.762243C93.0325 0.762243 92.9599 0.744082 92.7601 0.744082C92.4696 0.744082 92.1609 0.834882 92.1609 1.03464C92.1609 1.16176 92.2153 1.21624 92.5604 1.50679C93.0688 1.94263 93.3049 2.14238 93.3049 2.56006C93.3049 3.14117 92.7601 3.66781 91.8521 3.66781C91.6342 3.66781 91.3981 3.64964 91.1439 3.61333C90.9986 3.59517 90.9805 3.55885 90.9805 3.43173C90.9805 3.35909 91.0168 3.03221 91.0349 2.97773C91.0531 2.94141 91.0894 2.92325 91.1439 2.92325C91.2165 2.92325 91.5434 2.99589 91.8158 2.99589C92.0519 2.99589 92.3243 2.88694 92.3243 2.66902C92.3243 2.52374 92.2698 2.48742 91.834 2.06975C91.3255 1.59759 91.1984 1.39784 91.1984 1.08912C91.1984 0.653285 91.5434 0.090332 92.6875 0.090332C93.1596 0.108492 93.2504 0.10849 93.2504 0.235608Z" fill="#504E4E"/>
<path d="M30.3993 19.3044V14.6555H24.5518V11.2959H32.6874V6.97388H19.0312V22.9726C19.0312 25.3334 19.0312 26.9678 21.501 26.9678C23.7346 26.9678 32.6692 26.9678 32.6692 26.9678V22.6458H25.6959C25.2419 22.6458 24.9513 22.555 24.7879 22.3915C24.57 22.1554 24.5155 21.7196 24.5155 21.1385C24.5155 20.9387 24.5518 19.3952 24.5518 19.2862H30.3993V19.3044Z" fill="#504E4E"/>
<path d="M84.661 19.3044V14.6555H78.8135V11.2959H86.9491V6.97388H73.293V22.9726C73.293 25.3334 73.293 26.9678 75.7809 26.9678C78.0145 26.9678 86.9491 26.9678 86.9491 26.9678V22.6458H79.9758C79.5218 22.6458 79.2312 22.555 79.0678 22.3915C78.8499 22.1554 78.7954 21.7196 78.7954 21.1385C78.7954 20.9387 78.8317 19.3952 78.8317 19.2862H84.661V19.3044Z" fill="#504E4E"/>
<path d="M53.6074 6.99097V22.572C53.6074 25.0418 53.8798 26.9304 57.3665 27.0393C58.3653 27.0757 60.5626 27.0938 62.1788 27.0393C70.0965 27.0393 71.7672 21.8275 71.7672 17.1423C71.7672 7.35416 64.4306 6.99097 62.197 6.99097H53.6074ZM61.0166 23.135C59.3277 23.135 59.128 21.882 59.128 20.1023V11.1314H60.9803C62.5965 11.1314 66.4101 12.1302 66.4101 17.1968C66.3919 22.5357 62.7236 23.135 61.0166 23.135Z" fill="#504E4E"/>
<path d="M107.033 24.6066C107.16 24.5885 107.342 24.5703 107.524 24.5703C107.796 24.5703 107.978 24.6248 108.105 24.7337C108.195 24.8245 108.268 24.9517 108.268 25.1151C108.268 25.3693 108.105 25.5509 107.887 25.6236C108.032 25.6781 108.123 25.8233 108.177 26.0231C108.25 26.2955 108.286 26.4952 108.323 26.5679H108.05C108.014 26.5134 107.978 26.35 107.923 26.0957C107.869 25.8233 107.76 25.7144 107.524 25.7144H107.287V26.5679H107.033V24.6066ZM107.287 25.4965H107.542C107.814 25.4965 107.996 25.3512 107.996 25.1151C107.996 24.8609 107.814 24.7519 107.542 24.7519C107.415 24.7519 107.342 24.7701 107.287 24.7701V25.4965Z" fill="#504E4E"/>
<path d="M107.559 26.9848C108.341 26.9848 108.976 26.3506 108.976 25.5683C108.976 24.786 108.341 24.1519 107.559 24.1519C106.777 24.1519 106.143 24.786 106.143 25.5683C106.143 26.3506 106.777 26.9848 107.559 26.9848Z" stroke="#504E4E" stroke-width="1.3439"/>
<path d="M96.502 28.3105H96.6109H97.0467C97.2465 28.3105 97.4099 28.3469 97.5007 28.4195C97.6097 28.4921 97.6642 28.5829 97.6642 28.7282C97.6642 28.8735 97.6097 28.9825 97.5007 29.0369C97.4644 29.0551 97.4099 29.0914 97.3555 29.1096C97.4281 29.1277 97.5007 29.1641 97.5552 29.2004C97.6642 29.273 97.7187 29.4001 97.7187 29.5454C97.7187 29.6907 97.6642 29.8178 97.5734 29.8904C97.4826 29.9631 97.3191 29.9994 97.1375 29.9994H96.6109H96.502V28.3105ZM96.738 29.0188H97.0467C97.1739 29.0188 97.2828 29.0006 97.3373 28.9643C97.4099 28.928 97.4281 28.8553 97.4281 28.7827C97.4281 28.6919 97.3918 28.6193 97.3373 28.5829C97.2828 28.5466 97.1739 28.5103 97.0467 28.5103H96.738V29.0188ZM96.738 29.7996H97.1194C97.2465 29.7996 97.3555 29.7815 97.4099 29.727C97.4644 29.6725 97.5007 29.5999 97.5007 29.5091C97.5007 29.4183 97.4644 29.3457 97.3918 29.2912C97.3191 29.2367 97.2102 29.2185 97.0831 29.2185H96.738V29.7996ZM98.0274 28.3105H98.1363H98.6993C98.8627 28.3105 99.008 28.3469 99.0988 28.4195C99.1896 28.4921 99.2441 28.6011 99.2441 28.7282C99.2441 28.8735 99.1896 28.9825 99.0806 29.0551C99.0262 29.0914 98.9717 29.1277 98.899 29.1459C98.9717 29.1459 99.0262 29.1822 99.0625 29.2004C99.117 29.2367 99.1533 29.3275 99.1714 29.4546C99.1896 29.5636 99.2078 29.6362 99.2078 29.7089L99.2259 29.7815C99.2441 29.836 99.2441 29.8723 99.2622 29.9086C99.2622 29.9449 99.2804 29.9631 99.2986 29.9812H99.1714H99.0443C99.0262 29.9268 99.008 29.8723 99.008 29.8178C98.9898 29.7452 98.9717 29.6725 98.9535 29.5454L98.9354 29.4728C98.9172 29.382 98.8809 29.3093 98.8446 29.273C98.7901 29.2367 98.7174 29.2185 98.6266 29.2185H98.2453V29.9812H98.1363H98.0274V28.3105ZM98.2635 29.0551H98.663C98.7719 29.0551 98.8627 29.0369 98.9172 28.9825C98.9717 28.9461 99.008 28.8735 99.008 28.7827C99.008 28.6737 98.9717 28.6011 98.9172 28.5648C98.8627 28.5285 98.7538 28.4921 98.5903 28.4921H98.2453V29.0551H98.2635ZM100.17 28.3105H100.297H100.424L101.115 29.9994H100.987H100.86L100.697 29.5636H99.8978L99.7344 29.9994H99.6073H99.4802L100.17 28.3105ZM99.9705 29.3638H100.624L100.297 28.5285L99.9705 29.3638ZM101.641 29.9994H101.532H101.423V28.3105H101.569H101.714L102.531 29.727V28.3105H102.64H102.749V29.9994H102.604H102.44L101.623 28.6011V29.9994H101.641ZM103.439 28.3105H103.548H103.966C104.256 28.3105 104.456 28.3832 104.601 28.5285C104.746 28.6737 104.819 28.8917 104.819 29.1822C104.819 29.4546 104.746 29.6544 104.619 29.7996C104.492 29.9449 104.292 29.9994 104.02 29.9994H103.548H103.439V28.3105ZM103.675 29.7996H104.02C104.22 29.7996 104.365 29.7452 104.456 29.6362C104.547 29.5272 104.601 29.3638 104.601 29.1277C104.601 28.9098 104.547 28.7464 104.456 28.6374C104.347 28.5285 104.202 28.474 103.984 28.474H103.675V29.7996Z" fill="#504E4E"/>
</svg>
