<svg width="112" height="30" viewBox="0 0 112 30" fill="none" xmlns="http://www.w3.org/2000/svg">
<path fill-rule="evenodd" clip-rule="evenodd" d="M107.762 17.6887C107.762 17.2592 107.762 16.7224 107.655 16.293C107.547 15.8635 107.44 15.434 107.225 15.1119C107.01 14.7899 106.796 14.4678 106.474 14.253C106.152 14.0383 105.722 13.9309 105.185 13.9309C104.648 13.9309 104.219 14.0383 103.897 14.253C103.575 14.4678 103.253 14.7899 103.038 15.1119C102.823 15.434 102.716 15.8635 102.609 16.293C102.501 16.7224 102.501 17.2592 102.501 17.6887C102.501 18.1181 102.501 18.655 102.609 19.0844C102.716 19.5139 102.823 19.9433 103.038 20.3728C103.253 20.6949 103.467 21.017 103.79 21.2317C104.112 21.4464 104.541 21.5538 105.078 21.5538C105.615 21.5538 106.044 21.4464 106.366 21.2317C106.688 21.017 107.01 20.6949 107.118 20.3728C107.333 20.0507 107.44 19.6212 107.547 19.0844C107.655 18.655 107.762 18.2255 107.762 17.6887ZM111.305 17.6887C111.305 18.5476 111.198 19.4065 110.983 20.1581C110.768 20.9096 110.446 21.6612 109.909 22.3053C109.372 22.9495 108.728 23.379 107.977 23.8085C107.225 24.1305 106.259 24.3453 105.078 24.3453C103.897 24.3453 103.038 24.1305 102.286 23.8085C101.535 23.4864 100.891 22.9495 100.354 22.4127C99.8171 21.7685 99.495 21.1243 99.2803 20.3728C99.0655 19.6212 98.9582 18.7623 98.9582 17.9034C98.9582 17.0445 99.0655 16.1856 99.3876 15.3267C99.6024 14.5751 100.032 13.8236 100.569 13.2868C101.105 12.6426 101.75 12.2131 102.501 11.891C103.253 11.5689 104.219 11.3542 105.293 11.3542C106.366 11.3542 107.333 11.5689 108.084 11.891C108.836 12.2131 109.48 12.7499 110.017 13.2868C110.446 13.9309 110.876 14.5751 111.09 15.3267C111.198 15.9709 111.305 16.8298 111.305 17.6887ZM96.9182 24.0232C96.8109 24.0232 96.7035 24.1305 96.3814 24.1305H95.5225C95.2004 24.1305 94.9857 24.1305 94.6636 24.0232C94.3415 23.9158 94.1268 23.8085 93.912 23.7011C93.6973 23.4864 93.59 23.2716 93.3752 23.0569C93.2679 22.7348 93.1605 22.4127 93.1605 21.9833V5.44916C93.1605 5.44916 93.2679 5.44916 93.59 5.3418H94.4489C94.771 5.3418 94.9857 5.3418 95.3078 5.44916C95.6299 5.55653 95.8446 5.55652 96.0593 5.77125C96.2741 5.87862 96.4888 6.09335 96.5961 6.41544C96.7035 6.73753 96.8109 7.05963 96.8109 7.48908V24.0232H96.9182ZM90.7985 7.38172C90.7985 7.91854 90.5838 8.348 90.2617 8.77745C89.9396 9.09955 89.4027 9.31427 88.8659 9.31427C88.3291 9.31427 87.8996 9.09955 87.4702 8.77745C87.1481 8.45536 86.9334 8.0259 86.9334 7.38172C86.9334 6.8449 87.1481 6.41544 87.4702 5.98598C87.7923 5.55653 88.3291 5.44916 88.8659 5.44916C89.4027 5.44916 89.8322 5.66389 90.2617 5.98598C90.5838 6.30808 90.7985 6.8449 90.7985 7.38172ZM90.6911 24.0232C90.6911 24.1305 90.4764 24.1305 90.2617 24.1305H89.5101C88.8659 24.1305 88.3291 24.0232 87.8996 23.7011C87.4702 23.379 87.2555 22.8422 87.2555 21.9833V11.5689C87.2555 11.5689 87.3628 11.5689 87.6849 11.4616H88.5438C88.8659 11.4616 89.0807 11.4616 89.4027 11.5689C89.7248 11.5689 89.9396 11.6763 90.1543 11.891C90.369 11.9984 90.5838 12.2131 90.6911 12.5352C90.7985 12.8573 90.9058 13.1794 90.9058 13.6088V24.0232H90.6911ZM81.2431 17.7961H80.4915C80.0621 17.7961 79.6326 17.9034 79.2031 18.0108C78.7737 18.1181 78.3442 18.2255 78.0221 18.3329C77.7 18.5476 77.3779 18.7623 77.1632 18.9771C76.9485 19.2992 76.8411 19.6212 76.8411 20.0507C76.8411 20.5875 76.9485 20.9096 77.2706 21.3391C77.5927 21.6612 78.0221 21.8759 78.6663 21.8759C78.9884 21.8759 79.3105 21.8759 79.6326 21.7685C79.9547 21.6612 80.1694 21.5538 80.3841 21.4464C80.5989 21.3391 80.8136 21.1243 80.921 21.017C81.0283 20.8023 81.1357 20.6949 81.1357 20.5875V17.7961H81.2431ZM84.5714 20.9096C84.5714 22.3053 84.7861 23.2716 85.2155 23.9158C84.8934 24.0232 84.5714 24.1305 84.3566 24.1305C84.0345 24.1305 83.8198 24.2379 83.4977 24.2379C82.8535 24.2379 82.4241 24.1305 82.102 23.9158C81.7799 23.7011 81.5652 23.2716 81.4578 22.8422C81.0283 23.2716 80.5989 23.5937 79.9547 23.9158C79.3105 24.2379 78.559 24.3453 77.7 24.3453C77.2706 24.3453 76.7338 24.2379 76.3043 24.1305C75.8749 24.0232 75.4454 23.8084 75.0159 23.4864C74.5865 23.1643 74.3717 22.8422 74.0497 22.3053C73.8349 21.7685 73.7276 21.2317 73.7276 20.4802C73.7276 19.6212 73.9423 18.8697 74.3718 18.3329C74.8012 17.7961 75.338 17.3666 75.9822 17.0445C76.6264 16.7224 77.378 16.5077 78.0221 16.4003C78.7737 16.293 79.4179 16.1856 80.0621 16.1856H81.2431V15.5414C81.2431 14.8972 81.0283 14.3604 80.7062 14.1457C80.3842 13.8236 79.74 13.7162 78.9884 13.7162C78.2369 13.7162 77.5927 13.8236 76.9485 14.0383C76.4117 14.253 75.7675 14.5751 75.2307 14.8972C75.0159 14.5751 74.8012 14.253 74.6938 13.9309C74.3718 13.5015 74.3718 13.2868 74.3718 13.072C74.3718 12.8573 74.4791 12.6426 74.8012 12.4278C75.1233 12.2131 75.4454 11.9984 75.8749 11.7837C76.3043 11.5689 76.8411 11.4616 77.4853 11.3542C78.1295 11.2468 78.7737 11.1395 79.4179 11.1395C80.3841 11.1395 81.1357 11.2468 81.7799 11.4616C82.4241 11.6763 82.9609 11.9984 83.3904 12.3205C83.8198 12.7499 84.1419 13.1794 84.2493 13.8236C84.464 14.4678 84.464 15.1119 84.464 15.9709V20.9096H84.5714ZM56.764 6.30807C57.3008 6.30807 57.8377 6.41544 58.0524 6.73753C58.3745 7.05963 58.5892 7.38172 58.8039 7.81118L62.7764 17.1519L66.7489 7.91854C66.9636 7.38172 67.2857 6.95226 67.7152 6.73753C68.0373 6.5228 68.4667 6.41544 69.0035 6.41544C69.3256 6.41544 69.7551 6.41544 70.0772 6.5228C70.3993 6.5228 70.614 6.63017 70.8287 6.73753L72.1171 24.1305H68.6814L67.9299 12.3205L64.3869 20.2654H61.3807L57.945 12.6426L57.1935 23.9158H53.7578L55.0462 6.5228C55.2609 6.5228 55.4756 6.41544 55.7977 6.41544C56.0125 6.30808 56.4419 6.30807 56.764 6.30807Z" fill="#504E4E"/>
<path d="M42.2698 16.7223L35.0764 4.37545L34.8617 4.05336C34.1101 2.76499 33.1439 0.939796 31.2113 0.295611C29.064 -0.455939 26.0578 0.188247 24.5547 2.65762L23.3737 4.48282L21.6559 7.70374C20.2602 5.23437 19.1865 3.19445 18.8644 2.65762C17.3613 0.188247 14.3551 -0.348575 12.2078 0.295611C10.2753 0.939796 9.309 2.65762 8.55745 4.05336L1.14932 16.7223C-1.21269 20.8022 0.183042 26.1704 4.26288 28.5324L4.79971 28.8545C8.87955 31.2165 14.2478 29.8208 16.6098 25.6336L21.5485 16.5076C23.4811 20.0506 25.4136 23.5937 26.5946 25.6336C28.2051 28.425 31.1039 29.9281 34.1101 29.9281C35.6132 29.9281 37.1163 29.6061 38.4047 28.7471L38.9415 28.425C43.2361 26.1704 44.6318 20.9095 42.2698 16.7223ZM12.9594 23.5937C11.7784 25.6336 9.09428 26.3851 7.05435 25.2041L6.51753 24.882C4.47761 23.701 3.72606 21.0169 4.90707 18.977L12.1005 6.52274L12.3152 6.09328C12.6373 5.55646 13.1741 4.48282 13.4962 4.37545C13.6036 4.37545 13.8183 4.26809 13.9257 4.26809C14.3551 4.26809 14.8919 4.37545 15.1067 4.80491C15.5361 5.44909 17.1466 8.45529 19.1865 12.1057L12.9594 23.5937ZM36.9016 24.882L36.3648 25.2041C34.3249 26.3851 31.5334 25.6336 30.3524 23.701C30.1377 23.2716 27.0241 17.5813 24.0179 12.213L27.1315 6.6301L28.2051 4.80491C28.6346 4.16072 29.4935 4.16072 29.9229 4.26809C30.245 4.37545 30.8892 5.4491 31.2113 5.98592L38.6194 18.7623C39.6931 21.0169 38.9415 23.701 36.9016 24.882Z" fill="#504E4E"/>
</svg>
