<svg width="130" height="40" viewBox="0 0 130 40" fill="none" xmlns="http://www.w3.org/2000/svg">
<path fill-rule="evenodd" clip-rule="evenodd" d="M17.4999 36.6666C26.7047 36.6666 34.1666 29.2047 34.1666 20C34.1666 10.7952 26.7047 3.33331 17.4999 3.33331C8.29515 3.33331 0.833252 10.7952 0.833252 20C0.833252 29.2047 8.29515 36.6666 17.4999 36.6666ZM22.6993 11.0974C22.9524 10.1984 22.08 9.66676 21.2833 10.2344L10.1608 18.158C9.29676 18.7735 9.43268 20 10.365 20H13.2938V19.9773H19.002L14.3509 21.6184L12.3005 28.9026C12.0474 29.8016 12.9198 30.3332 13.7166 29.7656L24.839 21.842C25.7031 21.2265 25.5671 20 24.6348 20H20.1933L22.6993 11.0974Z" fill="#212527"/>
<path d="M108.33 14.06C108.704 14.4022 109.155 14.5733 109.684 14.5733C110.228 14.5733 110.679 14.4022 111.037 14.06C111.395 13.7177 111.574 13.2666 111.574 12.7066C111.574 12.1466 111.395 11.6955 111.037 11.3533C110.679 11.0111 110.228 10.84 109.684 10.84C109.155 10.84 108.704 11.0111 108.33 11.3533C107.973 11.6955 107.794 12.1466 107.794 12.7066C107.794 13.2666 107.973 13.7177 108.33 14.06Z" fill="#212527"/>
<path fill-rule="evenodd" clip-rule="evenodd" d="M52.4867 26.9866C51.7556 27.3289 50.9 27.5 49.92 27.5H42.5V11.1666H49.8267C50.8222 11.1666 51.6856 11.3377 52.4167 11.68C53.1633 12.0066 53.7389 12.4811 54.1433 13.1033C54.5633 13.71 54.7733 14.4411 54.7733 15.2966V15.53C54.7733 16.2766 54.6333 16.8911 54.3533 17.3733C54.0733 17.84 53.7389 18.2055 53.35 18.47C52.9767 18.7189 52.6189 18.8977 52.2767 19.0066V19.4266C52.6189 19.52 52.9922 19.6989 53.3967 19.9633C53.8011 20.2122 54.1433 20.5777 54.4233 21.06C54.7189 21.5422 54.8667 22.1722 54.8667 22.95V23.1833C54.8667 24.0855 54.6567 24.8633 54.2367 25.5166C53.8167 26.1544 53.2333 26.6444 52.4867 26.9866ZM51.18 21.1766C50.7756 20.85 50.2311 20.6866 49.5467 20.6866H45.58V24.7H49.5467C50.2156 24.7 50.7522 24.5366 51.1567 24.21C51.5767 23.8833 51.7867 23.4166 51.7867 22.81V22.5766C51.7867 21.97 51.5844 21.5033 51.18 21.1766ZM51.0867 14.4566C50.6822 14.13 50.1533 13.9666 49.5 13.9666H45.58V17.8866H49.5C50.1378 17.8866 50.6589 17.7233 51.0633 17.3966C51.4833 17.07 51.6933 16.6189 51.6933 16.0433V15.81C51.6933 15.2189 51.4911 14.7677 51.0867 14.4566Z" fill="#212527"/>
<path fill-rule="evenodd" clip-rule="evenodd" d="M61.8129 27.8266C60.6618 27.8266 59.6273 27.5933 58.7096 27.1266C57.7918 26.66 57.0684 25.9833 56.5396 25.0966C56.0107 24.21 55.7462 23.1444 55.7462 21.9V21.5266C55.7462 20.2822 56.0107 19.2166 56.5396 18.33C57.0684 17.4433 57.7918 16.7666 58.7096 16.3C59.6273 15.8333 60.6618 15.6 61.8129 15.6C62.964 15.6 63.9984 15.8333 64.9162 16.3C65.834 16.7666 66.5573 17.4433 67.0862 18.33C67.6151 19.2166 67.8796 20.2822 67.8796 21.5266V21.9C67.8796 23.1444 67.6151 24.21 67.0862 25.0966C66.5573 25.9833 65.834 26.66 64.9162 27.1266C63.9984 27.5933 62.964 27.8266 61.8129 27.8266ZM61.8129 25.2133C62.7151 25.2133 63.4618 24.9255 64.0529 24.35C64.644 23.7589 64.9396 22.9189 64.9396 21.83V21.5966C64.9396 20.5077 64.644 19.6755 64.0529 19.1C63.4773 18.5089 62.7307 18.2133 61.8129 18.2133C60.9107 18.2133 60.164 18.5089 59.5729 19.1C58.9818 19.6755 58.6862 20.5077 58.6862 21.5966V21.83C58.6862 22.9189 58.9818 23.7589 59.5729 24.35C60.164 24.9255 60.9107 25.2133 61.8129 25.2133Z" fill="#212527"/>
<path d="M78.8912 27.5C78.129 27.5 77.5068 27.2666 77.0246 26.8C76.5579 26.3177 76.3246 25.68 76.3246 24.8866V18.3533H73.4312V15.9266H76.3246V12.3333H79.2646V15.9266H82.4379V18.3533H79.2646V24.3733C79.2646 24.84 79.4824 25.0733 79.9179 25.0733H82.1579V27.5H78.8912Z" fill="#212527"/>
<path d="M85.0292 26.8466C85.9936 27.5 87.2303 27.8266 88.7392 27.8266C90.217 27.8266 91.3914 27.5 92.2625 26.8466C93.1492 26.1777 93.5925 25.2366 93.5925 24.0233C93.5925 23.2144 93.3825 22.5766 92.9625 22.11C92.5581 21.6277 91.9981 21.2622 91.2825 21.0133C90.5825 20.7489 89.797 20.5389 88.9259 20.3833L88.2725 20.2666C87.7436 20.1733 87.3236 20.0411 87.0125 19.87C86.7014 19.6833 86.5459 19.4033 86.5459 19.03C86.5459 18.6877 86.6936 18.4233 86.9892 18.2366C87.2847 18.0344 87.7125 17.9333 88.2725 17.9333C88.8325 17.9333 89.2992 18.0577 89.6725 18.3066C90.0614 18.5555 90.3181 18.9755 90.4425 19.5666L93.1725 18.7266C92.9081 17.7933 92.3481 17.0389 91.4925 16.4633C90.637 15.8877 89.5636 15.6 88.2725 15.6C86.9036 15.6 85.7992 15.9111 84.9592 16.5333C84.1192 17.14 83.6992 18.0189 83.6992 19.17C83.6992 19.9322 83.9014 20.5544 84.3059 21.0366C84.7103 21.5189 85.247 21.9 85.9159 22.18C86.5847 22.4444 87.3236 22.6544 88.1325 22.81L88.7859 22.9266C89.4703 23.0511 89.9681 23.2144 90.2792 23.4166C90.5903 23.6033 90.7459 23.8755 90.7459 24.2333C90.7459 24.5911 90.5825 24.8944 90.2559 25.1433C89.9292 25.3766 89.4236 25.4933 88.7392 25.4933C88.2881 25.4933 87.8681 25.4311 87.4792 25.3066C87.1059 25.1666 86.787 24.9411 86.5225 24.63C86.2736 24.3189 86.0947 23.8911 85.9859 23.3466L83.2792 24.0466C83.4814 25.26 84.0647 26.1933 85.0292 26.8466Z" fill="#212527"/>
<path d="M98.6888 19.1233C98.1911 19.7144 97.9422 20.5466 97.9422 21.62V27.5H95.0022V11.1666H97.9422V17.35H98.3622C98.4866 17.1011 98.6811 16.8522 98.9455 16.6033C99.21 16.3544 99.56 16.1522 99.9955 15.9966C100.447 15.8255 101.014 15.74 101.699 15.74C102.601 15.74 103.387 15.95 104.056 16.37C104.74 16.7744 105.269 17.3422 105.642 18.0733C106.016 18.7889 106.202 19.6289 106.202 20.5933V27.5H103.262V20.8266C103.262 19.9555 103.044 19.3022 102.609 18.8666C102.189 18.4311 101.582 18.2133 100.789 18.2133C99.8866 18.2133 99.1866 18.5166 98.6888 19.1233Z" fill="#212527"/>
<path d="M124.58 26.8C124.113 26.3177 123.88 25.68 123.88 24.8866V18.3533H118.098V27.5H115.158V18.3533H112.218V15.9266H115.158V13.78C115.158 12.9866 115.392 12.3566 115.858 11.89C116.341 11.4077 116.963 11.1666 117.725 11.1666H120.758V13.5933H118.752C118.316 13.5933 118.098 13.8266 118.098 14.2933V15.9266H123.88V12.3333H126.82V15.9266H129.993V18.3533H126.82V24.3733C126.82 24.84 127.038 25.0733 127.473 25.0733H129.713V27.5H126.447C125.684 27.5 125.062 27.2666 124.58 26.8Z" fill="#212527"/>
<path d="M108.214 15.9266V27.5H111.154V15.9266H108.214Z" fill="#212527"/>
<path d="M69.4267 11.1666V27.5H72.3667V11.1666H69.4267Z" fill="#212527"/>
</svg>
