<svg width="133" height="30" viewBox="0 0 133 30" fill="none" xmlns="http://www.w3.org/2000/svg">
<path d="M4.83444 22.0092L4.23841 21.4794L4.74614 20.8613L7.46137 17.5942V12.8259C6.37969 11.6339 5.69536 10.0886 5.69536 7.94736V7.88113C5.69536 5.8723 6.33554 4.1063 7.46137 2.71557V0.243164H0V25.0555H7.46137V23.9076C6.51214 23.3557 5.62914 22.7156 4.83444 22.0092Z" fill="#504E4E"/>
<path d="M23.8409 22.0088L23.2448 21.479L23.7526 20.8609L26.8652 17.1523C26.7327 12.7152 23.2669 10.9272 17.704 9.71302C14.2824 8.9404 13.4435 8.45475 13.4435 7.32892V7.26269C13.4435 6.37969 14.2603 5.67329 15.9159 5.67329C18.1014 5.67329 20.5517 6.51214 22.7813 8.07947L25.1654 2.49448C22.693 0.860924 19.7349 0 16.0925 0C10.1764 0 6.55611 3.31126 6.55611 7.8808V7.94702C6.55611 13.0022 10.5958 14.4812 15.8497 15.6954C19.183 16.468 19.9998 17.0419 19.9998 18.0574V18.1236C19.9998 19.1832 19.0064 19.8013 17.1963 19.8013C14.3486 19.8013 11.6334 18.7859 9.20511 16.8433L5.4082 21.3907C8.43249 24.106 12.5826 25.4746 16.9535 25.4746C20.3309 25.4746 23.0682 24.5254 24.8122 22.7815C24.459 22.5166 24.1278 22.2737 23.8409 22.0088Z" fill="#504E4E"/>
<path d="M49.0286 0.243164L38.543 25.0334H45.7174L47.4834 20.6405H56.9756L58.7637 25.0334H66.0706L55.5849 0.243164H49.0286ZM49.4701 15.3425L52.2516 8.34471L54.9889 15.3425H49.4701Z" fill="#504E4E"/>
<path d="M37.9474 24.3929L43.1351 12.0751C41.5677 10.9934 39.3823 10.287 36.7112 9.69095C33.2896 8.91832 32.4507 8.43267 32.4507 7.30685V7.24062C32.4507 6.35761 33.2675 5.65122 34.9232 5.65122C37.1086 5.65122 39.5589 6.49007 41.8106 8.07947L44.1947 2.49448C41.7223 0.838849 38.7642 0 35.1218 0C29.2057 0 25.5854 3.31126 25.5854 7.8808V7.94702C25.5854 13.0022 29.6251 14.4812 34.879 15.6954C38.2123 16.468 39.0291 17.0419 39.0291 18.0574V18.1236C39.0291 19.1832 38.0357 19.8234 36.2256 19.8234C33.3779 19.8234 30.6627 18.8079 28.2344 16.8653L24.4375 21.4128C27.4618 24.128 31.7664 25.1656 36.1373 25.1656C36.6892 25.1656 37.1969 25.1214 37.7267 25.0773L37.9474 24.3929Z" fill="#504E4E"/>
<path d="M59.9333 0.220703C60.7722 0.220703 61.4565 0.905029 61.4565 1.74388C61.4565 2.58273 60.7722 3.26706 59.9333 3.26706C59.0945 3.26706 58.4102 2.58273 58.4102 1.74388C58.4102 0.905029 59.0945 0.220703 59.9333 0.220703ZM59.9333 3.04631C60.6397 3.04631 61.2358 2.47236 61.2358 1.74388C61.2358 1.0154 60.6618 0.441454 59.9333 0.441454C59.2049 0.441454 58.6309 1.0154 58.6309 1.74388C58.6309 2.47236 59.2269 3.04631 59.9333 3.04631ZM59.6022 2.60481H59.3815V0.860878H60.0658C60.4631 0.860878 60.6177 1.03748 60.6177 1.34653C60.6177 1.67766 60.419 1.81011 60.1762 1.85426L60.706 2.62688H60.4631L59.9333 1.85426H59.6243V2.60481H59.6022ZM59.6022 1.65558H59.8892C60.132 1.65558 60.3969 1.63351 60.3969 1.34653C60.3969 1.12578 60.1982 1.05955 59.9996 1.05955H59.6022V1.65558Z" fill="#504E4E"/>
<path d="M0.927152 26.8436H0V26.5566H2.20751V26.8436H1.25828V29.3602H0.927152V26.8436Z" fill="#504E4E"/>
<path d="M2.75781 26.4453H3.06686V27.6594C3.19931 27.4387 3.42006 27.2621 3.77326 27.2621C4.28099 27.2621 4.56797 27.5932 4.56797 28.1009V29.3813H4.25892V28.1672C4.25892 27.7919 4.06024 27.5491 3.68496 27.5491C3.33176 27.5491 3.06686 27.814 3.06686 28.1892V29.3813H2.75781V26.4453Z" fill="#504E4E"/>
<path d="M5.1875 28.3449C5.1875 27.7488 5.60693 27.2632 6.18088 27.2632C6.79898 27.2632 7.15218 27.7488 7.15218 28.3669C7.15218 28.4111 7.15218 28.4332 7.15218 28.4773H5.51863C5.56278 28.9188 5.87183 29.1837 6.2471 29.1837C6.53408 29.1837 6.73275 29.0733 6.90935 28.8967L7.10803 29.0733C6.90935 29.3162 6.64445 29.4707 6.2471 29.4707C5.65108 29.4045 5.1875 28.963 5.1875 28.3449ZM6.84313 28.2124C6.82105 27.8371 6.6003 27.506 6.18088 27.506C5.82768 27.506 5.5407 27.8151 5.51863 28.2124H6.84313Z" fill="#504E4E"/>
<path d="M8.89648 26.5566H9.24968L10.0444 28.8966L10.817 26.5566H11.0819L11.8545 28.8966L12.6492 26.5566H12.9804L11.987 29.3823H11.7L10.9495 27.1085L10.1768 29.3823H9.91194L8.89648 26.5566Z" fill="#504E4E"/>
<path d="M13.2012 28.3449C13.2012 27.7488 13.6647 27.2632 14.2828 27.2632C14.901 27.2632 15.3645 27.7488 15.3645 28.3449C15.3645 28.9409 14.901 29.4265 14.2828 29.4265C13.6647 29.4045 13.2012 28.9188 13.2012 28.3449ZM15.0555 28.3449C15.0555 27.8813 14.7244 27.5281 14.2828 27.5281C13.8413 27.5281 13.5323 27.8813 13.5323 28.3228C13.5323 28.7643 13.8634 29.1396 14.3049 29.1396C14.7244 29.1396 15.0555 28.7643 15.0555 28.3449Z" fill="#504E4E"/>
<path d="M16.0039 27.2843H16.313V27.8141C16.4675 27.4609 16.7545 27.2181 17.1518 27.2402V27.5713H17.1297C16.6662 27.5713 16.313 27.9024 16.313 28.5205V29.3373H16.0039V27.2843Z" fill="#504E4E"/>
<path d="M18.059 26.4453H17.75V29.3592H18.059V26.4453Z" fill="#504E4E"/>
<path d="M18.7422 28.3218C18.7422 27.6375 19.2278 27.2401 19.7356 27.2401C20.1108 27.2401 20.3757 27.4388 20.5303 27.6816V26.4233H20.8393V29.3593H20.5303V28.9399C20.3537 29.1827 20.1108 29.4035 19.7356 29.4035C19.2278 29.4035 18.7422 29.0061 18.7422 28.3218ZM20.5303 28.3218C20.5303 27.8361 20.1771 27.5271 19.7797 27.5271C19.3824 27.5271 19.0512 27.8141 19.0512 28.3218C19.0512 28.8074 19.3824 29.1165 19.7797 29.1165C20.1771 29.1386 20.5303 28.8074 20.5303 28.3218Z" fill="#504E4E"/>
<path d="M21.4336 27.2852H21.7647L22.2945 28.9629L22.8685 27.2852H23.1113L23.6852 28.9629L24.2151 27.2852H24.5462L23.8177 29.3823H23.5528L22.9788 27.7487L22.427 29.3823H22.1621L21.4336 27.2852Z" fill="#504E4E"/>
<path d="M25.1445 26.4902H25.4977V26.8214H25.1445V26.4902ZM25.1666 27.2849H25.4757V29.36H25.1666V27.2849Z" fill="#504E4E"/>
<path d="M26.1582 28.3218C26.1582 27.6375 26.6439 27.2401 27.1516 27.2401C27.5269 27.2401 27.7918 27.4388 27.9463 27.6816V26.4233H28.2553V29.3593H27.9463V28.9399C27.7697 29.1827 27.5269 29.4035 27.1516 29.4035C26.6659 29.4035 26.1582 29.0061 26.1582 28.3218ZM27.9684 28.3218C27.9684 27.8361 27.6152 27.5271 27.2178 27.5271C26.8205 27.5271 26.4893 27.8141 26.4893 28.3218C26.4893 28.8074 26.8205 29.1165 27.2178 29.1165C27.5931 29.1386 27.9684 28.8074 27.9684 28.3218Z" fill="#504E4E"/>
<path d="M28.8965 28.3449C28.8965 27.7488 29.3159 27.2632 29.8899 27.2632C30.508 27.2632 30.8612 27.7488 30.8612 28.3669C30.8612 28.4111 30.8612 28.4332 30.8612 28.4773H29.2276C29.2718 28.9188 29.5808 29.1837 29.9561 29.1837C30.2431 29.1837 30.4417 29.0733 30.6183 28.8967L30.817 29.0733C30.6183 29.3162 30.3534 29.4707 29.9561 29.4707C29.3601 29.4045 28.8965 28.963 28.8965 28.3449ZM30.5521 28.2124C30.53 27.8371 30.3093 27.506 29.8899 27.506C29.5367 27.506 29.2497 27.8151 29.2276 28.2124H30.5521Z" fill="#504E4E"/>
<path d="M32.7148 27.9697C32.7148 27.1749 33.3109 26.5127 34.1276 26.5127C34.6354 26.5127 34.9444 26.6893 35.2314 26.9542L35.0106 27.197C34.7678 26.9763 34.5029 26.8217 34.1276 26.8217C33.5095 26.8217 33.046 27.3295 33.046 27.9697C33.046 28.6098 33.5095 29.1175 34.1276 29.1175C34.5029 29.1175 34.7678 28.963 35.0327 28.7202L35.2314 28.9189C34.9444 29.2059 34.6133 29.4045 34.1056 29.4045C33.3109 29.4045 32.7148 28.7644 32.7148 27.9697Z" fill="#504E4E"/>
<path d="M36.1587 26.4453H35.8496V29.3592H36.1587V26.4453Z" fill="#504E4E"/>
<path d="M36.8438 28.3449C36.8438 27.7488 37.2632 27.2632 37.8371 27.2632C38.4552 27.2632 38.8084 27.7488 38.8084 28.3669C38.8084 28.4111 38.8084 28.4332 38.8084 28.4773H37.1749C37.219 28.9188 37.5281 29.1837 37.9034 29.1837C38.1903 29.1837 38.389 29.0733 38.5656 28.8967L38.7643 29.0733C38.5656 29.3162 38.3007 29.4707 37.9034 29.4707C37.3073 29.4045 36.8438 28.963 36.8438 28.3449ZM38.4773 28.2124C38.4552 27.8371 38.2345 27.506 37.8151 27.506C37.4619 27.506 37.1749 27.8151 37.1528 28.2124H38.4773Z" fill="#504E4E"/>
<path d="M39.2715 28.7643C39.2715 28.3228 39.6247 28.08 40.1545 28.08C40.4194 28.08 40.6181 28.1241 40.7947 28.1683V28.102C40.7947 27.7268 40.5739 27.5281 40.1766 27.5281C39.9337 27.5281 39.7351 27.5943 39.5364 27.6826L39.4481 27.4398C39.6688 27.3294 39.8896 27.2632 40.1986 27.2632C40.4856 27.2632 40.7064 27.3294 40.8609 27.4839C40.9933 27.6164 41.0816 27.8151 41.0816 28.08V29.3382H40.7947V29.0292C40.6401 29.2279 40.4194 29.3824 40.0441 29.3824C39.6468 29.4045 39.2715 29.1837 39.2715 28.7643ZM40.7947 28.6098V28.4111C40.6401 28.3669 40.4415 28.3228 40.1766 28.3228C39.7792 28.3228 39.5805 28.4994 39.5805 28.7422C39.5805 29.0071 39.8234 29.1616 40.1103 29.1616C40.4856 29.1616 40.7947 28.9409 40.7947 28.6098Z" fill="#504E4E"/>
<path d="M41.832 27.2854H42.1411V27.6386C42.2735 27.4178 42.4943 27.2412 42.8475 27.2412C43.3552 27.2412 43.6422 27.5723 43.6422 28.0801V29.3604H43.3331V28.1463C43.3331 27.771 43.1345 27.5282 42.7592 27.5282C42.406 27.5282 42.1411 27.7931 42.1411 28.1684V29.3604H41.832V27.2854Z" fill="#504E4E"/>
<path d="M44.3926 26.4902H44.7458V26.8214H44.3926V26.4902ZM44.4147 27.2849H44.7237V29.36H44.4147V27.2849Z" fill="#504E4E"/>
<path d="M45.5195 27.2854H45.8286V27.6386C45.961 27.4178 46.1818 27.2412 46.535 27.2412C47.0427 27.2412 47.3297 27.5723 47.3297 28.0801V29.3604H47.0206V28.1463C47.0206 27.771 46.822 27.5282 46.4467 27.5282C46.0935 27.5282 45.8286 27.7931 45.8286 28.1684V29.3604H45.5195V27.2854Z" fill="#504E4E"/>
<path d="M48.0576 29.7135L48.1901 29.4707C48.4329 29.6473 48.6978 29.7356 48.9848 29.7356C49.4484 29.7356 49.7353 29.4928 49.7353 29.0071V28.7643C49.5587 29.0071 49.2938 29.2058 48.9186 29.2058C48.4108 29.2058 47.9473 28.8305 47.9473 28.2345C47.9473 27.6385 48.4329 27.2632 48.9186 27.2632C49.3159 27.2632 49.5587 27.4619 49.7353 27.6826V27.3073H50.0444V29.0071C50.0444 29.3382 49.9561 29.5811 49.7795 29.7356C49.6029 29.9122 49.3159 30.0005 48.9848 30.0005C48.6537 30.0005 48.3225 29.9122 48.0576 29.7135ZM49.7574 28.2345C49.7574 27.793 49.3821 27.5281 49.0069 27.5281C48.6095 27.5281 48.3005 27.793 48.3005 28.2345C48.3005 28.6539 48.6316 28.9409 49.0069 28.9409C49.3821 28.9409 49.7574 28.6539 49.7574 28.2345Z" fill="#504E4E"/>
<path d="M52.5161 26.5566H52.207V29.3602H52.5161V26.5566Z" fill="#504E4E"/>
<path d="M53.377 27.2854H53.686V27.6386C53.8185 27.4178 54.0392 27.2412 54.3924 27.2412C54.9001 27.2412 55.1871 27.5723 55.1871 28.0801V29.3604H54.8781V28.1463C54.8781 27.771 54.6794 27.5282 54.3041 27.5282C53.9509 27.5282 53.686 27.7931 53.686 28.1684V29.3604H53.377V27.2854Z" fill="#504E4E"/>
<path d="M55.8047 28.3218C55.8047 27.6375 56.2903 27.2401 56.7981 27.2401C57.1733 27.2401 57.4382 27.4388 57.5928 27.6816V26.4233H57.9018V29.3593H57.5928V28.9399C57.4162 29.1827 57.1733 29.4035 56.7981 29.4035C56.2903 29.4035 55.8047 29.0061 55.8047 28.3218ZM57.5928 28.3218C57.5928 27.8361 57.2396 27.5271 56.8422 27.5271C56.4449 27.5271 56.1137 27.8141 56.1137 28.3218C56.1137 28.8074 56.4449 29.1165 56.8422 29.1165C57.2396 29.1386 57.5928 28.8074 57.5928 28.3218Z" fill="#504E4E"/>
<path d="M58.6543 28.5875V27.3071H58.9633V28.5213C58.9633 28.8965 59.162 29.1394 59.5373 29.1394C59.8905 29.1394 60.1554 28.8745 60.1554 28.4992V27.3071H60.4644V29.3822H60.1554V29.029C60.0229 29.2497 59.8022 29.4263 59.449 29.4263C58.9413 29.4043 58.6543 29.0731 58.6543 28.5875Z" fill="#504E4E"/>
<path d="M61.0586 29.0953L61.2131 28.8746C61.4339 29.0512 61.6767 29.1395 61.9195 29.1395C62.1623 29.1395 62.3389 29.007 62.3389 28.8083C62.3389 28.6097 62.0961 28.5214 61.8312 28.4551C61.5001 28.3668 61.1469 28.2565 61.1469 27.8812C61.1469 27.528 61.4339 27.2852 61.8533 27.2852C62.0961 27.2852 62.3831 27.3735 62.6038 27.5059L62.4714 27.7267C62.2727 27.5942 62.052 27.528 61.8533 27.528C61.6105 27.528 61.4559 27.6604 61.4559 27.837C61.4559 28.0357 61.7208 28.1019 61.9857 28.1902C62.2948 28.2785 62.648 28.411 62.648 28.7863C62.648 29.1836 62.3169 29.4044 61.9195 29.4044C61.6105 29.4044 61.3014 29.294 61.0586 29.0953Z" fill="#504E4E"/>
<path d="M63.3768 28.8073V27.549H63.0898V27.2841H63.3768V26.666H63.6859V27.2841H64.3481V27.549H63.6859V28.7631C63.6859 29.006 63.8183 29.1163 64.0391 29.1163C64.1494 29.1163 64.2377 29.0943 64.3481 29.0501V29.315C64.2377 29.3812 64.1274 29.4033 63.9728 29.4033C63.6417 29.4033 63.3768 29.2267 63.3768 28.8073Z" fill="#504E4E"/>
<path d="M64.9883 27.2843H65.2973V27.8141C65.4519 27.4609 65.7609 27.2181 66.1362 27.2402V27.5713H66.1141C65.6505 27.5713 65.2973 27.9024 65.2973 28.5205V29.3373H64.9883V27.2843Z" fill="#504E4E"/>
<path d="M68.2342 27.2853H68.5653L67.7044 29.4265C67.5278 29.846 67.3291 30.0005 67.02 30.0005C66.8434 30.0005 66.711 29.9563 66.5785 29.8901L66.6889 29.6473C66.7993 29.6914 66.8876 29.7135 67.02 29.7135C67.1966 29.7135 67.3291 29.6252 67.4395 29.3162L66.4902 27.2632H66.8214L67.5719 28.985L68.2342 27.2853Z" fill="#504E4E"/>
<path d="M71.5225 26.5342H71.8095L73.0899 29.3598H72.7587L72.4276 28.6092H70.9044L70.5733 29.3598H70.2422L71.5225 26.5342ZM72.2952 28.3223L71.655 26.8874L71.0148 28.3223H72.2952Z" fill="#504E4E"/>
<path d="M73.5098 29.0953L73.6643 28.8746C73.885 29.0512 74.1279 29.1395 74.3707 29.1395C74.6135 29.1395 74.7901 29.007 74.7901 28.8083C74.7901 28.6097 74.5473 28.5214 74.2824 28.4551C73.9513 28.3668 73.5981 28.2565 73.5981 27.8812C73.5981 27.528 73.885 27.2852 74.3045 27.2852C74.5473 27.2852 74.8343 27.3735 75.055 27.5059L74.9226 27.7267C74.7239 27.5942 74.5031 27.528 74.3045 27.528C74.0616 27.528 73.9071 27.6604 73.9071 27.837C73.9071 28.0357 74.172 28.1019 74.4369 28.1902C74.768 28.2785 75.0992 28.411 75.0992 28.7863C75.0992 29.1836 74.768 29.4044 74.3707 29.4044C74.0837 29.4044 73.7526 29.294 73.5098 29.0953Z" fill="#504E4E"/>
<path d="M75.5625 29.0953L75.717 28.8746C75.9378 29.0512 76.1806 29.1395 76.4234 29.1395C76.6663 29.1395 76.8429 29.007 76.8429 28.8083C76.8429 28.6097 76.6 28.5214 76.3351 28.4551C76.004 28.3668 75.6508 28.2565 75.6508 27.8812C75.6508 27.528 75.9378 27.2852 76.3572 27.2852C76.6 27.2852 76.887 27.3735 77.1078 27.5059L76.9753 27.7267C76.7766 27.5942 76.5559 27.528 76.3572 27.528C76.1144 27.528 75.9598 27.6604 75.9598 27.837C75.9598 28.0357 76.2247 28.1019 76.4896 28.1902C76.8208 28.2785 77.1519 28.411 77.1519 28.7863C77.1519 29.1836 76.8208 29.4044 76.4234 29.4044C76.1144 29.4044 75.7833 29.294 75.5625 29.0953Z" fill="#504E4E"/>
<path d="M77.6816 28.3449C77.6816 27.7488 78.1452 27.2632 78.7633 27.2632C79.3814 27.2632 79.845 27.7488 79.845 28.3449C79.845 28.9409 79.3814 29.4265 78.7633 29.4265C78.1452 29.4045 77.6816 28.9188 77.6816 28.3449ZM79.536 28.3449C79.536 27.8813 79.2048 27.5281 78.7633 27.5281C78.3218 27.5281 78.0128 27.8813 78.0128 28.3228C78.0128 28.7643 78.3439 29.1396 78.7854 29.1396C79.2048 29.1396 79.536 28.7643 79.536 28.3449Z" fill="#504E4E"/>
<path d="M80.3535 28.3449C80.3535 27.7488 80.8171 27.2632 81.4131 27.2632C81.8105 27.2632 82.0533 27.4177 82.252 27.6385L82.0533 27.8592C81.8988 27.6826 81.7001 27.5502 81.4352 27.5502C81.0158 27.5502 80.6846 27.9034 80.6846 28.3449C80.6846 28.7864 81.0158 29.1616 81.4352 29.1616C81.7001 29.1616 81.8988 29.0292 82.0754 28.8526L82.274 29.0292C82.0754 29.2499 81.8105 29.4265 81.4352 29.4265C80.8171 29.4045 80.3535 28.9188 80.3535 28.3449Z" fill="#504E4E"/>
<path d="M82.8691 26.4902H83.2223V26.8214H82.8691V26.4902ZM82.8912 27.2849H83.2003V29.36H82.8912V27.2849Z" fill="#504E4E"/>
<path d="M83.8418 28.7643C83.8418 28.3228 84.195 28.08 84.7248 28.08C84.9897 28.08 85.1884 28.1241 85.365 28.1683V28.102C85.365 27.7268 85.1442 27.5281 84.7469 27.5281C84.504 27.5281 84.3054 27.5943 84.1288 27.6826L84.0405 27.4398C84.2612 27.3294 84.504 27.2632 84.791 27.2632C85.078 27.2632 85.2987 27.3294 85.4533 27.4839C85.5857 27.6164 85.674 27.8151 85.674 28.08V29.3382H85.3871V29.0292C85.2325 29.2279 85.0118 29.3824 84.6365 29.3824C84.2391 29.4045 83.8418 29.1837 83.8418 28.7643ZM85.365 28.6098V28.4111C85.2104 28.3669 85.0118 28.3228 84.7469 28.3228C84.3495 28.3228 84.1508 28.4994 84.1508 28.7422C84.1508 29.0071 84.3937 29.1616 84.6806 29.1616C85.0559 29.1616 85.365 28.9409 85.365 28.6098Z" fill="#504E4E"/>
<path d="M86.4901 28.8073V27.549H86.2031V27.2841H86.4901V26.666H86.7992V27.2841H87.4614V27.549H86.7992V28.7631C86.7992 29.006 86.9316 29.1163 87.1524 29.1163C87.2627 29.1163 87.351 29.0943 87.4614 29.0501V29.315C87.351 29.3812 87.2407 29.4033 87.0861 29.4033C86.7329 29.4033 86.4901 29.2267 86.4901 28.8073Z" fill="#504E4E"/>
<path d="M88.1016 26.4902H88.4548V26.8214H88.1016V26.4902ZM88.1236 27.2849H88.4327V29.36H88.1236V27.2849Z" fill="#504E4E"/>
<path d="M89.0938 28.3449C89.0938 27.7488 89.5573 27.2632 90.1754 27.2632C90.7935 27.2632 91.2571 27.7488 91.2571 28.3449C91.2571 28.9409 90.7935 29.4265 90.1754 29.4265C89.5573 29.4045 89.0938 28.9188 89.0938 28.3449ZM90.9481 28.3449C90.9481 27.8813 90.6169 27.5281 90.1754 27.5281C89.7339 27.5281 89.4249 27.8813 89.4249 28.3228C89.4249 28.7643 89.756 29.1396 90.1975 29.1396C90.639 29.1396 90.9481 28.7643 90.9481 28.3449Z" fill="#504E4E"/>
<path d="M91.8984 27.2854H92.2075V27.6386C92.3399 27.4178 92.5607 27.2412 92.9139 27.2412C93.4216 27.2412 93.7086 27.5723 93.7086 28.0801V29.3604H93.3995V28.1463C93.3995 27.771 93.2009 27.5282 92.8256 27.5282C92.4724 27.5282 92.2075 27.7931 92.2075 28.1684V29.3604H91.8984V27.2854Z" fill="#504E4E"/>
<path d="M95.8047 26.5566H96.8643C97.5045 26.5566 97.9018 26.8878 97.9018 27.4396C97.9018 28.0357 97.3941 28.3668 96.7981 28.3668H96.1137V29.3602H95.8047V26.5566ZM96.8201 28.0798C97.2837 28.0798 97.5928 27.837 97.5928 27.4617C97.5928 27.0644 97.2837 26.8436 96.8422 26.8436H96.1358V28.0798H96.8201Z" fill="#504E4E"/>
<path d="M98.4766 28.5875V27.3071H98.7856V28.5213C98.7856 28.8965 98.9843 29.1394 99.3596 29.1394C99.7128 29.1394 99.9777 28.8745 99.9777 28.4992V27.3071H100.287V29.3822H99.9777V29.029C99.8452 29.2497 99.6245 29.4263 99.2713 29.4263C98.7635 29.4043 98.4766 29.0731 98.4766 28.5875Z" fill="#504E4E"/>
<path d="M101.368 28.9619V29.3592H101.059V26.4453H101.368V27.7257C101.544 27.4828 101.787 27.2621 102.162 27.2621C102.648 27.2621 103.156 27.6594 103.156 28.3438C103.156 29.0281 102.67 29.4254 102.162 29.4254C101.787 29.4034 101.544 29.2047 101.368 28.9619ZM102.847 28.3217C102.847 27.814 102.516 27.5049 102.118 27.5049C101.743 27.5049 101.368 27.836 101.368 28.2996C101.368 28.7853 101.721 29.0943 102.118 29.0943C102.516 29.1385 102.847 28.8294 102.847 28.3217Z" fill="#504E4E"/>
<path d="M104.151 26.4453H103.842V29.3592H104.151V26.4453Z" fill="#504E4E"/>
<path d="M104.967 26.4902H105.32V26.8214H104.967V26.4902ZM104.989 27.2849H105.298V29.36H104.989V27.2849Z" fill="#504E4E"/>
<path d="M105.982 28.3449C105.982 27.7488 106.446 27.2632 107.042 27.2632C107.439 27.2632 107.682 27.4177 107.881 27.6385L107.682 27.8592C107.528 27.6826 107.329 27.5502 107.064 27.5502C106.645 27.5502 106.314 27.9034 106.314 28.3449C106.314 28.7864 106.645 29.1616 107.064 29.1616C107.329 29.1616 107.528 29.0292 107.704 28.8526L107.903 29.0292C107.704 29.2499 107.439 29.4265 107.064 29.4265C106.424 29.4045 105.982 28.9188 105.982 28.3449Z" fill="#504E4E"/>
<path d="M108.322 28.7643C108.322 28.3228 108.675 28.08 109.205 28.08C109.47 28.08 109.669 28.1241 109.845 28.1683V28.102C109.845 27.7268 109.625 27.5281 109.227 27.5281C108.985 27.5281 108.786 27.5943 108.609 27.6826L108.521 27.4398C108.742 27.3294 108.985 27.2632 109.272 27.2632C109.558 27.2632 109.779 27.3294 109.934 27.4839C110.066 27.6164 110.155 27.8151 110.155 28.08V29.3382H109.868V29.0292C109.713 29.2279 109.492 29.3824 109.117 29.3824C108.72 29.4045 108.322 29.1837 108.322 28.7643ZM109.845 28.6098V28.4111C109.691 28.3669 109.492 28.3228 109.227 28.3228C108.83 28.3228 108.631 28.4994 108.631 28.7422C108.631 29.0071 108.874 29.1616 109.161 29.1616C109.536 29.1616 109.845 28.9409 109.845 28.6098Z" fill="#504E4E"/>
<path d="M110.973 28.8073V27.549H110.686V27.2841H110.973V26.666H111.282V27.2841H111.944V27.549H111.282V28.7631C111.282 29.006 111.414 29.1163 111.635 29.1163C111.745 29.1163 111.833 29.0943 111.944 29.0501V29.315C111.833 29.3812 111.723 29.4033 111.569 29.4033C111.215 29.4033 110.973 29.2267 110.973 28.8073Z" fill="#504E4E"/>
<path d="M112.582 26.4902H112.935V26.8214H112.582V26.4902ZM112.604 27.2849H112.913V29.36H112.604V27.2849Z" fill="#504E4E"/>
<path d="M113.576 28.3449C113.576 27.7488 114.04 27.2632 114.658 27.2632C115.276 27.2632 115.74 27.7488 115.74 28.3449C115.74 28.9409 115.276 29.4265 114.658 29.4265C114.04 29.4045 113.576 28.9188 113.576 28.3449ZM115.43 28.3449C115.43 27.8813 115.099 27.5281 114.658 27.5281C114.216 27.5281 113.907 27.8813 113.907 28.3228C113.907 28.7643 114.238 29.1396 114.68 29.1396C115.121 29.1396 115.43 28.7643 115.43 28.3449Z" fill="#504E4E"/>
<path d="M116.379 27.2854H116.688V27.6386C116.82 27.4178 117.041 27.2412 117.394 27.2412C117.902 27.2412 118.189 27.5723 118.189 28.0801V29.3604H117.88V28.1463C117.88 27.771 117.681 27.5282 117.306 27.5282C116.953 27.5282 116.688 27.7931 116.688 28.1684V29.3604H116.379V27.2854Z" fill="#504E4E"/>
<path d="M71.1702 8.87355H65.0996V6.9751H79.316V8.87355H73.2232V25.0766H71.1702V8.87355Z" fill="#504E4E"/>
<path d="M76.0488 18.4774V18.4332C76.0488 14.6584 79.0069 11.4575 83.0245 11.4575C87.0422 11.4575 89.9782 14.6143 89.9782 18.3891V18.4332C89.9782 22.2081 86.9981 25.409 82.9804 25.409C78.9627 25.3869 76.0488 22.2302 76.0488 18.4774ZM87.9473 18.4774V18.4332C87.9473 15.5635 85.806 13.2014 82.9804 13.2014C80.0886 13.2014 78.1018 15.5635 78.1018 18.367V18.4112C78.1018 21.2809 80.221 23.5988 83.0466 23.5988C85.9385 23.6209 87.9473 21.2809 87.9473 18.4774Z" fill="#504E4E"/>
<path d="M90.9277 18.4331V18.3889C90.9277 14.0181 94.1065 11.4353 97.3074 11.4353C99.7798 11.4353 101.391 12.7819 102.429 14.283V6.22559H104.416V25.0998H102.429V22.4066C101.347 24.0181 99.7578 25.3867 97.3074 25.3867C94.1065 25.3647 90.9277 22.826 90.9277 18.4331ZM102.495 18.411V18.3669C102.495 15.2984 100.133 13.2234 97.6606 13.2234C95.0778 13.2234 92.9586 15.1439 92.9586 18.3669V18.411C92.9586 21.5677 95.1661 23.5766 97.6606 23.5766C100.155 23.5766 102.495 21.5015 102.495 18.411Z" fill="#504E4E"/>
<path d="M106.357 21.2143V21.1701C106.357 18.3445 108.675 16.8434 112.075 16.8434C113.775 16.8434 114.989 17.0863 116.181 17.4174V16.9538C116.181 14.5476 114.702 13.3114 112.207 13.3114C110.64 13.3114 109.382 13.7308 108.145 14.2827L107.549 12.6492C109.029 11.9869 110.463 11.5454 112.406 11.5454C114.282 11.5454 115.739 12.0311 116.733 13.0244C117.638 13.9295 118.101 15.2319 118.101 16.9317V25.0995H116.181V23.0907C115.254 24.3048 113.708 25.3865 111.346 25.3865C108.874 25.3644 106.357 23.9516 106.357 21.2143ZM116.203 20.1768V18.8743C115.232 18.5874 113.907 18.3004 112.274 18.3004C109.757 18.3004 108.366 19.3821 108.366 21.0598V21.1039C108.366 22.7816 109.912 23.775 111.722 23.775C114.194 23.7971 116.203 22.296 116.203 20.1768Z" fill="#504E4E"/>
<path d="M130.331 11.7212H132.45L126.843 25.5181C125.695 28.2775 124.415 29.2929 122.406 29.2929C121.302 29.2929 120.463 29.0501 119.558 28.6307L120.221 27.0634C120.861 27.3945 121.457 27.549 122.318 27.549C123.51 27.549 124.26 26.9309 125.055 25.0324L118.984 11.7212H121.192L126.048 22.8691L130.331 11.7212Z" fill="#504E4E"/>
</svg>
