<svg width="174" height="40" viewBox="0 0 174 40" fill="none" xmlns="http://www.w3.org/2000/svg">
<path d="M33.326 19.5146C33.0691 10.5344 25.7086 3.33331 16.6662 3.33331C13.8026 3.33331 11.1076 4.05553 8.75353 5.32775L33.326 19.5146Z" fill="#212527"/>
<path d="M6.41023 6.86159C5.72042 7.40082 5.07417 7.9932 4.47763 8.63256L32.6089 24.8741C32.8617 24.0461 33.0518 23.1907 33.1736 22.3134L6.41023 6.86159Z" fill="#212527"/>
<path d="M28.8551 31.3671C28.2585 32.0065 27.6123 32.5989 26.9225 33.1381L0.158875 17.6861C0.280714 16.8089 0.470831 15.9535 0.723687 15.1255L28.8551 31.3671Z" fill="#212527"/>
<path d="M30.4358 29.393L1.64486 12.7706C2.00873 12.0159 2.4278 11.2928 2.89682 10.6066L31.6877 27.2291C31.3239 27.9837 30.9048 28.7068 30.4358 29.393Z" fill="#212527"/>
<path d="M16.6662 36.6666C19.53 36.6666 22.2251 35.9444 24.5793 34.672L0.00646973 20.4849C0.26305 29.4654 7.62366 36.6666 16.6662 36.6666Z" fill="#212527"/>
<path d="M62.2975 20.375C62.2975 19.1666 61.6308 18.375 60.6308 18.375C59.5683 18.375 58.735 18.9583 57.8183 20.4583V27.5H49.1041C44.5833 27.5 41.6666 24.7291 41.6666 20.2291C41.6666 15.7291 44.5833 12.9583 49.1041 12.9583H52.6041V15.7708H49.1041C46.6666 15.7708 45.2083 17.3958 45.2083 20.2291C45.2083 23.0625 46.6666 24.6875 49.1041 24.6875H54.5683V12.0833H57.8183V17.1875C58.7975 16.1041 60.0475 15.6666 61.2975 15.6666C63.9433 15.6666 65.5475 17.4583 65.5475 20.1666V27.5H62.2975V20.375Z" fill="#212527"/>
<path d="M73.0397 18.375C73.9147 18.375 74.2897 19.0833 74.2897 20.1666V21.7291H77.5605V20.1666C77.5605 17.2083 75.9772 15.6666 73.748 15.6666C72.5605 15.6666 71.5605 16.1875 70.7063 17.2083L70.6438 15.9166H67.498V27.5H70.748V20.2708C71.6022 19.0208 72.3105 18.375 73.0397 18.375Z" fill="#212527"/>
<path fill-rule="evenodd" clip-rule="evenodd" d="M84.3185 27.75C80.6101 27.75 78.3601 25.4791 78.3601 21.7083C78.3601 17.9375 80.6101 15.6666 84.3185 15.6666C88.0268 15.6666 90.256 17.9375 90.256 21.7083C90.256 25.4791 88.0268 27.75 84.3185 27.75ZM81.6101 21.7083C81.6101 23.8541 82.631 25.125 84.3185 25.125C85.9851 25.125 87.006 23.8541 87.006 21.7083C87.006 19.5625 85.9851 18.2916 84.3185 18.2916C82.631 18.2916 81.6101 19.5625 81.6101 21.7083Z" fill="#212527"/>
<path d="M104.896 18.3541C106 18.3541 106.708 19.0625 106.708 20.2291V27.5H109.958V20.2291C109.958 17.375 108.104 15.6666 105.813 15.6666C104.021 15.6666 102.667 16.4583 101.958 17.6875C101.25 16.3958 99.8959 15.6666 98.3126 15.6666C97.0001 15.6666 95.7501 16.3125 94.9584 17.3125L94.8959 15.9166H91.7501V27.5H95.0001V20.1458C95.646 19.0833 96.4793 18.3541 97.4168 18.3541C98.5001 18.3541 99.2293 19.0625 99.2293 20.2291V27.5H102.479V20.1875C103.125 19.1041 103.958 18.3541 104.896 18.3541Z" fill="#212527"/>
<path fill-rule="evenodd" clip-rule="evenodd" d="M118.818 27.5L118.756 26.3541C117.964 27.3541 116.735 27.75 115.298 27.75C113.048 27.75 111.568 26.3125 111.568 24.2708C111.568 21.875 113.464 20.5208 116.589 20.5208H118.714V19.7291C118.714 18.625 117.943 17.9583 116.631 17.9583C115.339 17.9583 114.506 18.5833 114.402 19.6041H111.235C111.443 17.1666 113.527 15.6666 116.777 15.6666C119.943 15.6666 121.964 17.2083 121.964 19.9375V27.5H118.818ZM114.756 24.0625C114.756 24.6875 115.193 25.1875 116.11 25.1875C117.235 25.1875 118.089 24.625 118.714 23.6666V22.7708L116.527 22.7916C115.443 22.7916 114.756 23.1666 114.756 24.0625Z" fill="#212527"/>
<path d="M124.734 23.3333C124.734 25.7916 126.276 27.5 128.63 27.5H131.546V24.875H129.921C128.505 24.875 127.984 24.5416 127.984 23.3333V18.5416H130.359V15.9166H127.984V12.0833H124.734V15.9166H122.755V18.5416H124.734V23.3333Z" fill="#212527"/>
<path fill-rule="evenodd" clip-rule="evenodd" d="M137.929 27.75C134.221 27.75 131.971 25.4791 131.971 21.7083C131.971 17.9375 134.221 15.6666 137.929 15.6666C141.638 15.6666 143.867 17.9375 143.867 21.7083C143.867 25.4791 141.638 27.75 137.929 27.75ZM135.221 21.7083C135.221 23.8541 136.242 25.125 137.929 25.125C139.596 25.125 140.617 23.8541 140.617 21.7083C140.617 19.5625 139.596 18.2916 137.929 18.2916C136.242 18.2916 135.221 19.5625 135.221 21.7083Z" fill="#212527"/>
<path fill-rule="evenodd" clip-rule="evenodd" d="M144.819 21.7083C144.819 25.4791 147.069 27.75 150.778 27.75C154.486 27.75 156.715 25.4791 156.715 21.7083C156.715 17.9375 154.486 15.6666 150.778 15.6666C147.069 15.6666 144.819 17.9375 144.819 21.7083ZM150.778 25.125C149.09 25.125 148.069 23.8541 148.069 21.7083C148.069 19.5625 149.09 18.2916 150.778 18.2916C152.444 18.2916 153.465 19.5625 153.465 21.7083C153.465 23.8541 152.444 25.125 150.778 25.125Z" fill="#212527"/>
<path d="M162.863 23.3541C162.904 26.0833 164.863 27.75 168.05 27.75C171.05 27.75 172.863 26.3333 172.863 23.9791C172.863 21.1159 170.493 20.6674 168.611 20.3112C167.371 20.0764 166.342 19.8817 166.342 19.0625C166.342 18.3958 166.884 18.0208 167.8 18.0208C168.884 18.0208 169.592 18.5833 169.654 19.6041H172.654C172.446 17.125 170.8 15.6666 167.904 15.6666C165.05 15.6666 163.113 17 163.113 19.2708C163.113 21.9896 165.45 22.5358 167.325 22.9743C168.583 23.2683 169.634 23.5138 169.634 24.3333C169.634 25 169.029 25.3958 168.05 25.3958C166.634 25.3958 165.8 24.625 165.863 23.3541H162.863Z" fill="#212527"/>
<path d="M158.23 27.5V12.0833H161.48V27.5H158.23Z" fill="#212527"/>
</svg>
