<svg width="132" height="40" viewBox="0 0 132 40" fill="none" xmlns="http://www.w3.org/2000/svg">
<path d="M26.6666 21.6667C26.6666 26.2691 22.9356 30 18.3333 30C13.7309 30 9.99992 26.2691 9.99992 21.6667H3.33325C3.33325 29.951 10.049 36.6667 18.3333 36.6667C26.6175 36.6667 33.3333 29.951 33.3333 21.6667C33.3333 13.3824 26.6175 6.66669 18.3333 6.66669V13.3334C22.9356 13.3334 26.6666 17.0643 26.6666 21.6667Z" fill="#212527"/>
<path opacity="0.5" d="M8.33333 3.33331C8.33333 7.93569 4.60237 11.6666 0 11.6666V18.3333C8.28427 18.3333 15 11.6176 15 3.33331H8.33333Z" fill="#212527"/>
<path d="M41.6667 11.525H53.1417V14.7425H45.6042V17.8925H52.8717V21.0875H45.6042V24.2825H53.3217V27.5H41.6667V11.525Z" fill="#212527"/>
<path d="M54.3777 19.3325C54.8277 16.7 56.8077 15.305 60.1377 15.305C63.9627 15.305 65.8527 17.06 65.8527 20.5475V23.945C65.8527 24.8225 66.2127 24.9575 66.6177 24.9575H67.0227V27.5L66.4827 27.545C65.8527 27.5675 63.1077 27.995 62.7027 25.7C62.0727 26.9825 60.7227 27.77 58.4502 27.77C56.0202 27.77 54.1752 26.465 54.1752 24.35C54.1752 22.2125 55.7727 21.3125 58.7202 20.7275L61.9152 20.075C61.9152 18.4325 61.3527 17.6675 60.1152 17.6675C59.0802 17.6675 58.4502 18.275 58.2477 19.49L54.3777 19.3325ZM58.1577 24.1925C58.1577 24.89 58.7202 25.385 59.7777 25.385C61.0827 25.385 61.9827 24.395 61.9827 22.4375V22.325L60.2952 22.64C59.0127 22.865 58.1577 23.135 58.1577 24.1925Z" fill="#212527"/>
<path d="M75.1221 19.5125C74.9421 18.455 74.1096 17.825 73.2096 17.825C72.2646 17.825 71.5896 18.32 71.6346 19.1075C71.6796 19.8725 72.5346 20.2325 73.5921 20.4125C77.3946 20.975 79.0146 21.9425 79.0146 24.17C79.0146 26.555 76.8096 27.77 73.5246 27.77C69.8121 27.77 67.5621 26.2625 67.3596 23.6975L71.2521 23.54C71.4546 24.5975 72.1971 25.1825 73.3896 25.1825C74.1996 25.1825 75.0771 24.8675 75.0321 24.125C75.0096 23.2475 74.0646 23.0225 72.9621 22.82C69.2946 22.145 67.6521 21.245 67.6521 19.1075C67.6521 16.7 69.6771 15.2825 73.3221 15.2825C76.5171 15.2825 78.5871 16.79 78.9696 19.3775L75.1221 19.5125Z" fill="#212527"/>
<path d="M78.7564 15.575H82.3564L85.1464 23.4725L87.8014 15.575H91.4014L86.7664 28.5125C86.1814 30.155 85.0789 30.875 83.2339 30.875H80.8939V28.13H82.4464C83.2114 28.13 83.5939 27.9275 83.8189 27.365L84.0664 26.7575H83.0314L78.7564 15.575Z" fill="#212527"/>
<path d="M104.738 11.525V14.7425H100.013V27.5H96.0983V14.7425H91.3733V11.525H104.738Z" fill="#212527"/>
<path d="M104.83 19.3325C105.28 16.7 107.26 15.305 110.59 15.305C114.415 15.305 116.305 17.06 116.305 20.5475V23.945C116.305 24.8225 116.665 24.9575 117.07 24.9575H117.475V27.5L116.935 27.545C116.305 27.5675 113.56 27.995 113.155 25.7C112.525 26.9825 111.175 27.77 108.903 27.77C106.473 27.77 104.628 26.465 104.628 24.35C104.628 22.2125 106.225 21.3125 109.173 20.7275L112.368 20.075C112.368 18.4325 111.805 17.6675 110.568 17.6675C109.533 17.6675 108.903 18.275 108.7 19.49L104.83 19.3325ZM108.61 24.1925C108.61 24.89 109.173 25.385 110.23 25.385C111.535 25.385 112.435 24.395 112.435 22.4375V22.325L110.748 22.64C109.465 22.865 108.61 23.135 108.61 24.1925Z" fill="#212527"/>
<path d="M126.966 15.5525H131.151L126.944 21.4475L131.264 27.5H127.079L124.739 23.855L122.376 27.5H118.191L122.511 21.4475L118.304 15.5525H122.466L124.739 19.0175L126.966 15.5525Z" fill="#212527"/>
</svg>
