<svg width="154" height="30" viewBox="0 0 154 30" fill="none" xmlns="http://www.w3.org/2000/svg">
<path d="M153.789 22.975V21.4366H117.098L115.637 24.7698L112.432 10.5908L111.509 13.8728L109.201 22.0776L106.996 15.7958L106.073 18.0265L104.56 21.4366H0V22.975H105.458L106.791 20.1033L108.483 24.6672L109.483 27.5389L112.201 16.847L115.252 30.0004L116.227 27.3851L118.124 22.975H153.789Z" fill="#504E4E"/>
<path d="M12.6406 1.33436V4.77013C10.3073 3.71889 8.4356 3.20608 7.05103 3.20608C6.25619 3.20608 5.64083 3.33428 5.1793 3.59068C4.71778 3.84708 4.48702 4.20605 4.48702 4.64193C4.48702 4.97525 4.6665 5.30857 4.99982 5.59061C5.33314 5.89829 6.15363 6.28289 7.46128 6.77006C8.76892 7.25722 9.79453 7.6931 10.5894 8.10335C11.3842 8.51359 12.0509 9.10331 12.6149 9.84687C13.179 10.5904 13.4611 11.5391 13.4611 12.6929C13.4611 14.3339 12.8457 15.6159 11.615 16.5902C10.3842 17.5646 8.74328 18.0517 6.71771 18.0517C4.5383 18.0517 2.41017 17.4876 0.358962 16.3595V12.5647C1.53841 13.3596 2.56401 13.9237 3.48706 14.2826C4.38446 14.6416 5.35879 14.8211 6.38439 14.8211C8.10228 14.8211 8.97404 14.2826 8.97404 13.2057C8.97404 12.8468 8.79456 12.4878 8.46124 12.1545C8.12792 11.8212 7.28179 11.4366 5.97415 10.9494C4.6665 10.4879 3.61526 10.052 2.84605 9.64175C2.07685 9.23151 1.41021 8.66743 0.846124 7.92386C0.282042 7.1803 0 6.23162 0 5.05217C0 3.53941 0.615363 2.30868 1.82045 1.38563C3.05117 0.462588 4.6665 0.00106778 6.71771 0.00106778C8.5638 -0.0245723 10.5381 0.411313 12.6406 1.33436Z" fill="#504E4E"/>
<path d="M16 0.206055H23.8459C25.615 0.206055 27.0509 0.718857 28.1021 1.74446C29.1534 2.77007 29.6662 4.0008 29.6662 5.411C29.6662 6.87249 29.1534 8.12886 28.1021 9.15446C27.0765 10.2057 25.6407 10.7185 23.8715 10.7185H20.3588V17.7952H16V0.206055ZM20.3588 3.41107V7.48785H22.41C24.2305 7.48785 25.1535 6.79557 25.1535 5.43664C25.1535 4.66744 24.8971 4.129 24.4356 3.84695C23.9484 3.53927 23.128 3.41107 21.9485 3.41107H20.3588Z" fill="#504E4E"/>
<path d="M31.6409 0.206055H39.5124C41.2303 0.206055 42.6148 0.693222 43.6661 1.69319C44.743 2.66751 45.2558 3.8726 45.2558 5.2828C45.2558 7.23145 44.2558 8.66729 42.2302 9.59034C43.102 10.0006 43.9481 11.0775 44.743 12.8466C45.5378 14.6158 46.307 16.2824 47.0506 17.8208H42.2302C41.9482 17.2311 41.4354 16.1286 40.7175 14.5132C39.9996 12.8723 39.3842 11.8467 38.897 11.3851C38.3842 10.9236 37.8458 10.6929 37.2561 10.6929H35.9997V17.8465H31.6152V0.206055H31.6409ZM36.0253 3.41107V7.41093H38.3329C39.0765 7.41093 39.6662 7.23145 40.1021 6.89813C40.538 6.53916 40.7431 6.05201 40.7431 5.411C40.7431 4.07772 39.897 3.41107 38.2304 3.41107H36.0253Z" fill="#504E4E"/>
<path d="M62.3567 14.5645V17.7952H49.3828V0.206055H62.2029V3.41107H53.7673V7.10325H61.7926V10.3339H53.7673V14.5645H62.3567Z" fill="#504E4E"/>
<path d="M76.6126 0.206055L84.4329 17.7952H79.7151L78.2536 14.3081H70.3821L69.0745 17.7952H64.4336L71.5359 0.206055H76.6126ZM76.9973 11.2313L74.1512 4.3854L71.5615 11.2313H76.9973Z" fill="#504E4E"/>
<path d="M86.6641 0.206055H94.433C97.4329 0.206055 99.7918 1.02654 101.535 2.66751C103.279 4.30847 104.151 6.43661 104.151 9.02626C104.151 11.7441 103.279 13.8979 101.51 15.4619C99.7405 17.026 97.2278 17.7952 93.9459 17.7952H86.6897V0.206055H86.6641ZM91.0485 3.41107V14.5645H93.8946C95.7407 14.5645 97.1765 14.0517 98.1508 13.0261C99.1252 12.0005 99.6123 10.6672 99.6123 9.00062C99.6123 7.28273 99.1252 5.89817 98.1252 4.92384C97.1252 3.92388 95.6894 3.43671 93.8433 3.43671H91.0485V3.41107Z" fill="#504E4E"/>
<path d="M134.123 12.7956C133.046 15.3852 130.098 17.6159 126.406 17.6159C121.431 17.6159 117.637 13.7699 117.637 8.92393C117.637 4.12923 121.329 0.231934 126.38 0.231934C130.534 0.231934 133.149 3.00107 134.123 5.1292H132.098C131.534 4.12923 129.611 1.8729 126.38 1.8729C122.457 1.8729 119.508 4.97536 119.508 8.8983C119.508 12.8725 122.483 15.9493 126.38 15.9493C129.893 15.9493 131.688 13.4366 132.098 12.7956H134.123Z" fill="#504E4E"/>
<path d="M136.277 8.97521C136.277 3.79591 140.303 0.231934 145.046 0.231934C149.969 0.231934 153.815 4.00103 153.815 8.92393C153.815 13.8468 149.995 17.6159 145.046 17.6159C140.072 17.6159 136.277 13.7956 136.277 8.97521ZM138.175 8.92393C138.175 12.8725 141.149 15.9493 145.072 15.9493C149.046 15.9493 151.943 12.7443 151.943 8.92393C151.943 5.07791 149.046 1.89854 145.046 1.89854C141.098 1.89854 138.175 5.02663 138.175 8.92393Z" fill="#504E4E"/>
</svg>
