<svg width="152" height="40" viewBox="0 0 152 40" fill="none" xmlns="http://www.w3.org/2000/svg">
<path fill-rule="evenodd" clip-rule="evenodd" d="M16.9999 3.33331C26.2047 3.33331 33.6666 10.7952 33.6666 20C33.6666 29.2047 26.2047 36.6666 16.9999 36.6666C7.79517 36.6666 0.333252 29.2047 0.333252 20C0.333252 10.7952 7.79517 3.33331 16.9999 3.33331ZM29.4999 20C29.4999 26.9035 23.9035 32.5 16.9999 32.5V7.49998C23.9035 7.49998 29.4999 13.0964 29.4999 20Z" fill="#212527"/>
<path d="M49.8525 10.76C54.4425 10.76 56.625 13.055 57.0525 16.385H53.745C53.3625 14.6975 52.035 13.685 49.875 13.685C47.0625 13.685 45.3975 15.485 45.3975 19.1975C45.3975 23.4725 47.3775 24.89 49.9425 24.89C52.08 24.89 53.3625 23.9 53.7675 22.19H57.0525C56.58 25.8575 54.0375 27.815 49.8525 27.815C44.835 27.815 42 24.98 42 19.355C42 14.3825 44.4525 10.76 49.8525 10.76Z" fill="#212527"/>
<path d="M61.3521 21.5375C61.3521 24.26 62.3871 25.205 64.1421 25.205C65.8746 25.205 66.8871 24.26 66.8871 21.5375C66.8871 18.86 65.8746 17.8925 64.1421 17.8925C62.3871 17.8925 61.3521 18.86 61.3521 21.5375ZM57.9996 21.5375C57.9996 17.4875 60.1371 15.305 64.1421 15.305C68.1471 15.305 70.2621 17.4875 70.2621 21.5375C70.2621 25.61 68.1246 27.815 64.1421 27.815C60.1371 27.815 57.9996 25.61 57.9996 21.5375Z" fill="#212527"/>
<path d="M78.5694 15.305C81.0669 15.305 82.5069 16.295 82.7994 18.4775C82.8669 19.085 82.8894 19.6475 82.8894 20.615V27.5H79.6719V20.57C79.6719 18.995 79.2444 17.9825 77.4669 17.9825C76.0044 17.9375 74.9694 18.95 74.9694 21.2V27.5H71.7519V15.62H74.6994L74.8344 17.555C75.2169 15.8 76.6119 15.305 78.5694 15.305Z" fill="#212527"/>
<path d="M88.9508 23.3825C88.9508 25.1375 89.3333 25.295 91.4708 25.1825V27.6125C90.7283 27.7025 90.0983 27.77 89.0408 27.77C86.6558 27.77 85.8908 26.8025 85.7558 25.2725C85.7108 24.62 85.7108 24.1475 85.7108 23.4725V18.185H84.0008V15.6425H85.7108V12.1775H88.9508V15.6425H91.6058V18.185H88.9508V23.3825Z" fill="#212527"/>
<path d="M99.2265 15.305C99.654 15.305 99.924 15.305 100.194 15.3725V17.9825C97.3365 17.69 96.0315 18.995 96.0315 22.3475V27.5H92.814V15.62H95.7615L95.8965 17.8925C96.1215 16.0475 97.4265 15.305 99.2265 15.305Z" fill="#212527"/>
<path d="M105.88 15.305C109.39 15.305 110.695 16.8125 110.852 18.905C110.897 19.5125 110.92 20.075 110.92 20.75V27.5H108.017L107.837 25.925C107.297 27.5225 105.88 27.815 104.125 27.815C101.942 27.815 100.232 26.5775 100.232 24.26C100.232 21.29 102.505 20.21 107.095 20.21H107.747V19.7825C107.747 18.6125 107.365 17.87 105.745 17.87C104.327 17.87 103.697 18.365 103.562 19.4675H100.615C100.705 16.9025 102.28 15.305 105.88 15.305ZM103.36 23.8775C103.36 24.755 104.057 25.25 105.16 25.25C106.42 25.25 107.747 24.53 107.747 23.36V22.415C104.912 22.28 103.36 22.5725 103.36 23.8775Z" fill="#212527"/>
<path d="M117.343 15.305C120.718 15.305 122.158 16.61 122.316 19.1075H119.211C119.053 18.005 118.311 17.735 117.276 17.735C116.331 17.735 115.611 18.095 115.611 18.77C115.611 19.49 116.196 19.895 118.041 20.1875C121.168 20.66 122.676 21.74 122.676 24.08C122.676 26.6 120.381 27.815 117.523 27.815C114.148 27.815 112.416 26.6225 112.101 23.9225H115.251C115.453 25.0025 116.128 25.3625 117.613 25.3625C118.783 25.3625 119.481 24.98 119.481 24.35C119.481 23.5625 118.671 23.1125 116.916 22.8425C113.766 22.325 112.416 21.38 112.416 18.9725C112.416 16.79 114.351 15.305 117.343 15.305Z" fill="#212527"/>
<path d="M128.109 23.3825C128.109 25.1375 128.491 25.295 130.629 25.1825V27.6125C129.886 27.7025 129.256 27.77 128.199 27.77C125.814 27.77 125.049 26.8025 124.914 25.2725C124.869 24.62 124.869 24.1475 124.869 23.4725V18.185H123.159V15.6425H124.869V12.1775H128.109V15.6425H130.764V18.185H128.109V23.3825Z" fill="#212527"/>
<path d="M141.059 11.075L146.864 27.5H143.376L142.004 23.54H135.951L134.556 27.5H131.114L137.031 11.075H141.059ZM136.739 20.75H141.261L139.034 14.1575L136.739 20.75Z" fill="#212527"/>
<path d="M151.462 11.075V27.5H148.177V11.075H151.462Z" fill="#212527"/>
</svg>
