<svg width="158" height="30" viewBox="0 0 158 30" fill="none" xmlns="http://www.w3.org/2000/svg">
<path d="M70.6003 7.68113L70.5949 7.65973C70.413 7.13553 69.9209 6.48296 69.1133 6.29574C68.8191 5.68596 68.2146 5.31153 67.5139 5.31153C67.3481 5.31153 67.2197 5.33293 67.1395 5.34898C67.0967 5.35967 66.9202 5.39712 65.5829 5.7234L63.6092 6.19411C63.7803 5.69665 63.7589 5.18316 63.5396 4.73919C63.2668 4.18825 62.7159 3.82986 62.1435 3.82986C61.9403 3.82986 61.7424 3.87266 61.5605 3.95824L61.5445 3.96894C61.4696 4.00638 61.3305 4.07592 57.8162 6.35458C57.7734 6.38667 57.7253 6.41342 57.6878 6.45086C55.9815 7.93788 55.3557 8.81511 55.2113 9.03977C55.131 9.15745 54.992 9.3821 54.8689 9.6656C54.778 9.61745 54.6871 9.57466 54.5961 9.53722C53.8901 9.22698 53.1519 9.06651 52.4084 9.06651C51.0605 9.06651 50.1083 9.59071 49.8569 9.75118C49.7232 9.82606 49.2258 10.1256 48.4555 10.714C48.156 10.944 47.8725 11.2221 47.6318 11.5324C47.1236 11.6501 46.7064 11.7891 46.3962 11.9496C46.0057 12.1529 45.6152 12.4578 45.198 12.7841L45.1712 12.8054C45.1017 12.8589 45.0268 12.9178 44.9573 12.9766C44.7808 13.1157 44.3261 13.4955 43.8768 14.1106L43.8286 14.1213C43.7698 14.132 43.2028 14.2604 42.5128 14.592C42.3416 14.6776 42.1651 14.7685 41.9939 14.8755C41.5928 14.8862 40.9669 14.9557 40.1539 15.1964L40.1218 15.1911C40.0523 15.1804 39.4371 15.0574 38.6776 15.0574C38.3566 15.0574 38.0464 15.0788 37.7629 15.1216C37.581 15.1483 36.9338 15.2446 36.4043 15.3997C36.1475 15.4746 35.4896 15.6939 34.7514 16.1699C33.1467 15.8009 31.5153 15.6778 30.499 15.6351C31.4618 14.3406 31.9432 12.8322 31.7828 11.5377C31.4832 9.1093 29.8357 7.67578 29.2473 7.23716C28.2203 2.99007 25.2731 1.18212 22.8232 0.903975C22.3418 0.342332 21.4164 0 20.3894 0C19.9722 0 19.5603 0.0534885 19.1645 0.165817C17.8594 0.529547 16.8324 1.52446 16.6291 2.5996C15.324 3.68009 13.2967 6.10853 13.853 10.4786C13.3609 11.1419 12.4141 12.8322 13.0613 15.3783C13.5053 17.1274 14.5911 18.3898 16.2119 19.0477C14.9442 19.6575 13.8369 20.3956 12.9169 21.2515C12.8634 21.305 12.8046 21.3531 12.7511 21.4066C10.558 21.5243 8.57355 22.4336 6.99025 24.0383C5.32137 25.7393 4.47624 27.7826 4.05902 29.2001L4.04297 29.2535H40.309C40.5497 29.2161 41.0365 29.0824 41.4965 28.8952C42.117 28.6491 42.5823 28.371 42.9193 28.0393C43.6628 27.9377 44.2298 27.7451 44.6096 27.6168C44.6096 27.6168 44.7219 27.5793 44.7594 27.5686C45.4119 27.3547 46.9097 26.5684 47.466 25.4772C48.5839 25.0492 49.4076 24.4823 49.9265 23.7922C50.9 23.6264 51.6542 23.1985 52.0607 22.9685C53.0289 22.4176 53.7136 21.8827 54.1468 21.321C54.5052 20.861 54.7245 20.508 54.8903 20.1228C55.222 19.9517 55.5964 19.7217 56.0831 19.3954C57.7788 18.2561 58.1425 16.186 58.1746 15.9506C58.1853 15.9025 58.1906 15.849 58.196 15.8009C58.2816 15.8062 58.3672 15.8116 58.4527 15.8116C60.1591 15.8116 62.3842 14.7418 63.5824 14.1641L63.6038 14.1534C63.791 14.0625 63.9461 13.9876 64.0264 13.9555C64.4276 13.7897 65.2459 13.3457 66.0911 12.7787C67.1662 12.0566 67.9097 11.3826 68.2949 10.7782C68.359 10.6766 68.4072 10.5749 68.4446 10.4626L69.1453 10.0293C69.3486 9.9063 69.5198 9.71374 69.6268 9.48908C69.8193 9.3821 69.9798 9.28582 70.0279 9.25373C70.5682 8.91139 70.8035 8.29091 70.6003 7.68113Z" fill="#504E4E"/>
<path d="M9.66998 29.2646H5.43359C5.97384 27.5957 6.85107 26.0927 7.93157 24.9908C9.01206 23.8942 10.2637 23.1935 11.6758 22.9047C11.1677 23.5947 10.7505 24.3382 10.4295 25.1352C9.68603 26.9646 9.64324 28.5639 9.66998 29.2646ZM38.4582 29.2593H10.8254C10.7986 28.719 10.8147 27.2534 11.4993 25.5685C12.0075 24.3168 12.7884 23.1935 13.8101 22.2468C14.7248 21.3963 15.8373 20.6795 17.1372 20.1018C17.2655 20.059 17.549 19.9788 17.9181 20.0002C18.4904 20.0376 19.5228 20.273 20.0951 20.166C20.2235 20.1446 20.3679 19.9895 20.0523 19.8879C19.9614 19.8558 19.1537 19.5241 19.2607 19.123C19.2607 19.1176 19.266 19.1069 19.266 19.1069C19.2981 18.9999 19.4426 18.8716 19.6512 18.8555C20.5605 18.7699 21.09 18.6683 21.3361 18.6362C21.4859 18.6148 21.5982 18.5827 21.6249 18.5078C21.6463 18.449 21.6035 18.4169 21.4431 18.4276C19.9133 18.5185 17.9448 18.1869 17.0837 17.9408C15.6394 17.4862 14.7248 16.5127 14.3557 15.0524C13.9224 13.3514 14.3664 12.0035 14.9334 11.2653C15.2222 10.9123 15.7143 10.463 15.8641 10.3453C16.2546 10.0351 15.9871 10.1046 15.5592 10.1581C15.249 10.2009 15.1634 10.0618 15.142 9.93877C15.1259 9.82644 15.1099 9.47341 15.0938 9.29689C15.0511 7.99174 15.2811 6.82031 15.7785 5.79331C16.3134 4.68607 17.0623 3.95327 17.6346 3.5093C17.8753 3.33813 18.223 3.09208 18.4744 2.95835C18.8702 2.74974 18.6509 2.61067 18.1481 2.71765C18.1481 2.71765 17.993 2.76044 18.0358 2.62672C18.0465 2.60532 18.0518 2.58393 18.0625 2.56253C18.1 2.4823 18.1428 2.40741 18.1909 2.33787C18.469 1.97414 18.9451 1.62646 19.5067 1.47134C20.5658 1.17715 21.5768 1.48204 21.8015 1.81368C21.8229 1.86717 21.8175 1.91531 21.7426 1.9474C21.5554 2.02229 21.427 2.15601 21.7319 2.19345C21.8015 2.20415 22.1063 2.19345 22.5503 2.23624C22.5717 2.24159 22.5878 2.24159 22.6092 2.24694C24.508 2.44486 26.8081 3.81419 27.7763 7.03962C27.787 7.08242 27.7977 7.11986 27.8084 7.16265L27.8298 7.24289C27.8405 7.28568 27.8511 7.32312 27.8618 7.36591C27.8939 7.47824 27.9153 7.60661 27.9421 7.71894C27.7121 7.76708 27.6372 7.92221 27.8618 7.99709C28.0063 8.04523 28.1774 8.14686 28.3112 8.2378C28.3112 8.2378 28.3165 8.24314 28.3219 8.24314C28.3272 8.24849 28.3326 8.24849 28.3379 8.25384L28.3753 8.28058C28.3807 8.28593 28.386 8.28594 28.3914 8.29129C28.4342 8.32338 28.5198 8.38757 28.6 8.45176C29.4237 9.12573 30.2475 10.249 30.424 11.6986C30.5738 12.9342 29.8945 14.2875 29.0868 15.2075C28.7712 15.5498 28.2095 16.0794 27.236 16.6731C27.0167 16.8069 27.2146 16.9727 28.3005 16.5822C28.3967 16.5608 28.5465 16.4913 28.6374 16.5822C28.7391 16.6838 28.7658 17.1545 28.386 17.5932C28.0063 18.0318 28.5626 17.8766 29.2151 17.3097C29.3435 17.1973 29.4291 17.0797 29.4879 16.9566C30.0549 16.9566 31.804 16.9834 33.6334 17.315C33.2536 17.7162 32.9327 18.1708 32.6759 18.6629C31.8629 20.2409 31.6222 21.9151 31.9752 23.6375C32.1892 24.6966 32.8471 26.221 33.6869 27.0822C34.2646 27.676 35.1365 28.5693 36.8 29.04C37.3081 29.1844 37.8644 29.2539 38.4582 29.2593ZM40.0736 27.9274C39.9184 27.9541 39.2766 28.1039 38.4849 28.1039C38.057 28.1039 37.5809 28.0611 37.1209 27.9274C35.7997 27.5529 35.1258 26.895 34.5267 26.2799C33.9222 25.6594 33.3178 24.3917 33.1199 23.4128C32.922 22.434 32.8203 20.9309 33.7136 19.2032C34.6069 17.4755 36.2704 16.8389 36.7679 16.6945C37.2653 16.5501 37.9447 16.4538 37.9447 16.4538C37.9982 16.4431 38.057 16.4378 38.1105 16.4324C37.5916 16.8496 37.137 17.3524 36.7732 17.9194C36.2437 18.7378 35.9174 19.6686 35.8265 20.6153C35.7355 21.5567 35.8425 22.5356 36.1367 23.4449C36.4309 24.3596 36.9016 25.1887 37.5007 25.8466C38.073 26.4725 38.7845 26.9967 39.5494 27.3604C39.9184 27.5369 40.2982 27.6706 40.678 27.7669C40.3891 27.8578 40.1591 27.9167 40.0736 27.9274ZM41.9564 26.7613H41.8548C40.694 26.7399 39.3407 26.1408 38.3512 25.0603C37.3616 23.9798 36.8214 22.3323 36.9765 20.7223C37.1263 19.1123 38.0944 17.7697 39.2659 17.0262C39.5387 16.855 39.8168 16.7266 40.095 16.625C40.2126 16.5822 40.3303 16.5448 40.4426 16.5127C40.4212 16.5448 40.3998 16.5715 40.3785 16.6036C39.1803 18.3848 39.2605 20.6474 39.8489 21.99C40.1538 22.6907 40.5015 23.2791 40.924 23.7819C41.475 24.4505 42.1383 24.9587 42.8978 25.2957C43.5985 25.6059 44.3367 25.7664 45.0909 25.7664C45.1711 25.7664 45.2514 25.7664 45.3316 25.761C44.9786 26.0071 44.5934 26.1997 44.3206 26.2906C43.866 26.4404 43.0636 26.7613 41.9564 26.7613ZM46.7116 24.3168C46.2623 24.4719 45.7114 24.6057 45.0962 24.6057C44.5613 24.6057 43.9783 24.504 43.3739 24.2366C42.0687 23.6535 41.3573 22.5356 40.9187 21.53C40.4801 20.5244 40.3784 18.6897 41.3466 17.2508C41.8708 16.4752 42.6304 16.0099 43.2188 15.7424C42.8336 16.871 42.6571 18.6255 43.8927 20.7063L43.9141 20.7383C44.54 21.7226 45.353 22.4875 46.3319 23.001C46.9095 23.3059 47.5354 23.5145 48.1719 23.6161C47.7119 23.9263 47.177 24.1563 46.7116 24.3168ZM49.1829 22.5249H49.0545C47.6691 22.5249 45.9895 21.8616 44.8876 20.1179C42.9406 16.8336 45.0695 14.5817 45.7649 14.0414C46.1874 13.7098 46.6047 13.3675 46.9309 13.1856C46.7758 13.6189 46.717 13.9559 46.7009 14.0682C46.5565 14.8973 46.6849 15.9564 47.0486 16.9085C47.5247 18.1655 48.3698 19.1818 49.4878 19.8397C50.3917 20.3746 51.3278 20.6474 52.2692 20.6474C52.526 20.6474 52.7667 20.626 52.986 20.5939C52.5474 21.1021 51.8253 21.546 51.3759 21.8028C50.8517 22.1023 50.1136 22.4982 49.1829 22.5249ZM69.4073 8.28058C69.295 8.35012 69.1452 8.44105 69.0008 8.51594C68.9955 8.51059 68.9955 8.49989 68.9901 8.49454C68.7869 8.15756 68.5248 7.9543 68.2038 7.87406C67.701 7.75639 67.0645 7.95965 66.2086 8.51059C64.9623 9.31294 63.0421 9.7676 63.0207 9.77295C62.8869 9.80504 62.8067 9.93877 62.8388 10.0725C62.8655 10.1848 62.9672 10.2651 63.0795 10.2651C63.1009 10.2651 63.1169 10.2651 63.1383 10.2597C63.2186 10.2383 65.1603 9.78365 66.4814 8.93316C67.1982 8.47315 67.7385 8.28058 68.0968 8.36082C68.268 8.40361 68.4071 8.50524 68.5301 8.68176C68.6906 8.93316 68.5408 9.04549 68.5301 9.05619C68.5194 9.06153 67.9043 9.44132 67.6529 9.59644C67.5245 9.45736 67.2624 9.23271 66.8559 9.20061C66.4119 9.16317 65.9519 9.36643 65.4919 9.79969C64.3686 10.8588 63.149 11.2011 63.1276 11.2065C62.9993 11.2439 62.919 11.3776 62.9565 11.506C62.9886 11.6183 63.0849 11.6879 63.1972 11.6879C63.2186 11.6879 63.24 11.6879 63.2614 11.6772C63.3149 11.6611 64.62 11.3028 65.8396 10.1474C66.1926 9.81574 66.5296 9.65527 66.8238 9.68202C67.1073 9.70876 67.2784 9.89598 67.3266 9.95482C67.3373 9.97086 67.3908 10.0564 67.3319 10.1474C66.6419 11.2279 64.2616 12.6079 63.5823 12.8914C63.0688 13.1107 61.0469 14.1966 59.378 14.5496C59.1961 14.5977 59.0143 14.6245 58.8271 14.6405C58.8057 14.6405 58.7896 14.6405 58.7682 14.6459C58.5275 14.6566 57.4042 14.678 57.0673 14.3356C56.5858 13.8489 56.4093 14.1966 56.5591 14.8277C56.0296 15.1487 55.2379 15.6301 55.0293 15.7585C54.4837 16.0901 53.7669 15.7157 53.6439 15.7157C53.3497 15.7103 54.0451 16.5875 54.6174 16.6731C55.2379 16.7641 56.3986 16.0259 56.3986 16.0259L56.8372 15.7371C56.8372 15.7371 56.5805 17.422 55.3288 18.2618C54.5532 18.7806 54.2323 18.9411 53.9328 19.0748C53.7455 19.1604 53.1465 19.4653 52.2853 19.4653C51.6755 19.4653 50.9266 19.3155 50.0922 18.8234C48.0756 17.6306 47.6744 15.2931 47.8617 14.2393C47.8617 14.2393 48.0863 12.6935 49.2791 11.7735C50.0761 11.1637 50.5469 10.8962 50.5469 10.8962C50.5469 10.8962 51.2904 10.4041 52.4083 10.4041C52.8897 10.4041 53.4406 10.4951 54.029 10.7518C53.8525 10.8748 53.7027 11.0086 53.6172 11.1369C53.3872 11.4793 53.0716 12.2763 53.2909 12.2709C53.4513 12.2709 53.553 11.8804 54.0879 11.6023C54.35 11.4632 55.5963 10.7358 55.5963 10.7358C55.5963 10.7358 55.6498 10.5432 55.7033 10.4255C55.7033 10.4255 55.853 10.0939 56.174 9.63388C56.1954 9.60178 56.2382 9.5376 56.313 9.44132C56.5003 9.18991 56.7303 8.91712 57.0138 8.63897C57.3561 8.28059 57.8161 7.83662 58.4312 7.29638C58.4312 7.29638 61.8867 5.05516 62.0471 4.97492C62.0792 4.95887 62.106 4.95352 62.1434 4.95352C62.443 4.95352 62.8548 5.47237 62.336 6.15704C61.9134 6.71334 61.432 7.08242 61.0415 7.38196C60.9346 7.46219 60.7794 7.56917 60.6671 7.60661C60.1429 7.79383 59.4475 8.20035 59.3459 8.28058C59.2229 8.37152 59.2336 8.52129 59.378 8.4571C59.8327 8.25919 60.5708 8.07198 60.7046 8.03453C61.4909 7.86337 67.2624 6.47263 67.3694 6.45124C67.3961 6.44589 67.4496 6.44054 67.5138 6.44054C67.7117 6.44054 68.0327 6.51008 68.1396 6.9273C68.145 6.94334 68.145 6.95404 68.1503 6.97009L62.8602 8.54803C62.7318 8.59082 62.6569 8.72455 62.6944 8.85828C62.7265 8.94921 62.796 9.01339 62.8869 9.02944C62.9244 9.04014 62.9672 9.03479 63.0046 9.02409L67.7171 7.62266C67.8133 7.60127 67.9899 7.55313 68.3268 7.4408L68.3803 7.42475C68.482 7.39265 68.5782 7.38196 68.6692 7.38196C69.1506 7.38196 69.4394 7.77243 69.525 8.02918C69.5464 8.15221 69.5036 8.22175 69.4073 8.28058Z" fill="white"/>
<path d="M24.1295 6.93784C24.1295 7.25878 24.1776 7.60111 24.2579 7.90601C24.3542 8.21625 24.4718 8.52649 24.6644 8.79394C24.8302 9.02395 25.0281 9.2486 25.3009 9.33419H25.2956C25.2956 9.33419 25.3009 9.33418 25.3223 9.34488C25.3384 9.35023 25.3437 9.35023 25.3437 9.35023C25.4079 9.36628 25.4721 9.37163 25.5416 9.37163C25.6486 9.37163 25.7609 9.35023 25.8893 9.32348C26.023 9.29139 26.1621 9.26465 26.2798 9.20046C26.4296 9.12023 26.5098 8.92766 26.5686 8.77789C26.6328 8.60672 26.6649 8.42486 26.6756 8.24299C26.697 7.92206 26.6435 7.60647 26.5472 7.30158C26.5472 7.31227 26.5526 7.32832 26.5579 7.34436C26.7398 8.15206 26.4937 8.89557 26.0177 9.00255C25.5363 9.11487 25.0014 8.54789 24.8249 7.73484C24.7767 7.51553 24.7607 7.30158 24.766 7.10901C24.8677 7.25344 25.0174 7.32832 25.1618 7.29087C25.3651 7.23738 25.4667 6.98598 25.3972 6.72923C25.3384 6.50457 25.1618 6.34945 24.9853 6.3548C25.087 6.21038 25.21 6.1141 25.3598 6.08201C25.67 6.01247 26.0016 6.22108 26.2477 6.60086C26.1888 6.48853 26.1193 6.38155 26.0391 6.27992C25.8519 6.02852 25.6005 5.78782 25.2849 5.72363C25.2314 5.71293 25.1779 5.70758 25.1244 5.70758C24.8463 5.70758 24.5628 5.8413 24.3862 6.04991C24.1883 6.28527 24.1348 6.6276 24.1295 6.93784ZM23.9476 7.91671C23.8513 7.56902 23.7337 7.02877 23.7658 6.51527C23.8086 5.77711 24.183 5.3599 24.6376 5.22082C25.1939 5.04431 25.7823 5.32245 26.1193 5.75572C26.3065 5.99642 26.5044 6.3441 26.6489 6.70249C26.7024 6.82551 26.7558 6.94854 26.7986 7.08762C26.9377 7.49949 27.0019 7.88996 26.9805 8.26439C26.9698 8.48905 26.927 8.69766 26.8575 8.88487C26.7826 9.09348 26.6649 9.34488 26.4296 9.47326C26.2744 9.55884 26.1086 9.59094 25.9642 9.62303H25.9588C25.8305 9.64978 25.6914 9.67652 25.547 9.67652C25.456 9.67652 25.3758 9.66582 25.2902 9.64442C25.2795 9.64442 25.2635 9.63908 25.2474 9.63373H25.2421C25.2367 9.63373 25.2314 9.62838 25.226 9.62838H25.2207H25.2153C24.8463 9.5107 24.6109 9.23255 24.4237 8.9758C24.2632 8.75649 24.1562 8.51579 24.0707 8.29114V8.28579C24.0707 8.28579 24.0493 8.23765 24.0225 8.15206C24.0065 8.09857 23.9904 8.05043 23.9744 7.99694V7.99159V7.98624C23.9583 7.9595 23.9583 7.9381 23.9476 7.91671ZM25.3277 9.33953C25.333 9.33953 25.3437 9.34488 25.3491 9.34488C25.3437 9.34488 25.317 9.33419 25.3063 9.33419C25.317 9.33419 25.3223 9.33953 25.3277 9.33953ZM19.8557 9.56419C20.0536 9.93862 20.305 10.2275 20.5564 10.3772C20.6794 10.4521 20.8185 10.4896 20.9683 10.4896C21.0966 10.4896 21.2357 10.4682 21.4015 10.42H21.4122C21.4818 10.3986 21.7011 10.3398 21.8134 10.2917C22.0273 10.2007 22.2039 9.90117 22.2894 9.48395C22.3215 9.33418 22.3376 9.17372 22.3376 9.01325C22.2841 9.51605 22.038 9.91188 21.6743 9.99746C21.1394 10.1258 20.5457 9.55349 20.3478 8.71905C20.2943 8.4944 20.2782 8.27509 20.2889 8.07183C20.3906 8.19486 20.5403 8.25904 20.6794 8.2216C20.8827 8.16811 20.9896 7.91136 20.9148 7.65995C20.8559 7.45669 20.7008 7.31227 20.535 7.29087C20.6473 7.13575 20.7917 7.02877 20.9629 6.99133C21.3534 6.9004 21.7759 7.17855 22.0541 7.65995C22.0434 7.63321 22.0327 7.61181 22.022 7.58507C21.7545 7.05017 21.2892 6.49923 20.4013 6.73459C19.2352 7.04483 19.5026 8.56928 19.6257 9.03999C19.6898 9.21116 19.7647 9.39302 19.8557 9.56419ZM19.5561 9.71931C19.3636 9.35558 19.2459 8.97046 19.187 8.55858C19.1282 8.16276 19.1068 7.74554 19.1763 7.34972C19.2459 6.95924 19.4224 6.60086 19.7433 6.3655C20.0054 6.17294 20.3478 6.05526 20.6848 6.05526C20.7757 6.05526 20.8613 6.06596 20.9469 6.08201C21.7866 6.25317 22.1825 6.9432 22.5141 7.91136C22.8778 8.97046 22.6264 10.2917 21.9471 10.5858C21.7813 10.6554 21.4978 10.7303 21.4978 10.7303C21.3213 10.7784 21.1448 10.8158 20.9683 10.8158C20.7703 10.8158 20.5724 10.7731 20.3852 10.6607C20.0268 10.4575 19.7487 10.083 19.5561 9.71931ZM26.3119 12.2922C25.2474 12.8645 24.0386 13.1801 22.8511 13.3406C23.172 13.4903 23.5037 13.6134 23.8674 13.6401C24.1937 13.6669 24.5146 13.6134 24.8249 13.5171C25.1405 13.4208 25.4453 13.2764 25.7021 13.0624C25.9535 12.8538 26.1461 12.581 26.3119 12.2922ZM27.9005 11.2652C27.831 11.2759 27.8042 11.1903 27.7668 11.0886C27.5582 11.3614 27.1249 11.784 27.0661 11.8536C26.9698 11.9819 26.8896 12.121 26.8147 12.2601C26.6863 12.4954 26.5633 12.7308 26.4028 12.9501C26.1942 13.2443 25.9214 13.4957 25.6112 13.6829C25.0174 14.0413 24.2739 14.2071 23.5892 14.0948C23.2255 14.0359 22.8832 13.9022 22.5569 13.7417C22.2894 13.6134 22.0113 13.4422 21.7118 13.4315C21.3801 13.4422 21.0378 13.4475 20.7062 13.4048C20.5938 13.3941 20.4922 13.3459 20.4547 13.2282C20.4066 13.0678 20.5136 12.9073 20.6794 12.8966C20.7329 12.8966 20.7864 12.9073 20.8399 12.9127C20.9469 12.918 21.0538 12.9287 21.1608 12.9287C22.3643 12.9661 23.5839 12.7736 24.7339 12.4205C25.44 12.2012 26.1247 11.907 26.7344 11.4791C26.9858 11.3026 27.2212 11.11 27.4298 10.88C27.4619 10.8479 27.4887 10.7998 27.5207 10.7624C27.4994 10.7517 27.478 10.7356 27.4619 10.7303C27.4031 10.7089 27.3924 10.5965 27.51 10.5645C27.6277 10.5324 27.7828 10.5965 27.8363 10.6554C27.8898 10.7142 27.954 10.8212 27.9701 10.9442C27.9915 11.0886 27.9808 11.2491 27.9005 11.2652ZM20.6473 12.688C20.3371 12.9019 20.2622 13.0678 20.214 13.1694C20.1713 13.271 20.1766 13.378 20.1927 13.4315C20.2087 13.485 20.1926 13.5385 20.1445 13.5599H20.1392C20.091 13.5813 20.0482 13.5706 20.0268 13.5599C20.0001 13.5492 19.9787 13.5224 19.968 13.4957C19.8771 13.2924 19.968 12.8645 20.198 12.6612C20.2782 12.581 20.4013 12.4954 20.5029 12.458C20.5403 12.4419 20.658 12.3991 20.7115 12.4794C20.7703 12.565 20.7008 12.6505 20.6473 12.688Z" fill="#504E4E"/>
<path d="M98.5002 23.7999C98.3002 23.8333 96.8001 24.1333 95.2335 24.1666C92.4001 24.2333 89.9335 23.1333 89.9335 21.0666C89.9001 17.5333 93.4668 15.5999 96.1001 15.0666C97.3001 14.8332 99.5668 14.5333 101.833 15.0999L100.533 18.2333C100.133 17.3666 99.1668 17.3666 98.7668 17.3666C97.8001 17.3333 97.0001 17.5999 96.4335 17.8999C95.1335 18.4999 93.9335 20.4333 95.8335 21.1999C96.8668 21.6333 98.2335 21.2666 99.6002 21.0666L98.5002 23.7999ZM153.534 14.9666L151.267 21.1333C151.3 20.4999 151.434 18.0666 151.5 16.6333C151.534 16.0332 151.434 15.5999 151.134 15.3333C150.767 14.9666 150.334 14.9666 150.334 14.9666H145.267L141.967 23.9666H145.634L147.967 17.5999L147.7 23.9666H153.867L157.167 14.9666H153.534ZM128.367 14.9666L125.067 23.9666H133.534L134.634 20.9666H130.367L132.567 14.9666H128.367ZM124.534 18.3333H119.8L120.167 17.3333H125.134L126 14.9999H116.934L113.634 23.9999H122.8L123.667 21.5666H118.6L118.967 20.5666H123.7L124.534 18.3333ZM105.933 20.9333H108.133L107.033 23.9666H111.167L114.467 14.9666H110.334L109.133 18.1999H106.933L108.133 14.9666H104L100.7 23.9666H104.833L105.933 20.9333ZM90.0668 14.9666H85.7335L82.4335 23.9666H86.7668L90.0668 14.9666ZM79.9668 23.9666L83.2668 14.9666H77.1335L73.9334 19.7666C73.9334 19.7666 74.1335 17.2666 74.1668 16.6333C74.2001 16.1666 74.1668 14.9333 73.0001 14.9333H67.9334L64.6334 23.9333H68.6001L71.0001 17.4333L70.4668 23.9333H73.9668L78.2668 17.5666L75.9334 23.9333H79.9668V23.9666ZM142.834 14.9666H138.5L135.2 23.9666H139.534L142.834 14.9666ZM84.5335 29.9333L85.3668 27.6999H0.833335L0 29.9333H84.5335ZM152.1 28.4999C151.834 29.2999 151.434 29.5666 150.634 29.5666H149.8L150.6 27.3666H151.434C152.1 27.3333 152.367 27.7666 152.1 28.4999ZM151.467 26.9333H150.234L149.167 29.9333H150.634C151.7 29.9333 152.267 29.4999 152.634 28.5333C152.9 27.6999 152.6 26.9333 151.467 26.9333ZM148.5 27.9999C148.367 28.3999 148.1 28.4666 147.434 28.4666H146.667L147.1 27.2999H147.767C148.534 27.3333 148.667 27.5333 148.5 27.9999ZM147.9 26.9333H146.734L145.667 29.9333H146.2L146.6 28.8999H147.5L147.867 29.9333H148.434L148 28.8333C148.467 28.7999 148.834 28.5999 149.034 28.0666C149.234 27.3999 148.967 26.9333 147.9 26.9333ZM143.334 28.7999L144.534 27.1999L144.6 28.7999H143.334ZM144.4 26.9333C144.234 26.9333 144.167 26.9666 144.034 27.1333L141.9 29.9333H142.467L143.034 29.1666H144.634L144.667 29.9333H145.2L145 26.9333H144.4ZM142.4 26.9333L140.634 29.5666L140.7 26.9333H139.934L138.167 29.5999L138.2 26.9333H137.667V29.9333H138.2C138.334 29.9333 138.434 29.8999 138.534 29.7333L140.167 27.2999L140.134 29.9333H140.7C140.834 29.9333 140.934 29.8999 141.034 29.7333L142.934 26.9333H142.4ZM136.5 27.9999C136.367 28.3999 136.1 28.4666 135.434 28.4666H134.734L135.167 27.2999H135.834C136.5 27.3333 136.667 27.5333 136.5 27.9999ZM135.9 26.9333H134.7L133.634 29.9333H134.167L134.567 28.8999H135.467L135.834 29.9333H136.4L135.967 28.8333C136.434 28.7999 136.834 28.5999 137 28.0666C137.267 27.3999 136.934 26.9333 135.9 26.9333ZM132.934 28.4999C132.6 29.3333 132.234 29.5666 131.5 29.5666C130.667 29.5666 130.434 29.1333 130.7 28.3666C131.034 27.5333 131.4 27.2999 132.134 27.2999C132.967 27.2999 133.167 27.7333 132.934 28.4999ZM132.134 26.8999C131.1 26.8999 130.5 27.3666 130.167 28.3333C129.834 29.1999 130.134 29.9999 131.434 29.9999C132.467 29.9999 133.034 29.5333 133.4 28.5666C133.767 27.6666 133.434 26.8999 132.134 26.8999ZM128.234 27.3333H130.2L130.367 26.9333H127.9L126.834 29.9333H127.367L127.767 28.7666H129.534L129.7 28.3666H127.934L128.234 27.3333ZM123.867 28.2999L123.234 26.9999H122.7L123.5 28.6999L123.034 29.9999H123.567L124.034 28.7333L126.1 27.0333H125.467L123.867 28.2999ZM120.3 28.7999L121.5 27.1999L121.567 28.7999H120.3ZM121.4 26.9333C121.234 26.9333 121.167 26.9666 121.034 27.1333L118.9 29.9333H119.467L120.034 29.1666H121.634L121.667 29.9333H122.2L122 26.9333H121.4ZM119.4 26.9333L117.634 29.5666L117.7 26.9333H116.934L115.167 29.5999L115.2 26.9333H114.667V29.9333H115.2C115.334 29.9333 115.434 29.8999 115.534 29.7333L117.167 27.2999L117.134 29.9333H117.7C117.834 29.9333 117.934 29.8999 118.034 29.7333L119.934 26.9333H119.4ZM112.2 27.9999C112.067 28.3999 111.8 28.4666 111.134 28.4666H110.434L110.867 27.2999H111.534C112.233 27.3333 112.367 27.5333 112.2 27.9999ZM111.6 26.9333H110.434L109.367 29.9333H109.9L110.3 28.8999H111.2L111.567 29.9333H112.134L111.7 28.8333C112.167 28.7999 112.534 28.5999 112.734 28.0666C112.934 27.3999 112.667 26.9333 111.6 26.9333ZM107.6 27.3333H109.567L109.733 26.9333H107.267L106.2 29.9333H108.667L108.834 29.5333H106.867L107.2 28.6333H108.967L109.133 28.2333H107.367L107.6 27.3333ZM106.633 26.9333H103.767L103.6 27.3333H104.8L103.833 29.9333H104.367L105.333 27.3333H106.5L106.633 26.9333ZM100.2 27.3333H101.4L100.433 29.9333H100.967L101.933 27.3333H103.1L103.267 26.9333H100.4L100.2 27.3333ZM96.2668 29.9333H98.7335L98.9001 29.5333H96.9335L97.2668 28.6333H99.0335L99.2001 28.2333H97.4335L97.7668 27.3333H99.7335L99.9001 26.9333H97.4335L96.2668 29.9333ZM95.6001 27.7999C95.4668 28.1666 95.1668 28.2333 94.6001 28.2333H93.7668L94.1001 27.3333H95.0668C95.5668 27.3333 95.7001 27.4666 95.6001 27.7999ZM95.2668 29.1666C95.1335 29.4333 94.9335 29.5333 94.4001 29.5333H93.2335L93.5668 28.6333H94.6001C95.2001 28.5999 95.4001 28.7999 95.2668 29.1666ZM95.2335 26.9333H93.6668L92.6001 29.9333H94.5668C95.1335 29.9333 95.6001 29.7666 95.8001 29.2999C95.9668 28.8999 95.8001 28.5999 95.4001 28.4666C95.7668 28.3999 96.0335 28.1999 96.1668 27.8666C96.3001 27.3333 96.0335 26.9333 95.2335 26.9333ZM89.0335 28.7999L90.2335 27.1999L90.3001 28.7999H89.0335ZM90.1001 26.9333C89.9335 26.9333 89.8668 26.9666 89.7335 27.1333L87.6001 29.9333H88.1668L88.7335 29.1666H90.3335L90.3668 29.9333H90.9001L90.7001 26.9333H90.1001Z" fill="#504E4E"/>
</svg>
