<svg width="119" height="40" viewBox="0 0 119 40" fill="none" xmlns="http://www.w3.org/2000/svg">
<path d="M24.5371 32.64C24.0344 33.757 23.4096 34.8509 22.6605 35.7973C28.8756 33.7025 33.4508 28.0428 33.9544 21.25H31.742C29.0421 21.25 26.8734 23.405 26.4345 26.0691C26.0299 28.5247 25.3827 30.7608 24.5371 32.64Z" fill="#212527"/>
<path d="M19.6436 21.25C22.4703 21.25 24.7827 23.6082 24.2635 26.3869C23.1358 32.4222 20.4579 36.6666 17.3339 36.6666C13.381 36.6666 10.1424 29.8709 9.85472 21.25H19.6436Z" fill="#212527"/>
<path d="M26.4919 14.2918C26.9053 16.9807 29.0841 19.1666 31.8046 19.1666H33.9801C33.6366 12.1893 29.0022 6.34012 22.6605 4.20262C23.4096 5.14908 24.0344 6.24298 24.5371 7.35994C25.424 9.33081 26.0926 11.6942 26.4919 14.2918Z" fill="#212527"/>
<path d="M24.347 14.0797C24.8199 16.8444 22.5175 19.1666 19.7127 19.1666H9.84315C10.0385 10.3491 13.3176 3.33331 17.3339 3.33331C20.5378 3.33331 23.2725 7.79766 24.347 14.0797Z" fill="#212527"/>
<path d="M7.75934 19.1666C7.854 14.6597 8.71381 10.5088 10.1308 7.35994C10.6334 6.24298 11.2583 5.14908 12.0074 4.20262C5.66566 6.34012 1.03132 12.1893 0.687744 19.1666H7.75934Z" fill="#212527"/>
<path d="M0.713442 21.25C1.21711 28.0428 5.79232 33.7025 12.0074 35.7973C11.2583 34.8509 10.6334 33.757 10.1308 32.64C8.75759 29.5884 7.90766 25.5958 7.7703 21.25H0.713442Z" fill="#212527"/>
<path d="M42.3333 27.4999V11.0974H54.8208V14.2249H46.0233V17.7124H53.6733V20.6374H46.0233V24.3724H54.8208V27.4999H42.3333Z" fill="#212527"/>
<path d="M60.9954 27.7249C59.6604 27.7249 58.6629 27.2899 58.0029 26.4199C57.3429 25.5349 57.0129 24.3724 57.0129 22.9324V15.4174H60.4554V22.4374C60.4554 23.3974 60.6429 24.0574 61.0179 24.4174C61.4079 24.7624 61.9254 24.9349 62.5704 24.9349C63.3354 24.9349 63.9129 24.6799 64.3029 24.1699C64.6929 23.6599 64.8879 22.9924 64.8879 22.1674V15.4174H68.3304V27.4999H65.1129L64.8654 25.5199H64.6854C64.4154 26.1799 63.9504 26.7124 63.2904 27.1174C62.6454 27.5224 61.8804 27.7249 60.9954 27.7249Z" fill="#212527"/>
<path d="M70.9137 27.4999V15.4174H74.1312L74.3787 17.4199H74.5812C74.8512 16.6699 75.2112 16.1224 75.6612 15.7774C76.1112 15.4174 76.7562 15.2374 77.5962 15.2374H78.6762V18.7474H77.1237C76.1337 18.7474 75.4287 19.0024 75.0087 19.5124C74.5887 20.0074 74.3787 20.6749 74.3787 21.5149V27.4999H70.9137Z" fill="#212527"/>
<path d="M85.3035 27.7249C83.3385 27.7249 81.876 27.1624 80.916 26.0374C79.956 24.9124 79.476 23.4124 79.476 21.5374V21.4699C79.476 19.3399 80.0085 17.7649 81.0735 16.7449C82.1385 15.7099 83.5485 15.1924 85.3035 15.1924C87.0735 15.1924 88.491 15.7099 89.556 16.7449C90.636 17.7649 91.176 19.3399 91.176 21.4699V21.5374C91.161 23.4124 90.6735 24.9124 89.7135 26.0374C88.7535 27.1624 87.2835 27.7249 85.3035 27.7249ZM85.3035 24.9349C86.0685 24.9349 86.646 24.7249 87.036 24.3049C87.441 23.8849 87.6435 23.3074 87.6435 22.5724V20.4124C87.6435 19.6624 87.4335 19.0774 87.0135 18.6574C86.6085 18.2224 86.0385 18.0049 85.3035 18.0049C84.5835 18.0049 84.0135 18.2224 83.5935 18.6574C83.1885 19.0774 82.986 19.6624 82.986 20.4124V22.5724C82.986 23.3074 83.181 23.8849 83.571 24.3049C83.976 24.7249 84.5535 24.9349 85.3035 24.9349Z" fill="#212527"/>
<path d="M93.063 31.2574V15.4174H96.348L96.528 17.1949H96.6855C96.9855 16.5649 97.4505 16.0774 98.0805 15.7324C98.7255 15.3724 99.4455 15.1924 100.241 15.1924C101.861 15.1924 103.038 15.7399 103.773 16.8349C104.508 17.9299 104.876 19.3924 104.876 21.2224V21.7399C104.876 23.8249 104.456 25.3474 103.616 26.3074C102.791 27.2524 101.666 27.7249 100.241 27.7249C99.4605 27.7249 98.748 27.5524 98.103 27.2074C97.458 26.8474 96.9855 26.3524 96.6855 25.7224H96.528V31.2574H93.063ZM98.8455 24.9124C99.5955 24.9124 100.173 24.7024 100.578 24.2824C100.983 23.8624 101.186 23.2699 101.186 22.5049V20.4349C101.186 19.6699 100.983 19.0774 100.578 18.6574C100.173 18.2224 99.5955 18.0049 98.8455 18.0049C98.1405 18.0049 97.578 18.2224 97.158 18.6574C96.753 19.0924 96.5505 19.6999 96.5505 20.4799V22.4599C96.5505 23.2399 96.753 23.8474 97.158 24.2824C97.578 24.7024 98.1405 24.9124 98.8455 24.9124Z" fill="#212527"/>
<path d="M109.711 27.7249C108.601 27.7249 107.701 27.4324 107.011 26.8474C106.321 26.2474 105.976 25.4524 105.976 24.4624V24.4174C105.976 23.2624 106.343 22.3699 107.078 21.7399C107.813 21.1099 108.803 20.7199 110.048 20.5699L113.423 20.1199V19.6474C113.423 18.5074 112.733 17.9374 111.353 17.9374C110.693 17.9374 110.168 18.0649 109.778 18.3199C109.403 18.5749 109.216 18.9424 109.216 19.4224H106.088C106.088 18.0874 106.576 17.0524 107.551 16.3174C108.526 15.5674 109.898 15.1924 111.668 15.1924C113.288 15.1924 114.556 15.5374 115.471 16.2274C116.401 16.9174 116.866 18.0124 116.866 19.5124V25.0699H118.441V27.4999H114.301L114.031 25.6324H113.783C113.483 26.2924 112.981 26.8099 112.276 27.1849C111.586 27.5449 110.731 27.7249 109.711 27.7249ZM111.196 25.2499C111.796 25.2499 112.298 25.1074 112.703 24.8224C113.123 24.5224 113.363 24.1399 113.423 23.6749V22.0549L111.151 22.3924C110.641 22.4524 110.228 22.5874 109.913 22.7974C109.598 22.9924 109.441 23.2924 109.441 23.6974V23.9899C109.441 24.3649 109.591 24.6724 109.891 24.9124C110.206 25.1374 110.641 25.2499 111.196 25.2499Z" fill="#212527"/>
</svg>
