<svg width="128" height="30" viewBox="0 0 128 30" fill="none" xmlns="http://www.w3.org/2000/svg">
<path fill-rule="evenodd" clip-rule="evenodd" d="M60.6747 14.1507L65.6259 6.18195C66.4755 6.59211 67.1786 7.14875 67.7645 7.76398L71.0458 2.49055C70.4599 1.87531 69.7567 1.31867 68.9071 0.908513C65.0106 -1.02508 60.0009 0.351872 57.745 3.98468C55.4599 7.64679 56.7782 12.1878 60.6747 14.1507Z" fill="#504E4E"/>
<path fill-rule="evenodd" clip-rule="evenodd" d="M65.6543 6.15234L60.7031 14.1211C59.8535 13.7109 59.1504 13.1543 58.5645 12.5391L55.2832 17.8125C55.8691 18.4277 56.5723 18.9844 57.4219 19.3945C61.3184 21.3281 66.3281 19.9512 68.584 16.3184C70.8691 12.6562 69.5215 8.11523 65.6543 6.15234Z" fill="#504E4E"/>
<path fill-rule="evenodd" clip-rule="evenodd" d="M37.6758 3.60352C38.6426 1.8457 40.8398 0 44.0625 0C47.2852 0 49.4531 1.8457 50.4492 3.60352C51.1231 4.77539 51.3281 5.36133 51.3281 10.166C51.3281 14.9707 51.0938 15.5273 50.4492 16.7285C49.4824 18.4863 47.2852 20.332 44.0625 20.332C40.8398 20.332 38.6719 18.4863 37.6758 16.7285C37.002 15.5566 36.7969 14.9707 36.7969 10.166C36.7969 5.36133 37.0313 4.77539 37.6758 3.60352ZM40.8984 15.8203C41.5137 16.6113 42.5684 17.2852 44.0332 17.2852C45.4981 17.2852 46.5527 16.6113 47.168 15.8203C47.959 14.8242 48.1934 14.2676 48.1934 10.166C48.1934 6.06445 47.959 5.50781 47.168 4.51172C46.5527 3.7207 45.4981 3.04687 44.0332 3.04687C42.5684 3.04687 41.5137 3.7207 40.8984 4.51172C40.1074 5.50781 39.8731 6.06445 39.8731 10.166C39.9024 14.2383 40.1074 14.7949 40.8984 15.8203ZM18.3398 0.175779H26.2793C28.0078 0.175779 29.3555 0.585935 30.4395 1.49414C31.582 2.43164 32.4609 3.95508 32.4609 5.74219C32.4609 8.32031 30.9668 10.4004 28.5059 11.25L33.2227 20.0977H29.5898L25.3711 11.5723H21.416V20.0977H18.3398V0.175779ZM21.4453 8.93555H26.1035C28.418 8.93555 29.5605 7.44141 29.5605 5.77148C29.5605 4.7168 29.1504 3.95508 28.5352 3.51563C27.9492 3.10547 27.334 2.90039 26.2793 2.90039H21.4453V8.93555ZM0.146484 0.175779H7.5293C9.14062 0.175779 10.5469 0.380858 12.0996 1.58203C13.3301 2.49023 14.2969 4.18945 14.2969 6.35742C14.2969 9.19922 12.0996 12.3633 7.91016 12.3633H3.22266V20.1563H0.146484V0.175779ZM3.25195 9.46289H7.82227C10.1074 9.46289 11.2207 7.82227 11.2207 6.24024C11.2207 4.89258 10.6934 4.07227 9.90235 3.57422C9.22852 3.13477 8.58399 3.01758 7.70508 3.01758H3.25195V9.46289ZM75.4395 0.175779H82.8223C84.4336 0.175779 85.8399 0.380858 87.3926 1.58203C88.6231 2.49023 89.5899 4.18945 89.5899 6.35742C89.5899 9.19922 87.3926 12.3633 83.2031 12.3633H78.5156V20.1563H75.4395V0.175779ZM78.5156 9.46289H83.0859C85.3711 9.46289 86.4844 7.82227 86.4844 6.24024C86.4844 4.89258 85.957 4.07227 85.166 3.57422C84.4922 3.13477 83.8477 3.01758 82.9688 3.01758H78.5156V9.46289ZM93.3984 0.175779H106.406V3.04687H96.4746V8.73047H104.941V11.4258H96.4746V17.2852H106.406V20.1563H93.3984V0.175779ZM111.299 0.175779H119.238C120.967 0.175779 122.314 0.585935 123.398 1.49414C124.541 2.43164 125.42 3.95508 125.42 5.74219C125.42 8.32031 123.926 10.4004 121.465 11.25L126.182 20.0977H122.52L118.301 11.5723H114.346V20.0977H111.27L111.299 0.175779ZM114.375 8.90625H119.033C121.348 8.90625 122.49 7.41211 122.49 5.74219C122.49 4.6875 122.08 3.92578 121.465 3.48633C120.879 3.07617 120.264 2.87109 119.209 2.87109H114.375V8.90625ZM3.28125 29.9414H2.72461V27.9785H0.556641V29.9414H0V25.6641H0.556641V27.5098H2.72461V25.6641H3.28125V29.9414ZM10.5176 27.9492H8.67188V29.4727H10.8398V29.9414H8.11523V25.6641H10.8105V26.1328H8.67188V27.5098H10.5176V27.9492ZM17.6953 28.8281H15.9082L15.498 29.9414H14.9121L16.5527 25.6641H17.0508L18.6914 29.9414H18.1055L17.6953 28.8281ZM16.084 28.3594H17.5488L16.8164 26.3672L16.084 28.3594ZM23.6426 29.4727H25.6641V29.9414H23.0566V25.6641H23.6133V29.4727H23.6426ZM32.2559 26.1328H30.8789V29.9414H30.3223V26.1328H28.9453V25.6641H32.2559V26.1328ZM39.9902 29.9414H39.4336V27.9785H37.2656V29.9414H36.709V25.6641H37.2656V27.5098H39.4336V25.6641H39.9902V29.9414ZM47.959 28.5645C47.9004 29.0039 47.7539 29.3555 47.4609 29.6191C47.168 29.8828 46.8164 30 46.3477 30C45.8496 30 45.4395 29.8242 45.1465 29.4434C44.8535 29.0918 44.6777 28.5938 44.6777 27.9785V27.5977C44.6777 27.1875 44.7363 26.8652 44.8828 26.543C45.0293 26.2207 45.2344 26.0156 45.4981 25.8398C45.7617 25.6641 46.0547 25.6055 46.4063 25.6055C46.875 25.6055 47.2266 25.7227 47.4902 25.9863C47.7539 26.25 47.9297 26.6016 47.959 27.041H47.4023C47.3438 26.6895 47.2559 26.4551 47.0801 26.3086C46.9043 26.1621 46.6992 26.0742 46.4063 26.0742C46.0547 26.0742 45.7617 26.2207 45.5566 26.4844C45.3516 26.748 45.2637 27.1289 45.2637 27.627V28.0371C45.2637 28.5059 45.3516 28.8574 45.5566 29.1504C45.7617 29.4141 46.0254 29.5605 46.377 29.5605C46.6992 29.5605 46.9336 29.502 47.1094 29.3555C47.2852 29.209 47.3731 28.9746 47.4316 28.623L47.959 28.5645ZM54.9023 28.8281H53.1152L52.7051 29.9414H52.1191L53.7598 25.6641H54.2578L55.8984 29.9414H55.3125L54.9023 28.8281ZM53.2617 28.3594H54.7266L53.9941 26.3672L53.2617 28.3594ZM61.8457 28.2129H60.8496V29.9414H60.293V25.6641H61.6992C62.168 25.6641 62.5488 25.7813 62.8125 25.9863C63.0762 26.1914 63.1934 26.5137 63.1934 26.9531C63.1934 27.2168 63.1348 27.4512 62.9883 27.6563C62.8418 27.8613 62.6367 28.0078 62.3731 28.0957L63.3691 29.9121V29.9414H62.7539L61.8457 28.2129ZM60.8203 27.7441H61.6992C61.9922 27.7441 62.1973 27.6855 62.3731 27.5391C62.5488 27.3926 62.6074 27.1875 62.6074 26.9531C62.6074 26.6895 62.5195 26.4844 62.3731 26.3379C62.2266 26.1914 61.9922 26.1328 61.6992 26.1328H60.8496V27.7441H60.8203ZM70.1953 27.9492H68.3496V29.4727H70.5176V29.9414H67.793V25.6641H70.4883V26.1328H68.3496V27.5098H70.1953V27.9492ZM80.8887 29.4727H82.9102V29.9414H80.3027V25.6641H80.8594V29.4727H80.8887ZM89.7656 27.9492H87.9199V29.4727H90.0879V29.9414H87.3633V25.6641H90.0586V26.1328H87.9199V27.5098H89.7656V27.9492ZM97.8809 29.9414H97.3242L95.1563 26.6309V29.9414H94.5996V25.6641H95.1563L97.3242 28.9746V25.6641H97.8809V29.9414ZM102.686 29.9414V25.6641H103.887C104.268 25.6641 104.59 25.752 104.883 25.8984C105.176 26.0742 105.41 26.3086 105.557 26.6016C105.703 26.8945 105.791 27.2461 105.791 27.6563V27.9199C105.791 28.3301 105.703 28.6816 105.557 28.9746C105.41 29.2676 105.176 29.502 104.883 29.6777C104.59 29.8535 104.268 29.9121 103.887 29.9414H102.686ZM103.242 26.1328V29.4727H103.828C104.268 29.4727 104.59 29.3262 104.854 29.0625C105.088 28.7988 105.205 28.418 105.205 27.9199V27.6563C105.205 27.1582 105.088 26.8066 104.854 26.5137C104.619 26.25 104.297 26.1035 103.887 26.1035H103.242V26.1328ZM111.035 29.9414H110.479V25.6641H111.035V29.9414ZM119.18 29.9414H118.623L116.455 26.6309V29.9414H115.898V25.6641H116.455L118.623 28.9746V25.6641H119.18V29.9414ZM127.148 29.3848C127.002 29.5898 126.797 29.7363 126.533 29.8535C126.27 29.9707 125.977 30 125.625 30C125.273 30 124.98 29.9121 124.688 29.7656C124.424 29.5898 124.219 29.3555 124.072 29.0625C123.926 28.7695 123.838 28.418 123.838 28.0078V27.627C123.838 26.9824 123.984 26.4844 124.277 26.1328C124.57 25.7813 125.01 25.6055 125.537 25.6055C125.977 25.6055 126.357 25.7227 126.621 25.957C126.885 26.1914 127.061 26.5137 127.119 26.9238H126.563C126.445 26.3672 126.123 26.0742 125.566 26.0742C125.186 26.0742 124.893 26.2207 124.717 26.4844C124.512 26.748 124.424 27.1289 124.424 27.627V27.9785C124.424 28.4473 124.541 28.8281 124.746 29.1211C124.951 29.4141 125.273 29.5313 125.625 29.5313C125.83 29.5313 126.035 29.502 126.182 29.4727C126.328 29.4141 126.475 29.3555 126.563 29.2383V28.2715H125.566V27.8027H127.119V29.3848H127.148Z" fill="#504E4E"/>
</svg>
