<svg width="140" height="30" viewBox="0 0 140 30" fill="none" xmlns="http://www.w3.org/2000/svg">
<path d="M48.3334 17.4945C48.3334 13.9172 43.8304 14.8406 43.8304 12.9937C43.8304 12.3145 44.3347 11.873 45.4307 11.873C46.1099 11.873 46.8182 11.9851 47.4077 12.1599L47.5399 9.96331C46.9258 9.82883 46.1771 9.74365 45.5406 9.74365C42.4026 9.74365 40.9277 11.3037 40.9277 13.2358C40.9277 16.9498 45.3657 15.8044 45.3657 17.7589C45.3657 18.4605 44.6619 18.92 43.6085 18.92C42.7948 18.92 41.9409 18.7698 41.2796 18.4852L41.0824 20.8319C41.7862 21.0292 42.6626 21.1188 43.5188 21.1188C46.4237 21.1211 48.3334 19.6709 48.3334 17.4945Z" fill="#261723"/>
<path fill-rule="evenodd" clip-rule="evenodd" d="M63.4006 14.8613C63.4006 11.6337 61.9952 9.7666 59.4042 9.7666C57.7545 9.7666 56.5957 10.5332 55.9771 11.8085H55.9322C56.0196 11.2392 56.0421 10.513 56.0421 9.96385C54.5963 9.91678 52.922 9.98402 51.5391 10.1611V11.9184C52.1756 11.9609 52.922 12.0528 53.451 12.138V26.1939H56.2393V20.9647C56.7033 21.0319 57.1179 21.0543 57.6469 21.0543C61.4237 21.0543 63.4006 18.6605 63.4006 14.8613ZM60.4554 15.1706C60.4554 17.8738 59.3168 18.8779 57.7097 18.8779C57.1381 18.8779 56.6764 18.8152 56.2371 18.6852V15.6525C56.2371 13.7855 57.1157 12.0708 58.5883 12.0708C59.8637 12.0708 60.4554 13.1265 60.4554 15.1706Z" fill="#261723"/>
<path d="M77.3194 20.9014V13.2358C77.3194 11.3261 76.5282 9.7661 74.0694 9.7661C72.357 9.7661 71.1063 10.5775 70.4697 11.7856H70.4428C70.5997 11.1289 70.6445 10.2278 70.6445 9.56885V4.84396C69.015 4.80137 67.3272 4.86862 65.9219 5.04121V6.79847C66.5562 6.84106 67.3048 6.93071 67.8316 7.01813V20.9014H70.6445V15.652C70.6445 13.7177 71.7406 12.1151 73.1706 12.1151C74.2218 12.1151 74.5311 12.7965 74.5311 13.9172V20.9014H77.3194Z" fill="#261723"/>
<path fill-rule="evenodd" clip-rule="evenodd" d="M92.7342 20.7243V18.9693C92.0999 18.9222 91.3512 18.8371 90.8245 18.7474V13.5406C90.8245 11.149 89.8383 9.74365 86.2767 9.74365C84.9363 9.74365 83.4884 10.0283 82.3699 10.4026L82.6994 12.709C83.578 12.2473 84.896 11.9178 85.8844 11.9178C87.4646 11.9178 88.016 12.5096 88.016 13.6527V14.1794C84.3042 14.1794 81.7109 15.5422 81.7109 18.1557C81.7109 19.9129 82.8518 21.1211 84.8287 21.1211C86.456 21.1211 87.7964 20.2648 88.3231 19.0343L88.3455 19.059C88.2559 19.6283 88.2357 20.2895 88.2357 20.9238C89.659 20.9642 91.3512 20.9014 92.7342 20.7243ZM88.0138 16.3334C88.0138 17.6536 87.0679 18.9693 85.6872 18.9693C84.8691 18.9693 84.3894 18.4426 84.3894 17.7186C84.3894 16.7727 85.1582 16.0039 88.0138 16.0039V16.3334Z" fill="#261723"/>
<path fill-rule="evenodd" clip-rule="evenodd" d="M100.395 6.66585C100.395 5.6998 99.6055 4.95117 98.635 4.95117C97.6959 4.95117 96.9024 5.71998 96.9024 6.66585C96.9024 7.61173 97.6959 8.36036 98.635 8.36036C99.6033 8.36036 100.395 7.58931 100.395 6.66585ZM100.043 20.9011V9.96297C98.4131 9.91814 96.7231 9.98314 95.3379 10.1602V11.9175C95.9767 11.9601 96.7231 12.052 97.2498 12.1371V20.9011H100.043Z" fill="#261723"/>
<path d="M111.832 9.76641C109.878 9.59158 108.824 10.7997 108.296 12.1804H108.251C108.381 11.4116 108.448 10.533 108.448 9.96365C106.98 9.91882 105.285 9.98382 103.902 10.1609V11.9182C104.541 11.9607 105.285 12.0504 105.814 12.1378V20.9017H108.605V16.4436C108.605 13.4087 109.613 12.0907 111.702 12.5301L111.832 9.76641Z" fill="#261723"/>
<path fill-rule="evenodd" clip-rule="evenodd" d="M125.31 15.2356C125.31 11.479 123.313 9.7666 120.218 9.7666C116.9 9.7666 114.639 12.2232 114.639 15.6301C114.639 19.5212 116.638 21.1216 119.736 21.1216C123.006 21.1216 125.31 18.6605 125.31 15.2356ZM122.41 15.3881C122.41 17.6093 121.356 18.7278 119.973 18.7278C118.348 18.7278 117.535 17.5869 117.535 15.3455C117.535 13.1085 118.765 12.138 120.016 12.138C121.663 12.138 122.41 13.2767 122.41 15.3881Z" fill="#261723"/>
<path d="M139.778 20.9019V13.2363C139.778 11.3266 138.989 9.7666 136.528 9.7666C134.746 9.7666 133.473 10.6676 132.816 11.9385H132.792C132.906 11.3468 132.948 10.4906 132.948 9.96385C131.476 9.91902 129.786 9.98402 128.398 10.1611V11.9184C129.035 11.9609 129.784 12.0528 130.308 12.138V20.9019H133.099V15.6301C133.099 13.7182 134.219 12.1156 135.649 12.1156C136.678 12.1156 136.99 12.797 136.99 13.9177V20.9019H139.778Z" fill="#261723"/>
<mask id="mask0_2063_2322" style="mask-type:luminance" maskUnits="userSpaceOnUse" x="0" y="0" width="21" height="23">
<path d="M7.51753 9.52376C5.70422 13.2692 2.75677 18.9175 0.746223 19.5989C0.735016 19.6034 0.726051 19.6056 0.714844 19.6101C1.02864 20.5874 1.43882 21.522 1.93641 22.4029C1.94538 22.4007 1.9521 22.3984 1.96107 22.3962C4.59473 21.9008 7.80891 16.6559 9.86204 12.2807C12.7243 6.18181 17.0951 1.38967 20.836 1.10502C19.4037 0.5088 17.8594 0.12776 16.2433 0C13.3878 1.00415 9.96739 4.4761 7.51753 9.52376Z" fill="white"/>
</mask>
<g mask="url(#mask0_2063_2322)">
<path d="M-8.98633 16.8019L5.74647 -8.71436L30.5387 5.5993L15.8059 31.1155L-8.98633 16.8019Z" fill="#261723"/>
</g>
<mask id="mask1_2063_2322" style="mask-type:luminance" maskUnits="userSpaceOnUse" x="3" y="3" width="25" height="24">
<path d="M12.508 15.1639C9.21984 21.4443 6.9605 24.607 3.25321 24.2371C3.21734 24.2349 3.18372 24.2304 3.15234 24.2259C3.95925 25.2637 4.8984 26.1961 5.94514 26.9941C11.1856 27.2653 15.3053 18.3019 17.2508 14.9353C19.4743 11.0845 23.7845 3.49737 27.2565 6.18706C26.4541 5.0798 25.5059 4.08686 24.439 3.23288C24.1925 3.19029 23.9504 3.17236 23.7083 3.17236C18.9095 3.17236 14.7449 10.894 12.508 15.1639Z" fill="white"/>
</mask>
<g mask="url(#mask1_2063_2322)">
<path d="M-7.2832 21.2424L9.17548 -7.26611L37.6862 9.19481L21.2275 37.7033L-7.2832 21.2424Z" fill="#261723"/>
</g>
<mask id="mask2_2063_2322" style="mask-type:luminance" maskUnits="userSpaceOnUse" x="0" y="0" width="12" height="18">
<path d="M0 15.0081C0 15.7949 0.0605181 16.5659 0.177071 17.3235C0.183796 17.3168 0.186037 17.3101 0.19052 17.3033C1.44795 15.5371 2.73228 11.6505 4.79214 8.12925C6.88786 4.54748 9.68962 1.66054 11.0614 0.488281C4.68455 2.23882 0 8.0777 0 15.0081Z" fill="white"/>
</mask>
<g mask="url(#mask2_2063_2322)">
<path d="M-7.28906 13.1164L2.76591 -4.29932L18.3504 4.69771L8.29547 22.1135L-7.28906 13.1164Z" fill="#261723"/>
</g>
<mask id="mask3_2063_2322" style="mask-type:luminance" maskUnits="userSpaceOnUse" x="18" y="12" width="13" height="18">
<path d="M25.263 21.8473C22.9051 25.855 20.7824 27.5876 18.9534 29.4973C18.9288 29.5219 18.9019 29.5511 18.875 29.5757C25.3392 27.8879 30.1134 22.0065 30.1134 15.011C30.1134 14.1817 30.0484 13.3703 29.9162 12.5791C28.5691 13.9755 27.4305 18.1602 25.263 21.8473Z" fill="white"/>
</mask>
<g mask="url(#mask3_2063_2322)">
<path d="M11.5137 25.3262L21.683 7.71094L37.4715 16.8268L27.3022 34.4398L11.5137 25.3262Z" fill="#261723"/>
</g>
<mask id="mask4_2063_2322" style="mask-type:luminance" maskUnits="userSpaceOnUse" x="9" y="7" width="21" height="23">
<path d="M19.9689 18.3223C17.658 23.2915 13.1191 29.1214 9.08008 28.8278C10.5101 29.4464 12.0567 29.8521 13.6772 30C13.7153 29.9911 13.7534 29.9821 13.7938 29.9731C16.1114 29.4442 20.314 25.3782 22.5868 20.5413C24.3755 16.7353 26.4555 11.8446 29.3783 10.3496C29.0555 9.36111 28.6341 8.41523 28.1253 7.52539C25.5231 7.5366 21.892 14.1801 19.9689 18.3223Z" fill="white"/>
</mask>
<g mask="url(#mask4_2063_2322)">
<path d="M-0.650391 24.3832L14.1541 -1.26074L39.11 13.147L24.3032 38.791L-0.650391 24.3832Z" fill="#261723"/>
</g>
</svg>
