<svg width="99" height="30" viewBox="0 0 99 30" fill="none" xmlns="http://www.w3.org/2000/svg">
<g clip-path="url(#clip0_2063_2314)">
<path d="M0 21.2125V0.438799H3.64896V21.2125H0ZM12.9908 6.14319C8.71824 6.15473 5.26559 9.63048 5.27714 13.903C5.28868 18.1755 8.76443 21.6282 13.037 21.6166C17.3095 21.6051 20.7621 18.1293 20.7506 13.8568C20.739 9.5843 17.2633 6.13164 12.9908 6.14319ZM12.9446 9.66513C15.2771 9.64203 17.1824 11.5012 17.2055 13.8337C17.2286 16.1663 15.3695 18.0716 13.037 18.0947C10.7044 18.1178 8.79908 16.2587 8.77598 13.9261C8.77598 13.9145 8.77598 13.8915 8.77598 13.8799C8.75289 11.5704 10.612 9.68822 12.9215 9.66513C12.933 9.66513 12.9446 9.66513 12.9446 9.66513ZM30.0577 6.14319C25.7852 6.15473 22.3326 9.63048 22.3441 13.903C22.3557 18.1755 25.8314 21.6282 30.1039 21.6166C34.3303 21.7206 37.8522 18.3718 37.9561 14.1455C37.9561 14.0416 37.9561 13.9492 37.9561 13.8453C38.06 12.4249 37.6328 11.0162 36.7667 9.88453L37.7829 9.53811V6.57044H32.5982C31.7667 6.2933 30.9122 6.14319 30.0577 6.14319ZM30.0115 9.66513C32.3441 9.64203 34.2494 11.5012 34.2725 13.8337C34.2956 16.1663 32.4365 18.0716 30.1039 18.0947C27.7714 18.1178 25.866 16.2587 25.843 13.9261C25.843 13.9145 25.843 13.8915 25.843 13.8799C25.8199 11.5704 27.679 9.68822 29.9885 9.66513C30 9.66513 30 9.66513 30.0115 9.66513ZM34.2379 22.2286C34.2379 24.5497 32.3557 26.4434 30.0231 26.4434C27.6905 26.4434 25.8083 24.5612 25.8083 22.2286H22.1132C22.0439 26.455 25.4157 29.9307 29.642 30C29.7806 30 29.9307 30 30.0693 30C34.2956 30.1039 37.806 26.7667 37.9215 22.5404C37.9215 22.4365 37.9215 22.3326 37.9215 22.2286H34.2379ZM39.4111 21.2125V6.57044H43.06V21.2125H39.4111ZM46.6051 21.2125V9.84988H44.6536V6.57044H46.6051V2.07852H50.254V6.57044H52.2633V9.84988H50.254V21.2125H46.6051ZM43.6374 2.41339C43.6374 3.75289 42.552 4.82679 41.224 4.82679C39.8845 4.82679 38.8106 3.74134 38.8106 2.41339C38.8106 1.08545 39.8845 0 41.224 0C42.5635 0 43.6374 1.08545 43.6374 2.41339ZM60.4619 6.13164C56.2818 6.03926 52.806 9.3649 52.7252 13.545C52.7252 13.6951 52.7252 13.8453 52.7252 13.9838C52.5635 18.037 55.7159 21.4665 59.7691 21.6282C60.0231 21.6397 60.2771 21.6397 60.5312 21.6166C63.0369 21.6975 65.4619 20.6813 67.1709 18.8337L64.7344 16.3857C63.6374 17.5289 62.1594 18.2333 60.5889 18.3718C58.7067 18.4411 57.0323 17.1709 56.5935 15.3349H67.9677V14.3303C67.9677 10.3464 65.6467 6.13164 60.4619 6.13164ZM60.3464 9.35335C62.2055 9.24942 63.8337 10.5658 64.1339 12.4018H56.4896C56.8591 10.5774 58.4873 9.28407 60.3464 9.35335ZM77.0901 21.6397C72.806 21.7206 69.2725 18.3141 69.1917 14.03C69.1108 9.74596 72.5173 6.21247 76.8014 6.13164C76.8938 6.13164 76.9746 6.13164 77.067 6.13164C79.4919 6.10854 81.7898 7.18245 83.3256 9.05312L80.7737 11.582C79.8499 10.4503 78.4988 9.75751 77.0439 9.67667C74.7691 9.61894 72.8868 11.4203 72.8406 13.6836C72.8406 13.7413 72.8406 13.7991 72.8406 13.8568C72.7829 16.1432 74.5958 18.037 76.8822 18.0947C76.9284 18.0947 76.9746 18.0947 77.0208 18.0947C78.4873 18.0139 79.8499 17.3326 80.7737 16.1894L83.3487 18.7182C81.8129 20.6005 79.515 21.6628 77.0901 21.6397ZM84.6882 21.224V0.39261H88.3372V8.0485C89.4457 6.76674 91.0854 6.06236 92.7714 6.13164C96.5935 6.13164 98.8106 8.97229 98.8106 12.6097V21.2356H95.1617V13.164C95.3695 11.4781 94.1686 9.94226 92.4827 9.72286C92.3095 9.69977 92.1363 9.69977 91.9515 9.69977C90.0924 9.54965 88.4757 10.9353 88.3372 12.7945C88.3256 12.9792 88.3256 13.164 88.3372 13.3487V21.224H84.6882Z" fill="#504E4E"/>
</g>
<defs>
<clipPath id="clip0_2063_2314">
<rect width="98.8106" height="30" fill="white"/>
</clipPath>
</defs>
</svg>
