<svg width="111" height="30" viewBox="0 0 111 30" fill="none" xmlns="http://www.w3.org/2000/svg">
<path d="M48.5634 18.5581C48.4896 18.4842 48.379 18.4842 48.3127 18.5506C46.9415 19.8187 45.7176 20.615 43.7786 20.615C40.8295 20.615 38.603 18.2115 38.603 15.0265V14.975C38.603 11.8122 40.8222 9.43082 43.7786 9.43082C45.371 9.43082 46.7276 10.0427 48.2021 11.3993C48.2401 11.4298 48.2867 11.4483 48.335 11.4508C48.3854 11.4505 48.4334 11.4291 48.4677 11.392L50.2961 9.28343C50.3198 9.24814 50.3326 9.20646 50.3326 9.16403C50.3326 9.11311 50.3144 9.06383 50.2814 9.02512C48.651 7.3721 46.4213 6.43907 44.098 6.43907C43.9943 6.43907 43.8893 6.441 43.7863 6.44443C38.913 6.44443 35.2266 10.1307 35.2266 15.0189V15.063C35.2266 19.8478 38.9349 23.5858 43.6609 23.5858C46.3962 23.5858 48.409 22.7084 50.3848 20.6662C50.4587 20.5924 50.4587 20.467 50.3848 20.4008L48.5637 18.5576L48.5631 18.5579L48.5634 18.5581ZM67.1721 23.0407L62.9475 17.0982C65.3732 16.3168 66.7076 14.5472 66.7076 12.0848V12.0407C66.7082 11.996 66.7093 11.9499 66.7093 11.9046C66.7093 10.6018 66.2065 9.34774 65.307 8.40593C64.179 7.31478 62.5201 6.73951 60.4926 6.73951H53.2599C53.1583 6.73951 53.0757 6.82214 53.0757 6.92397V23.1513C53.0757 23.262 53.157 23.3281 53.2602 23.3281H56.1133C56.2166 23.3281 56.2978 23.2542 56.2978 23.1513V17.6734H59.5858L63.5153 23.2547C63.5594 23.3062 63.6039 23.3285 63.67 23.3285L67.0322 23.3282C67.1299 23.3279 67.2089 23.2487 67.2089 23.1512C67.2089 23.0997 67.2016 23.0626 67.1721 23.0406V23.0409V23.0407ZM60.146 15.0636H56.1574V9.97632H60.1237C62.166 9.97632 63.3087 10.861 63.3087 12.4829V12.5269C63.294 14.0606 62.0627 15.0631 60.1459 15.0631L60.1462 15.0634L60.146 15.0636ZM86.2306 23.0629L79.094 6.71747C79.0655 6.64839 78.9989 6.60224 78.9243 6.59926L76.285 6.59956C76.2847 6.59986 76.2844 6.59986 76.2841 6.59986C76.2102 6.59986 76.1452 6.64765 76.1225 6.71792L68.9711 23.0634C68.927 23.1592 68.9711 23.2626 69.0669 23.3066C69.093 23.3151 69.1204 23.3199 69.1482 23.3208L72.0676 23.3211C72.1415 23.3211 72.2077 23.277 72.2298 23.2104L73.8517 19.3988H81.2835L82.8906 23.2104C82.9127 23.2768 82.9865 23.3211 83.0601 23.3211H86.0685C86.0707 23.3208 86.0733 23.3208 86.0758 23.3208C86.1694 23.3208 86.2452 23.245 86.2452 23.1513C86.2452 23.1488 86.2452 23.1463 86.2449 23.1437C86.2524 23.1143 86.2376 23.0849 86.2302 23.0625L86.2305 23.0631L86.2306 23.0629ZM74.8913 16.7665L77.4054 10.9272L79.9345 16.7665H74.8913ZM89.0985 6.71747H91.9592C92.0624 6.71747 92.136 6.79861 92.136 6.90194V23.1368C92.136 23.2341 92.0568 23.3133 91.9592 23.3133L89.0985 23.3136C89.0963 23.3133 89.0937 23.3133 89.0911 23.3133C88.9974 23.3133 88.9216 23.2375 88.9216 23.1437C88.9216 23.1412 88.9216 23.1387 88.9219 23.1362L88.9216 6.90194C88.9216 6.80606 89.0028 6.71747 89.0985 6.71747ZM110.406 13.8838H105.518C105.466 13.8838 105.407 13.9059 105.378 13.9577L103.321 16.4349C103.295 16.4669 103.281 16.5071 103.281 16.5486C103.281 16.6046 103.306 16.6575 103.35 16.6926C103.385 16.7215 103.43 16.737 103.475 16.737H103.475H107.479V19.4945C106.398 20.2381 105.114 20.6372 103.801 20.6372C103.781 20.6372 103.761 20.6372 103.741 20.6372C100.6 20.6372 98.4102 18.3296 98.4102 15.0192V14.9751C98.4102 11.9155 100.689 9.43097 103.483 9.43097C105.51 9.43097 106.682 10.0723 107.906 11.1267C107.947 11.1553 107.995 11.1708 108.044 11.1708C108.047 11.1708 108.051 11.1708 108.054 11.1705C108.105 11.1705 108.15 11.1485 108.172 11.0966L109.986 8.94368C110.059 8.8624 110.044 8.75178 109.971 8.67823C108.083 7.0858 106.24 6.42969 103.616 6.42969C103.589 6.42969 103.561 6.42969 103.534 6.42969C98.8523 6.42969 95.0557 10.2264 95.0557 14.9081C95.0557 14.9392 95.0567 14.9744 95.0567 15.004V15.0481C95.0567 20.0689 98.5956 23.5856 103.661 23.5856C106.882 23.5856 109.183 22.185 110.561 21.0125C110.598 20.9789 110.62 20.9308 110.62 20.8805C110.62 20.8779 110.62 20.8751 110.62 20.8726V14.0601C110.598 13.9715 110.516 13.8832 110.406 13.8832C110.42 13.8832 110.42 13.8832 110.406 13.8832L110.406 13.8835L110.406 13.8838Z" fill="#504E4E"/>
<path d="M28.8722 18.1665C28.8684 17.663 28.4614 17.2558 27.958 17.252C27.7999 17.2536 27.6445 17.2972 27.5084 17.3776L17.2162 23.165C17.1313 23.2154 17.0345 23.2423 16.9358 23.2423C16.6345 23.2423 16.3905 22.9981 16.3905 22.6968C16.3905 22.6958 16.3905 22.6943 16.3905 22.6931V18.2328C16.3905 18.2302 16.3905 18.2277 16.3905 18.225C16.3905 17.928 16.1494 17.687 15.8524 17.687C15.8499 17.687 15.8473 17.687 15.845 17.687L15.8296 17.6873C8.24313 17.8938 4.61566 20.3342 2.49977 22.6639C2.40955 22.7669 2.35938 22.9002 2.35938 23.0376C2.35938 23.1196 2.37724 23.2011 2.41148 23.2755C2.83892 24.1749 3.18551 24.6762 3.95984 25.502L4.22529 25.76L4.43179 25.9665C5.3017 26.8217 6.27493 27.5516 7.33675 28.1415L7.49888 28.2301L7.88954 28.4366C8.09604 28.5399 8.29494 28.6431 8.50144 28.7241C8.57528 28.7609 8.65612 28.7829 8.72267 28.8274C8.96594 28.9307 9.20936 29.0266 9.45993 29.1149H9.46707C10.7672 29.5913 12.1335 29.8819 13.5157 29.9699C13.8256 29.9847 14.1276 29.9994 14.4299 29.9994L26.7339 30C27.8983 29.9994 28.8428 29.055 28.8428 27.8909V18.1668H28.8723L28.8722 18.1665Z" fill="#504E4E"/>
<path d="M27.3013 0.000149026H14.4359C12.7477 0.00744417 11.0639 0.304761 9.47371 0.870358L9.45927 0.87006C9.2157 0.961175 8.96394 1.06301 8.7229 1.16484C8.6565 1.20161 8.57551 1.22365 8.50167 1.26072L7.89706 1.54821L7.5064 1.76215L7.33698 1.84329C6.27516 2.43315 5.30193 3.17786 4.43202 4.01829L4.22552 4.23208L3.96022 4.49009C1.41913 7.17634 0.000594286 10.7385 0.000594286 14.4366V15.572C-1.23581e-06 15.6012 0 15.6348 0 15.6654C0 16.842 0.174785 18.0144 0.516316 19.1401C0.585248 19.3711 0.798297 19.5304 1.03993 19.5304C1.09234 19.5304 1.14459 19.5228 1.19491 19.5078C1.30404 19.4716 1.40141 19.4051 1.47496 19.3165C4.90725 14.8514 10.2177 12.2149 15.8522 12.1793C16.1501 12.1759 16.3901 11.9329 16.3901 11.6344C16.3901 11.6319 16.3901 11.6294 16.3901 11.6271V7.30675C16.3901 6.99693 16.6334 6.76141 16.9432 6.76141C17.0391 6.76141 17.1199 6.78344 17.2159 6.82781L27.5082 12.6376C27.6432 12.7111 27.7951 12.7501 27.9493 12.7501C28.28 12.7501 28.5853 12.5713 28.7469 12.2828C28.8238 12.1477 28.8672 11.9959 28.8722 11.8406L28.8719 1.57039C28.8722 0.703311 28.1689 0 27.3018 0H27.3015L27.3013 0.000149026Z" fill="#504E4E"/>
</svg>
