<svg width="126" height="30" viewBox="0 0 126 30" fill="none" xmlns="http://www.w3.org/2000/svg">
<g clip-path="url(#clip0_2063_2312)">
<path d="M29.5418 27.999H22.5611L20.4226 22.8513H8.79837L6.85845 27.999H0L10.4786 2.01629H17.9939L29.5418 27.999ZM14.3279 8.21792L10.5092 18.3147H18.5132L14.3279 8.21792ZM54.8676 2.01629H60.5041V28.0143H54.0275V11.7617L47.0163 19.9185H46.0234L39.0275 11.7617V27.999H32.5356V2.01629H38.1874L46.5275 11.6548L54.8676 2.01629ZM76.9399 2.01629C86.4257 2.01629 91.3136 7.9277 91.3136 15.0458C91.3136 22.5153 86.5937 27.999 76.222 27.999H65.4684V2.01629H76.9399ZM71.945 23.2332H76.1762C82.6986 23.2332 84.6385 18.8035 84.6385 15C84.6385 10.5397 82.2403 6.7668 76.0998 6.7668H71.945V23.2332ZM104.19 8.1721L96.0183 0H125.759V29.7403L117.587 21.5682V8.1721H104.19ZM104.19 9.80652L95.7739 18.223V30H107.551L115.967 21.5835H104.19V9.80652Z" fill="#504E4E"/>
</g>
<defs>
<clipPath id="clip0_2063_2312">
<rect width="125.774" height="30" fill="white"/>
</clipPath>
</defs>
</svg>
