<svg width="174" height="40" viewBox="0 0 174 40" fill="none" xmlns="http://www.w3.org/2000/svg">
<g opacity="0.84">
<path d="M33.3263 19.5146C33.0695 10.5344 25.709 3.33331 16.6666 3.33331C13.8029 3.33331 11.108 4.05553 8.7539 5.32775L33.3263 19.5146Z" fill="#0D173F"/>
<path d="M6.4106 6.86159C5.72079 7.40082 5.07454 7.9932 4.478 8.63256L32.6092 24.8741C32.8621 24.0461 33.0522 23.1907 33.174 22.3134L6.4106 6.86159Z" fill="#0D173F"/>
<path d="M28.8554 31.3671C28.2589 32.0065 27.6127 32.5989 26.9229 33.1381L0.159241 17.6861C0.28108 16.8089 0.471198 15.9535 0.724054 15.1255L28.8554 31.3671Z" fill="#0D173F"/>
<path d="M30.4362 29.393L1.64523 12.7706C2.0091 12.0159 2.42817 11.2928 2.89719 10.6066L31.6881 27.2291C31.3242 27.9837 30.9052 28.7068 30.4362 29.393Z" fill="#0D173F"/>
<path d="M16.6666 36.6666C19.5304 36.6666 22.2255 35.9444 24.5796 34.672L0.00683594 20.4849C0.263416 29.4654 7.62402 36.6666 16.6666 36.6666Z" fill="#0D173F"/>
</g>
<g opacity="0.84">
<path d="M62.2978 20.375C62.2978 19.1666 61.6312 18.375 60.6312 18.375C59.5687 18.375 58.7353 18.9583 57.8187 20.4583V27.5H49.1045C44.5837 27.5 41.667 24.7291 41.667 20.2291C41.667 15.7291 44.5837 12.9583 49.1045 12.9583H52.6045V15.7708H49.1045C46.667 15.7708 45.2087 17.3958 45.2087 20.2291C45.2087 23.0625 46.667 24.6875 49.1045 24.6875H54.5687V12.0833H57.8187V17.1875C58.7978 16.1041 60.0478 15.6666 61.2978 15.6666C63.9437 15.6666 65.5478 17.4583 65.5478 20.1666V27.5H62.2978V20.375Z" fill="#0D173F"/>
<path d="M73.04 18.375C73.915 18.375 74.29 19.0833 74.29 20.1666V21.7291H77.5609V20.1666C77.5609 17.2083 75.9775 15.6666 73.7484 15.6666C72.5609 15.6666 71.5609 16.1875 70.7067 17.2083L70.6442 15.9166H67.4984V27.5H70.7484V20.2708C71.6025 19.0208 72.3109 18.375 73.04 18.375Z" fill="#0D173F"/>
<path fill-rule="evenodd" clip-rule="evenodd" d="M84.3188 27.75C80.6105 27.75 78.3605 25.4791 78.3605 21.7083C78.3605 17.9375 80.6105 15.6666 84.3188 15.6666C88.0272 15.6666 90.2563 17.9375 90.2563 21.7083C90.2563 25.4791 88.0272 27.75 84.3188 27.75ZM81.6105 21.7083C81.6105 23.8541 82.6313 25.125 84.3188 25.125C85.9855 25.125 87.0063 23.8541 87.0063 21.7083C87.0063 19.5625 85.9855 18.2916 84.3188 18.2916C82.6313 18.2916 81.6105 19.5625 81.6105 21.7083Z" fill="#0D173F"/>
<path d="M104.896 18.3541C106 18.3541 106.709 19.0625 106.709 20.2291V27.5H109.959V20.2291C109.959 17.375 108.105 15.6666 105.813 15.6666C104.021 15.6666 102.667 16.4583 101.959 17.6875C101.25 16.3958 99.8963 15.6666 98.313 15.6666C97.0005 15.6666 95.7505 16.3125 94.9588 17.3125L94.8963 15.9166H91.7505V27.5H95.0005V20.1458C95.6463 19.0833 96.4796 18.3541 97.4171 18.3541C98.5005 18.3541 99.2296 19.0625 99.2296 20.2291V27.5H102.48V20.1875C103.125 19.1041 103.959 18.3541 104.896 18.3541Z" fill="#0D173F"/>
<path fill-rule="evenodd" clip-rule="evenodd" d="M118.819 27.5L118.756 26.3541C117.965 27.3541 116.735 27.75 115.298 27.75C113.048 27.75 111.569 26.3125 111.569 24.2708C111.569 21.875 113.465 20.5208 116.59 20.5208H118.715V19.7291C118.715 18.625 117.944 17.9583 116.631 17.9583C115.34 17.9583 114.506 18.5833 114.402 19.6041H111.235C111.444 17.1666 113.527 15.6666 116.777 15.6666C119.944 15.6666 121.965 17.2083 121.965 19.9375V27.5H118.819ZM114.756 24.0625C114.756 24.6875 115.194 25.1875 116.111 25.1875C117.236 25.1875 118.09 24.625 118.715 23.6666V22.7708L116.527 22.7916C115.444 22.7916 114.756 23.1666 114.756 24.0625Z" fill="#0D173F"/>
<path d="M124.734 23.3333C124.734 25.7916 126.276 27.5 128.63 27.5H131.547V24.875H129.922C128.505 24.875 127.984 24.5416 127.984 23.3333V18.5416H130.359V15.9166H127.984V12.0833H124.734V15.9166H122.755V18.5416H124.734V23.3333Z" fill="#0D173F"/>
<path fill-rule="evenodd" clip-rule="evenodd" d="M137.93 27.75C134.221 27.75 131.971 25.4791 131.971 21.7083C131.971 17.9375 134.221 15.6666 137.93 15.6666C141.638 15.6666 143.867 17.9375 143.867 21.7083C143.867 25.4791 141.638 27.75 137.93 27.75ZM135.221 21.7083C135.221 23.8541 136.242 25.125 137.93 25.125C139.596 25.125 140.617 23.8541 140.617 21.7083C140.617 19.5625 139.596 18.2916 137.93 18.2916C136.242 18.2916 135.221 19.5625 135.221 21.7083Z" fill="#0D173F"/>
<path fill-rule="evenodd" clip-rule="evenodd" d="M144.82 21.7083C144.82 25.4791 147.07 27.75 150.778 27.75C154.486 27.75 156.715 25.4791 156.715 21.7083C156.715 17.9375 154.486 15.6666 150.778 15.6666C147.07 15.6666 144.82 17.9375 144.82 21.7083ZM150.778 25.125C149.09 25.125 148.07 23.8541 148.07 21.7083C148.07 19.5625 149.09 18.2916 150.778 18.2916C152.445 18.2916 153.465 19.5625 153.465 21.7083C153.465 23.8541 152.445 25.125 150.778 25.125Z" fill="#0D173F"/>
<path d="M162.863 23.3541C162.905 26.0833 164.863 27.75 168.051 27.75C171.051 27.75 172.863 26.3333 172.863 23.9791C172.863 21.1159 170.494 20.6674 168.611 20.3112C167.371 20.0764 166.342 19.8817 166.342 19.0625C166.342 18.3958 166.884 18.0208 167.801 18.0208C168.884 18.0208 169.592 18.5833 169.655 19.6041H172.655C172.446 17.125 170.801 15.6666 167.905 15.6666C165.051 15.6666 163.113 17 163.113 19.2708C163.113 21.9896 165.45 22.5358 167.326 22.9743C168.583 23.2683 169.634 23.5138 169.634 24.3333C169.634 25 169.03 25.3958 168.051 25.3958C166.634 25.3958 165.801 24.625 165.863 23.3541H162.863Z" fill="#0D173F"/>
<path d="M158.23 27.5V12.0833H161.48V27.5H158.23Z" fill="#0D173F"/>
</g>
</svg>
