<svg width="132" height="40" viewBox="0 0 132 40" fill="none" xmlns="http://www.w3.org/2000/svg">
<g opacity="0.84">
<path d="M26.6663 21.6667C26.6663 26.2691 22.9354 30 18.333 30C13.7306 30 9.99967 26.2691 9.99967 21.6667H3.33301C3.33301 29.951 10.0487 36.6667 18.333 36.6667C26.6173 36.6667 33.333 29.951 33.333 21.6667C33.333 13.3824 26.6173 6.66669 18.333 6.66669V13.3334C22.9354 13.3334 26.6663 17.0643 26.6663 21.6667Z" fill="#0D173F"/>
<path opacity="0.5" d="M8.33333 3.33331C8.33333 7.93569 4.60237 11.6666 0 11.6666V18.3333C8.28427 18.3333 15 11.6176 15 3.33331H8.33333Z" fill="#0D173F"/>
</g>
<g opacity="0.84">
<path d="M41.667 11.525H53.142V14.7425H45.6045V17.8925H52.872V21.0875H45.6045V24.2825H53.322V27.5H41.667V11.525Z" fill="#0D173F"/>
<path d="M54.3779 19.3325C54.8279 16.7 56.8079 15.305 60.1379 15.305C63.9629 15.305 65.8529 17.06 65.8529 20.5475V23.945C65.8529 24.8225 66.2129 24.9575 66.6179 24.9575H67.0229V27.5L66.4829 27.545C65.8529 27.5675 63.1079 27.995 62.7029 25.7C62.0729 26.9825 60.7229 27.77 58.4504 27.77C56.0204 27.77 54.1754 26.465 54.1754 24.35C54.1754 22.2125 55.7729 21.3125 58.7204 20.7275L61.9154 20.075C61.9154 18.4325 61.3529 17.6675 60.1154 17.6675C59.0804 17.6675 58.4504 18.275 58.2479 19.49L54.3779 19.3325ZM58.1579 24.1925C58.1579 24.89 58.7204 25.385 59.7779 25.385C61.0829 25.385 61.9829 24.395 61.9829 22.4375V22.325L60.2954 22.64C59.0129 22.865 58.1579 23.135 58.1579 24.1925Z" fill="#0D173F"/>
<path d="M75.1224 19.5125C74.9424 18.455 74.1099 17.825 73.2099 17.825C72.2649 17.825 71.5899 18.32 71.6349 19.1075C71.6799 19.8725 72.5349 20.2325 73.5924 20.4125C77.3949 20.975 79.0149 21.9425 79.0149 24.17C79.0149 26.555 76.8099 27.77 73.5249 27.77C69.8124 27.77 67.5624 26.2625 67.3599 23.6975L71.2524 23.54C71.4549 24.5975 72.1974 25.1825 73.3899 25.1825C74.1999 25.1825 75.0774 24.8675 75.0324 24.125C75.0099 23.2475 74.0649 23.0225 72.9624 22.82C69.2949 22.145 67.6524 21.245 67.6524 19.1075C67.6524 16.7 69.6774 15.2825 73.3224 15.2825C76.5174 15.2825 78.5874 16.79 78.9699 19.3775L75.1224 19.5125Z" fill="#0D173F"/>
<path d="M78.7567 15.575H82.3567L85.1467 23.4725L87.8017 15.575H91.4017L86.7667 28.5125C86.1817 30.155 85.0792 30.875 83.2342 30.875H80.8942V28.13H82.4467C83.2117 28.13 83.5942 27.9275 83.8192 27.365L84.0667 26.7575H83.0317L78.7567 15.575Z" fill="#0D173F"/>
<path d="M104.739 11.525V14.7425H100.014V27.5H96.0985V14.7425H91.3735V11.525H104.739Z" fill="#0D173F"/>
<path d="M104.831 19.3325C105.281 16.7 107.261 15.305 110.591 15.305C114.416 15.305 116.306 17.06 116.306 20.5475V23.945C116.306 24.8225 116.666 24.9575 117.071 24.9575H117.476V27.5L116.936 27.545C116.306 27.5675 113.561 27.995 113.156 25.7C112.526 26.9825 111.176 27.77 108.903 27.77C106.473 27.77 104.628 26.465 104.628 24.35C104.628 22.2125 106.226 21.3125 109.173 20.7275L112.368 20.075C112.368 18.4325 111.806 17.6675 110.568 17.6675C109.533 17.6675 108.903 18.275 108.701 19.49L104.831 19.3325ZM108.611 24.1925C108.611 24.89 109.173 25.385 110.231 25.385C111.536 25.385 112.436 24.395 112.436 22.4375V22.325L110.748 22.64C109.466 22.865 108.611 23.135 108.611 24.1925Z" fill="#0D173F"/>
<path d="M126.966 15.5525H131.151L126.944 21.4475L131.264 27.5H127.079L124.739 23.855L122.376 27.5H118.191L122.511 21.4475L118.304 15.5525H122.466L124.739 19.0175L126.966 15.5525Z" fill="#0D173F"/>
</g>
</svg>
