<svg width="119" height="40" viewBox="0 0 119 40" fill="none" xmlns="http://www.w3.org/2000/svg">
<g opacity="0.84">
<path d="M24.5378 32.64C24.0352 33.757 23.4103 34.8509 22.6612 35.7973C28.8763 33.7025 33.4515 28.0428 33.9552 21.25H31.7428C29.0428 21.25 26.8741 23.405 26.4352 26.0691C26.0307 28.5247 25.3835 30.7608 24.5378 32.64Z" fill="#0D173F"/>
<path d="M19.6443 21.25C22.4711 21.25 24.7834 23.6082 24.2642 26.3869C23.1365 32.4222 20.4586 36.6666 17.3347 36.6666C13.3818 36.6666 10.1431 29.8709 9.85545 21.25H19.6443Z" fill="#0D173F"/>
<path d="M26.4927 14.2918C26.9061 16.9807 29.0848 19.1666 31.8054 19.1666H33.9809C33.6373 12.1893 29.0029 6.34012 22.6612 4.20262C23.4103 5.14908 24.0352 6.24298 24.5378 7.35994C25.4247 9.33081 26.0933 11.6942 26.4927 14.2918Z" fill="#0D173F"/>
<path d="M24.3477 14.0797C24.8206 16.8444 22.5182 19.1666 19.7134 19.1666H9.84388C10.0393 10.3491 13.3183 3.33331 17.3347 3.33331C20.5386 3.33331 23.2732 7.79766 24.3477 14.0797Z" fill="#0D173F"/>
<path d="M7.76007 19.1666C7.85474 14.6597 8.71454 10.5088 10.1315 7.35994C10.6342 6.24298 11.259 5.14908 12.0081 4.20262C5.6664 6.34012 1.03205 12.1893 0.688477 19.1666H7.76007Z" fill="#0D173F"/>
<path d="M0.714175 21.25C1.21784 28.0428 5.79305 33.7025 12.0081 35.7973C11.259 34.8509 10.6342 33.757 10.1315 32.64C8.75832 29.5884 7.90839 25.5958 7.77103 21.25H0.714175Z" fill="#0D173F"/>
</g>
<g opacity="0.84">
<path d="M42.334 27.4999V11.0974H54.8215V14.2249H46.024V17.7124H53.674V20.6374H46.024V24.3724H54.8215V27.4999H42.334Z" fill="#0D173F"/>
<path d="M60.9962 27.7249C59.6612 27.7249 58.6637 27.2899 58.0037 26.4199C57.3437 25.5349 57.0137 24.3724 57.0137 22.9324V15.4174H60.4562V22.4374C60.4562 23.3974 60.6437 24.0574 61.0187 24.4174C61.4087 24.7624 61.9262 24.9349 62.5712 24.9349C63.3362 24.9349 63.9137 24.6799 64.3037 24.1699C64.6937 23.6599 64.8887 22.9924 64.8887 22.1674V15.4174H68.3312V27.4999H65.1137L64.8662 25.5199H64.6862C64.4162 26.1799 63.9512 26.7124 63.2912 27.1174C62.6462 27.5224 61.8812 27.7249 60.9962 27.7249Z" fill="#0D173F"/>
<path d="M70.9144 27.4999V15.4174H74.1319L74.3794 17.4199H74.5819C74.8519 16.6699 75.2119 16.1224 75.6619 15.7774C76.1119 15.4174 76.7569 15.2374 77.5969 15.2374H78.6769V18.7474H77.1244C76.1344 18.7474 75.4294 19.0024 75.0094 19.5124C74.5894 20.0074 74.3794 20.6749 74.3794 21.5149V27.4999H70.9144Z" fill="#0D173F"/>
<path d="M85.3042 27.7249C83.3392 27.7249 81.8767 27.1624 80.9167 26.0374C79.9567 24.9124 79.4767 23.4124 79.4767 21.5374V21.4699C79.4767 19.3399 80.0092 17.7649 81.0742 16.7449C82.1392 15.7099 83.5492 15.1924 85.3042 15.1924C87.0742 15.1924 88.4917 15.7099 89.5567 16.7449C90.6367 17.7649 91.1767 19.3399 91.1767 21.4699V21.5374C91.1617 23.4124 90.6742 24.9124 89.7142 26.0374C88.7542 27.1624 87.2842 27.7249 85.3042 27.7249ZM85.3042 24.9349C86.0692 24.9349 86.6467 24.7249 87.0367 24.3049C87.4417 23.8849 87.6442 23.3074 87.6442 22.5724V20.4124C87.6442 19.6624 87.4342 19.0774 87.0142 18.6574C86.6092 18.2224 86.0392 18.0049 85.3042 18.0049C84.5842 18.0049 84.0142 18.2224 83.5942 18.6574C83.1892 19.0774 82.9867 19.6624 82.9867 20.4124V22.5724C82.9867 23.3074 83.1817 23.8849 83.5717 24.3049C83.9767 24.7249 84.5542 24.9349 85.3042 24.9349Z" fill="#0D173F"/>
<path d="M93.0637 31.2574V15.4174H96.3487L96.5288 17.1949H96.6862C96.9862 16.5649 97.4513 16.0774 98.0812 15.7324C98.7262 15.3724 99.4462 15.1924 100.241 15.1924C101.861 15.1924 103.039 15.7399 103.774 16.8349C104.509 17.9299 104.876 19.3924 104.876 21.2224V21.7399C104.876 23.8249 104.456 25.3474 103.616 26.3074C102.791 27.2524 101.666 27.7249 100.241 27.7249C99.4612 27.7249 98.7488 27.5524 98.1038 27.2074C97.4588 26.8474 96.9862 26.3524 96.6862 25.7224H96.5288V31.2574H93.0637ZM98.8462 24.9124C99.5962 24.9124 100.174 24.7024 100.579 24.2824C100.984 23.8624 101.186 23.2699 101.186 22.5049V20.4349C101.186 19.6699 100.984 19.0774 100.579 18.6574C100.174 18.2224 99.5962 18.0049 98.8462 18.0049C98.1413 18.0049 97.5787 18.2224 97.1587 18.6574C96.7537 19.0924 96.5513 19.6999 96.5513 20.4799V22.4599C96.5513 23.2399 96.7537 23.8474 97.1587 24.2824C97.5787 24.7024 98.1413 24.9124 98.8462 24.9124Z" fill="#0D173F"/>
<path d="M109.712 27.7249C108.602 27.7249 107.702 27.4324 107.012 26.8474C106.322 26.2474 105.977 25.4524 105.977 24.4624V24.4174C105.977 23.2624 106.344 22.3699 107.079 21.7399C107.814 21.1099 108.804 20.7199 110.049 20.5699L113.424 20.1199V19.6474C113.424 18.5074 112.734 17.9374 111.354 17.9374C110.694 17.9374 110.169 18.0649 109.779 18.3199C109.404 18.5749 109.217 18.9424 109.217 19.4224H106.089C106.089 18.0874 106.577 17.0524 107.552 16.3174C108.527 15.5674 109.899 15.1924 111.669 15.1924C113.289 15.1924 114.557 15.5374 115.472 16.2274C116.402 16.9174 116.867 18.0124 116.867 19.5124V25.0699H118.442V27.4999H114.302L114.032 25.6324H113.784C113.484 26.2924 112.982 26.8099 112.277 27.1849C111.587 27.5449 110.732 27.7249 109.712 27.7249ZM111.197 25.2499C111.797 25.2499 112.299 25.1074 112.704 24.8224C113.124 24.5224 113.364 24.1399 113.424 23.6749V22.0549L111.152 22.3924C110.642 22.4524 110.229 22.5874 109.914 22.7974C109.599 22.9924 109.442 23.2924 109.442 23.6974V23.9899C109.442 24.3649 109.592 24.6724 109.892 24.9124C110.207 25.1374 110.642 25.2499 111.197 25.2499Z" fill="#0D173F"/>
</g>
</svg>
