<svg width="170" height="40" viewBox="0 0 170 40" fill="none" xmlns="http://www.w3.org/2000/svg">
<g opacity="0.84">
<path d="M11.875 4.16669C11.875 10.7251 6.55838 16.0417 0 16.0417V23.9584H11.875V35.8333H19.7917C19.7917 29.275 25.1083 23.9584 31.6667 23.9584V16.0417H19.7917V4.16669H11.875Z" fill="#0D173F"/>
</g>
<g opacity="0.84">
<path d="M46.833 27.7999C45.0663 27.7999 43.5497 27.4249 42.283 26.6749C41.0163 25.9083 40.0413 24.8499 39.358 23.4999C38.6747 22.1333 38.333 20.5583 38.333 18.7749C38.333 16.9916 38.6747 15.4166 39.358 14.0499C40.0413 12.6833 41.0163 11.6166 42.283 10.8499C43.5497 10.0833 45.0663 9.69994 46.833 9.69994C48.933 9.69994 50.6497 10.2249 51.983 11.2749C53.333 12.3083 54.1747 13.7666 54.508 15.6499H50.983C50.7663 14.6999 50.2997 13.9583 49.583 13.4249C48.883 12.8749 47.9497 12.5999 46.783 12.5999C45.1663 12.5999 43.8997 13.1499 42.983 14.2499C42.0663 15.3499 41.608 16.8583 41.608 18.7749C41.608 20.6916 42.0663 22.1999 42.983 23.2999C43.8997 24.3833 45.1663 24.9249 46.783 24.9249C47.9497 24.9249 48.883 24.6749 49.583 24.1749C50.2997 23.6583 50.7663 22.9499 50.983 22.0499H54.508C54.1747 23.8499 53.333 25.2583 51.983 26.2749C50.6497 27.2916 48.933 27.7999 46.833 27.7999Z" fill="#0D173F"/>
<path d="M55.7656 27.4999V9.49994H58.9656V27.4999H55.7656Z" fill="#0D173F"/>
<path d="M66.4353 27.7999C65.2687 27.7999 64.227 27.5166 63.3103 26.9499C62.3937 26.3833 61.6687 25.6083 61.1353 24.6249C60.602 23.6416 60.3353 22.5249 60.3353 21.2749C60.3353 20.0249 60.602 18.9166 61.1353 17.9499C61.6687 16.9666 62.3937 16.1999 63.3103 15.6499C64.227 15.0833 65.2687 14.7999 66.4353 14.7999C67.3687 14.7999 68.1853 14.9749 68.8853 15.3249C69.5853 15.6749 70.152 16.1666 70.5853 16.7999L70.7603 15.0999H73.7853V27.4999H70.7853L70.5853 25.7249C70.1853 26.2749 69.652 26.7583 68.9853 27.1749C68.3353 27.5916 67.4853 27.7999 66.4353 27.7999ZM67.1103 24.9999C68.1437 24.9999 68.9853 24.6583 69.6353 23.9749C70.302 23.2749 70.6353 22.3833 70.6353 21.2999C70.6353 20.2166 70.302 19.3333 69.6353 18.6499C68.9853 17.9499 68.1437 17.5999 67.1103 17.5999C66.0937 17.5999 65.252 17.9416 64.5853 18.6249C63.9187 19.3083 63.5853 20.1916 63.5853 21.2749C63.5853 22.3583 63.9187 23.2499 64.5853 23.9499C65.252 24.6499 66.0937 24.9999 67.1103 24.9999Z" fill="#0D173F"/>
<path d="M75.5439 27.4999V15.0999H78.3689L78.6189 17.1999C79.0023 16.4666 79.5523 15.8833 80.2689 15.4499C81.0023 15.0166 81.8606 14.7999 82.8439 14.7999C84.3773 14.7999 85.5689 15.2833 86.4189 16.2499C87.2689 17.2166 87.6939 18.6333 87.6939 20.4999V27.4999H84.4939V20.7999C84.4939 19.7333 84.2773 18.9166 83.8439 18.3499C83.4106 17.7833 82.7356 17.4999 81.8189 17.4999C80.9189 17.4999 80.1773 17.8166 79.5939 18.4499C79.0273 19.0833 78.7439 19.9666 78.7439 21.0999V27.4999H75.5439Z" fill="#0D173F"/>
<path d="M94.9539 27.7999C93.7872 27.7999 92.7456 27.5166 91.8289 26.9499C90.9122 26.3833 90.1872 25.6083 89.6539 24.6249C89.1206 23.6416 88.8539 22.5249 88.8539 21.2749C88.8539 20.0249 89.1206 18.9166 89.6539 17.9499C90.1872 16.9666 90.9122 16.1999 91.8289 15.6499C92.7456 15.0833 93.7872 14.7999 94.9539 14.7999C95.8872 14.7999 96.7039 14.9749 97.4039 15.3249C98.1039 15.6749 98.6706 16.1666 99.1039 16.7999V9.49994H102.304V27.4999H99.4539L99.1039 25.7249C98.7039 26.2749 98.1706 26.7583 97.5039 27.1749C96.8539 27.5916 96.0039 27.7999 94.9539 27.7999ZM95.6289 24.9999C96.6622 24.9999 97.5039 24.6583 98.1539 23.9749C98.8206 23.2749 99.1539 22.3833 99.1539 21.2999C99.1539 20.2166 98.8206 19.3333 98.1539 18.6499C97.5039 17.9499 96.6622 17.5999 95.6289 17.5999C94.6122 17.5999 93.7706 17.9416 93.1039 18.6249C92.4372 19.3083 92.1039 20.1916 92.1039 21.2749C92.1039 22.3583 92.4372 23.2499 93.1039 23.9499C93.7706 24.6499 94.6122 24.9999 95.6289 24.9999Z" fill="#0D173F"/>
<path d="M110.087 27.7999C108.837 27.7999 107.729 27.5333 106.762 26.9999C105.796 26.4666 105.037 25.7166 104.487 24.7499C103.937 23.7833 103.662 22.6666 103.662 21.3999C103.662 20.1166 103.929 18.9749 104.462 17.9749C105.012 16.9749 105.762 16.1999 106.712 15.6499C107.679 15.0833 108.812 14.7999 110.112 14.7999C111.329 14.7999 112.404 15.0666 113.337 15.5999C114.271 16.1333 114.996 16.8666 115.512 17.7999C116.046 18.7166 116.312 19.7416 116.312 20.8749C116.312 21.0583 116.304 21.2499 116.287 21.4499C116.287 21.6499 116.279 21.8583 116.262 22.0749H106.837C106.904 23.0416 107.237 23.7999 107.837 24.3499C108.454 24.8999 109.196 25.1749 110.062 25.1749C110.712 25.1749 111.254 25.0333 111.687 24.7499C112.137 24.4499 112.471 24.0666 112.687 23.5999H115.937C115.704 24.3833 115.312 25.0999 114.762 25.7499C114.229 26.3833 113.562 26.8833 112.762 27.2499C111.979 27.6166 111.087 27.7999 110.087 27.7999ZM110.112 17.3999C109.329 17.3999 108.637 17.6249 108.037 18.0749C107.437 18.5083 107.054 19.1749 106.887 20.0749H113.062C113.012 19.2583 112.712 18.6083 112.162 18.1249C111.612 17.6416 110.929 17.3999 110.112 17.3999Z" fill="#0D173F"/>
<path d="M122.629 27.7999C121.529 27.7999 120.562 27.6249 119.729 27.2749C118.896 26.9083 118.229 26.4083 117.729 25.7749C117.229 25.1416 116.929 24.4083 116.829 23.5749H120.054C120.154 24.0583 120.421 24.4749 120.854 24.8249C121.304 25.1583 121.879 25.3249 122.579 25.3249C123.279 25.3249 123.787 25.1833 124.104 24.8999C124.437 24.6166 124.604 24.2916 124.604 23.9249C124.604 23.3916 124.371 23.0333 123.904 22.8499C123.437 22.6499 122.787 22.4583 121.954 22.2749C121.421 22.1583 120.879 22.0166 120.329 21.8499C119.779 21.6833 119.271 21.4749 118.804 21.2249C118.354 20.9583 117.987 20.6249 117.704 20.2249C117.421 19.8083 117.279 19.2999 117.279 18.6999C117.279 17.5999 117.712 16.6749 118.579 15.9249C119.462 15.1749 120.696 14.7999 122.279 14.7999C123.746 14.7999 124.912 15.1416 125.779 15.8249C126.662 16.5083 127.187 17.4499 127.354 18.6499H124.329C124.146 17.7333 123.454 17.2749 122.254 17.2749C121.654 17.2749 121.187 17.3916 120.854 17.6249C120.537 17.8583 120.379 18.1499 120.379 18.4999C120.379 18.8666 120.621 19.1583 121.104 19.3749C121.587 19.5916 122.229 19.7916 123.029 19.9749C123.896 20.1749 124.687 20.3999 125.404 20.6499C126.137 20.8833 126.721 21.2416 127.154 21.7249C127.587 22.1916 127.804 22.8666 127.804 23.7499C127.821 24.5166 127.621 25.2083 127.204 25.8249C126.787 26.4416 126.187 26.9249 125.404 27.2749C124.621 27.6249 123.696 27.7999 122.629 27.7999Z" fill="#0D173F"/>
<path d="M134.273 27.4999C132.973 27.4999 131.931 27.1833 131.148 26.5499C130.365 25.9166 129.973 24.7916 129.973 23.1749V17.7749H127.848V15.0999H129.973L130.348 11.7749H133.173V15.0999H136.523V17.7749H134.006C133.546 17.7749 133.173 18.148 133.173 18.6083V23.1999C133.173 23.7999 133.298 24.2166 133.548 24.4499C133.815 24.6666 134.265 24.7749 134.898 24.7749H136.448V27.4999H134.273Z" fill="#0D173F"/>
<path d="M139.495 13.1749C138.912 13.1749 138.429 12.9999 138.045 12.6499C137.679 12.2999 137.495 11.8583 137.495 11.3249C137.495 10.7916 137.679 10.3583 138.045 10.0249C138.429 9.67494 138.912 9.49994 139.495 9.49994C140.079 9.49994 140.554 9.67494 140.92 10.0249C141.304 10.3583 141.495 10.7916 141.495 11.3249C141.495 11.8583 141.304 12.2999 140.92 12.6499C140.554 12.9999 140.079 13.1749 139.495 13.1749ZM137.895 27.4999V15.0999H141.095V27.4999H137.895Z" fill="#0D173F"/>
<path d="M142.936 27.4999V15.0999H145.761L146.011 17.1999C146.394 16.4666 146.944 15.8833 147.661 15.4499C148.394 15.0166 149.252 14.7999 150.236 14.7999C151.769 14.7999 152.961 15.2833 153.811 16.2499C154.661 17.2166 155.086 18.6333 155.086 20.4999V27.4999H151.886V20.7999C151.886 19.7333 151.669 18.9166 151.236 18.3499C150.802 17.7833 150.127 17.4999 149.211 17.4999C148.311 17.4999 147.569 17.8166 146.986 18.4499C146.419 19.0833 146.136 19.9666 146.136 21.0999V27.4999H142.936Z" fill="#0D173F"/>
<path d="M162.67 27.7999C161.42 27.7999 160.312 27.5333 159.345 26.9999C158.379 26.4666 157.62 25.7166 157.07 24.7499C156.52 23.7833 156.245 22.6666 156.245 21.3999C156.245 20.1166 156.512 18.9749 157.045 17.9749C157.595 16.9749 158.345 16.1999 159.295 15.6499C160.262 15.0833 161.395 14.7999 162.695 14.7999C163.912 14.7999 164.987 15.0666 165.92 15.5999C166.854 16.1333 167.579 16.8666 168.095 17.7999C168.629 18.7166 168.895 19.7416 168.895 20.8749C168.895 21.0583 168.887 21.2499 168.87 21.4499C168.87 21.6499 168.862 21.8583 168.845 22.0749H159.42C159.487 23.0416 159.82 23.7999 160.42 24.3499C161.037 24.8999 161.779 25.1749 162.645 25.1749C163.295 25.1749 163.837 25.0333 164.27 24.7499C164.72 24.4499 165.054 24.0666 165.27 23.5999H168.52C168.287 24.3833 167.895 25.0999 167.345 25.7499C166.812 26.3833 166.145 26.8833 165.345 27.2499C164.562 27.6166 163.67 27.7999 162.67 27.7999ZM162.695 17.3999C161.912 17.3999 161.22 17.6249 160.62 18.0749C160.02 18.5083 159.637 19.1749 159.47 20.0749H165.645C165.595 19.2583 165.295 18.6083 164.745 18.1249C164.195 17.6416 163.512 17.3999 162.695 17.3999Z" fill="#0D173F"/>
</g>
</svg>
