<svg width="127" height="40" viewBox="0 0 127 40" fill="none" xmlns="http://www.w3.org/2000/svg">
<g opacity="0.84">
<path opacity="0.5" fill-rule="evenodd" clip-rule="evenodd" d="M28.9893 7.00043L20.917 4.83746C20.3597 4.68814 19.908 5.03479 19.908 5.61172V13.9688C19.908 14.5457 20.3597 15.1345 20.917 15.2838L28.9893 17.4468C29.5466 17.5961 29.9984 17.2494 29.9984 16.6725V8.31543C29.9984 7.7385 29.5466 7.14975 28.9893 7.00043ZM20.917 1.70356C18.6879 1.10627 16.8809 2.49287 16.8809 4.80061V13.1577C16.8809 15.4654 18.6879 17.8204 20.917 18.4177L28.9893 20.5807C31.2184 21.178 33.0255 19.7914 33.0255 17.4836V9.12655C33.0255 6.8188 31.2184 4.46381 28.9893 3.86652L20.917 1.70356Z" fill="#0D173F"/>
<path opacity="0.7" fill-rule="evenodd" clip-rule="evenodd" d="M22.651 13.8089L12.5606 11.1052C12.0033 10.9559 11.5515 11.3025 11.5515 11.8795V22.3258C11.5515 22.9028 12.0033 23.4915 12.5606 23.6408L22.651 26.3445C23.2082 26.4939 23.66 26.1472 23.66 25.5703V15.1239C23.66 14.547 23.2082 13.9583 22.651 13.8089ZM12.5606 7.97132C10.3315 7.37403 8.52441 8.76063 8.52441 11.0684V21.5147C8.52441 23.8225 10.3315 26.1774 12.5606 26.7747L22.651 29.4784C24.8801 30.0757 26.6871 28.6891 26.6871 26.3814V15.9351C26.6871 13.6273 24.8801 11.2723 22.651 10.675L12.5606 7.97132Z" fill="#0D173F"/>
<path fill-rule="evenodd" clip-rule="evenodd" d="M16.3116 20.6175L4.20315 17.373C3.64587 17.2237 3.19411 17.5704 3.19411 18.1473V30.6829C3.19411 31.2598 3.64587 31.8486 4.20315 31.9979L16.3116 35.2424C16.8689 35.3917 17.3207 35.045 17.3207 34.4681V21.9325C17.3207 21.3556 16.8689 20.7668 16.3116 20.6175ZM4.20315 14.2391C1.97404 13.6419 0.166992 15.0284 0.166992 17.3362V29.8718C0.166992 32.1795 1.97404 34.5345 4.20315 35.1318L16.3116 38.3763C18.5407 38.9736 20.3478 37.587 20.3478 35.2792V22.7436C20.3478 20.4359 18.5407 18.0809 16.3116 17.4836L4.20315 14.2391Z" fill="#0D173F"/>
</g>
<g opacity="0.84">
<path d="M44.8673 27.1734C45.8162 27.6089 46.9051 27.8267 48.134 27.8267C49.3629 27.8267 50.4362 27.6167 51.354 27.1967C52.2873 26.7611 53.0106 26.1545 53.524 25.3767C54.0373 24.5834 54.294 23.6578 54.294 22.6V22.32C54.294 21.34 54.0684 20.5467 53.6173 19.94C53.1662 19.3178 52.5906 18.8589 51.8906 18.5634C51.2062 18.2678 50.4984 18.12 49.7673 18.12H48.904V17.7467L53.8273 15.1334V11.1667H42.254V13.8267H50.514V14.2L45.2407 17V20.2667H48.5073C49.0362 20.2667 49.5106 20.3445 49.9306 20.5C50.3507 20.64 50.6851 20.8656 50.934 21.1767C51.1829 21.4878 51.3073 21.8922 51.3073 22.39V22.6234C51.3073 23.3545 51.0273 23.9611 50.4673 24.4434C49.9229 24.9256 49.1451 25.1667 48.134 25.1667C47.1384 25.1667 46.3373 24.91 45.7307 24.3967C45.124 23.8678 44.8207 23.1678 44.8207 22.2967V21.97H41.834V22.39C41.834 23.51 42.0984 24.4822 42.6273 25.3067C43.1718 26.1156 43.9184 26.7378 44.8673 27.1734Z" fill="#0D173F"/>
<path fill-rule="evenodd" clip-rule="evenodd" d="M65.0366 11.7967C64.2588 11.3767 63.3566 11.1667 62.3299 11.1667H55.6099V27.5H58.6899V21.5267H62.3299C63.3255 21.5267 64.2122 21.3245 64.9899 20.92C65.7833 20.5 66.4055 19.9167 66.8566 19.17C67.3233 18.4078 67.5566 17.5211 67.5566 16.51V16.1834C67.5566 15.1567 67.3311 14.27 66.8799 13.5234C66.4444 12.7767 65.8299 12.2011 65.0366 11.7967ZM63.7999 18.12C63.3488 18.5245 62.7577 18.7267 62.0266 18.7267H58.6899V13.9667H62.0266C62.7577 13.9667 63.3488 14.1689 63.7999 14.5734C64.2511 14.9778 64.4766 15.53 64.4766 16.23V16.4634C64.4766 17.1634 64.2511 17.7156 63.7999 18.12Z" fill="#0D173F"/>
<path fill-rule="evenodd" clip-rule="evenodd" d="M73.8519 27.8267C72.7008 27.8267 71.6663 27.5934 70.7485 27.1267C69.8308 26.66 69.1074 25.9834 68.5785 25.0967C68.0496 24.21 67.7852 23.1445 67.7852 21.9V21.5267C67.7852 20.2822 68.0496 19.2167 68.5785 18.33C69.1074 17.4434 69.8308 16.7667 70.7485 16.3C71.6663 15.8334 72.7008 15.6 73.8519 15.6C75.003 15.6 76.0374 15.8334 76.9552 16.3C77.873 16.7667 78.5963 17.4434 79.1252 18.33C79.6541 19.2167 79.9185 20.2822 79.9185 21.5267V21.9C79.9185 23.1445 79.6541 24.21 79.1252 25.0967C78.5963 25.9834 77.873 26.66 76.9552 27.1267C76.0374 27.5934 75.003 27.8267 73.8519 27.8267ZM73.8519 25.2134C74.7541 25.2134 75.5008 24.9256 76.0919 24.35C76.683 23.7589 76.9785 22.9189 76.9785 21.83V21.5967C76.9785 20.5078 76.683 19.6756 76.0919 19.1C75.5163 18.5089 74.7696 18.2134 73.8519 18.2134C72.9496 18.2134 72.203 18.5089 71.6119 19.1C71.0208 19.6756 70.7252 20.5078 70.7252 21.5967V21.83C70.7252 22.9189 71.0208 23.7589 71.6119 24.35C72.203 24.9256 72.9496 25.2134 73.8519 25.2134Z" fill="#0D173F"/>
<path d="M85.619 16.2067C85.2301 16.4245 84.9501 16.7667 84.779 17.2334H84.359V15.9267H81.4656V27.5H84.4056V20.92C84.4056 20.0956 84.6468 19.4889 85.129 19.1C85.6112 18.6956 86.2256 18.4934 86.9723 18.4934H88.419V18.4917H91.4169V24.8867C91.4169 25.68 91.6503 26.3178 92.1169 26.8C92.5992 27.2667 93.2214 27.5 93.9836 27.5H97.2503V25.0734H95.0103C94.5747 25.0734 94.3569 24.84 94.3569 24.3734V18.4917H97.5303V15.8833H94.3569V12.3334H91.4169V15.8833H88.419V15.88H87.019C86.4901 15.88 86.0234 15.9889 85.619 16.2067Z" fill="#0D173F"/>
<path fill-rule="evenodd" clip-rule="evenodd" d="M100.402 27.4067C101.055 27.6867 101.794 27.8267 102.618 27.8267C103.427 27.8267 104.065 27.71 104.532 27.4767C104.998 27.2434 105.34 26.9789 105.558 26.6834C105.776 26.3722 105.916 26.1234 105.978 25.9367H106.422V25.96C106.422 26.4267 106.608 26.8 106.982 27.08C107.355 27.36 107.829 27.5 108.405 27.5H110.365V25.0734H109.432C108.996 25.0734 108.778 24.84 108.778 24.3734V20.0567C108.778 18.61 108.335 17.5056 107.448 16.7434C106.562 15.9811 105.356 15.6 103.832 15.6C102.836 15.6 101.988 15.7556 101.288 16.0667C100.604 16.3622 100.052 16.7589 99.6316 17.2567C99.2271 17.7389 98.9315 18.2756 98.7449 18.8667L101.452 19.7767C101.56 19.2478 101.794 18.82 102.152 18.4934C102.509 18.1511 103.054 17.98 103.785 17.98C104.532 17.98 105.076 18.1589 105.418 18.5167C105.76 18.8589 105.932 19.3022 105.932 19.8467V20.5H102.758C101.887 20.5 101.109 20.64 100.425 20.92C99.756 21.1845 99.2271 21.5889 98.8382 22.1334C98.4649 22.6622 98.2782 23.3234 98.2782 24.1167C98.2782 24.91 98.4649 25.5867 98.8382 26.1467C99.2271 26.6911 99.7482 27.1111 100.402 27.4067ZM105.138 24.77C104.625 25.2211 103.956 25.4467 103.132 25.4467C102.509 25.4467 102.035 25.3145 101.708 25.05C101.382 24.7856 101.218 24.4434 101.218 24.0234C101.218 23.6034 101.374 23.2767 101.685 23.0434C101.996 22.81 102.424 22.6934 102.968 22.6934H105.932V22.9267C105.932 23.6889 105.667 24.3034 105.138 24.77Z" fill="#0D173F"/>
<path d="M117.476 26.8467C118.44 27.5 119.677 27.8267 121.186 27.8267C122.663 27.8267 123.838 27.5 124.709 26.8467C125.596 26.1778 126.039 25.2367 126.039 24.0234C126.039 23.2145 125.829 22.5767 125.409 22.11C125.005 21.6278 124.445 21.2622 123.729 21.0134C123.029 20.7489 122.243 20.5389 121.372 20.3834L120.719 20.2667C120.19 20.1734 119.77 20.0411 119.459 19.87C119.148 19.6834 118.992 19.4034 118.992 19.03C118.992 18.6878 119.14 18.4234 119.436 18.2367C119.731 18.0345 120.159 17.9334 120.719 17.9334C121.279 17.9334 121.746 18.0578 122.119 18.3067C122.508 18.5556 122.765 18.9756 122.889 19.5667L125.619 18.7267C125.355 17.7934 124.795 17.0389 123.939 16.4634C123.083 15.8878 122.01 15.6 120.719 15.6C119.35 15.6 118.246 15.9111 117.406 16.5334C116.566 17.14 116.146 18.0189 116.146 19.17C116.146 19.9322 116.348 20.5545 116.752 21.0367C117.157 21.5189 117.693 21.9 118.362 22.18C119.031 22.4445 119.77 22.6545 120.579 22.81L121.232 22.9267C121.917 23.0511 122.415 23.2145 122.726 23.4167C123.037 23.6034 123.192 23.8756 123.192 24.2334C123.192 24.5911 123.029 24.8945 122.702 25.1434C122.376 25.3767 121.87 25.4934 121.186 25.4934C120.735 25.4934 120.315 25.4311 119.926 25.3067C119.552 25.1667 119.233 24.9411 118.969 24.63C118.72 24.3189 118.541 23.8911 118.432 23.3467L115.726 24.0467C115.928 25.26 116.511 26.1934 117.476 26.8467Z" fill="#0D173F"/>
<path d="M111.348 27.5V11.1667H114.288V27.5H111.348Z" fill="#0D173F"/>
</g>
</svg>
