<svg width="170" height="40" viewBox="0 0 170 40" fill="none" xmlns="http://www.w3.org/2000/svg">
<g opacity="0.84">
<path d="M11.875 4.16666C11.875 10.725 6.55838 16.0417 0 16.0417V23.9583H11.875V35.8333H19.7917C19.7917 29.2749 25.1083 23.9583 31.6667 23.9583V16.0417H19.7917V4.16666H11.875Z" fill="white"/>
</g>
<g opacity="0.84">
<path d="M46.8333 27.7999C45.0667 27.7999 43.55 27.4249 42.2833 26.6749C41.0167 25.9082 40.0417 24.8499 39.3583 23.4999C38.675 22.1332 38.3333 20.5582 38.3333 18.7749C38.3333 16.9916 38.675 15.4166 39.3583 14.0499C40.0417 12.6832 41.0167 11.6166 42.2833 10.8499C43.55 10.0832 45.0667 9.69991 46.8333 9.69991C48.9333 9.69991 50.65 10.2249 51.9833 11.2749C53.3333 12.3082 54.175 13.7666 54.5083 15.6499H50.9833C50.7667 14.6999 50.3 13.9582 49.5833 13.4249C48.8833 12.8749 47.95 12.5999 46.7833 12.5999C45.1667 12.5999 43.9 13.1499 42.9833 14.2499C42.0667 15.3499 41.6083 16.8582 41.6083 18.7749C41.6083 20.6916 42.0667 22.1999 42.9833 23.2999C43.9 24.3832 45.1667 24.9249 46.7833 24.9249C47.95 24.9249 48.8833 24.6749 49.5833 24.1749C50.3 23.6582 50.7667 22.9499 50.9833 22.0499H54.5083C54.175 23.8499 53.3333 25.2582 51.9833 26.2749C50.65 27.2916 48.9333 27.7999 46.8333 27.7999Z" fill="white"/>
<path d="M55.766 27.4999V9.49991H58.966V27.4999H55.766Z" fill="white"/>
<path d="M66.4357 27.7999C65.269 27.7999 64.2274 27.5166 63.3107 26.9499C62.394 26.3832 61.669 25.6082 61.1357 24.6249C60.6024 23.6416 60.3357 22.5249 60.3357 21.2749C60.3357 20.0249 60.6024 18.9166 61.1357 17.9499C61.669 16.9666 62.394 16.1999 63.3107 15.6499C64.2274 15.0832 65.269 14.7999 66.4357 14.7999C67.369 14.7999 68.1857 14.9749 68.8857 15.3249C69.5857 15.6749 70.1523 16.1666 70.5857 16.7999L70.7607 15.0999H73.7857V27.4999H70.7857L70.5857 25.7249C70.1857 26.2749 69.6523 26.7582 68.9857 27.1749C68.3357 27.5916 67.4857 27.7999 66.4357 27.7999ZM67.1107 24.9999C68.144 24.9999 68.9857 24.6582 69.6357 23.9749C70.3023 23.2749 70.6357 22.3832 70.6357 21.2999C70.6357 20.2166 70.3023 19.3332 69.6357 18.6499C68.9857 17.9499 68.144 17.5999 67.1107 17.5999C66.094 17.5999 65.2523 17.9416 64.5857 18.6249C63.919 19.3082 63.5857 20.1916 63.5857 21.2749C63.5857 22.3582 63.919 23.2499 64.5857 23.9499C65.2523 24.6499 66.094 24.9999 67.1107 24.9999Z" fill="white"/>
<path d="M75.5443 27.4999V15.0999H78.3693L78.6193 17.1999C79.0026 16.4666 79.5526 15.8832 80.2693 15.4499C81.0026 15.0166 81.8609 14.7999 82.8443 14.7999C84.3776 14.7999 85.5693 15.2832 86.4193 16.2499C87.2693 17.2166 87.6943 18.6332 87.6943 20.4999V27.4999H84.4943V20.7999C84.4943 19.7332 84.2776 18.9166 83.8443 18.3499C83.4109 17.7832 82.7359 17.4999 81.8193 17.4999C80.9193 17.4999 80.1776 17.8166 79.5943 18.4499C79.0276 19.0832 78.7443 19.9666 78.7443 21.0999V27.4999H75.5443Z" fill="white"/>
<path d="M94.9542 27.7999C93.7876 27.7999 92.7459 27.5166 91.8292 26.9499C90.9126 26.3832 90.1876 25.6082 89.6542 24.6249C89.1209 23.6416 88.8542 22.5249 88.8542 21.2749C88.8542 20.0249 89.1209 18.9166 89.6542 17.9499C90.1876 16.9666 90.9126 16.1999 91.8292 15.6499C92.7459 15.0832 93.7876 14.7999 94.9542 14.7999C95.8876 14.7999 96.7042 14.9749 97.4042 15.3249C98.1042 15.6749 98.6709 16.1666 99.1042 16.7999V9.49991H102.304V27.4999H99.4542L99.1042 25.7249C98.7042 26.2749 98.1709 26.7582 97.5042 27.1749C96.8542 27.5916 96.0042 27.7999 94.9542 27.7999ZM95.6292 24.9999C96.6626 24.9999 97.5042 24.6582 98.1542 23.9749C98.8209 23.2749 99.1542 22.3832 99.1542 21.2999C99.1542 20.2166 98.8209 19.3332 98.1542 18.6499C97.5042 17.9499 96.6626 17.5999 95.6292 17.5999C94.6126 17.5999 93.7709 17.9416 93.1042 18.6249C92.4376 19.3082 92.1042 20.1916 92.1042 21.2749C92.1042 22.3582 92.4376 23.2499 93.1042 23.9499C93.7709 24.6499 94.6126 24.9999 95.6292 24.9999Z" fill="white"/>
<path d="M110.088 27.7999C108.838 27.7999 107.729 27.5332 106.763 26.9999C105.796 26.4666 105.038 25.7166 104.488 24.7499C103.938 23.7832 103.663 22.6666 103.663 21.3999C103.663 20.1166 103.929 18.9749 104.463 17.9749C105.013 16.9749 105.763 16.1999 106.713 15.6499C107.679 15.0832 108.813 14.7999 110.113 14.7999C111.329 14.7999 112.404 15.0666 113.338 15.5999C114.271 16.1332 114.996 16.8666 115.513 17.7999C116.046 18.7166 116.313 19.7416 116.313 20.8749C116.313 21.0582 116.304 21.2499 116.288 21.4499C116.288 21.6499 116.279 21.8582 116.263 22.0749H106.838C106.904 23.0416 107.238 23.7999 107.838 24.3499C108.454 24.8999 109.196 25.1749 110.063 25.1749C110.713 25.1749 111.254 25.0332 111.688 24.7499C112.138 24.4499 112.471 24.0666 112.688 23.5999H115.938C115.704 24.3832 115.313 25.0999 114.763 25.7499C114.229 26.3832 113.563 26.8832 112.763 27.2499C111.979 27.6166 111.088 27.7999 110.088 27.7999ZM110.113 17.3999C109.329 17.3999 108.638 17.6249 108.038 18.0749C107.438 18.5082 107.054 19.1749 106.888 20.0749H113.063C113.013 19.2582 112.713 18.6082 112.163 18.1249C111.613 17.6416 110.929 17.3999 110.113 17.3999Z" fill="white"/>
<path d="M122.629 27.7999C121.529 27.7999 120.563 27.6249 119.729 27.2749C118.896 26.9082 118.229 26.4082 117.729 25.7749C117.229 25.1416 116.929 24.4082 116.829 23.5749H120.054C120.154 24.0582 120.421 24.4749 120.854 24.8249C121.304 25.1582 121.879 25.3249 122.579 25.3249C123.279 25.3249 123.788 25.1832 124.104 24.8999C124.438 24.6166 124.604 24.2916 124.604 23.9249C124.604 23.3916 124.371 23.0332 123.904 22.8499C123.438 22.6499 122.788 22.4582 121.954 22.2749C121.421 22.1582 120.879 22.0166 120.329 21.8499C119.779 21.6832 119.271 21.4749 118.804 21.2249C118.354 20.9582 117.988 20.6249 117.704 20.2249C117.421 19.8082 117.279 19.2999 117.279 18.6999C117.279 17.5999 117.713 16.6749 118.579 15.9249C119.463 15.1749 120.696 14.7999 122.279 14.7999C123.746 14.7999 124.913 15.1416 125.779 15.8249C126.663 16.5082 127.188 17.4499 127.354 18.6499H124.329C124.146 17.7332 123.454 17.2749 122.254 17.2749C121.654 17.2749 121.188 17.3916 120.854 17.6249C120.538 17.8582 120.379 18.1499 120.379 18.4999C120.379 18.8666 120.621 19.1582 121.104 19.3749C121.588 19.5916 122.229 19.7916 123.029 19.9749C123.896 20.1749 124.688 20.3999 125.404 20.6499C126.138 20.8832 126.721 21.2416 127.154 21.7249C127.588 22.1916 127.804 22.8666 127.804 23.7499C127.821 24.5166 127.621 25.2082 127.204 25.8249C126.788 26.4416 126.188 26.9249 125.404 27.2749C124.621 27.6249 123.696 27.7999 122.629 27.7999Z" fill="white"/>
<path d="M134.273 27.4999C132.973 27.4999 131.932 27.1832 131.148 26.5499C130.365 25.9166 129.973 24.7916 129.973 23.1749V17.7749H127.848V15.0999H129.973L130.348 11.7749H133.173V15.0999H136.523V17.7749H134.007C133.546 17.7749 133.173 18.148 133.173 18.6082V23.1999C133.173 23.7999 133.298 24.2166 133.548 24.4499C133.815 24.6666 134.265 24.7749 134.898 24.7749H136.448V27.4999H134.273Z" fill="white"/>
<path d="M139.496 13.1749C138.912 13.1749 138.429 12.9999 138.046 12.6499C137.679 12.2999 137.496 11.8582 137.496 11.3249C137.496 10.7916 137.679 10.3582 138.046 10.0249C138.429 9.67491 138.912 9.49991 139.496 9.49991C140.079 9.49991 140.554 9.67491 140.921 10.0249C141.304 10.3582 141.496 10.7916 141.496 11.3249C141.496 11.8582 141.304 12.2999 140.921 12.6499C140.554 12.9999 140.079 13.1749 139.496 13.1749ZM137.896 27.4999V15.0999H141.096V27.4999H137.896Z" fill="white"/>
<path d="M142.936 27.4999V15.0999H145.761L146.011 17.1999C146.394 16.4666 146.944 15.8832 147.661 15.4499C148.394 15.0166 149.253 14.7999 150.236 14.7999C151.769 14.7999 152.961 15.2832 153.811 16.2499C154.661 17.2166 155.086 18.6332 155.086 20.4999V27.4999H151.886V20.7999C151.886 19.7332 151.669 18.9166 151.236 18.3499C150.803 17.7832 150.128 17.4999 149.211 17.4999C148.311 17.4999 147.569 17.8166 146.986 18.4499C146.419 19.0832 146.136 19.9666 146.136 21.0999V27.4999H142.936Z" fill="white"/>
<path d="M162.671 27.7999C161.421 27.7999 160.312 27.5332 159.346 26.9999C158.379 26.4666 157.621 25.7166 157.071 24.7499C156.521 23.7832 156.246 22.6666 156.246 21.3999C156.246 20.1166 156.512 18.9749 157.046 17.9749C157.596 16.9749 158.346 16.1999 159.296 15.6499C160.262 15.0832 161.396 14.7999 162.696 14.7999C163.912 14.7999 164.987 15.0666 165.921 15.5999C166.854 16.1332 167.579 16.8666 168.096 17.7999C168.629 18.7166 168.896 19.7416 168.896 20.8749C168.896 21.0582 168.887 21.2499 168.871 21.4499C168.871 21.6499 168.862 21.8582 168.846 22.0749H159.421C159.487 23.0416 159.821 23.7999 160.421 24.3499C161.037 24.8999 161.779 25.1749 162.646 25.1749C163.296 25.1749 163.837 25.0332 164.271 24.7499C164.721 24.4499 165.054 24.0666 165.271 23.5999H168.521C168.287 24.3832 167.896 25.0999 167.346 25.7499C166.812 26.3832 166.146 26.8832 165.346 27.2499C164.562 27.6166 163.671 27.7999 162.671 27.7999ZM162.696 17.3999C161.912 17.3999 161.221 17.6249 160.621 18.0749C160.021 18.5082 159.637 19.1749 159.471 20.0749H165.646C165.596 19.2582 165.296 18.6082 164.746 18.1249C164.196 17.6416 163.512 17.3999 162.696 17.3999Z" fill="white"/>
</g>
</svg>
