<svg width="174" height="40" viewBox="0 0 174 40" fill="none" xmlns="http://www.w3.org/2000/svg">
<g opacity="0.84">
<path d="M33.326 19.5147C33.0692 10.5344 25.7087 3.33334 16.6663 3.33334C13.8026 3.33334 11.1077 4.05556 8.75359 5.32778L33.326 19.5147Z" fill="white"/>
<path d="M6.41029 6.86162C5.72049 7.40086 5.07423 7.99323 4.47769 8.63259L32.6089 24.8742C32.8618 24.0461 33.0519 23.1907 33.1737 22.3135L6.41029 6.86162Z" fill="white"/>
<path d="M28.8551 31.3672C28.2586 32.0065 27.6124 32.5989 26.9226 33.1381L0.158936 17.6862C0.280775 16.8089 0.470892 15.9535 0.723748 15.1255L28.8551 31.3672Z" fill="white"/>
<path d="M30.4359 29.3931L1.64492 12.7706C2.00879 12.0159 2.42786 11.2929 2.89689 10.6067L31.6878 27.2291C31.3239 27.9838 30.9049 28.7068 30.4359 29.3931Z" fill="white"/>
<path d="M16.6663 36.6667C19.5301 36.6667 22.2252 35.9444 24.5793 34.672L0.00653076 20.4849C0.263111 29.4654 7.62372 36.6667 16.6663 36.6667Z" fill="white"/>
</g>
<g opacity="0.84">
<path d="M62.2975 20.375C62.2975 19.1667 61.6309 18.375 60.6309 18.375C59.5684 18.375 58.735 18.9583 57.8184 20.4583V27.5H49.1042C44.5834 27.5 41.6667 24.7292 41.6667 20.2292C41.6667 15.7292 44.5834 12.9583 49.1042 12.9583H52.6042V15.7708H49.1042C46.6667 15.7708 45.2084 17.3958 45.2084 20.2292C45.2084 23.0625 46.6667 24.6875 49.1042 24.6875H54.5684V12.0833H57.8184V17.1875C58.7975 16.1042 60.0475 15.6667 61.2975 15.6667C63.9434 15.6667 65.5475 17.4583 65.5475 20.1667V27.5H62.2975V20.375Z" fill="white"/>
<path d="M73.0397 18.375C73.9147 18.375 74.2897 19.0833 74.2897 20.1667V21.7292H77.5606V20.1667C77.5606 17.2083 75.9772 15.6667 73.7481 15.6667C72.5606 15.6667 71.5606 16.1875 70.7064 17.2083L70.6439 15.9167H67.4981V27.5H70.7481V20.2708C71.6022 19.0208 72.3106 18.375 73.0397 18.375Z" fill="white"/>
<path fill-rule="evenodd" clip-rule="evenodd" d="M84.3185 27.75C80.6102 27.75 78.3602 25.4792 78.3602 21.7083C78.3602 17.9375 80.6102 15.6667 84.3185 15.6667C88.0269 15.6667 90.256 17.9375 90.256 21.7083C90.256 25.4792 88.0269 27.75 84.3185 27.75ZM81.6102 21.7083C81.6102 23.8542 82.631 25.125 84.3185 25.125C85.9852 25.125 87.006 23.8542 87.006 21.7083C87.006 19.5625 85.9852 18.2917 84.3185 18.2917C82.631 18.2917 81.6102 19.5625 81.6102 21.7083Z" fill="white"/>
<path d="M104.896 18.3542C106 18.3542 106.709 19.0625 106.709 20.2292V27.5H109.959V20.2292C109.959 17.375 108.104 15.6667 105.813 15.6667C104.021 15.6667 102.667 16.4583 101.959 17.6875C101.25 16.3958 99.896 15.6667 98.3127 15.6667C97.0002 15.6667 95.7502 16.3125 94.9585 17.3125L94.896 15.9167H91.7502V27.5H95.0002V20.1458C95.646 19.0833 96.4793 18.3542 97.4168 18.3542C98.5002 18.3542 99.2293 19.0625 99.2293 20.2292V27.5H102.479V20.1875C103.125 19.1042 103.959 18.3542 104.896 18.3542Z" fill="white"/>
<path fill-rule="evenodd" clip-rule="evenodd" d="M118.819 27.5L118.756 26.3542C117.964 27.3542 116.735 27.75 115.298 27.75C113.048 27.75 111.569 26.3125 111.569 24.2708C111.569 21.875 113.464 20.5208 116.589 20.5208H118.714V19.7292C118.714 18.625 117.944 17.9583 116.631 17.9583C115.339 17.9583 114.506 18.5833 114.402 19.6042H111.235C111.444 17.1667 113.527 15.6667 116.777 15.6667C119.944 15.6667 121.964 17.2083 121.964 19.9375V27.5H118.819ZM114.756 24.0625C114.756 24.6875 115.194 25.1875 116.11 25.1875C117.235 25.1875 118.089 24.625 118.714 23.6667V22.7708L116.527 22.7917C115.444 22.7917 114.756 23.1667 114.756 24.0625Z" fill="white"/>
<path d="M124.734 23.3333C124.734 25.7917 126.276 27.5 128.63 27.5H131.546V24.875H129.921C128.505 24.875 127.984 24.5417 127.984 23.3333V18.5417H130.359V15.9167H127.984V12.0833H124.734V15.9167H122.755V18.5417H124.734V23.3333Z" fill="white"/>
<path fill-rule="evenodd" clip-rule="evenodd" d="M137.929 27.75C134.221 27.75 131.971 25.4792 131.971 21.7083C131.971 17.9375 134.221 15.6667 137.929 15.6667C141.638 15.6667 143.867 17.9375 143.867 21.7083C143.867 25.4792 141.638 27.75 137.929 27.75ZM135.221 21.7083C135.221 23.8542 136.242 25.125 137.929 25.125C139.596 25.125 140.617 23.8542 140.617 21.7083C140.617 19.5625 139.596 18.2917 137.929 18.2917C136.242 18.2917 135.221 19.5625 135.221 21.7083Z" fill="white"/>
<path fill-rule="evenodd" clip-rule="evenodd" d="M144.819 21.7083C144.819 25.4792 147.069 27.75 150.778 27.75C154.486 27.75 156.715 25.4792 156.715 21.7083C156.715 17.9375 154.486 15.6667 150.778 15.6667C147.069 15.6667 144.819 17.9375 144.819 21.7083ZM150.778 25.125C149.09 25.125 148.069 23.8542 148.069 21.7083C148.069 19.5625 149.09 18.2917 150.778 18.2917C152.444 18.2917 153.465 19.5625 153.465 21.7083C153.465 23.8542 152.444 25.125 150.778 25.125Z" fill="white"/>
<path d="M162.863 23.3542C162.904 26.0833 164.863 27.75 168.05 27.75C171.05 27.75 172.863 26.3333 172.863 23.9792C172.863 21.1159 170.493 20.6675 168.611 20.3112C167.371 20.0765 166.342 19.8817 166.342 19.0625C166.342 18.3958 166.884 18.0208 167.8 18.0208C168.884 18.0208 169.592 18.5833 169.654 19.6042H172.654C172.446 17.125 170.8 15.6667 167.904 15.6667C165.05 15.6667 163.113 17 163.113 19.2708C163.113 21.9896 165.45 22.5359 167.325 22.9743C168.583 23.2683 169.634 23.5139 169.634 24.3333C169.634 25 169.029 25.3958 168.05 25.3958C166.634 25.3958 165.8 24.625 165.863 23.3542H162.863Z" fill="white"/>
<path d="M158.23 27.5V12.0833H161.48V27.5H158.23Z" fill="white"/>
</g>
</svg>
