<svg width="127" height="40" viewBox="0 0 127 40" fill="none" xmlns="http://www.w3.org/2000/svg">
<g opacity="0.84">
<path opacity="0.5" fill-rule="evenodd" clip-rule="evenodd" d="M28.989 7.0004L20.9166 4.83743C20.3594 4.68811 19.9076 5.03475 19.9076 5.61169V13.9688C19.9076 14.5457 20.3594 15.1344 20.9166 15.2838L28.989 17.4467C29.5462 17.5961 29.998 17.2494 29.998 16.6725V8.3154C29.998 7.73847 29.5462 7.14972 28.989 7.0004ZM20.9166 1.70352C18.6875 1.10624 16.8805 2.49283 16.8805 4.80058V13.1576C16.8805 15.4654 18.6875 17.8204 20.9166 18.4177L28.989 20.5806C31.2181 21.1779 33.0251 19.7913 33.0251 17.4836V9.12652C33.0251 6.81877 31.2181 4.46378 28.989 3.86649L20.9166 1.70352Z" fill="white"/>
<path opacity="0.7" fill-rule="evenodd" clip-rule="evenodd" d="M22.6509 13.809L12.5605 11.1052C12.0032 10.9559 11.5515 11.3026 11.5515 11.8795V22.3259C11.5515 22.9028 12.0032 23.4915 12.5605 23.6409L22.6509 26.3446C23.2082 26.4939 23.6599 26.1472 23.6599 25.5703V15.124C23.6599 14.547 23.2082 13.9583 22.6509 13.809ZM12.5605 7.97135C10.3314 7.37406 8.52435 8.76066 8.52435 11.0684V21.5147C8.52435 23.8225 10.3314 26.1775 12.5605 26.7748L22.6509 29.4785C24.88 30.0758 26.6871 28.6892 26.6871 26.3814V15.9351C26.6871 13.6273 24.88 11.2723 22.6509 10.6751L12.5605 7.97135Z" fill="white"/>
<path fill-rule="evenodd" clip-rule="evenodd" d="M16.3113 20.6175L4.20278 17.373C3.64551 17.2237 3.19374 17.5704 3.19374 18.1473V30.6829C3.19374 31.2598 3.64551 31.8486 4.20278 31.9979L16.3113 35.2424C16.8685 35.3917 17.3203 35.045 17.3203 34.4681V21.9325C17.3203 21.3556 16.8685 20.7668 16.3113 20.6175ZM4.20278 14.2391C1.97367 13.6419 0.166626 15.0284 0.166626 17.3362V29.8718C0.166626 32.1795 1.97367 34.5345 4.20278 35.1318L16.3113 38.3763C18.5404 38.9736 20.3474 37.587 20.3474 35.2792V22.7436C20.3474 20.4359 18.5404 18.0809 16.3113 17.4836L4.20278 14.2391Z" fill="white"/>
</g>
<g opacity="0.84">
<path d="M44.8666 27.1734C45.8155 27.6089 46.9044 27.8267 48.1333 27.8267C49.3622 27.8267 50.4355 27.6167 51.3533 27.1967C52.2866 26.7611 53.01 26.1545 53.5233 25.3767C54.0366 24.5834 54.2933 23.6578 54.2933 22.6V22.32C54.2933 21.34 54.0678 20.5467 53.6166 19.94C53.1655 19.3178 52.59 18.8589 51.89 18.5634C51.2055 18.2678 50.4978 18.12 49.7666 18.12H48.9033V17.7467L53.8266 15.1334V11.1667H42.2533V13.8267H50.5133V14.2L45.24 17V20.2667H48.5066C49.0355 20.2667 49.51 20.3445 49.93 20.5C50.35 20.64 50.6844 20.8656 50.9333 21.1767C51.1822 21.4878 51.3066 21.8922 51.3066 22.39V22.6234C51.3066 23.3545 51.0266 23.9611 50.4666 24.4434C49.9222 24.9256 49.1444 25.1667 48.1333 25.1667C47.1378 25.1667 46.3366 24.91 45.73 24.3967C45.1233 23.8678 44.82 23.1678 44.82 22.2967V21.97H41.8333V22.39C41.8333 23.51 42.0978 24.4822 42.6266 25.3067C43.1711 26.1156 43.9178 26.7378 44.8666 27.1734Z" fill="white"/>
<path fill-rule="evenodd" clip-rule="evenodd" d="M65.0359 11.7967C64.2582 11.3767 63.3559 11.1667 62.3293 11.1667H55.6093V27.5H58.6893V21.5267H62.3293C63.3248 21.5267 64.2115 21.3245 64.9893 20.92C65.7826 20.5 66.4048 19.9167 66.8559 19.17C67.3226 18.4078 67.5559 17.5211 67.5559 16.51V16.1834C67.5559 15.1567 67.3304 14.27 66.8793 13.5234C66.4437 12.7767 65.8293 12.2011 65.0359 11.7967ZM63.7993 18.12C63.3482 18.5245 62.7571 18.7267 62.0259 18.7267H58.6893V13.9667H62.0259C62.7571 13.9667 63.3482 14.1689 63.7993 14.5734C64.2504 14.9778 64.4759 15.53 64.4759 16.23V16.4634C64.4759 17.1634 64.2504 17.7156 63.7993 18.12Z" fill="white"/>
<path fill-rule="evenodd" clip-rule="evenodd" d="M73.8512 27.8267C72.7001 27.8267 71.6656 27.5934 70.7479 27.1267C69.8301 26.66 69.1068 25.9834 68.5779 25.0967C68.049 24.21 67.7845 23.1445 67.7845 21.9V21.5267C67.7845 20.2822 68.049 19.2167 68.5779 18.33C69.1068 17.4434 69.8301 16.7667 70.7479 16.3C71.6656 15.8334 72.7001 15.6 73.8512 15.6C75.0023 15.6 76.0368 15.8334 76.9545 16.3C77.8723 16.7667 78.5956 17.4434 79.1245 18.33C79.6534 19.2167 79.9179 20.2822 79.9179 21.5267V21.9C79.9179 23.1445 79.6534 24.21 79.1245 25.0967C78.5956 25.9834 77.8723 26.66 76.9545 27.1267C76.0368 27.5934 75.0023 27.8267 73.8512 27.8267ZM73.8512 25.2134C74.7534 25.2134 75.5001 24.9256 76.0912 24.35C76.6823 23.7589 76.9779 22.9189 76.9779 21.83V21.5967C76.9779 20.5078 76.6823 19.6756 76.0912 19.1C75.5156 18.5089 74.769 18.2134 73.8512 18.2134C72.949 18.2134 72.2023 18.5089 71.6112 19.1C71.0201 19.6756 70.7245 20.5078 70.7245 21.5967V21.83C70.7245 22.9189 71.0201 23.7589 71.6112 24.35C72.2023 24.9256 72.949 25.2134 73.8512 25.2134Z" fill="white"/>
<path d="M85.6183 16.2067C85.2294 16.4245 84.9494 16.7667 84.7783 17.2334H84.3583V15.9267H81.465V27.5H84.405V20.92C84.405 20.0956 84.6461 19.4889 85.1283 19.1C85.6105 18.6956 86.225 18.4934 86.9716 18.4934H88.4183V18.4917H91.4163V24.8867C91.4163 25.68 91.6496 26.3178 92.1163 26.8C92.5985 27.2667 93.2207 27.5 93.9829 27.5H97.2496V25.0734H95.0096C94.5741 25.0734 94.3563 24.84 94.3563 24.3734V18.4917H97.5296V15.8833H94.3563V12.3334H91.4163V15.8833H88.4183V15.88H87.0183C86.4894 15.88 86.0228 15.9889 85.6183 16.2067Z" fill="white"/>
<path fill-rule="evenodd" clip-rule="evenodd" d="M100.401 27.4067C101.054 27.6867 101.793 27.8267 102.618 27.8267C103.426 27.8267 104.064 27.71 104.531 27.4767C104.998 27.2434 105.34 26.9789 105.558 26.6834C105.775 26.3722 105.915 26.1234 105.978 25.9367H106.421V25.96C106.421 26.4267 106.608 26.8 106.981 27.08C107.354 27.36 107.829 27.5 108.404 27.5H110.364V25.0734H109.431C108.995 25.0734 108.778 24.84 108.778 24.3734V20.0567C108.778 18.61 108.334 17.5056 107.448 16.7434C106.561 15.9811 105.355 15.6 103.831 15.6C102.835 15.6 101.988 15.7556 101.288 16.0667C100.603 16.3622 100.051 16.7589 99.6309 17.2567C99.2264 17.7389 98.9309 18.2756 98.7442 18.8667L101.451 19.7767C101.56 19.2478 101.793 18.82 102.151 18.4934C102.509 18.1511 103.053 17.98 103.784 17.98C104.531 17.98 105.075 18.1589 105.418 18.5167C105.76 18.8589 105.931 19.3022 105.931 19.8467V20.5H102.758C101.886 20.5 101.109 20.64 100.424 20.92C99.7553 21.1845 99.2264 21.5889 98.8375 22.1334C98.4642 22.6622 98.2775 23.3234 98.2775 24.1167C98.2775 24.91 98.4642 25.5867 98.8375 26.1467C99.2264 26.6911 99.7476 27.1111 100.401 27.4067ZM105.138 24.77C104.624 25.2211 103.955 25.4467 103.131 25.4467C102.509 25.4467 102.034 25.3145 101.708 25.05C101.381 24.7856 101.218 24.4434 101.218 24.0234C101.218 23.6034 101.373 23.2767 101.684 23.0434C101.995 22.81 102.423 22.6934 102.968 22.6934H105.931V22.9267C105.931 23.6889 105.666 24.3034 105.138 24.77Z" fill="white"/>
<path d="M117.475 26.8467C118.439 27.5 119.676 27.8267 121.185 27.8267C122.663 27.8267 123.837 27.5 124.708 26.8467C125.595 26.1778 126.038 25.2367 126.038 24.0234C126.038 23.2145 125.828 22.5767 125.408 22.11C125.004 21.6278 124.444 21.2622 123.728 21.0134C123.028 20.7489 122.243 20.5389 121.372 20.3834L120.718 20.2667C120.189 20.1734 119.769 20.0411 119.458 19.87C119.147 19.6834 118.992 19.4034 118.992 19.03C118.992 18.6878 119.139 18.4234 119.435 18.2367C119.731 18.0345 120.158 17.9334 120.718 17.9334C121.278 17.9334 121.745 18.0578 122.118 18.3067C122.507 18.5556 122.764 18.9756 122.888 19.5667L125.618 18.7267C125.354 17.7934 124.794 17.0389 123.938 16.4634C123.083 15.8878 122.009 15.6 120.718 15.6C119.349 15.6 118.245 15.9111 117.405 16.5334C116.565 17.14 116.145 18.0189 116.145 19.17C116.145 19.9322 116.347 20.5545 116.752 21.0367C117.156 21.5189 117.693 21.9 118.362 22.18C119.031 22.4445 119.769 22.6545 120.578 22.81L121.232 22.9267C121.916 23.0511 122.414 23.2145 122.725 23.4167C123.036 23.6034 123.192 23.8756 123.192 24.2334C123.192 24.5911 123.028 24.8945 122.702 25.1434C122.375 25.3767 121.869 25.4934 121.185 25.4934C120.734 25.4934 120.314 25.4311 119.925 25.3067C119.552 25.1667 119.233 24.9411 118.968 24.63C118.719 24.3189 118.541 23.8911 118.432 23.3467L115.725 24.0467C115.927 25.26 116.511 26.1934 117.475 26.8467Z" fill="white"/>
<path d="M111.347 27.5V11.1667H114.287V27.5H111.347Z" fill="white"/>
</g>
</svg>
