<svg width="119" height="40" viewBox="0 0 119 40" fill="none" xmlns="http://www.w3.org/2000/svg">
<g opacity="0.84">
<path d="M24.5371 32.6401C24.0345 33.757 23.4096 34.8509 22.6605 35.7974C28.8756 33.7026 33.4508 28.0429 33.9545 21.25H31.7421C29.0422 21.25 26.8734 23.4051 26.4345 26.0691C26.03 28.5248 25.3828 30.7608 24.5371 32.6401Z" fill="white"/>
<path d="M19.6436 21.25C22.4704 21.25 24.7828 23.6082 24.2635 26.3869C23.1358 32.4223 20.458 36.6667 17.334 36.6667C13.3811 36.6667 10.1424 29.8709 9.85476 21.25H19.6436Z" fill="white"/>
<path d="M26.492 14.2918C26.9054 16.9807 29.0842 19.1667 31.8047 19.1667H33.9802C33.6366 12.1893 29.0023 6.34015 22.6605 4.20265C23.4096 5.14911 24.0345 6.24301 24.5371 7.35997C25.424 9.33084 26.0926 11.6942 26.492 14.2918Z" fill="white"/>
<path d="M24.347 14.0798C24.8199 16.8444 22.5175 19.1667 19.7128 19.1667H9.84319C10.0386 10.3491 13.3176 3.33334 17.334 3.33334C20.5379 3.33334 23.2725 7.79769 24.347 14.0798Z" fill="white"/>
<path d="M7.75938 19.1667C7.85405 14.6597 8.71385 10.5088 10.1308 7.35997C10.6335 6.24301 11.2583 5.14911 12.0074 4.20265C5.66571 6.34015 1.03136 12.1893 0.687786 19.1667H7.75938Z" fill="white"/>
<path d="M0.713484 21.25C1.21715 28.0429 5.79236 33.7026 12.0074 35.7974C11.2583 34.8509 10.6335 33.757 10.1308 32.6401C8.75763 29.5885 7.9077 25.5958 7.77034 21.25H0.713484Z" fill="white"/>
</g>
<g opacity="0.84">
<path d="M42.3333 27.4999V11.0974H54.8208V14.2249H46.0233V17.7124H53.6733V20.6374H46.0233V24.3724H54.8208V27.4999H42.3333Z" fill="white"/>
<path d="M60.9955 27.7249C59.6605 27.7249 58.663 27.2899 58.003 26.4199C57.343 25.5349 57.013 24.3724 57.013 22.9324V15.4174H60.4555V22.4374C60.4555 23.3974 60.643 24.0574 61.018 24.4174C61.408 24.7624 61.9255 24.9349 62.5705 24.9349C63.3355 24.9349 63.913 24.6799 64.303 24.1699C64.693 23.6599 64.888 22.9924 64.888 22.1674V15.4174H68.3305V27.4999H65.113L64.8655 25.5199H64.6855C64.4155 26.1799 63.9505 26.7124 63.2905 27.1174C62.6455 27.5224 61.8805 27.7249 60.9955 27.7249Z" fill="white"/>
<path d="M70.9137 27.4999V15.4174H74.1312L74.3787 17.4199H74.5812C74.8512 16.6699 75.2112 16.1224 75.6612 15.7774C76.1112 15.4174 76.7562 15.2374 77.5962 15.2374H78.6762V18.7474H77.1237C76.1337 18.7474 75.4287 19.0024 75.0087 19.5124C74.5887 20.0074 74.3787 20.6749 74.3787 21.5149V27.4999H70.9137Z" fill="white"/>
<path d="M85.3036 27.7249C83.3386 27.7249 81.8761 27.1624 80.9161 26.0374C79.9561 24.9124 79.4761 23.4124 79.4761 21.5374V21.4699C79.4761 19.3399 80.0086 17.7649 81.0736 16.7449C82.1386 15.7099 83.5486 15.1924 85.3036 15.1924C87.0736 15.1924 88.4911 15.7099 89.5561 16.7449C90.6361 17.7649 91.1761 19.3399 91.1761 21.4699V21.5374C91.1611 23.4124 90.6736 24.9124 89.7136 26.0374C88.7536 27.1624 87.2836 27.7249 85.3036 27.7249ZM85.3036 24.9349C86.0686 24.9349 86.6461 24.7249 87.0361 24.3049C87.4411 23.8849 87.6436 23.3074 87.6436 22.5724V20.4124C87.6436 19.6624 87.4336 19.0774 87.0136 18.6574C86.6086 18.2224 86.0386 18.0049 85.3036 18.0049C84.5836 18.0049 84.0136 18.2224 83.5936 18.6574C83.1886 19.0774 82.9861 19.6624 82.9861 20.4124V22.5724C82.9861 23.3074 83.1811 23.8849 83.5711 24.3049C83.9761 24.7249 84.5536 24.9349 85.3036 24.9349Z" fill="white"/>
<path d="M93.0631 31.2574V15.4174H96.3481L96.5281 17.1949H96.6856C96.9856 16.5649 97.4506 16.0774 98.0806 15.7324C98.7256 15.3724 99.4456 15.1924 100.241 15.1924C101.861 15.1924 103.038 15.7399 103.773 16.8349C104.508 17.9299 104.876 19.3924 104.876 21.2224V21.7399C104.876 23.8249 104.456 25.3474 103.616 26.3074C102.791 27.2524 101.666 27.7249 100.241 27.7249C99.4606 27.7249 98.7481 27.5524 98.1031 27.2074C97.4581 26.8474 96.9856 26.3524 96.6856 25.7224H96.5281V31.2574H93.0631ZM98.8456 24.9124C99.5956 24.9124 100.173 24.7024 100.578 24.2824C100.983 23.8624 101.186 23.2699 101.186 22.5049V20.4349C101.186 19.6699 100.983 19.0774 100.578 18.6574C100.173 18.2224 99.5956 18.0049 98.8456 18.0049C98.1406 18.0049 97.5781 18.2224 97.1581 18.6574C96.7531 19.0924 96.5506 19.6999 96.5506 20.4799V22.4599C96.5506 23.2399 96.7531 23.8474 97.1581 24.2824C97.5781 24.7024 98.1406 24.9124 98.8456 24.9124Z" fill="white"/>
<path d="M109.711 27.7249C108.601 27.7249 107.701 27.4324 107.011 26.8474C106.321 26.2474 105.976 25.4524 105.976 24.4624V24.4174C105.976 23.2624 106.343 22.3699 107.078 21.7399C107.813 21.1099 108.803 20.7199 110.048 20.5699L113.423 20.1199V19.6474C113.423 18.5074 112.733 17.9374 111.353 17.9374C110.693 17.9374 110.168 18.0649 109.778 18.3199C109.403 18.5749 109.216 18.9424 109.216 19.4224H106.088C106.088 18.0874 106.576 17.0524 107.551 16.3174C108.526 15.5674 109.898 15.1924 111.668 15.1924C113.288 15.1924 114.556 15.5374 115.471 16.2274C116.401 16.9174 116.866 18.0124 116.866 19.5124V25.0699H118.441V27.4999H114.301L114.031 25.6324H113.783C113.483 26.2924 112.981 26.8099 112.276 27.1849C111.586 27.5449 110.731 27.7249 109.711 27.7249ZM111.196 25.2499C111.796 25.2499 112.298 25.1074 112.703 24.8224C113.123 24.5224 113.363 24.1399 113.423 23.6749V22.0549L111.151 22.3924C110.641 22.4524 110.228 22.5874 109.913 22.7974C109.598 22.9924 109.441 23.2924 109.441 23.6974V23.9899C109.441 24.3649 109.591 24.6724 109.891 24.9124C110.206 25.1374 110.641 25.2499 111.196 25.2499Z" fill="white"/>
</g>
</svg>
