<svg width="130" height="40" viewBox="0 0 130 40" fill="none" xmlns="http://www.w3.org/2000/svg">
<g opacity="0.84">
<path fill-rule="evenodd" clip-rule="evenodd" d="M17.4999 36.6667C26.7047 36.6667 34.1666 29.2048 34.1666 20C34.1666 10.7953 26.7047 3.33334 17.4999 3.33334C8.29515 3.33334 0.833252 10.7953 0.833252 20C0.833252 29.2048 8.29515 36.6667 17.4999 36.6667ZM22.6993 11.0974C22.9524 10.1984 22.08 9.66679 21.2833 10.2344L10.1608 18.158C9.29676 18.7736 9.43268 20 10.365 20H13.2938V19.9773H19.002L14.3509 21.6184L12.3005 28.9027C12.0474 29.8017 12.9198 30.3333 13.7166 29.7656L24.839 21.8421C25.7031 21.2265 25.5671 20 24.6348 20H20.1933L22.6993 11.0974Z" fill="white"/>
</g>
<g opacity="0.84">
<path d="M108.33 14.06C108.704 14.4022 109.155 14.5733 109.684 14.5733C110.228 14.5733 110.679 14.4022 111.037 14.06C111.395 13.7178 111.574 13.2667 111.574 12.7067C111.574 12.1467 111.395 11.6956 111.037 11.3533C110.679 11.0111 110.228 10.84 109.684 10.84C109.155 10.84 108.704 11.0111 108.33 11.3533C107.973 11.6956 107.794 12.1467 107.794 12.7067C107.794 13.2667 107.973 13.7178 108.33 14.06Z" fill="white"/>
<path fill-rule="evenodd" clip-rule="evenodd" d="M52.4866 26.9867C51.7555 27.3289 50.8999 27.5 49.9199 27.5H42.4999V11.1667H49.8266C50.8222 11.1667 51.6855 11.3378 52.4166 11.68C53.1633 12.0067 53.7388 12.4811 54.1433 13.1033C54.5633 13.71 54.7733 14.4411 54.7733 15.2967V15.53C54.7733 16.2767 54.6333 16.8911 54.3533 17.3733C54.0733 17.84 53.7388 18.2056 53.3499 18.47C52.9766 18.7189 52.6188 18.8978 52.2766 19.0067V19.4267C52.6188 19.52 52.9922 19.6989 53.3966 19.9633C53.801 20.2122 54.1433 20.5778 54.4233 21.06C54.7188 21.5422 54.8666 22.1722 54.8666 22.95V23.1833C54.8666 24.0855 54.6566 24.8633 54.2366 25.5167C53.8166 26.1544 53.2333 26.6444 52.4866 26.9867ZM51.1799 21.1767C50.7755 20.85 50.231 20.6867 49.5466 20.6867H45.5799V24.7H49.5466C50.2155 24.7 50.7522 24.5367 51.1566 24.21C51.5766 23.8833 51.7866 23.4167 51.7866 22.81V22.5767C51.7866 21.97 51.5844 21.5033 51.1799 21.1767ZM51.0866 14.4567C50.6822 14.13 50.1533 13.9667 49.4999 13.9667H45.5799V17.8867H49.4999C50.1377 17.8867 50.6588 17.7233 51.0633 17.3967C51.4833 17.07 51.6933 16.6189 51.6933 16.0433V15.81C51.6933 15.2189 51.491 14.7678 51.0866 14.4567Z" fill="white"/>
<path fill-rule="evenodd" clip-rule="evenodd" d="M61.8128 27.8267C60.6617 27.8267 59.6273 27.5933 58.7095 27.1267C57.7917 26.66 57.0684 25.9833 56.5395 25.0967C56.0106 24.21 55.7462 23.1444 55.7462 21.9V21.5267C55.7462 20.2822 56.0106 19.2167 56.5395 18.33C57.0684 17.4433 57.7917 16.7667 58.7095 16.3C59.6273 15.8333 60.6617 15.6 61.8128 15.6C62.9639 15.6 63.9984 15.8333 64.9162 16.3C65.8339 16.7667 66.5573 17.4433 67.0862 18.33C67.615 19.2167 67.8795 20.2822 67.8795 21.5267V21.9C67.8795 23.1444 67.615 24.21 67.0862 25.0967C66.5573 25.9833 65.8339 26.66 64.9162 27.1267C63.9984 27.5933 62.9639 27.8267 61.8128 27.8267ZM61.8128 25.2133C62.715 25.2133 63.4617 24.9255 64.0528 24.35C64.6439 23.7589 64.9395 22.9189 64.9395 21.83V21.5967C64.9395 20.5078 64.6439 19.6755 64.0528 19.1C63.4773 18.5089 62.7306 18.2133 61.8128 18.2133C60.9106 18.2133 60.1639 18.5089 59.5728 19.1C58.9817 19.6755 58.6862 20.5078 58.6862 21.5967V21.83C58.6862 22.9189 58.9817 23.7589 59.5728 24.35C60.1639 24.9255 60.9106 25.2133 61.8128 25.2133Z" fill="white"/>
<path d="M78.8912 27.5C78.129 27.5 77.5067 27.2667 77.0245 26.8C76.5578 26.3178 76.3245 25.68 76.3245 24.8867V18.3533H73.4312V15.9267H76.3245V12.3333H79.2645V15.9267H82.4378V18.3533H79.2645V24.3733C79.2645 24.84 79.4823 25.0733 79.9179 25.0733H82.1578V27.5H78.8912Z" fill="white"/>
<path d="M85.0291 26.8467C85.9936 27.5 87.2302 27.8267 88.7391 27.8267C90.2169 27.8267 91.3913 27.5 92.2625 26.8467C93.1491 26.1778 93.5925 25.2367 93.5925 24.0233C93.5925 23.2144 93.3825 22.5767 92.9625 22.11C92.558 21.6278 91.998 21.2622 91.2825 21.0133C90.5825 20.7489 89.7969 20.5389 88.9258 20.3833L88.2725 20.2667C87.7436 20.1733 87.3236 20.0411 87.0125 19.87C86.7013 19.6833 86.5458 19.4033 86.5458 19.03C86.5458 18.6878 86.6936 18.4233 86.9891 18.2367C87.2847 18.0344 87.7125 17.9333 88.2725 17.9333C88.8325 17.9333 89.2991 18.0578 89.6725 18.3067C90.0613 18.5556 90.318 18.9756 90.4425 19.5667L93.1725 18.7267C92.908 17.7933 92.348 17.0389 91.4925 16.4633C90.6369 15.8878 89.5636 15.6 88.2725 15.6C86.9036 15.6 85.7991 15.9111 84.9591 16.5333C84.1191 17.14 83.6991 18.0189 83.6991 19.17C83.6991 19.9322 83.9014 20.5544 84.3058 21.0367C84.7102 21.5189 85.2469 21.9 85.9158 22.18C86.5847 22.4444 87.3236 22.6544 88.1325 22.81L88.7858 22.9267C89.4702 23.0511 89.968 23.2144 90.2791 23.4167C90.5902 23.6033 90.7458 23.8755 90.7458 24.2333C90.7458 24.5911 90.5825 24.8944 90.2558 25.1433C89.9291 25.3767 89.4236 25.4933 88.7391 25.4933C88.288 25.4933 87.868 25.4311 87.4791 25.3067C87.1058 25.1667 86.7869 24.9411 86.5225 24.63C86.2736 24.3189 86.0947 23.8911 85.9858 23.3467L83.2791 24.0467C83.4813 25.26 84.0647 26.1933 85.0291 26.8467Z" fill="white"/>
<path d="M98.6888 19.1233C98.191 19.7144 97.9421 20.5467 97.9421 21.62V27.5H95.0021V11.1667H97.9421V17.35H98.3621C98.4866 17.1011 98.681 16.8522 98.9455 16.6033C99.2099 16.3544 99.5599 16.1522 99.9955 15.9967C100.447 15.8256 101.014 15.74 101.699 15.74C102.601 15.74 103.387 15.95 104.055 16.37C104.74 16.7744 105.269 17.3422 105.642 18.0733C106.015 18.7889 106.202 19.6289 106.202 20.5933V27.5H103.262V20.8267C103.262 19.9556 103.044 19.3022 102.609 18.8667C102.189 18.4311 101.582 18.2133 100.789 18.2133C99.8866 18.2133 99.1866 18.5167 98.6888 19.1233Z" fill="white"/>
<path d="M124.58 26.8C124.113 26.3178 123.88 25.68 123.88 24.8867V18.3533H118.098V27.5H115.158V18.3533H112.218V15.9267H115.158V13.78C115.158 12.9867 115.392 12.3567 115.858 11.89C116.341 11.4078 116.963 11.1667 117.725 11.1667H120.758V13.5933H118.752C118.316 13.5933 118.098 13.8267 118.098 14.2933V15.9267H123.88V12.3333H126.82V15.9267H129.993V18.3533H126.82V24.3733C126.82 24.84 127.038 25.0733 127.473 25.0733H129.713V27.5H126.447C125.684 27.5 125.062 27.2667 124.58 26.8Z" fill="white"/>
<path d="M108.214 15.9267V27.5H111.154V15.9267H108.214Z" fill="white"/>
<path d="M69.4266 11.1667V27.5H72.3666V11.1667H69.4266Z" fill="white"/>
</g>
</svg>
