<svg width="122" height="120" viewBox="0 0 122 120" fill="none" xmlns="http://www.w3.org/2000/svg">
<path d="M121.14 54.9363C121.153 44.4582 120.564 33.988 119.376 23.5774C118.948 20.3698 117.659 17.3381 115.645 14.805C113.402 12.2586 110.255 10.6854 106.872 10.4188C102.486 9.91464 96.7892 9.56172 89.9326 9.30964C82.2693 9.05756 73.5473 8.95673 64.7245 9.05756C64.3266 9.12656 63.9658 9.33383 63.7058 9.64282C63.4458 9.9518 63.3032 10.3427 63.3032 10.7465C63.3032 11.1503 63.4458 11.5412 63.7058 11.8502C63.9658 12.1592 64.3266 12.3664 64.7245 12.4354C73.4969 12.4354 82.2189 13.0404 89.9326 13.595C96.4867 14.0488 102.184 14.6538 106.469 15.3092C108.576 15.517 110.516 16.5501 111.864 18.1829C113.176 20.1011 113.894 22.3629 113.931 24.6866C114.737 30.3332 115.04 38.551 115.292 47.626C115.292 52.6676 115.544 58.415 115.695 63.9104C115.998 79.0352 116.25 93.7064 116.502 101.975C116.617 104.702 115.971 107.408 114.637 109.789C114.095 110.925 113.266 111.9 112.231 112.617C111.196 113.333 109.992 113.766 108.738 113.873C108.39 113.937 108.076 114.121 107.85 114.393C107.624 114.664 107.5 115.007 107.5 115.36C107.5 115.714 107.624 116.056 107.85 116.328C108.076 116.599 108.39 116.783 108.738 116.847C110.177 116.792 111.585 116.414 112.859 115.743C114.133 115.071 115.24 114.122 116.099 112.965C118.658 109.795 120.063 105.848 120.081 101.773C120.384 91.8914 121.14 72.7836 121.14 54.9363Z" fill="#FFE6E3"/>
<path d="M99.2596 114.679C85.2943 114.679 62.3045 115.184 43.8018 114.679C35.9555 114.768 28.1108 114.398 20.3078 113.57C17.6757 113.223 15.1199 112.439 12.7454 111.251C11.7576 110.835 10.8719 110.209 10.1494 109.417C9.42701 108.625 8.88501 107.685 8.56084 106.663C7.65335 101.622 6.84669 92.5468 6.09045 82.2115C5.53587 74.3465 5.18296 65.7254 4.6788 57.4571C4.07484 46.5273 4.37838 35.5662 5.58629 24.6866C5.78658 23.4743 6.25133 22.3211 6.94753 21.3087C7.70888 20.2369 8.62656 19.2852 9.67 18.4854C9.85458 18.3919 10.0172 18.2603 10.1472 18.0993C10.2771 17.9383 10.3714 17.7516 10.4238 17.5514C10.4763 17.3513 10.4856 17.1423 10.4513 16.9383C10.4169 16.7343 10.3396 16.5398 10.2246 16.3679C9.98507 16.0613 9.63662 15.8588 9.25166 15.8024C8.8667 15.7461 8.47483 15.8403 8.15751 16.0654C6.72557 17.0454 5.46506 18.2548 4.42671 19.645C3.39839 20.9975 2.6915 22.5665 2.35965 24.2328C0.403841 38.0056 -0.338449 51.9235 0.141338 65.8262C0.243226 79.8019 1.18603 93.7588 2.96464 107.621C3.27709 109.172 3.90915 110.641 4.82056 111.935C5.73197 113.228 6.90276 114.317 8.25835 115.133C11.6577 117.283 15.5031 118.628 19.5012 119.066C27.5243 119.867 35.5907 120.154 43.6505 119.923C62.3045 119.923 85.2943 118.461 99.1083 118.057C99.5501 118.032 99.9662 117.842 100.274 117.525C100.583 117.207 100.76 116.785 100.772 116.343C100.774 115.927 100.619 115.525 100.339 115.217C100.059 114.909 99.6741 114.717 99.2596 114.679Z" fill="#FFE6E3"/>
<path d="M15.2663 62.5995C15.3456 63.3779 15.5888 64.1308 15.9798 64.8085C16.3708 65.4863 16.9009 66.0736 17.535 66.532C19.2996 67.5403 21.8204 67.0361 23.7866 64.0616C25.8408 60.4753 27.5298 56.692 28.8283 52.7683C30.6925 56.9371 33.0813 60.8508 35.937 64.4145C38.6594 67.389 41.6844 68.3974 44.1548 66.9353C45.4235 66.0024 46.2746 64.6081 46.5244 63.0532C47.0908 59.368 47.2598 55.6326 47.0285 51.9113C47.0285 44.248 44.1548 29.7281 46.2723 20.4011C47.2302 16.1158 49.2468 12.99 53.5322 12.9395C53.9301 12.8705 54.2909 12.6633 54.5509 12.3543C54.8109 12.0453 54.9535 11.6544 54.9535 11.2506C54.9535 10.8468 54.8109 10.4559 54.5509 10.1469C54.2909 9.83792 53.9301 9.63066 53.5322 9.56165C47.4318 9.56165 44.1548 13.4941 42.6423 19.6449C40.2727 29.1736 42.6423 44.1976 42.6423 52.0625V58.5662C42.6423 60.3812 42.6423 63.6078 41.7852 62.9524C40.9282 62.297 41.7852 62.9524 42.0373 62.9524C42.2894 62.9524 41.5836 62.6499 41.2307 62.3978C40.0058 61.2246 38.9534 59.8836 38.1049 58.415C36.2902 55.6848 34.6566 52.8386 33.2145 49.8946C32.8111 49.088 32.2566 47.273 31.6516 46.1638C31.2346 45.5037 30.6853 44.9372 30.0383 44.5001C29.386 44.1408 28.6242 44.0347 27.8986 44.2022C27.173 44.3696 26.5346 44.7988 26.1058 45.4076C25.2455 46.7444 24.5194 48.163 23.9379 49.6425C23.585 50.4996 22.6271 54.6842 21.5683 57.7091C21.165 55.7933 20.56 53.9279 20.5096 53.2725C19.593 45.6288 19.256 37.9268 19.5013 30.2323C19.6453 25.1373 20.3041 20.0699 21.4675 15.1074C21.9404 12.3788 23.0264 9.79303 24.6437 7.54501C26.3215 5.60986 28.6946 4.41425 31.2482 4.21754C36.6428 3.48052 42.1189 3.58256 47.4823 4.52003C50.9452 5.0039 54.2448 6.29953 57.1118 8.30125C57.2607 8.42373 57.4324 8.51568 57.6169 8.57183C57.8014 8.62798 57.9951 8.64725 58.1871 8.62852C58.379 8.60979 58.5654 8.55344 58.7355 8.46269C58.9057 8.37193 59.0563 8.24855 59.1788 8.09958C59.3013 7.95062 59.3932 7.77898 59.4494 7.59448C59.5056 7.40998 59.5248 7.21623 59.5061 7.02429C59.4874 6.83234 59.431 6.64596 59.3403 6.4758C59.2495 6.30563 59.1261 6.155 58.9772 6.03252C55.8121 3.50967 52.0702 1.81197 48.0873 1.09173C42.4119 -0.0376578 36.5973 -0.292685 30.8449 0.335488C27.2587 0.529363 23.8917 2.12235 21.4675 4.77211C19.3121 7.38543 17.7778 10.4539 16.9805 13.7462C15.5726 18.9721 14.6943 24.3264 14.3588 29.7281C13.9129 37.6961 14.0984 45.6868 14.9134 53.6254C14.8599 56.6211 14.9777 59.6173 15.2663 62.5995Z" fill="#FFE6E3"/>
<path d="M108.486 33.3076C108.486 32.8616 108.312 32.4331 108.002 32.113C107.691 31.793 107.268 31.6066 106.822 31.5935C104.598 31.5822 102.381 31.8361 100.218 32.3497C95.5289 33.358 90.6386 35.2739 86.3532 36.2822C84.5344 36.8628 82.6825 37.3342 80.8074 37.6938C79.9351 37.9501 79.0076 37.9501 78.1353 37.6938C77.1668 37.3149 76.3391 36.6457 75.7658 35.778C75.0062 34.8698 74.3627 33.8706 73.85 32.8035C73.497 32.2489 73.1441 30.4339 72.5896 29.4256C72.2754 28.6409 71.7074 27.9842 70.9762 27.5602C67.4471 25.846 66.9429 29.8289 63.1113 33.5093C62.4741 34.1885 61.7235 34.7515 60.893 35.173C60.6798 35.2722 60.4475 35.3236 60.2124 35.3236C59.9772 35.3236 59.7449 35.2722 59.5318 35.173C55.801 33.5597 57.6159 30.9381 55.4985 30.7868C54.3389 30.7868 53.8851 31.2406 53.6331 32.0976C53.844 33.5032 54.3602 34.8455 55.1455 36.0301C56.0817 37.2124 57.2935 38.1471 58.6747 38.7526C59.8725 39.2296 61.2076 39.2296 62.4055 38.7526C63.7013 38.2815 64.9107 37.6002 65.985 36.7359C66.9523 35.9626 67.8622 35.1201 68.7075 34.2151C68.6483 34.5655 68.6483 34.9234 68.7075 35.2739C69.5159 37.0996 70.5859 38.798 71.8837 40.3155C72.899 41.4188 74.136 42.295 75.5137 42.8867C77.3168 43.5575 79.2669 43.7316 81.1603 43.3909C83.325 42.8778 85.4484 42.2037 87.5127 41.3742C91.6973 40.013 96.386 37.6434 100.974 36.3326C102.847 35.5605 104.813 35.0352 106.822 34.7697C107.231 34.7727 107.626 34.6254 107.933 34.3557C108.239 34.0861 108.436 33.7131 108.486 33.3076Z" fill="#FFE6E3"/>
<path d="M50.8601 64.5153C50.0534 65.4228 50.4567 66.1286 51.1626 66.6832C53.3754 67.2346 55.6394 67.5556 57.9183 67.6411L68.5057 68.1453C71.0265 68.1453 73.5473 68.1453 76.1186 67.7419C78.6898 67.3386 81.8156 66.9857 84.6893 66.532C101.831 63.8599 98.705 65.2211 101.881 66.2295C102.296 66.3227 102.727 66.3227 103.142 66.2295C103.362 66.2365 103.582 66.1982 103.787 66.1171C103.992 66.036 104.178 65.9137 104.334 65.7577C104.49 65.6018 104.612 65.4156 104.693 65.2106C104.774 65.0056 104.812 64.7861 104.805 64.5657C104.805 64.1245 104.63 63.7013 104.318 63.3893C104.006 63.0773 103.583 62.902 103.142 62.902C100.621 61.4399 98.9067 59.4737 82.9752 61.087C80.051 61.3391 77.1269 61.7424 74.2028 62.0953C72.2869 62.0953 70.4215 62.5995 68.4553 62.7507L58.3721 63.6582C51.5659 64.0111 51.4651 63.6078 50.8601 64.5153Z" fill="#FFE6E3"/>
<path d="M62.0019 87.3539L45.7679 89.1184L27.5172 90.6813C24.0726 89.9521 20.4993 90.1082 17.1315 91.1351C16.9699 91.2706 16.8408 91.4405 16.7536 91.6325C16.6663 91.8244 16.6232 92.0335 16.6273 92.2442C16.6047 92.4894 16.6491 92.7361 16.7556 92.9581C16.8622 93.18 17.0269 93.3689 17.2323 93.5047C17.7147 93.8153 18.2722 93.9896 18.8456 94.0088C20.9631 94.0088 26.3576 94.3113 27.5172 94.3617H45.7679C47.4471 94.4541 49.1302 94.4541 50.8095 94.3617C54.5403 94.0088 58.2711 93.303 62.0019 93.1517C105.713 90.4293 103.898 88.9168 104.2 88.5135C104.357 88.3587 104.482 88.1742 104.567 87.9708C104.652 87.7674 104.696 87.5491 104.696 87.3287C104.696 87.1082 104.652 86.8899 104.567 86.6865C104.482 86.4831 104.357 86.2987 104.2 86.1439C103.142 85.186 107.175 86.396 62.0019 87.3539Z" fill="#FFE6E3"/>
</svg>
