<svg width="1920" height="286" viewBox="0 0 1920 286" fill="none" xmlns="http://www.w3.org/2000/svg">
<circle opacity="0.06" cx="1268.5" cy="225.389" r="13.5" fill="#FFA800"/>
<circle opacity="0.12" cx="1268.5" cy="225.389" r="8.5" fill="#FFA800"/>
<circle opacity="0.72" cx="1268.5" cy="225.389" r="3.5" fill="#FFA800"/>
<circle opacity="0.06" cx="552.5" cy="197.389" r="13.5" fill="#531FE9"/>
<circle opacity="0.12" cx="552.5" cy="197.389" r="8.5" fill="#531FE9"/>
<circle cx="552.5" cy="197.389" r="3.5" fill="#531FE9"/>
<circle opacity="0.06" cx="207.5" cy="27.3885" r="13.5" fill="#531FE9"/>
<circle opacity="0.12" cx="207.5" cy="27.3885" r="8.5" fill="#531FE9"/>
<circle cx="207.5" cy="27.3885" r="3.5" fill="#531FE9"/>
<path opacity="0.24" d="M-3.71033 213.151C12.6256 186.283 47.1029 136.029 85.2773 100.95C132.995 56.4559 218.827 -14.4761 300.008 52.5869C347.726 92.006 383.192 151.247 458.639 186.068C497.329 203.925 540.533 210.572 685.621 164.144C757.843 142.219 836.514 104.174 979.668 146.088C1082.2 177.041 1177 214.562 1221.48 226.693C1269.5 239.789 1364.64 289.887 1480.71 226.693C1562.6 180.265 1626.44 136.608 1683.83 117.071C1734.77 99.7286 1806.99 76.4459 1924.36 124.809" stroke="#531FE9" stroke-width="3"/>
<path opacity="0.32" d="M-5 1C2.09322 3.57935 14.732 10.0277 34.3351 22.9245C59.4838 39.6903 105.912 68.708 175.555 133.837C236.814 192.517 283.887 244.749 381.903 269.253C415.434 273.122 474.759 286.018 557.944 229.917C596.634 198.965 634.034 166.079 683.687 113.847C722.377 78.3805 792.665 3.57935 892.614 22.9245C928.081 30.6625 997.723 48.718 1137.65 147.378C1202.78 189.293 1320.14 271.187 1449.11 284.729C1495.54 284.729 1581.95 294.401 1664.49 184.134C1700.6 136.416 1749.6 57.7457 1797.32 29.3729C1816.02 20.3451 1862.45 1 1925 39.6903" stroke="#FFA800"/>
</svg>
