<svg width="72" height="72" viewBox="0 0 72 72" fill="none" xmlns="http://www.w3.org/2000/svg">
<path d="M11.751 53.7752C9.24152 53.7752 7.2 55.8167 7.2 58.3262C7.2 60.8356 9.24152 62.8771 11.751 62.8771H13.7914V64.0802C13.7914 64.4778 14.1138 64.8002 14.5114 64.8002H64.08C64.4776 64.8002 64.8 64.4778 64.8 64.0802V7.9202C64.8 7.52258 64.4776 7.2002 64.08 7.2002H14.5114C14.1138 7.2002 13.7914 7.52258 13.7914 7.9202V10.5632H11.751C9.24152 10.5632 7.2 12.6048 7.2 15.1142C7.2 17.6237 9.24152 19.6652 11.751 19.6652H13.7914V24.9675H11.751C9.24152 24.9675 7.2 27.009 7.2 29.5181C7.2 32.0275 9.24152 34.0691 11.751 34.0691H13.7914V39.3713H11.751C9.24152 39.3713 7.2 41.4128 7.2 43.9223C7.2 46.4314 9.24152 48.4729 11.751 48.4729H13.7914V53.7752H11.751ZM11.751 61.4371C10.0357 61.4371 8.64 60.0414 8.64 58.3262C8.64 56.6109 10.0357 55.2152 11.751 55.2152H13.7914V61.4371H11.751ZM11.751 18.2252C10.0357 18.2252 8.64 16.8295 8.64 15.1142C8.64 13.3989 10.0357 12.0032 11.751 12.0032H13.7914V18.2252H11.751ZM11.751 32.6291C10.0357 32.6291 8.64 31.2334 8.64 29.5181C8.64 27.8028 10.0357 26.4075 11.751 26.4075H13.7914V32.6291H11.751ZM11.751 47.0329C10.0357 47.0329 8.64 45.6376 8.64 43.9223C8.64 42.207 10.0357 40.8113 11.751 40.8113H13.7914V47.0329H11.751ZM15.2314 40.8113H18.836C19.2336 40.8113 19.556 40.4889 19.556 40.0913C19.556 39.6937 19.2336 39.3713 18.836 39.3713H15.2314V26.4075H18.836C19.2336 26.4075 19.556 26.0851 19.556 25.6875C19.556 25.2898 19.2336 24.9675 18.836 24.9675H15.2314V12.0032H18.836C19.2336 12.0032 19.556 11.6809 19.556 11.2832C19.556 10.8856 19.2336 10.5632 18.836 10.5632H15.2314V8.6402H63.36V63.3602H15.2314V55.2152H18.836C19.2336 55.2152 19.556 54.8928 19.556 54.4952C19.556 54.0976 19.2336 53.7752 18.836 53.7752H15.2314V40.8113Z" fill="#2AC8D3"/>
<path d="M40.4617 51.3757C48.94 51.3757 55.8373 44.4784 55.8373 36.0001C55.8373 27.5218 48.94 20.6245 40.4617 20.6245C31.9838 20.6245 25.0865 27.5218 25.0865 36.0001C25.0865 44.4784 31.9838 51.3757 40.4617 51.3757ZM26.5629 36.7201H34.3778C34.478 43.0505 35.8675 47.4348 37.6422 49.6483C31.5348 48.3882 26.8921 43.115 26.5629 36.7201ZM40.4617 22.1151C42.599 22.1151 44.9663 27.489 45.1064 35.2801H35.8169C35.9571 27.489 38.3244 22.1151 40.4617 22.1151ZM45.1064 36.7201C44.9663 44.5112 42.599 49.8851 40.4617 49.8851C38.3244 49.8851 35.9571 44.5112 35.8169 36.7201H45.1064ZM43.2811 49.6483C45.0559 47.4349 46.4454 43.0505 46.5456 36.7201H54.3608C54.0316 43.115 49.3889 48.3883 43.2811 49.6483ZM54.3608 35.2801H46.5456C46.4454 28.9497 45.0559 24.5653 43.2811 22.3519C49.3889 23.6119 54.0316 28.8852 54.3608 35.2801ZM37.6422 22.3519C35.8675 24.5654 34.478 28.9497 34.3778 35.2801H26.5629C26.8921 28.8852 31.5348 23.612 37.6422 22.3519Z" fill="#2AC8D3"/>
</svg>
