<svg width="72" height="72" viewBox="0 0 72 72" fill="none" xmlns="http://www.w3.org/2000/svg">
<path d="M11.5256 21.4114L15.2754 21.3826L15.2902 26.2682C15.2909 26.5453 15.4505 26.797 15.7008 26.9162C15.7992 26.9633 15.9047 26.9861 16.0102 26.9861C16.1719 26.9861 16.3315 26.932 16.4623 26.8265L23.1757 21.4114H28.8C31.1822 21.4114 33.12 19.4736 33.12 17.0914V11.5202C33.12 9.13801 31.1822 7.2002 28.8 7.2002H11.52C9.13781 7.2002 7.2 9.13801 7.2 11.5202V17.0914C7.2 19.4736 9.13781 21.4114 11.5256 21.4114ZM8.64 11.5202C8.64 9.93219 9.93164 8.6402 11.52 8.6402H28.8C30.3884 8.6402 31.68 9.93219 31.68 11.5202V17.0914C31.68 18.6794 30.3884 19.9714 28.8 19.9714H22.9212C22.7566 19.9714 22.597 20.0277 22.4691 20.131L16.7259 24.7639L16.7133 20.6548C16.7126 20.4632 16.6359 20.2797 16.4995 20.1451C16.3645 20.0118 16.1831 19.937 15.9933 19.937C15.9912 19.937 15.9898 19.937 15.9877 19.937L11.52 19.9714C9.93164 19.9714 8.64 18.6794 8.64 17.0914V11.5202Z" fill="#2AC8D3"/>
<path d="M60.48 7.2002H43.2C40.8178 7.2002 38.88 9.13801 38.88 11.5202V17.0914C38.88 19.4736 40.8178 21.4114 43.2 21.4114H48.8243L55.5377 26.8265C55.6685 26.932 55.8281 26.9861 55.9898 26.9861C56.0953 26.9861 56.2008 26.9633 56.2992 26.9162C56.5495 26.797 56.7091 26.5453 56.7098 26.2682L56.7246 21.3826L60.48 21.4114C62.8622 21.4114 64.8 19.4736 64.8 17.0914V11.5202C64.8 9.13801 62.8622 7.2002 60.48 7.2002ZM63.36 17.0914C63.36 18.6794 62.0684 19.9714 60.4856 19.9714L56.0124 19.937C55.8091 19.9232 55.6369 20.0104 55.5005 20.1451C55.3641 20.2797 55.2874 20.4632 55.2867 20.6548L55.2741 24.7639L49.5309 20.131C49.403 20.0277 49.2434 19.9714 49.0788 19.9714H43.2C41.6116 19.9714 40.32 18.6794 40.32 17.0914V11.5202C40.32 9.93219 41.6116 8.6402 43.2 8.6402H60.48C62.0684 8.6402 63.36 9.93219 63.36 11.5202V17.0914Z" fill="#2AC8D3"/>
<path d="M10.5616 36.0968C10.5616 39.0661 12.9776 41.4817 15.9469 41.4817C18.9162 41.4817 21.3321 39.0661 21.3321 36.0968C21.3321 33.1275 18.9162 30.7119 15.9469 30.7119C12.9776 30.7119 10.5616 33.1275 10.5616 36.0968ZM19.8921 36.0968C19.8921 38.2719 18.1223 40.0417 15.9469 40.0417C13.7714 40.0417 12.0016 38.2719 12.0016 36.0968C12.0016 33.9217 13.7714 32.1519 15.9469 32.1519C18.1223 32.1519 19.8921 33.9217 19.8921 36.0968Z" fill="#2AC8D3"/>
<path d="M36 30.7119C33.0307 30.7119 30.6148 33.1275 30.6148 36.0968C30.6148 39.0661 33.0307 41.4817 36 41.4817C38.9693 41.4817 41.3852 39.0661 41.3852 36.0968C41.3852 33.1275 38.9693 30.7119 36 30.7119ZM36 40.0417C33.8245 40.0417 32.0548 38.2719 32.0548 36.0968C32.0548 33.9217 33.8245 32.1519 36 32.1519C38.1755 32.1519 39.9452 33.9217 39.9452 36.0968C39.9452 38.2719 38.1755 40.0417 36 40.0417Z" fill="#2AC8D3"/>
<path d="M56.0531 41.4817C59.0224 41.4817 61.4383 39.0661 61.4383 36.0968C61.4383 33.1275 59.0224 30.7119 56.0531 30.7119C53.0838 30.7119 50.6679 33.1275 50.6679 36.0968C50.6679 39.0661 53.0838 41.4817 56.0531 41.4817ZM56.0531 32.1519C58.2286 32.1519 59.9983 33.9217 59.9983 36.0968C59.9983 38.2719 58.2286 40.0417 56.0531 40.0417C53.8776 40.0417 52.1079 38.2719 52.1079 36.0968C52.1079 33.9217 53.8776 32.1519 56.0531 32.1519Z" fill="#2AC8D3"/>
<path d="M9.67851 55.937V64.0799C9.67851 64.4775 10.0005 64.7999 10.3985 64.7999H21.4481C21.8461 64.7999 22.1681 64.4775 22.1681 64.0799V55.937C23.5863 55.6097 24.6466 54.3377 24.6466 52.8232V47.3476C24.6466 45.4956 23.1384 43.9888 21.2843 43.9888H10.5616C8.7082 43.9888 7.2 45.4956 7.2 47.3476V52.8232C7.2 54.3377 8.26031 55.6097 9.67851 55.937ZM8.64 47.3476C8.64 46.2894 9.50203 45.4288 10.5616 45.4288H21.2843C22.3446 45.4288 23.2066 46.2894 23.2066 47.3476V52.8232C23.2066 53.791 22.4177 54.5785 21.4481 54.5785C21.0502 54.5785 20.7281 54.9009 20.7281 55.2985V63.3599H11.1185V55.2985C11.1185 54.9009 10.7965 54.5785 10.3985 54.5785C9.4289 54.5785 8.64 53.791 8.64 52.8232V47.3476Z" fill="#2AC8D3"/>
<path d="M61.4384 43.9888H50.7157C48.8616 43.9888 47.3534 45.4956 47.3534 47.3476V52.8232C47.3534 54.3377 48.4137 55.6097 49.8319 55.937V64.0799C49.8319 64.4775 50.1539 64.7999 50.5519 64.7999H61.6015C61.9995 64.7999 62.3215 64.4775 62.3215 64.0799V55.937C63.7397 55.6097 64.8 54.3377 64.8 52.8232V47.3476C64.8 45.4956 63.2918 43.9888 61.4384 43.9888ZM63.36 52.8232C63.36 53.791 62.5711 54.5785 61.6015 54.5785C61.2035 54.5785 60.8815 54.9009 60.8815 55.2985V63.3599H51.2719V55.2985C51.2719 54.9009 50.9498 54.5785 50.5519 54.5785C49.5823 54.5785 48.7934 53.791 48.7934 52.8232V47.3476C48.7934 46.2894 49.6554 45.4288 50.7157 45.4288H61.4384C62.498 45.4288 63.36 46.2894 63.36 47.3476V52.8232Z" fill="#2AC8D3"/>
<path d="M39.4094 43.9888H32.5905C31.0282 43.9888 29.6838 45.1538 29.4673 46.6779L27.2876 59.2659C27.251 59.4751 27.3094 59.6899 27.4465 59.8523C27.5829 60.0147 27.7847 60.1086 27.997 60.1086H31.1569V64.0799C31.1569 64.4775 31.4789 64.7999 31.8769 64.7999H40.1231C40.5211 64.7999 40.8431 64.4775 40.8431 64.0799V60.1086H44.003C44.2153 60.1086 44.4171 60.0147 44.5535 59.8523C44.6906 59.6899 44.749 59.4751 44.7124 59.2659L42.5362 46.699C42.3162 45.1538 40.9718 43.9888 39.4094 43.9888ZM40.1231 58.6686C39.7251 58.6686 39.4031 58.991 39.4031 59.3886V63.3599H32.5969V59.3886C32.5969 58.991 32.2748 58.6686 31.8769 58.6686H28.8527L30.8897 46.9022C31.0092 46.0623 31.7405 45.4288 32.5905 45.4288H39.4094C40.2595 45.4288 40.9908 46.0623 41.1138 46.9233L43.1473 58.6686H40.1231Z" fill="#2AC8D3"/>
</svg>
