<svg width="72" height="72" viewBox="0 0 72 72" fill="none" xmlns="http://www.w3.org/2000/svg">
<path d="M14.5065 21.8132C18.5354 21.8132 21.8131 18.5356 21.8131 14.5067C21.8131 10.4778 18.5354 7.2002 14.5065 7.2002C10.4776 7.2002 7.20001 10.4778 7.20001 14.5067C7.20001 18.5356 10.4776 21.8132 14.5065 21.8132ZM14.5065 8.6402C17.7413 8.6402 20.3731 11.272 20.3731 14.5067C20.3731 17.7414 17.7413 20.3732 14.5065 20.3732C11.2718 20.3732 8.64001 17.7414 8.64001 14.5067C8.64001 11.272 11.2718 8.6402 14.5065 8.6402Z" fill="#2AC8D3"/>
<path d="M57.4935 7.2002C53.4646 7.2002 50.187 10.4778 50.187 14.5067C50.187 18.5356 53.4646 21.8132 57.4935 21.8132C61.5224 21.8132 64.8 18.5356 64.8 14.5067C64.8 10.4778 61.5224 7.2002 57.4935 7.2002ZM57.4935 20.3732C54.2587 20.3732 51.627 17.7414 51.627 14.5067C51.627 11.272 54.2587 8.6402 57.4935 8.6402C60.7282 8.6402 63.36 11.272 63.36 14.5067C63.36 17.7414 60.7282 20.3732 57.4935 20.3732Z" fill="#2AC8D3"/>
<path d="M14.5065 64.8001C18.5354 64.8001 21.8131 61.5224 21.8131 57.4935C21.8131 53.4646 18.5354 50.187 14.5065 50.187C10.4776 50.187 7.20001 53.4646 7.20001 57.4935C7.20001 61.5224 10.4776 64.8001 14.5065 64.8001ZM14.5065 51.627C17.7413 51.627 20.3731 54.2588 20.3731 57.4935C20.3731 60.7283 17.7413 63.3601 14.5065 63.3601C11.2718 63.3601 8.64001 60.7283 8.64001 57.4935C8.64001 54.2588 11.2718 51.627 14.5065 51.627Z" fill="#2AC8D3"/>
<path d="M57.4935 50.187C53.4646 50.187 50.187 53.4646 50.187 57.4935C50.187 61.5224 53.4646 64.8001 57.4935 64.8001C61.5224 64.8001 64.8 61.5224 64.8 57.4935C64.8 53.4646 61.5224 50.187 57.4935 50.187ZM57.4935 63.3601C54.2587 63.3601 51.627 60.7283 51.627 57.4935C51.627 54.2588 54.2587 51.627 57.4935 51.627C60.7282 51.627 63.36 54.2588 63.36 57.4935C63.36 60.7283 60.7282 63.3601 57.4935 63.3601Z" fill="#2AC8D3"/>
<path d="M51.0451 23.528L48.472 20.9546C47.6972 20.1801 46.4653 20.1084 45.6047 20.7862L42.9915 22.8492C42.1478 22.3995 41.2646 22.0332 40.3552 21.7551L39.966 18.4511C39.838 17.363 38.9152 16.5425 37.8197 16.5425H34.1803C33.0848 16.5425 32.162 17.363 32.034 18.4508L31.6448 21.7551C30.7353 22.0332 29.8522 22.3995 29.0085 22.8492L26.3953 20.7865C25.5347 20.107 24.3021 20.1794 23.528 20.9546L20.9549 23.528C20.1797 24.3032 20.1076 25.5358 20.7865 26.3954L22.8491 29.0085C22.3998 29.8519 22.0331 30.7351 21.755 31.6449L18.4511 32.0341C17.363 32.1621 16.5424 33.0849 16.5424 34.1804V37.8197C16.5424 38.9152 17.363 39.8381 18.4507 39.966L21.755 40.3552C22.0331 41.2647 22.3995 42.1478 22.8491 42.9916L20.7868 45.6044C20.1076 46.4643 20.1797 47.6969 20.9549 48.4721L23.528 51.0452C24.3032 51.8211 25.5368 51.8924 26.3953 51.2136L29.0085 49.151C29.8522 49.6006 30.7353 49.9669 31.6448 50.245L32.034 53.549C32.162 54.6371 33.0848 55.4576 34.1803 55.4576H37.8197C38.9152 55.4576 39.838 54.6371 39.966 53.5494L40.3552 50.245C41.2646 49.9669 42.1478 49.6006 42.9915 49.151L45.6043 51.2132C46.4639 51.8921 47.6968 51.8197 48.472 51.0452L51.0451 48.4721C51.8203 47.6969 51.8924 46.4643 51.2135 45.6047L49.1509 42.9916C49.6005 42.1478 49.9669 41.2647 50.245 40.3552L53.5489 39.966C54.637 39.8381 55.4576 38.9152 55.4576 37.8197V34.1804C55.4576 33.0849 54.637 32.1621 53.5493 32.0341L50.245 31.6449C49.9669 30.7351 49.6002 29.8519 49.1509 29.0085L51.2132 26.3957C51.8924 25.5358 51.8203 24.3032 51.0451 23.528ZM50.0829 25.5031L47.7236 28.4924C47.5411 28.7238 47.5179 29.0426 47.6648 29.2979C48.2442 30.3037 48.6903 31.3781 48.9899 32.4915C49.0665 32.7755 49.3087 32.9847 49.6009 33.0192L53.3809 33.4642C53.7437 33.5068 54.0176 33.8147 54.0176 34.1804V37.8197C54.0176 38.1854 53.7437 38.4933 53.3805 38.5359L49.6009 38.981C49.3087 39.0154 49.0665 39.2246 48.9899 39.5087C48.6903 40.6217 48.2446 41.6961 47.6648 42.7022C47.5179 42.9575 47.5411 43.2763 47.7236 43.5077L50.0832 46.4974C50.31 46.7839 50.2857 47.1952 50.027 47.454L47.4539 50.0271C47.1952 50.2851 46.7838 50.3094 46.497 50.0829L43.5076 47.7236C43.2759 47.5415 42.9574 47.5183 42.7022 47.6649C41.696 48.2446 40.6216 48.6904 39.5086 48.9899C39.2245 49.0666 39.0153 49.3088 38.9809 49.601L38.5358 53.381C38.4933 53.7438 38.1853 54.0176 37.8197 54.0176H34.1803C33.8147 54.0176 33.5067 53.7438 33.4642 53.3806L33.0191 49.601C32.9846 49.3088 32.7755 49.0666 32.4914 48.9899C31.3784 48.6904 30.304 48.2446 29.2978 47.6649C29.186 47.6006 29.0623 47.5689 28.9385 47.5689C28.78 47.5689 28.6225 47.6213 28.4924 47.7236L25.5027 50.0833C25.2162 50.3104 24.8052 50.2851 24.5461 50.0271L21.973 47.454C21.7143 47.1952 21.69 46.7839 21.9171 46.497L24.2764 43.5077C24.4589 43.2763 24.4821 42.9575 24.3352 42.7022C23.7554 41.6961 23.3096 40.6217 23.0101 39.5087C22.9335 39.2246 22.6912 39.0154 22.3991 38.981L18.6191 38.5359C18.2563 38.4933 17.9824 38.1854 17.9824 37.8197V34.1804C17.9824 33.8147 18.2563 33.5068 18.6195 33.4642L22.3991 33.0192C22.6912 32.9847 22.9335 32.7755 23.0101 32.4915C23.3096 31.3781 23.7558 30.3037 24.3352 29.2979C24.4821 29.0426 24.4589 28.7238 24.2764 28.4924L21.9168 25.5028C21.69 25.2162 21.7143 24.8049 21.973 24.5462L24.5461 21.9727C24.8045 21.714 25.2158 21.6897 25.503 21.9168L28.4924 24.2765C28.7237 24.459 29.0429 24.4822 29.2978 24.3352C30.304 23.7555 31.3784 23.3097 32.4914 23.0102C32.7755 22.9335 32.9846 22.6913 33.0191 22.3992L33.4642 18.6192C33.5067 18.2563 33.8147 17.9825 34.1803 17.9825H37.8197C38.1853 17.9825 38.4933 18.2563 38.5358 18.6195L38.9809 22.3992C39.0153 22.6913 39.2245 22.9335 39.5086 23.0102C40.6216 23.3097 41.696 23.7555 42.7022 24.3352C42.9571 24.4818 43.2759 24.4583 43.5076 24.2765L46.497 21.9165C46.7849 21.6901 47.1952 21.714 47.4539 21.9727L50.027 24.5462C50.2857 24.8049 50.31 25.2162 50.0829 25.5031Z" fill="#2AC8D3"/>
<path d="M36 28.623C31.9321 28.623 28.6228 31.9323 28.6228 36.0002C28.6228 40.0682 31.9321 43.3774 36 43.3774C40.0679 43.3774 43.3772 40.0682 43.3772 36.0002C43.3772 31.9323 40.0679 28.623 36 28.623ZM36 41.9374C32.7262 41.9374 30.0628 39.274 30.0628 36.0002C30.0628 32.7265 32.7262 30.063 36 30.063C39.2737 30.063 41.9372 32.7265 41.9372 36.0002C41.9372 39.274 39.2737 41.9374 36 41.9374Z" fill="#2AC8D3"/>
<path d="M47.3017 9.50504C43.7207 7.97574 39.9185 7.2002 36 7.2002C32.0815 7.2002 28.2794 7.97574 24.6983 9.50504C24.3324 9.66113 24.1626 10.0841 24.319 10.4497C24.4751 10.8153 24.8977 10.9851 25.2637 10.829C28.665 9.37672 32.2773 8.6402 36 8.6402C39.7227 8.6402 43.335 9.37672 46.7364 10.829C46.8285 10.8688 46.9245 10.8874 47.0187 10.8874C47.2985 10.887 47.5643 10.7232 47.681 10.4497C47.8375 10.0841 47.6677 9.66113 47.3017 9.50504Z" fill="#2AC8D3"/>
<path d="M10.1672 47.7395C10.2614 47.7395 10.3574 47.7206 10.4495 47.6812C10.8155 47.5251 10.9853 47.1022 10.8288 46.7365C9.37654 43.3352 8.64001 39.7229 8.64001 36.0002C8.64001 32.2775 9.37654 28.6652 10.8288 25.2638C10.9853 24.8982 10.8155 24.4752 10.4495 24.3191C10.0832 24.1609 9.6606 24.3329 9.50486 24.6985C7.97556 28.2795 7.20001 32.0816 7.20001 36.0002C7.20001 39.9187 7.97556 43.7208 9.50486 47.3018C9.62157 47.5754 9.88736 47.7395 10.1672 47.7395Z" fill="#2AC8D3"/>
<path d="M36 64.8C39.9185 64.8 43.7207 64.0245 47.3017 62.4952C47.6677 62.3391 47.8375 61.9162 47.681 61.5505C47.5253 61.1849 47.1013 61.0144 46.7364 61.1712C43.335 62.6235 39.7227 63.36 36 63.36C32.2773 63.36 28.665 62.6235 25.2637 61.1712C24.8977 61.013 24.4751 61.1849 24.319 61.5505C24.1626 61.9162 24.3324 62.3391 24.6983 62.4952C28.2794 64.0245 32.0815 64.8 36 64.8Z" fill="#2AC8D3"/>
<path d="M61.5505 24.319C61.1845 24.4751 61.0147 24.8981 61.1712 25.2637C62.6235 28.6651 63.36 32.2774 63.36 36.0001C63.36 39.7228 62.6235 43.3351 61.1712 46.7364C61.0147 47.102 61.1845 47.525 61.5505 47.6811C61.6426 47.7208 61.7386 47.7394 61.8328 47.7394C62.1127 47.7394 62.3784 47.5753 62.4952 47.3017C64.0245 43.7207 64.8 39.9186 64.8 36.0001C64.8 32.0815 64.0245 28.2794 62.4952 24.6984C62.3391 24.3328 61.9158 24.1622 61.5505 24.319Z" fill="#2AC8D3"/>
</svg>
