<svg width="72" height="72" viewBox="0 0 72 72" fill="none" xmlns="http://www.w3.org/2000/svg">
<path d="M14.5067 21.8132C18.5356 21.8132 21.8132 18.5356 21.8132 14.5067C21.8132 10.4778 18.5356 7.2002 14.5067 7.2002C10.4778 7.2002 7.2002 10.4778 7.2002 14.5067C7.2002 18.5356 10.4778 21.8132 14.5067 21.8132ZM14.5067 8.6402C17.7414 8.6402 20.3732 11.272 20.3732 14.5067C20.3732 17.7414 17.7414 20.3732 14.5067 20.3732C11.272 20.3732 8.6402 17.7414 8.6402 14.5067C8.6402 11.272 11.272 8.6402 14.5067 8.6402Z" fill="#8882EE"/>
<path d="M57.4935 7.2002C53.4646 7.2002 50.187 10.4778 50.187 14.5067C50.187 18.5356 53.4646 21.8132 57.4935 21.8132C61.5224 21.8132 64.8001 18.5356 64.8001 14.5067C64.8001 10.4778 61.5224 7.2002 57.4935 7.2002ZM57.4935 20.3732C54.2588 20.3732 51.627 17.7414 51.627 14.5067C51.627 11.272 54.2588 8.6402 57.4935 8.6402C60.7283 8.6402 63.3601 11.272 63.3601 14.5067C63.3601 17.7414 60.7283 20.3732 57.4935 20.3732Z" fill="#8882EE"/>
<path d="M14.5067 64.8001C18.5356 64.8001 21.8132 61.5224 21.8132 57.4935C21.8132 53.4646 18.5356 50.187 14.5067 50.187C10.4778 50.187 7.2002 53.4646 7.2002 57.4935C7.2002 61.5224 10.4778 64.8001 14.5067 64.8001ZM14.5067 51.627C17.7414 51.627 20.3732 54.2588 20.3732 57.4935C20.3732 60.7283 17.7414 63.3601 14.5067 63.3601C11.272 63.3601 8.6402 60.7283 8.6402 57.4935C8.6402 54.2588 11.272 51.627 14.5067 51.627Z" fill="#8882EE"/>
<path d="M57.4935 50.187C53.4646 50.187 50.187 53.4646 50.187 57.4935C50.187 61.5224 53.4646 64.8001 57.4935 64.8001C61.5224 64.8001 64.8001 61.5224 64.8001 57.4935C64.8001 53.4646 61.5224 50.187 57.4935 50.187ZM57.4935 63.3601C54.2588 63.3601 51.627 60.7283 51.627 57.4935C51.627 54.2588 54.2588 51.627 57.4935 51.627C60.7283 51.627 63.3601 54.2588 63.3601 57.4935C63.3601 60.7283 60.7283 63.3601 57.4935 63.3601Z" fill="#8882EE"/>
<path d="M51.0452 23.528L48.4721 20.9546C47.6972 20.1801 46.4654 20.1084 45.6047 20.7862L42.9916 22.8492C42.1478 22.3995 41.2647 22.0332 40.3552 21.7551L39.966 18.4511C39.8381 17.363 38.9152 16.5425 37.8197 16.5425H34.1804C33.0849 16.5425 32.1621 17.363 32.0341 18.4508L31.6449 21.7551C30.7354 22.0332 29.8523 22.3995 29.0085 22.8492L26.3954 20.7865C25.5347 20.107 24.3022 20.1794 23.528 20.9546L20.9549 23.528C20.1797 24.3032 20.1077 25.5358 20.7865 26.3954L22.8492 29.0085C22.3999 29.8519 22.0332 30.7351 21.7551 31.6449L18.4511 32.0341C17.363 32.1621 16.5425 33.0849 16.5425 34.1804V37.8197C16.5425 38.9152 17.363 39.8381 18.4508 39.966L21.7551 40.3552C22.0332 41.2647 22.3995 42.1478 22.8492 42.9916L20.7869 45.6044C20.1077 46.4643 20.1797 47.6969 20.9549 48.4721L23.528 51.0452C24.3032 51.8211 25.5369 51.8924 26.3954 51.2136L29.0085 49.151C29.8523 49.6006 30.7354 49.9669 31.6449 50.245L32.0341 53.549C32.1621 54.6371 33.0849 55.4576 34.1804 55.4576H37.8197C38.9152 55.4576 39.8381 54.6371 39.966 53.5494L40.3552 50.245C41.2647 49.9669 42.1478 49.6006 42.9916 49.151L45.6044 51.2132C46.464 51.8921 47.6969 51.8197 48.4721 51.0452L51.0452 48.4721C51.8204 47.6969 51.8924 46.4643 51.2136 45.6047L49.151 42.9916C49.6006 42.1478 49.9669 41.2647 50.245 40.3552L53.549 39.966C54.6371 39.8381 55.4576 38.9152 55.4576 37.8197V34.1804C55.4576 33.0849 54.6371 32.1621 53.5494 32.0341L50.245 31.6449C49.9669 30.7351 49.6003 29.8519 49.151 29.0085L51.2132 26.3957C51.8924 25.5358 51.8204 24.3032 51.0452 23.528ZM50.0829 25.5031L47.7236 28.4924C47.5412 28.7238 47.5179 29.0426 47.6649 29.2979C48.2443 30.3037 48.6904 31.3781 48.9899 32.4915C49.0666 32.7755 49.3088 32.9847 49.601 33.0192L53.381 33.4642C53.7438 33.5068 54.0176 33.8147 54.0176 34.1804V37.8197C54.0176 38.1854 53.7438 38.4933 53.3806 38.5359L49.601 38.981C49.3088 39.0154 49.0666 39.2246 48.9899 39.5087C48.6904 40.6217 48.2446 41.6961 47.6649 42.7022C47.5179 42.9575 47.5412 43.2763 47.7236 43.5077L50.0833 46.4974C50.3101 46.7839 50.2858 47.1952 50.0271 47.454L47.454 50.0271C47.1952 50.2851 46.7839 50.3094 46.497 50.0829L43.5077 47.7236C43.276 47.5415 42.9575 47.5183 42.7022 47.6649C41.6961 48.2446 40.6217 48.6904 39.5087 48.9899C39.2246 49.0666 39.0154 49.3088 38.981 49.601L38.5359 53.381C38.4933 53.7438 38.1854 54.0176 37.8197 54.0176H34.1804C33.8147 54.0176 33.5068 53.7438 33.4642 53.3806L33.0192 49.601C32.9847 49.3088 32.7755 49.0666 32.4915 48.9899C31.3784 48.6904 30.304 48.2446 29.2979 47.6649C29.1861 47.6006 29.0623 47.5689 28.9386 47.5689C28.78 47.5689 28.6225 47.6213 28.4924 47.7236L25.5028 50.0833C25.2162 50.3104 24.8053 50.2851 24.5462 50.0271L21.9731 47.454C21.7143 47.1952 21.6901 46.7839 21.9172 46.497L24.2765 43.5077C24.459 43.2763 24.4822 42.9575 24.3352 42.7022C23.7555 41.6961 23.3097 40.6217 23.0102 39.5087C22.9335 39.2246 22.6913 39.0154 22.3992 38.981L18.6192 38.5359C18.2563 38.4933 17.9825 38.1854 17.9825 37.8197V34.1804C17.9825 33.8147 18.2563 33.5068 18.6195 33.4642L22.3992 33.0192C22.6913 32.9847 22.9335 32.7755 23.0102 32.4915C23.3097 31.3781 23.7558 30.3037 24.3352 29.2979C24.4822 29.0426 24.459 28.7238 24.2765 28.4924L21.9168 25.5028C21.6901 25.2162 21.7143 24.8049 21.9731 24.5462L24.5462 21.9727C24.8046 21.714 25.2159 21.6897 25.5031 21.9168L28.4924 24.2765C28.7238 24.459 29.043 24.4822 29.2979 24.3352C30.304 23.7555 31.3784 23.3097 32.4915 23.0102C32.7755 22.9335 32.9847 22.6913 33.0192 22.3992L33.4642 18.6192C33.5068 18.2563 33.8147 17.9825 34.1804 17.9825H37.8197C38.1854 17.9825 38.4933 18.2563 38.5359 18.6195L38.981 22.3992C39.0154 22.6913 39.2246 22.9335 39.5087 23.0102C40.6217 23.3097 41.6961 23.7555 42.7022 24.3352C42.9571 24.4818 43.276 24.4583 43.5077 24.2765L46.497 21.9165C46.7849 21.6901 47.1952 21.714 47.454 21.9727L50.0271 24.5462C50.2858 24.8049 50.3101 25.2162 50.0829 25.5031Z" fill="#8882EE"/>
<path d="M36.0002 28.623C31.9323 28.623 28.623 31.9323 28.623 36.0002C28.623 40.0682 31.9323 43.3774 36.0002 43.3774C40.0682 43.3774 43.3774 40.0682 43.3774 36.0002C43.3774 31.9323 40.0682 28.623 36.0002 28.623ZM36.0002 41.9374C32.7265 41.9374 30.063 39.274 30.063 36.0002C30.063 32.7265 32.7265 30.063 36.0002 30.063C39.274 30.063 41.9374 32.7265 41.9374 36.0002C41.9374 39.274 39.274 41.9374 36.0002 41.9374Z" fill="#8882EE"/>
<path d="M47.3016 9.50504C43.7206 7.97574 39.9185 7.2002 36 7.2002C32.0814 7.2002 28.2793 7.97574 24.6983 9.50504C24.3323 9.66113 24.1625 10.0841 24.3189 10.4497C24.475 10.8153 24.8976 10.9851 25.2636 10.829C28.665 9.37672 32.2773 8.6402 36 8.6402C39.7227 8.6402 43.335 9.37672 46.7363 10.829C46.8284 10.8688 46.9244 10.8874 47.0186 10.8874C47.2985 10.887 47.5643 10.7232 47.681 10.4497C47.8374 10.0841 47.6676 9.66113 47.3016 9.50504Z" fill="#8882EE"/>
<path d="M10.1674 47.7395C10.2616 47.7395 10.3576 47.7206 10.4497 47.6812C10.8157 47.5251 10.9855 47.1022 10.829 46.7365C9.37672 43.3352 8.6402 39.7229 8.6402 36.0002C8.6402 32.2775 9.37672 28.6652 10.829 25.2638C10.9855 24.8982 10.8157 24.4752 10.4497 24.3191C10.0834 24.1609 9.66078 24.3329 9.50504 24.6985C7.97574 28.2795 7.2002 32.0816 7.2002 36.0002C7.2002 39.9187 7.97574 43.7208 9.50504 47.3018C9.62176 47.5754 9.88754 47.7395 10.1674 47.7395Z" fill="#8882EE"/>
<path d="M36 64.8C39.9185 64.8 43.7206 64.0245 47.3016 62.4952C47.6676 62.3391 47.8374 61.9162 47.681 61.5505C47.5252 61.1849 47.1012 61.0144 46.7363 61.1712C43.335 62.6235 39.7227 63.36 36 63.36C32.2773 63.36 28.665 62.6235 25.2636 61.1712C24.8976 61.013 24.475 61.1849 24.3189 61.5505C24.1625 61.9162 24.3323 62.3391 24.6983 62.4952C28.2793 64.0245 32.0814 64.8 36 64.8Z" fill="#8882EE"/>
<path d="M61.5503 24.319C61.1844 24.4751 61.0145 24.8981 61.171 25.2637C62.6233 28.6651 63.3598 32.2774 63.3598 36.0001C63.3598 39.7228 62.6233 43.3351 61.171 46.7364C61.0145 47.102 61.1844 47.525 61.5503 47.6811C61.6424 47.7208 61.7384 47.7394 61.8326 47.7394C62.1125 47.7394 62.3783 47.5753 62.495 47.3017C64.0243 43.7207 64.7998 39.9186 64.7998 36.0001C64.7998 32.0815 64.0243 28.2794 62.495 24.6984C62.3389 24.3328 61.9156 24.1622 61.5503 24.319Z" fill="#8882EE"/>
</svg>
