<svg width="72" height="72" viewBox="0 0 72 72" fill="none" xmlns="http://www.w3.org/2000/svg">
<path d="M64.0802 12.7971H54.5285C54.6521 9.95587 54.5341 8.06688 54.5209 7.87133C54.4952 7.49375 54.1813 7.2002 53.8027 7.2002H18.1978C17.8192 7.2002 17.5052 7.49375 17.4796 7.87133C17.4664 8.06688 17.3484 9.95587 17.472 12.7971H7.92024C7.52614 12.7971 7.20517 13.1142 7.20024 13.5083C7.19462 13.9639 7.1345 24.7396 13.264 30.9444C15.9616 33.6748 19.4499 35.0751 23.6267 35.1236C25.349 37.8799 27.4677 40.0425 30.6231 41.4895V46.7039H27.6394C25.7937 46.7039 24.2918 48.2057 24.2918 50.0514V55.5741H22.9239C22.5263 55.5741 22.2039 55.8965 22.2039 56.2941V64.0802C22.2039 64.4778 22.5263 64.8002 22.9239 64.8002H49.0766C49.4742 64.8002 49.7966 64.4778 49.7966 64.0802V56.2941C49.7966 55.8965 49.4742 55.5741 49.0766 55.5741H47.7087V50.0514C47.7087 48.2057 46.2068 46.7039 44.3611 46.7039H41.3774V41.4819C44.5285 40.0353 46.6508 37.8771 48.3717 35.1235C52.5476 35.0744 56.0353 33.6742 58.733 30.944C64.8635 24.7396 64.8055 13.9643 64.8002 13.5083C64.7953 13.1142 64.4747 12.7971 64.0802 12.7971ZM14.2923 29.9364C9.44989 25.0385 8.75485 16.71 8.65642 14.2371H17.5517C17.8605 18.8287 18.8103 25.2201 21.5011 31.091C21.9108 31.9849 22.3291 32.8378 22.7687 33.648C19.3747 33.4315 16.5236 32.1928 14.2923 29.9364ZM48.3566 63.3602H23.6439V57.0141H48.3566V63.3602ZM46.2687 50.0514V55.5741H25.7318V50.0514C25.7318 48.9996 26.5875 48.1439 27.6394 48.1439H44.3611C45.413 48.1439 46.2687 48.9996 46.2687 50.0514ZM40.3788 40.3568C40.2901 40.394 40.2112 40.4491 40.1447 40.5167C40.1147 40.5472 40.0981 40.5862 40.0743 40.6212C40.0458 40.6627 40.012 40.6999 39.9926 40.747C39.9601 40.8259 39.9452 40.9108 39.9421 40.9971C39.9419 41.0053 39.9374 41.0122 39.9374 41.0205V41.0215V41.0232V46.7039H32.0631V41.0205C32.0631 40.7315 31.8905 40.4707 31.6247 40.3578C27.2006 38.478 24.9014 35.0538 22.8103 30.4912C18.774 21.6846 18.8015 11.3416 18.8869 8.6402H53.1136C53.199 11.3416 53.2265 21.6846 49.1902 30.4912C47.0996 35.0527 44.8008 38.4763 40.3788 40.3568ZM57.7043 29.9361C55.4737 32.1918 52.6236 33.4304 49.2315 33.6478C49.6711 32.8375 50.0897 31.985 50.4994 31.091C53.1902 25.2201 54.14 18.8287 54.4488 14.2371H63.3441C63.2449 16.71 62.5481 25.0385 57.7043 29.9361Z" fill="#8882EE"/>
<path d="M35.9999 12.5215C30.0529 12.5215 25.2144 17.36 25.2144 23.3071C25.2144 29.2541 30.0529 34.0923 35.9999 34.0923C41.947 34.0923 46.7855 29.2541 46.7855 23.3071C46.7855 17.36 41.947 12.5215 35.9999 12.5215ZM30.3732 30.7509C30.453 28.3308 32.0272 26.2507 34.3585 25.5427C34.6362 25.4583 34.8363 25.2154 34.8654 24.9267C34.895 24.6381 34.7484 24.36 34.4935 24.2211C33.391 23.621 32.7062 22.4693 32.7062 21.2156C32.7062 19.3302 34.2404 17.796 36.1262 17.796C38.0116 17.796 39.5458 19.3302 39.5458 21.2156C39.5458 22.5066 38.8283 23.6741 37.673 24.2623C37.4139 24.3941 37.2596 24.6687 37.2817 24.9584C37.3035 25.248 37.4976 25.4959 37.7732 25.5873C40.0263 26.3335 41.5477 28.395 41.6268 30.7508C40.0593 31.9386 38.1138 32.6523 35.9999 32.6523C33.8862 32.6523 31.9406 31.9386 30.3732 30.7509ZM42.9299 29.5548C42.5254 27.5245 41.2633 25.7667 39.4516 24.7583C40.4194 23.8541 40.9858 22.5839 40.9858 21.2156C40.9858 18.536 38.8058 16.356 36.1262 16.356C33.4462 16.356 31.2662 18.536 31.2662 21.2156C31.2662 22.5315 31.7967 23.768 32.7051 24.668C30.8046 25.6583 29.4822 27.4526 29.0686 29.5533C27.5735 27.896 26.6544 25.7095 26.6544 23.3071C26.6544 18.1539 30.8467 13.9615 35.9999 13.9615C41.1531 13.9615 45.3455 18.1539 45.3455 23.3071C45.3455 25.7102 44.4259 27.8972 42.9299 29.5548Z" fill="#8882EE"/>
</svg>
