<svg width="72" height="72" viewBox="0 0 72 72" fill="none" xmlns="http://www.w3.org/2000/svg">
<path d="M11.5258 21.4114L15.2756 21.3826L15.2904 26.2682C15.2911 26.5453 15.4507 26.797 15.701 26.9162C15.7994 26.9633 15.9049 26.9861 16.0104 26.9861C16.1721 26.9861 16.3317 26.932 16.4625 26.8265L23.1759 21.4114H28.8002C31.1824 21.4114 33.1202 19.4736 33.1202 17.0914V11.5202C33.1202 9.13801 31.1824 7.2002 28.8002 7.2002H11.5202C9.13801 7.2002 7.2002 9.13801 7.2002 11.5202V17.0914C7.2002 19.4736 9.13801 21.4114 11.5258 21.4114ZM8.6402 11.5202C8.6402 9.93219 9.93184 8.6402 11.5202 8.6402H28.8002C30.3886 8.6402 31.6802 9.93219 31.6802 11.5202V17.0914C31.6802 18.6794 30.3886 19.9714 28.8002 19.9714H22.9214C22.7568 19.9714 22.5972 20.0277 22.4693 20.131L16.7261 24.7639L16.7135 20.6548C16.7128 20.4632 16.6361 20.2797 16.4997 20.1451C16.3647 20.0118 16.1833 19.937 15.9935 19.937C15.9914 19.937 15.99 19.937 15.9879 19.937L11.5202 19.9714C9.93184 19.9714 8.6402 18.6794 8.6402 17.0914V11.5202Z" fill="#8882EE"/>
<path d="M60.4799 7.2002H43.1999C40.8177 7.2002 38.8799 9.13801 38.8799 11.5202V17.0914C38.8799 19.4736 40.8177 21.4114 43.1999 21.4114H48.8242L55.5376 26.8265C55.6684 26.932 55.828 26.9861 55.9897 26.9861C56.0952 26.9861 56.2007 26.9633 56.2991 26.9162C56.5494 26.797 56.709 26.5453 56.7097 26.2682L56.7245 21.3826L60.4799 21.4114C62.8621 21.4114 64.7999 19.4736 64.7999 17.0914V11.5202C64.7999 9.13801 62.8621 7.2002 60.4799 7.2002ZM63.3599 17.0914C63.3599 18.6794 62.0682 19.9714 60.4855 19.9714L56.0122 19.937C55.809 19.9232 55.6368 20.0104 55.5004 20.1451C55.3639 20.2797 55.2873 20.4632 55.2866 20.6548L55.2739 24.7639L49.5308 20.131C49.4029 20.0277 49.2432 19.9714 49.0787 19.9714H43.1999C41.6115 19.9714 40.3199 18.6794 40.3199 17.0914V11.5202C40.3199 9.93219 41.6115 8.6402 43.1999 8.6402H60.4799C62.0682 8.6402 63.3599 9.93219 63.3599 11.5202V17.0914Z" fill="#8882EE"/>
<path d="M10.5615 36.0968C10.5615 39.0661 12.9775 41.4817 15.9468 41.4817C18.9161 41.4817 21.332 39.0661 21.332 36.0968C21.332 33.1275 18.9161 30.7119 15.9468 30.7119C12.9775 30.7119 10.5615 33.1275 10.5615 36.0968ZM19.892 36.0968C19.892 38.2719 18.1222 40.0417 15.9468 40.0417C13.7713 40.0417 12.0015 38.2719 12.0015 36.0968C12.0015 33.9217 13.7713 32.1519 15.9468 32.1519C18.1222 32.1519 19.892 33.9217 19.892 36.0968Z" fill="#8882EE"/>
<path d="M36 30.7119C33.0307 30.7119 30.6147 33.1275 30.6147 36.0968C30.6147 39.0661 33.0307 41.4817 36 41.4817C38.9693 41.4817 41.3852 39.0661 41.3852 36.0968C41.3852 33.1275 38.9693 30.7119 36 30.7119ZM36 40.0417C33.8245 40.0417 32.0547 38.2719 32.0547 36.0968C32.0547 33.9217 33.8245 32.1519 36 32.1519C38.1754 32.1519 39.9452 33.9217 39.9452 36.0968C39.9452 38.2719 38.1754 40.0417 36 40.0417Z" fill="#8882EE"/>
<path d="M56.0532 41.4817C59.0225 41.4817 61.4384 39.0661 61.4384 36.0968C61.4384 33.1275 59.0225 30.7119 56.0532 30.7119C53.0839 30.7119 50.668 33.1275 50.668 36.0968C50.668 39.0661 53.0839 41.4817 56.0532 41.4817ZM56.0532 32.1519C58.2287 32.1519 59.9984 33.9217 59.9984 36.0968C59.9984 38.2719 58.2287 40.0417 56.0532 40.0417C53.8777 40.0417 52.108 38.2719 52.108 36.0968C52.108 33.9217 53.8777 32.1519 56.0532 32.1519Z" fill="#8882EE"/>
<path d="M9.67871 55.937V64.0799C9.67871 64.4775 10.0007 64.7999 10.3987 64.7999H21.4483C21.8463 64.7999 22.1683 64.4775 22.1683 64.0799V55.937C23.5865 55.6097 24.6468 54.3377 24.6468 52.8232V47.3476C24.6468 45.4956 23.1386 43.9888 21.2845 43.9888H10.5618C8.7084 43.9888 7.2002 45.4956 7.2002 47.3476V52.8232C7.2002 54.3377 8.26051 55.6097 9.67871 55.937ZM8.6402 47.3476C8.6402 46.2894 9.50223 45.4288 10.5618 45.4288H21.2845C22.3448 45.4288 23.2068 46.2894 23.2068 47.3476V52.8232C23.2068 53.791 22.4179 54.5785 21.4483 54.5785C21.0504 54.5785 20.7283 54.9009 20.7283 55.2985V63.3599H11.1187V55.2985C11.1187 54.9009 10.7967 54.5785 10.3987 54.5785C9.4291 54.5785 8.6402 53.791 8.6402 52.8232V47.3476Z" fill="#8882EE"/>
<path d="M61.4385 43.9888H50.7159C48.8617 43.9888 47.3535 45.4956 47.3535 47.3476V52.8232C47.3535 54.3377 48.4138 55.6097 49.832 55.937V64.0799C49.832 64.4775 50.1541 64.7999 50.552 64.7999H61.6016C61.9996 64.7999 62.3216 64.4775 62.3216 64.0799V55.937C63.7398 55.6097 64.8002 54.3377 64.8002 52.8232V47.3476C64.8002 45.4956 63.292 43.9888 61.4385 43.9888ZM63.3602 52.8232C63.3602 53.791 62.5712 54.5785 61.6016 54.5785C61.2037 54.5785 60.8816 54.9009 60.8816 55.2985V63.3599H51.272V55.2985C51.272 54.9009 50.95 54.5785 50.552 54.5785C49.5824 54.5785 48.7935 53.791 48.7935 52.8232V47.3476C48.7935 46.2894 49.6555 45.4288 50.7159 45.4288H61.4385C62.4981 45.4288 63.3602 46.2894 63.3602 47.3476V52.8232Z" fill="#8882EE"/>
<path d="M39.4094 43.9888H32.5905C31.0282 43.9888 29.6838 45.1538 29.4672 46.6779L27.2875 59.2659C27.251 59.4751 27.3093 59.6899 27.4464 59.8523C27.5828 60.0147 27.7846 60.1086 27.997 60.1086H31.1568V64.0799C31.1568 64.4775 31.4789 64.7999 31.8768 64.7999H40.1231C40.5211 64.7999 40.8431 64.4775 40.8431 64.0799V60.1086H44.0029C44.2153 60.1086 44.4171 60.0147 44.5535 59.8523C44.6906 59.6899 44.7489 59.4751 44.7124 59.2659L42.5362 46.699C42.3161 45.1538 40.9718 43.9888 39.4094 43.9888ZM40.1231 58.6686C39.7251 58.6686 39.4031 58.991 39.4031 59.3886V63.3599H32.5968V59.3886C32.5968 58.991 32.2748 58.6686 31.8768 58.6686H28.8527L30.8896 46.9022C31.0092 46.0623 31.7404 45.4288 32.5905 45.4288H39.4094C40.2595 45.4288 40.9907 46.0623 41.1138 46.9233L43.1472 58.6686H40.1231Z" fill="#8882EE"/>
</svg>
