<svg width="72" height="72" viewBox="0 0 72 72" fill="none" xmlns="http://www.w3.org/2000/svg">
<path d="M40.301 38.6775L39.9955 44.195C39.9822 44.4389 40.0933 44.6734 40.2912 44.8172C40.4891 44.9614 40.7472 44.9937 40.9746 44.9062L46.1275 42.9104L51.2803 44.9062C51.3647 44.9385 51.4526 44.9547 51.5405 44.9547C51.6902 44.9547 51.839 44.9079 51.9638 44.8172C52.1617 44.6734 52.2728 44.4389 52.2594 44.195L51.9539 38.6775L55.4442 34.3934C55.5986 34.2036 55.6464 33.9487 55.5708 33.7159C55.4952 33.4836 55.3068 33.305 55.0702 33.2424L49.7285 31.828L46.7325 27.185C46.4674 26.7736 45.7875 26.7736 45.5224 27.185L42.5264 31.828L37.1848 33.2424C36.9482 33.305 36.7597 33.4836 36.6842 33.7159C36.6086 33.9487 36.6564 34.2036 36.8107 34.3934L40.301 38.6775ZM43.1645 33.1489C43.3378 33.1028 43.4879 32.9938 43.5853 32.843L46.1275 28.903L48.6696 32.843C48.767 32.9938 48.9171 33.1028 49.0904 33.1489L53.6228 34.3488L50.6612 37.9839C50.548 38.1231 50.4907 38.2996 50.5006 38.4786L50.76 43.1603L46.3876 41.4668C46.304 41.4345 46.2157 41.4183 46.1275 41.4183C46.0392 41.4183 45.951 41.4345 45.8673 41.4668L41.4949 43.1603L41.7544 38.4786C41.7642 38.2996 41.7069 38.1231 41.5937 37.9839L38.6322 34.3488L43.1645 33.1489Z" fill="#8882EE"/>
<path d="M64.0802 21.2761H47.7835V7.9202C47.7835 7.52258 47.4611 7.2002 47.0635 7.2002H7.9202C7.52258 7.2002 7.2002 7.52258 7.2002 7.9202V60.1202C7.2002 60.5178 7.52258 60.8402 7.9202 60.8402H27.4551V64.0802C27.4551 64.4778 27.7775 64.8002 28.1751 64.8002H64.0802C64.4778 64.8002 64.8002 64.4778 64.8002 64.0802V21.9961C64.8002 21.5984 64.4778 21.2761 64.0802 21.2761ZM45.8534 8.6402L42.5452 14.7356H12.4385L9.13023 8.6402H45.8534ZM8.6402 59.4002V10.7562L11.3771 15.7991C11.503 16.0311 11.7459 16.1756 12.0099 16.1756H42.9738C43.2378 16.1756 43.4807 16.0311 43.6066 15.7991L46.3435 10.7561V21.2761H28.1751C27.7775 21.2761 27.4551 21.5984 27.4551 21.9961V59.4002H8.6402ZM63.3602 63.3602H28.8951V22.7161H63.3602V63.3602Z" fill="#8882EE"/>
<path d="M34.8343 50.0645H42.177C42.5746 50.0645 42.897 49.7421 42.897 49.3445C42.897 48.9469 42.5746 48.6245 42.177 48.6245H34.8343C34.4366 48.6245 34.1143 48.9469 34.1143 49.3445C34.1143 49.7421 34.4366 50.0645 34.8343 50.0645Z" fill="#8882EE"/>
<path d="M49.3579 49.3445C49.3579 49.7421 49.6803 50.0645 50.0779 50.0645H57.4206C57.8183 50.0645 58.1406 49.7421 58.1406 49.3445C58.1406 48.9469 57.8183 48.6245 57.4206 48.6245H50.0779C49.6803 48.6245 49.3579 48.9469 49.3579 49.3445Z" fill="#8882EE"/>
<path d="M34.8343 56.3712H42.177C42.5746 56.3712 42.897 56.0488 42.897 55.6512C42.897 55.2535 42.5746 54.9312 42.177 54.9312H34.8343C34.4366 54.9312 34.1143 55.2535 34.1143 55.6512C34.1143 56.0488 34.4366 56.3712 34.8343 56.3712Z" fill="#8882EE"/>
<path d="M57.4206 54.9312H50.0779C49.6803 54.9312 49.3579 55.2535 49.3579 55.6512C49.3579 56.0488 49.6803 56.3712 50.0779 56.3712H57.4206C57.8183 56.3712 58.1406 56.0488 58.1406 55.6512C58.1406 55.2535 57.8183 54.9312 57.4206 54.9312Z" fill="#8882EE"/>
</svg>
