<svg width="72" height="72" viewBox="0 0 72 72" fill="none" xmlns="http://www.w3.org/2000/svg">
<path d="M14.5067 21.8132C18.5356 21.8132 21.8132 18.5356 21.8132 14.5067C21.8132 10.4778 18.5356 7.2002 14.5067 7.2002C10.4778 7.2002 7.2002 10.4778 7.2002 14.5067C7.2002 18.5356 10.4778 21.8132 14.5067 21.8132ZM14.5067 8.6402C17.7414 8.6402 20.3732 11.272 20.3732 14.5067C20.3732 17.7414 17.7414 20.3732 14.5067 20.3732C11.272 20.3732 8.6402 17.7414 8.6402 14.5067C8.6402 11.272 11.272 8.6402 14.5067 8.6402Z" fill="#2CFFA5"/>
<path d="M57.493 7.2002C53.4641 7.2002 50.1865 10.4778 50.1865 14.5067C50.1865 18.5356 53.4641 21.8132 57.493 21.8132C61.522 21.8132 64.7996 18.5356 64.7996 14.5067C64.7996 10.4778 61.522 7.2002 57.493 7.2002ZM57.493 20.3732C54.2583 20.3732 51.6265 17.7414 51.6265 14.5067C51.6265 11.272 54.2583 8.6402 57.493 8.6402C60.7278 8.6402 63.3596 11.272 63.3596 14.5067C63.3596 17.7414 60.7278 20.3732 57.493 20.3732Z" fill="#2CFFA5"/>
<path d="M14.5067 64.8001C18.5356 64.8001 21.8132 61.5224 21.8132 57.4935C21.8132 53.4646 18.5356 50.187 14.5067 50.187C10.4778 50.187 7.2002 53.4646 7.2002 57.4935C7.2002 61.5224 10.4778 64.8001 14.5067 64.8001ZM14.5067 51.627C17.7414 51.627 20.3732 54.2588 20.3732 57.4935C20.3732 60.7283 17.7414 63.3601 14.5067 63.3601C11.272 63.3601 8.6402 60.7283 8.6402 57.4935C8.6402 54.2588 11.272 51.627 14.5067 51.627Z" fill="#2CFFA5"/>
<path d="M57.493 50.187C53.4641 50.187 50.1865 53.4646 50.1865 57.4935C50.1865 61.5224 53.4641 64.8001 57.493 64.8001C61.522 64.8001 64.7996 61.5224 64.7996 57.4935C64.7996 53.4646 61.522 50.187 57.493 50.187ZM57.493 63.3601C54.2583 63.3601 51.6265 60.7283 51.6265 57.4935C51.6265 54.2588 54.2583 51.627 57.493 51.627C60.7278 51.627 63.3596 54.2588 63.3596 57.4935C63.3596 60.7283 60.7278 63.3601 57.493 63.3601Z" fill="#2CFFA5"/>
<path d="M51.0447 23.528L48.4716 20.9546C47.6968 20.1801 46.4649 20.1084 45.6043 20.7862L42.9911 22.8492C42.1473 22.3995 41.2642 22.0332 40.3547 21.7551L39.9655 18.4511C39.8376 17.363 38.9147 16.5425 37.8193 16.5425H34.1799C33.0844 16.5425 32.1616 17.363 32.0336 18.4508L31.6444 21.7551C30.7349 22.0332 29.8518 22.3995 29.008 22.8492L26.3949 20.7865C25.5343 20.107 24.3017 20.1794 23.5275 20.9546L20.9545 23.528C20.1793 24.3032 20.1072 25.5358 20.7861 26.3954L22.8487 29.0085C22.3994 29.8519 22.0327 30.7351 21.7546 31.6449L18.4506 32.0341C17.3625 32.1621 16.542 33.0849 16.542 34.1804V37.8197C16.542 38.9152 17.3625 39.8381 18.4503 39.966L21.7546 40.3552C22.0327 41.2647 22.399 42.1478 22.8487 42.9916L20.7864 45.6044C20.1072 46.4643 20.1793 47.6969 20.9545 48.4721L23.5275 51.0452C24.3027 51.8211 25.5364 51.8924 26.3949 51.2136L29.008 49.151C29.8518 49.6006 30.7349 49.9669 31.6444 50.245L32.0336 53.549C32.1616 54.6371 33.0844 55.4576 34.1799 55.4576H37.8193C38.9147 55.4576 39.8376 54.6371 39.9655 53.5494L40.3547 50.245C41.2642 49.9669 42.1473 49.6006 42.9911 49.151L45.6039 51.2132C46.4635 51.8921 47.6964 51.8197 48.4716 51.0452L51.0447 48.4721C51.8199 47.6969 51.892 46.4643 51.2131 45.6047L49.1505 42.9916C49.6001 42.1478 49.9664 41.2647 50.2445 40.3552L53.5485 39.966C54.6366 39.8381 55.4571 38.9152 55.4571 37.8197V34.1804C55.4571 33.0849 54.6366 32.1621 53.5489 32.0341L50.2445 31.6449C49.9664 30.7351 49.5998 29.8519 49.1505 29.0085L51.2127 26.3957C51.892 25.5358 51.8199 24.3032 51.0447 23.528ZM50.0825 25.5031L47.7231 28.4924C47.5407 28.7238 47.5175 29.0426 47.6644 29.2979C48.2438 30.3037 48.6899 31.3781 48.9895 32.4915C49.0661 32.7755 49.3083 32.9847 49.6005 33.0192L53.3805 33.4642C53.7433 33.5068 54.0171 33.8147 54.0171 34.1804V37.8197C54.0171 38.1854 53.7433 38.4933 53.3801 38.5359L49.6005 38.981C49.3083 39.0154 49.0661 39.2246 48.9895 39.5087C48.6899 40.6217 48.2441 41.6961 47.6644 42.7022C47.5175 42.9575 47.5407 43.2763 47.7231 43.5077L50.0828 46.4974C50.3096 46.7839 50.2853 47.1952 50.0266 47.454L47.4535 50.0271C47.1947 50.2851 46.7834 50.3094 46.4965 50.0829L43.5072 47.7236C43.2755 47.5415 42.957 47.5183 42.7018 47.6649C41.6956 48.2446 40.6212 48.6904 39.5082 48.9899C39.2241 49.0666 39.0149 49.3088 38.9805 49.601L38.5354 53.381C38.4929 53.7438 38.1849 54.0176 37.8193 54.0176H34.1799C33.8143 54.0176 33.5063 53.7438 33.4637 53.3806L33.0187 49.601C32.9842 49.3088 32.775 49.0666 32.491 48.9899C31.3779 48.6904 30.3036 48.2446 29.2974 47.6649C29.1856 47.6006 29.0618 47.5689 28.9381 47.5689C28.7795 47.5689 28.622 47.6213 28.492 47.7236L25.5023 50.0833C25.2157 50.3104 24.8048 50.2851 24.5457 50.0271L21.9726 47.454C21.7138 47.1952 21.6896 46.7839 21.9167 46.497L24.276 43.5077C24.4585 43.2763 24.4817 42.9575 24.3347 42.7022C23.755 41.6961 23.3092 40.6217 23.0097 39.5087C22.933 39.2246 22.6908 39.0154 22.3987 38.981L18.6187 38.5359C18.2559 38.4933 17.982 38.1854 17.982 37.8197V34.1804C17.982 33.8147 18.2559 33.5068 18.619 33.4642L22.3987 33.0192C22.6908 32.9847 22.933 32.7755 23.0097 32.4915C23.3092 31.3781 23.7554 30.3037 24.3347 29.2979C24.4817 29.0426 24.4585 28.7238 24.276 28.4924L21.9163 25.5028C21.6896 25.2162 21.7138 24.8049 21.9726 24.5462L24.5457 21.9727C24.8041 21.714 25.2154 21.6897 25.5026 21.9168L28.492 24.2765C28.7233 24.459 29.0425 24.4822 29.2974 24.3352C30.3036 23.7555 31.3779 23.3097 32.491 23.0102C32.775 22.9335 32.9842 22.6913 33.0187 22.3992L33.4637 18.6192C33.5063 18.2563 33.8143 17.9825 34.1799 17.9825H37.8193C38.1849 17.9825 38.4929 18.2563 38.5354 18.6195L38.9805 22.3992C39.0149 22.6913 39.2241 22.9335 39.5082 23.0102C40.6212 23.3097 41.6956 23.7555 42.7018 24.3352C42.9566 24.4818 43.2755 24.4583 43.5072 24.2765L46.4965 21.9165C46.7845 21.6901 47.1947 21.714 47.4535 21.9727L50.0266 24.5462C50.2853 24.8049 50.3096 25.2162 50.0825 25.5031Z" fill="#2CFFA5"/>
<path d="M36.0002 28.623C31.9323 28.623 28.623 31.9323 28.623 36.0002C28.623 40.0682 31.9323 43.3774 36.0002 43.3774C40.0682 43.3774 43.3774 40.0682 43.3774 36.0002C43.3774 31.9323 40.0682 28.623 36.0002 28.623ZM36.0002 41.9374C32.7265 41.9374 30.063 39.274 30.063 36.0002C30.063 32.7265 32.7265 30.063 36.0002 30.063C39.274 30.063 41.9374 32.7265 41.9374 36.0002C41.9374 39.274 39.274 41.9374 36.0002 41.9374Z" fill="#2CFFA5"/>
<path d="M47.3016 9.50504C43.7206 7.97574 39.9185 7.2002 36 7.2002C32.0814 7.2002 28.2793 7.97574 24.6983 9.50504C24.3323 9.66113 24.1625 10.0841 24.3189 10.4497C24.475 10.8153 24.8976 10.9851 25.2636 10.829C28.665 9.37672 32.2773 8.6402 36 8.6402C39.7227 8.6402 43.335 9.37672 46.7363 10.829C46.8284 10.8688 46.9244 10.8874 47.0186 10.8874C47.2985 10.887 47.5643 10.7232 47.681 10.4497C47.8374 10.0841 47.6676 9.66113 47.3016 9.50504Z" fill="#2CFFA5"/>
<path d="M10.1674 47.7395C10.2616 47.7395 10.3576 47.7206 10.4497 47.6812C10.8157 47.5251 10.9855 47.1022 10.829 46.7365C9.37672 43.3352 8.6402 39.7229 8.6402 36.0002C8.6402 32.2775 9.37672 28.6652 10.829 25.2638C10.9855 24.8982 10.8157 24.4752 10.4497 24.3191C10.0834 24.1609 9.66078 24.3329 9.50504 24.6985C7.97574 28.2795 7.2002 32.0816 7.2002 36.0002C7.2002 39.9187 7.97574 43.7208 9.50504 47.3018C9.62176 47.5754 9.88754 47.7395 10.1674 47.7395Z" fill="#2CFFA5"/>
<path d="M36 64.8C39.9185 64.8 43.7206 64.0245 47.3016 62.4952C47.6676 62.3391 47.8374 61.9162 47.681 61.5505C47.5252 61.1849 47.1012 61.0144 46.7363 61.1712C43.335 62.6235 39.7227 63.36 36 63.36C32.2773 63.36 28.665 62.6235 25.2636 61.1712C24.8976 61.013 24.475 61.1849 24.3189 61.5505C24.1625 61.9162 24.3323 62.3391 24.6983 62.4952C28.2793 64.0245 32.0814 64.8 36 64.8Z" fill="#2CFFA5"/>
<path d="M61.5508 24.319C61.1848 24.4751 61.015 24.8981 61.1715 25.2637C62.6238 28.6651 63.3603 32.2774 63.3603 36.0001C63.3603 39.7228 62.6238 43.3351 61.1715 46.7364C61.015 47.102 61.1848 47.525 61.5508 47.6811C61.6429 47.7208 61.7389 47.7394 61.8331 47.7394C62.113 47.7394 62.3787 47.5753 62.4955 47.3017C64.0248 43.7207 64.8003 39.9186 64.8003 36.0001C64.8003 32.0815 64.0248 28.2794 62.4955 24.6984C62.3394 24.3328 61.9161 24.1622 61.5508 24.319Z" fill="#2CFFA5"/>
</svg>
