<svg width="72" height="72" viewBox="0 0 72 72" fill="none" xmlns="http://www.w3.org/2000/svg">
<path d="M40.3005 38.6775L39.995 44.195C39.9817 44.4389 40.0928 44.6734 40.2907 44.8172C40.4886 44.9614 40.7467 44.9937 40.9741 44.9062L46.127 42.9104L51.2798 44.9062C51.3642 44.9385 51.4521 44.9547 51.54 44.9547C51.6898 44.9547 51.8385 44.9079 51.9633 44.8172C52.1612 44.6734 52.2723 44.4389 52.2589 44.195L51.9534 38.6775L55.4437 34.3934C55.5981 34.2036 55.6459 33.9487 55.5703 33.7159C55.4947 33.4836 55.3063 33.305 55.0697 33.2424L49.728 31.828L46.732 27.185C46.4669 26.7736 45.787 26.7736 45.5219 27.185L42.5259 31.828L37.1843 33.2424C36.9477 33.305 36.7592 33.4836 36.6837 33.7159C36.6081 33.9487 36.6559 34.2036 36.8102 34.3934L40.3005 38.6775ZM43.164 33.1489C43.3373 33.1028 43.4875 32.9938 43.5848 32.843L46.127 28.903L48.6691 32.843C48.7665 32.9938 48.9166 33.1028 49.0899 33.1489L53.6223 34.3488L50.6607 37.9839C50.5475 38.1231 50.4902 38.2996 50.5001 38.4786L50.7595 43.1603L46.3871 41.4668C46.3035 41.4345 46.2152 41.4183 46.127 41.4183C46.0387 41.4183 45.9505 41.4345 45.8668 41.4668L41.4944 43.1603L41.7539 38.4786C41.7637 38.2996 41.7064 38.1231 41.5932 37.9839L38.6317 34.3488L43.164 33.1489Z" fill="#2CFFA5"/>
<path d="M64.0802 21.2761H47.7835V7.9202C47.7835 7.52258 47.4611 7.2002 47.0635 7.2002H7.9202C7.52258 7.2002 7.2002 7.52258 7.2002 7.9202V60.1202C7.2002 60.5178 7.52258 60.8402 7.9202 60.8402H27.4551V64.0802C27.4551 64.4778 27.7775 64.8002 28.1751 64.8002H64.0802C64.4778 64.8002 64.8002 64.4778 64.8002 64.0802V21.9961C64.8002 21.5984 64.4778 21.2761 64.0802 21.2761ZM45.8534 8.6402L42.5452 14.7356H12.4385L9.13023 8.6402H45.8534ZM8.6402 59.4002V10.7562L11.3771 15.7991C11.503 16.0311 11.7459 16.1756 12.0099 16.1756H42.9738C43.2378 16.1756 43.4807 16.0311 43.6066 15.7991L46.3435 10.7561V21.2761H28.1751C27.7775 21.2761 27.4551 21.5984 27.4551 21.9961V59.4002H8.6402ZM63.3602 63.3602H28.8951V22.7161H63.3602V63.3602Z" fill="#2CFFA5"/>
<path d="M34.8343 50.0645H42.177C42.5746 50.0645 42.897 49.7421 42.897 49.3445C42.897 48.9469 42.5746 48.6245 42.177 48.6245H34.8343C34.4366 48.6245 34.1143 48.9469 34.1143 49.3445C34.1143 49.7421 34.4366 50.0645 34.8343 50.0645Z" fill="#2CFFA5"/>
<path d="M49.3584 49.3445C49.3584 49.7421 49.6808 50.0645 50.0784 50.0645H57.4211C57.8188 50.0645 58.1411 49.7421 58.1411 49.3445C58.1411 48.9469 57.8188 48.6245 57.4211 48.6245H50.0784C49.6808 48.6245 49.3584 48.9469 49.3584 49.3445Z" fill="#2CFFA5"/>
<path d="M34.8343 56.3712H42.177C42.5746 56.3712 42.897 56.0488 42.897 55.6512C42.897 55.2535 42.5746 54.9312 42.177 54.9312H34.8343C34.4366 54.9312 34.1143 55.2535 34.1143 55.6512C34.1143 56.0488 34.4366 56.3712 34.8343 56.3712Z" fill="#2CFFA5"/>
<path d="M57.4211 54.9312H50.0784C49.6808 54.9312 49.3584 55.2535 49.3584 55.6512C49.3584 56.0488 49.6808 56.3712 50.0784 56.3712H57.4211C57.8188 56.3712 58.1411 56.0488 58.1411 55.6512C58.1411 55.2535 57.8188 54.9312 57.4211 54.9312Z" fill="#2CFFA5"/>
</svg>
