<svg width="72" height="72" viewBox="0 0 72 72" fill="none" xmlns="http://www.w3.org/2000/svg">
<path d="M11.7512 53.7752C9.24172 53.7752 7.2002 55.8167 7.2002 58.3262C7.2002 60.8356 9.24172 62.8771 11.7512 62.8771H13.7916V64.0802C13.7916 64.4778 14.114 64.8002 14.5116 64.8002H64.0802C64.4778 64.8002 64.8002 64.4778 64.8002 64.0802V7.9202C64.8002 7.52258 64.4778 7.2002 64.0802 7.2002H14.5116C14.114 7.2002 13.7916 7.52258 13.7916 7.9202V10.5632H11.7512C9.24172 10.5632 7.2002 12.6048 7.2002 15.1142C7.2002 17.6237 9.24172 19.6652 11.7512 19.6652H13.7916V24.9675H11.7512C9.24172 24.9675 7.2002 27.009 7.2002 29.5181C7.2002 32.0275 9.24172 34.0691 11.7512 34.0691H13.7916V39.3713H11.7512C9.24172 39.3713 7.2002 41.4128 7.2002 43.9223C7.2002 46.4314 9.24172 48.4729 11.7512 48.4729H13.7916V53.7752H11.7512ZM11.7512 61.4371C10.0359 61.4371 8.6402 60.0414 8.6402 58.3262C8.6402 56.6109 10.0359 55.2152 11.7512 55.2152H13.7916V61.4371H11.7512ZM11.7512 18.2252C10.0359 18.2252 8.6402 16.8295 8.6402 15.1142C8.6402 13.3989 10.0359 12.0032 11.7512 12.0032H13.7916V18.2252H11.7512ZM11.7512 32.6291C10.0359 32.6291 8.6402 31.2334 8.6402 29.5181C8.6402 27.8028 10.0359 26.4075 11.7512 26.4075H13.7916V32.6291H11.7512ZM11.7512 47.0329C10.0359 47.0329 8.6402 45.6376 8.6402 43.9223C8.6402 42.207 10.0359 40.8113 11.7512 40.8113H13.7916V47.0329H11.7512ZM15.2316 40.8113H18.8362C19.2338 40.8113 19.5562 40.4889 19.5562 40.0913C19.5562 39.6937 19.2338 39.3713 18.8362 39.3713H15.2316V26.4075H18.8362C19.2338 26.4075 19.5562 26.0851 19.5562 25.6875C19.5562 25.2898 19.2338 24.9675 18.8362 24.9675H15.2316V12.0032H18.8362C19.2338 12.0032 19.5562 11.6809 19.5562 11.2832C19.5562 10.8856 19.2338 10.5632 18.8362 10.5632H15.2316V8.6402H63.3602V63.3602H15.2316V55.2152H18.8362C19.2338 55.2152 19.5562 54.8928 19.5562 54.4952C19.5562 54.0976 19.2338 53.7752 18.8362 53.7752H15.2316V40.8113Z" fill="#2CFFA5"/>
<path d="M40.4622 51.3757C48.9404 51.3757 55.8377 44.4784 55.8377 36.0001C55.8377 27.5218 48.9404 20.6245 40.4622 20.6245C31.9842 20.6245 25.0869 27.5218 25.0869 36.0001C25.0869 44.4784 31.9842 51.3757 40.4622 51.3757ZM26.5634 36.7201H34.3782C34.4785 43.0505 35.8679 47.4348 37.6427 49.6483C31.5352 48.3882 26.8926 43.115 26.5634 36.7201ZM40.4622 22.1151C42.5995 22.1151 44.9668 27.489 45.1069 35.2801H35.8174C35.9575 27.489 38.3248 22.1151 40.4622 22.1151ZM45.1069 36.7201C44.9668 44.5112 42.5995 49.8851 40.4622 49.8851C38.3248 49.8851 35.9575 44.5112 35.8174 36.7201H45.1069ZM43.2815 49.6483C45.0564 47.4349 46.4458 43.0505 46.5461 36.7201H54.3613C54.0321 43.115 49.3893 48.3883 43.2815 49.6483ZM54.3613 35.2801H46.5461C46.4458 28.9497 45.0564 24.5653 43.2815 22.3519C49.3893 23.6119 54.0321 28.8852 54.3613 35.2801ZM37.6427 22.3519C35.8679 24.5654 34.4785 28.9497 34.3782 35.2801H26.5634C26.8926 28.8852 31.5352 23.612 37.6427 22.3519Z" fill="#2CFFA5"/>
</svg>
