<svg width="72" height="72" viewBox="0 0 72 72" fill="none" xmlns="http://www.w3.org/2000/svg">
<path d="M11.5248 21.4114L15.2746 21.3826L15.2894 26.2682C15.2901 26.5453 15.4497 26.797 15.7 26.9162C15.7984 26.9633 15.9039 26.9861 16.0094 26.9861C16.1711 26.9861 16.3307 26.932 16.4615 26.8265L23.1749 21.4114H28.7992C31.1814 21.4114 33.1192 19.4736 33.1192 17.0914V11.5202C33.1192 9.13801 31.1814 7.2002 28.7992 7.2002H11.5192C9.13703 7.2002 7.19922 9.13801 7.19922 11.5202V17.0914C7.19922 19.4736 9.13703 21.4114 11.5248 21.4114ZM8.63922 11.5202C8.63922 9.93219 9.93086 8.6402 11.5192 8.6402H28.7992C30.3876 8.6402 31.6792 9.93219 31.6792 11.5202V17.0914C31.6792 18.6794 30.3876 19.9714 28.7992 19.9714H22.9204C22.7559 19.9714 22.5963 20.0277 22.4683 20.131L16.7252 24.7639L16.7125 20.6548C16.7118 20.4632 16.6352 20.2797 16.4988 20.1451C16.3638 20.0118 16.1823 19.937 15.9925 19.937C15.9904 19.937 15.989 19.937 15.9869 19.937L11.5192 19.9714C9.93086 19.9714 8.63922 18.6794 8.63922 17.0914V11.5202Z" fill="black"/>
<path d="M60.4809 7.2002H43.2009C40.8187 7.2002 38.8809 9.13801 38.8809 11.5202V17.0914C38.8809 19.4736 40.8187 21.4114 43.2009 21.4114H48.8252L55.5386 26.8265C55.6694 26.932 55.829 26.9861 55.9907 26.9861C56.0962 26.9861 56.2016 26.9633 56.3001 26.9162C56.5504 26.797 56.71 26.5453 56.7107 26.2682L56.7255 21.3826L60.4809 21.4114C62.863 21.4114 64.8009 19.4736 64.8009 17.0914V11.5202C64.8009 9.13801 62.863 7.2002 60.4809 7.2002ZM63.3609 17.0914C63.3609 18.6794 62.0692 19.9714 60.4865 19.9714L56.0132 19.937C55.81 19.9232 55.6377 20.0104 55.5013 20.1451C55.3649 20.2797 55.2883 20.4632 55.2876 20.6548L55.2749 24.7639L49.5318 20.131C49.4038 20.0277 49.2442 19.9714 49.0797 19.9714H43.2009C41.6125 19.9714 40.3209 18.6794 40.3209 17.0914V11.5202C40.3209 9.93219 41.6125 8.6402 43.2009 8.6402H60.4809C62.0692 8.6402 63.3609 9.93219 63.3609 11.5202V17.0914Z" fill="black"/>
<path d="M10.5625 36.0968C10.5625 39.0661 12.9784 41.4817 15.9477 41.4817C18.917 41.4817 21.333 39.0661 21.333 36.0968C21.333 33.1275 18.917 30.7119 15.9477 30.7119C12.9784 30.7119 10.5625 33.1275 10.5625 36.0968ZM19.893 36.0968C19.893 38.2719 18.1232 40.0417 15.9477 40.0417C13.7723 40.0417 12.0025 38.2719 12.0025 36.0968C12.0025 33.9217 13.7723 32.1519 15.9477 32.1519C18.1232 32.1519 19.893 33.9217 19.893 36.0968Z" fill="black"/>
<path d="M36.0005 30.7119C33.0312 30.7119 30.6152 33.1275 30.6152 36.0968C30.6152 39.0661 33.0312 41.4817 36.0005 41.4817C38.9698 41.4817 41.3857 39.0661 41.3857 36.0968C41.3857 33.1275 38.9698 30.7119 36.0005 30.7119ZM36.0005 40.0417C33.825 40.0417 32.0552 38.2719 32.0552 36.0968C32.0552 33.9217 33.825 32.1519 36.0005 32.1519C38.1759 32.1519 39.9457 33.9217 39.9457 36.0968C39.9457 38.2719 38.1759 40.0417 36.0005 40.0417Z" fill="black"/>
<path d="M56.0532 41.4817C59.0225 41.4817 61.4384 39.0661 61.4384 36.0968C61.4384 33.1275 59.0225 30.7119 56.0532 30.7119C53.0839 30.7119 50.668 33.1275 50.668 36.0968C50.668 39.0661 53.0839 41.4817 56.0532 41.4817ZM56.0532 32.1519C58.2287 32.1519 59.9984 33.9217 59.9984 36.0968C59.9984 38.2719 58.2287 40.0417 56.0532 40.0417C53.8777 40.0417 52.108 38.2719 52.108 36.0968C52.108 33.9217 53.8777 32.1519 56.0532 32.1519Z" fill="black"/>
<path d="M9.67773 55.937V64.0799C9.67773 64.4775 9.99977 64.7999 10.3977 64.7999H21.4473C21.8453 64.7999 22.1673 64.4775 22.1673 64.0799V55.937C23.5855 55.6097 24.6459 54.3377 24.6459 52.8232V47.3476C24.6459 45.4956 23.1377 43.9888 21.2835 43.9888H10.5609C8.70742 43.9888 7.19922 45.4956 7.19922 47.3476V52.8232C7.19922 54.3377 8.25953 55.6097 9.67773 55.937ZM8.63922 47.3476C8.63922 46.2894 9.50125 45.4288 10.5609 45.4288H21.2835C22.3438 45.4288 23.2059 46.2894 23.2059 47.3476V52.8232C23.2059 53.791 22.417 54.5785 21.4473 54.5785C21.0494 54.5785 20.7273 54.9009 20.7273 55.2985V63.3599H11.1177V55.2985C11.1177 54.9009 10.7957 54.5785 10.3977 54.5785C9.42812 54.5785 8.63922 53.791 8.63922 52.8232V47.3476Z" fill="black"/>
<path d="M61.4385 43.9888H50.7159C48.8617 43.9888 47.3535 45.4956 47.3535 47.3476V52.8232C47.3535 54.3377 48.4138 55.6097 49.832 55.937V64.0799C49.832 64.4775 50.1541 64.7999 50.552 64.7999H61.6016C61.9996 64.7999 62.3216 64.4775 62.3216 64.0799V55.937C63.7398 55.6097 64.8002 54.3377 64.8002 52.8232V47.3476C64.8002 45.4956 63.292 43.9888 61.4385 43.9888ZM63.3602 52.8232C63.3602 53.791 62.5712 54.5785 61.6016 54.5785C61.2037 54.5785 60.8816 54.9009 60.8816 55.2985V63.3599H51.272V55.2985C51.272 54.9009 50.95 54.5785 50.552 54.5785C49.5824 54.5785 48.7935 53.791 48.7935 52.8232V47.3476C48.7935 46.2894 49.6555 45.4288 50.7159 45.4288H61.4385C62.4981 45.4288 63.3602 46.2894 63.3602 47.3476V52.8232Z" fill="black"/>
<path d="M39.4099 43.9888H32.591C31.0286 43.9888 29.6843 45.1538 29.4677 46.6779L27.288 59.2659C27.2515 59.4751 27.3098 59.6899 27.4469 59.8523C27.5833 60.0147 27.7851 60.1086 27.9975 60.1086H31.1573V64.0799C31.1573 64.4775 31.4794 64.7999 31.8773 64.7999H40.1236C40.5215 64.7999 40.8436 64.4775 40.8436 64.0799V60.1086H44.0034C44.2158 60.1086 44.4176 60.0147 44.554 59.8523C44.6911 59.6899 44.7494 59.4751 44.7129 59.2659L42.5367 46.699C42.3166 45.1538 40.9722 43.9888 39.4099 43.9888ZM40.1236 58.6686C39.7256 58.6686 39.4036 58.991 39.4036 59.3886V63.3599H32.5973V59.3886C32.5973 58.991 32.2753 58.6686 31.8773 58.6686H28.8532L30.8901 46.9022C31.0097 46.0623 31.7409 45.4288 32.591 45.4288H39.4099C40.26 45.4288 40.9912 46.0623 41.1143 46.9233L43.1477 58.6686H40.1236Z" fill="black"/>
</svg>
