<svg width="72" height="72" viewBox="0 0 72 72" fill="none" xmlns="http://www.w3.org/2000/svg">
<path d="M14.5057 21.8132C18.5346 21.8132 21.8123 18.5356 21.8123 14.5067C21.8123 10.4778 18.5346 7.2002 14.5057 7.2002C10.4768 7.2002 7.19922 10.4778 7.19922 14.5067C7.19922 18.5356 10.4768 21.8132 14.5057 21.8132ZM14.5057 8.6402C17.7405 8.6402 20.3723 11.272 20.3723 14.5067C20.3723 17.7414 17.7405 20.3732 14.5057 20.3732C11.271 20.3732 8.63922 17.7414 8.63922 14.5067C8.63922 11.272 11.271 8.6402 14.5057 8.6402Z" fill="black"/>
<path d="M57.494 7.2002C53.4651 7.2002 50.1875 10.4778 50.1875 14.5067C50.1875 18.5356 53.4651 21.8132 57.494 21.8132C61.5229 21.8132 64.8005 18.5356 64.8005 14.5067C64.8005 10.4778 61.5229 7.2002 57.494 7.2002ZM57.494 20.3732C54.2593 20.3732 51.6275 17.7414 51.6275 14.5067C51.6275 11.272 54.2593 8.6402 57.494 8.6402C60.7287 8.6402 63.3605 11.272 63.3605 14.5067C63.3605 17.7414 60.7287 20.3732 57.494 20.3732Z" fill="black"/>
<path d="M14.5057 64.8001C18.5346 64.8001 21.8123 61.5224 21.8123 57.4935C21.8123 53.4646 18.5346 50.187 14.5057 50.187C10.4768 50.187 7.19922 53.4646 7.19922 57.4935C7.19922 61.5224 10.4768 64.8001 14.5057 64.8001ZM14.5057 51.627C17.7405 51.627 20.3723 54.2588 20.3723 57.4935C20.3723 60.7283 17.7405 63.3601 14.5057 63.3601C11.271 63.3601 8.63922 60.7283 8.63922 57.4935C8.63922 54.2588 11.271 51.627 14.5057 51.627Z" fill="black"/>
<path d="M57.494 50.187C53.4651 50.187 50.1875 53.4646 50.1875 57.4935C50.1875 61.5224 53.4651 64.8001 57.494 64.8001C61.5229 64.8001 64.8005 61.5224 64.8005 57.4935C64.8005 53.4646 61.5229 50.187 57.494 50.187ZM57.494 63.3601C54.2593 63.3601 51.6275 60.7283 51.6275 57.4935C51.6275 54.2588 54.2593 51.627 57.494 51.627C60.7287 51.627 63.3605 54.2588 63.3605 57.4935C63.3605 60.7283 60.7287 63.3601 57.494 63.3601Z" fill="black"/>
<path d="M51.0457 23.528L48.4726 20.9546C47.6977 20.1801 46.4659 20.1084 45.6052 20.7862L42.9921 22.8492C42.1483 22.3995 41.2652 22.0332 40.3557 21.7551L39.9665 18.4511C39.8386 17.363 38.9157 16.5425 37.8202 16.5425H34.1809C33.0854 16.5425 32.1625 17.363 32.0346 18.4508L31.6454 21.7551C30.7359 22.0332 29.8528 22.3995 29.009 22.8492L26.3959 20.7865C25.5352 20.107 24.3027 20.1794 23.5285 20.9546L20.9554 23.528C20.1802 24.3032 20.1082 25.5358 20.787 26.3954L22.8496 29.0085C22.4004 29.8519 22.0337 30.7351 21.7556 31.6449L18.4516 32.0341C17.3635 32.1621 16.543 33.0849 16.543 34.1804V37.8197C16.543 38.9152 17.3635 39.8381 18.4512 39.966L21.7556 40.3552C22.0337 41.2647 22.4 42.1478 22.8496 42.9916L20.7874 45.6044C20.1082 46.4643 20.1802 47.6969 20.9554 48.4721L23.5285 51.0452C24.3037 51.8211 25.5373 51.8924 26.3959 51.2136L29.009 49.151C29.8528 49.6006 30.7359 49.9669 31.6454 50.245L32.0346 53.549C32.1625 54.6371 33.0854 55.4576 34.1809 55.4576H37.8202C38.9157 55.4576 39.8386 54.6371 39.9665 53.5494L40.3557 50.245C41.2652 49.9669 42.1483 49.6006 42.9921 49.151L45.6049 51.2132C46.4645 51.8921 47.6974 51.8197 48.4726 51.0452L51.0457 48.4721C51.8209 47.6969 51.8929 46.4643 51.2141 45.6047L49.1514 42.9916C49.6011 42.1478 49.9674 41.2647 50.2455 40.3552L53.5495 39.966C54.6376 39.8381 55.4581 38.9152 55.4581 37.8197V34.1804C55.4581 33.0849 54.6376 32.1621 53.5498 32.0341L50.2455 31.6449C49.9674 30.7351 49.6007 29.8519 49.1514 29.0085L51.2137 26.3957C51.8929 25.5358 51.8209 24.3032 51.0457 23.528ZM50.0834 25.5031L47.7241 28.4924C47.5416 28.7238 47.5184 29.0426 47.6654 29.2979C48.2448 30.3037 48.6909 31.3781 48.9904 32.4915C49.0671 32.7755 49.3093 32.9847 49.6014 33.0192L53.3814 33.4642C53.7443 33.5068 54.0181 33.8147 54.0181 34.1804V37.8197C54.0181 38.1854 53.7443 38.4933 53.3811 38.5359L49.6014 38.981C49.3093 39.0154 49.0671 39.2246 48.9904 39.5087C48.6909 40.6217 48.2451 41.6961 47.6654 42.7022C47.5184 42.9575 47.5416 43.2763 47.7241 43.5077L50.0838 46.4974C50.3105 46.7839 50.2863 47.1952 50.0275 47.454L47.4545 50.0271C47.1957 50.2851 46.7844 50.3094 46.4975 50.0829L43.5082 47.7236C43.2765 47.5415 42.958 47.5183 42.7027 47.6649C41.6966 48.2446 40.6222 48.6904 39.5091 48.9899C39.2251 49.0666 39.0159 49.3088 38.9814 49.601L38.5364 53.381C38.4938 53.7438 38.1859 54.0176 37.8202 54.0176H34.1809C33.8152 54.0176 33.5073 53.7438 33.4647 53.3806L33.0196 49.601C32.9852 49.3088 32.776 49.0666 32.492 48.9899C31.3789 48.6904 30.3045 48.2446 29.2984 47.6649C29.1866 47.6006 29.0628 47.5689 28.9391 47.5689C28.7805 47.5689 28.623 47.6213 28.4929 47.7236L25.5032 50.0833C25.2167 50.3104 24.8057 50.2851 24.5466 50.0271L21.9736 47.454C21.7148 47.1952 21.6905 46.7839 21.9177 46.497L24.277 43.5077C24.4595 43.2763 24.4827 42.9575 24.3357 42.7022C23.756 41.6961 23.3102 40.6217 23.0107 39.5087C22.934 39.2246 22.6918 39.0154 22.3996 38.981L18.6196 38.5359C18.2568 38.4933 17.983 38.1854 17.983 37.8197V34.1804C17.983 33.8147 18.2568 33.5068 18.62 33.4642L22.3996 33.0192C22.6918 32.9847 22.934 32.7755 23.0107 32.4915C23.3102 31.3781 23.7563 30.3037 24.3357 29.2979C24.4827 29.0426 24.4595 28.7238 24.277 28.4924L21.9173 25.5028C21.6905 25.2162 21.7148 24.8049 21.9736 24.5462L24.5466 21.9727C24.805 21.714 25.2164 21.6897 25.5036 21.9168L28.4929 24.2765C28.7243 24.459 29.0435 24.4822 29.2984 24.3352C30.3045 23.7555 31.3789 23.3097 32.492 23.0102C32.776 22.9335 32.9852 22.6913 33.0196 22.3992L33.4647 18.6192C33.5073 18.2563 33.8152 17.9825 34.1809 17.9825H37.8202C38.1859 17.9825 38.4938 18.2563 38.5364 18.6195L38.9814 22.3992C39.0159 22.6913 39.2251 22.9335 39.5091 23.0102C40.6222 23.3097 41.6966 23.7555 42.7027 24.3352C42.9576 24.4818 43.2765 24.4583 43.5082 24.2765L46.4975 21.9165C46.7854 21.6901 47.1957 21.714 47.4545 21.9727L50.0275 24.5462C50.2863 24.8049 50.3105 25.2162 50.0834 25.5031Z" fill="black"/>
<path d="M36.0002 28.623C31.9323 28.623 28.623 31.9323 28.623 36.0002C28.623 40.0682 31.9323 43.3774 36.0002 43.3774C40.0682 43.3774 43.3774 40.0682 43.3774 36.0002C43.3774 31.9323 40.0682 28.623 36.0002 28.623ZM36.0002 41.9374C32.7265 41.9374 30.063 39.274 30.063 36.0002C30.063 32.7265 32.7265 30.063 36.0002 30.063C39.274 30.063 41.9374 32.7265 41.9374 36.0002C41.9374 39.274 39.274 41.9374 36.0002 41.9374Z" fill="black"/>
<path d="M47.3026 9.50504C43.7216 7.97574 39.9194 7.2002 36.0009 7.2002C32.0824 7.2002 28.2803 7.97574 24.6993 9.50504C24.3333 9.66113 24.1635 10.0841 24.3199 10.4497C24.476 10.8153 24.8986 10.9851 25.2646 10.829C28.6659 9.37672 32.2782 8.6402 36.0009 8.6402C39.7236 8.6402 43.3359 9.37672 46.7373 10.829C46.8294 10.8688 46.9254 10.8874 47.0196 10.8874C47.2994 10.887 47.5652 10.7232 47.6819 10.4497C47.8384 10.0841 47.6686 9.66113 47.3026 9.50504Z" fill="black"/>
<path d="M10.1664 47.7395C10.2606 47.7395 10.3566 47.7206 10.4487 47.6812C10.8147 47.5251 10.9845 47.1022 10.828 46.7365C9.37574 43.3352 8.63922 39.7229 8.63922 36.0002C8.63922 32.2775 9.37574 28.6652 10.828 25.2638C10.9845 24.8982 10.8147 24.4752 10.4487 24.3191C10.0824 24.1609 9.6598 24.3329 9.50406 24.6985C7.97477 28.2795 7.19922 32.0816 7.19922 36.0002C7.19922 39.9187 7.97477 43.7208 9.50406 47.3018C9.62078 47.5754 9.88656 47.7395 10.1664 47.7395Z" fill="black"/>
<path d="M36.0009 64.8C39.9194 64.8 43.7216 64.0245 47.3026 62.4952C47.6686 62.3391 47.8384 61.9162 47.6819 61.5505C47.5262 61.1849 47.1022 61.0144 46.7373 61.1712C43.3359 62.6235 39.7236 63.36 36.0009 63.36C32.2782 63.36 28.6659 62.6235 25.2646 61.1712C24.8986 61.013 24.476 61.1849 24.3199 61.5505C24.1635 61.9162 24.3333 62.3391 24.6993 62.4952C28.2803 64.0245 32.0824 64.8 36.0009 64.8Z" fill="black"/>
<path d="M61.5508 24.319C61.1848 24.4751 61.015 24.8981 61.1715 25.2637C62.6238 28.6651 63.3603 32.2774 63.3603 36.0001C63.3603 39.7228 62.6238 43.3351 61.1715 46.7364C61.015 47.102 61.1848 47.525 61.5508 47.6811C61.6429 47.7208 61.7389 47.7394 61.8331 47.7394C62.113 47.7394 62.3787 47.5753 62.4955 47.3017C64.0248 43.7207 64.8003 39.9186 64.8003 36.0001C64.8003 32.0815 64.0248 28.2794 62.4955 24.6984C62.3394 24.3328 61.9161 24.1622 61.5508 24.319Z" fill="black"/>
</svg>
