<svg width="72" height="72" viewBox="0 0 72 72" fill="none" xmlns="http://www.w3.org/2000/svg">
<path d="M64.0798 12.7971H54.528C54.6516 9.95587 54.5336 8.06688 54.5204 7.87133C54.4948 7.49375 54.1808 7.2002 53.8022 7.2002H18.1973C17.8187 7.2002 17.5048 7.49375 17.4791 7.87133C17.4659 8.06688 17.3479 9.95587 17.4715 12.7971H7.91976C7.52565 12.7971 7.20468 13.1142 7.19976 13.5083C7.19413 13.9639 7.13401 24.7396 13.2635 30.9444C15.9611 33.6748 19.4494 35.0751 23.6262 35.1236C25.3485 37.8799 27.4672 40.0425 30.6226 41.4895V46.7039H27.6389C25.7932 46.7039 24.2913 48.2057 24.2913 50.0514V55.5741H22.9234C22.5258 55.5741 22.2034 55.8965 22.2034 56.2941V64.0802C22.2034 64.4778 22.5258 64.8002 22.9234 64.8002H49.0761C49.4737 64.8002 49.7961 64.4778 49.7961 64.0802V56.2941C49.7961 55.8965 49.4737 55.5741 49.0761 55.5741H47.7082V50.0514C47.7082 48.2057 46.2063 46.7039 44.3606 46.7039H41.3769V41.4819C44.528 40.0353 46.6503 37.8771 48.3712 35.1235C52.5471 35.0744 56.0348 33.6742 58.7325 30.944C64.863 24.7396 64.805 13.9643 64.7998 13.5083C64.7948 13.1142 64.4742 12.7971 64.0798 12.7971ZM14.2918 29.9364C9.4494 25.0385 8.75437 16.71 8.65593 14.2371H17.5513C17.86 18.8287 18.8098 25.2201 21.5006 31.091C21.9103 31.9849 22.3286 32.8378 22.7682 33.648C19.3742 33.4315 16.5231 32.1928 14.2918 29.9364ZM48.3561 63.3602H23.6434V57.0141H48.3561V63.3602ZM46.2682 50.0514V55.5741H25.7313V50.0514C25.7313 48.9996 26.587 48.1439 27.6389 48.1439H44.3606C45.4125 48.1439 46.2682 48.9996 46.2682 50.0514ZM40.3783 40.3568C40.2896 40.394 40.2107 40.4491 40.1442 40.5167C40.1142 40.5472 40.0977 40.5862 40.0738 40.6212C40.0453 40.6627 40.0115 40.6999 39.9921 40.747C39.9596 40.8259 39.9447 40.9108 39.9417 40.9971C39.9414 41.0053 39.9369 41.0122 39.9369 41.0205V41.0215V41.0232V46.7039H32.0626V41.0205C32.0626 40.7315 31.89 40.4707 31.6242 40.3578C27.2001 38.478 24.9009 35.0538 22.8098 30.4912C18.7735 21.6846 18.801 11.3416 18.8864 8.6402H53.1131C53.1985 11.3416 53.226 21.6846 49.1897 30.4912C47.0991 35.0527 44.8003 38.4763 40.3783 40.3568ZM57.7038 29.9361C55.4732 32.1918 52.6231 33.4304 49.231 33.6478C49.6707 32.8375 50.0892 31.985 50.4989 31.091C53.1897 25.2201 54.1395 18.8287 54.4483 14.2371H63.3436C63.2444 16.71 62.5476 25.0385 57.7038 29.9361Z" fill="black"/>
<path d="M36.0004 12.5215C30.0534 12.5215 25.2148 17.36 25.2148 23.3071C25.2148 29.2541 30.0534 34.0923 36.0004 34.0923C41.9475 34.0923 46.786 29.2541 46.786 23.3071C46.786 17.36 41.9475 12.5215 36.0004 12.5215ZM30.3737 30.7509C30.4535 28.3308 32.0276 26.2507 34.359 25.5427C34.6367 25.4583 34.8368 25.2154 34.8659 24.9267C34.8955 24.6381 34.7489 24.36 34.494 24.2211C33.3915 23.621 32.7066 22.4693 32.7066 21.2156C32.7066 19.3302 34.2409 17.796 36.1266 17.796C38.0121 17.796 39.5463 19.3302 39.5463 21.2156C39.5463 22.5066 38.8287 23.6741 37.6735 24.2623C37.4144 24.3941 37.2601 24.6687 37.2822 24.9584C37.304 25.248 37.4981 25.4959 37.7737 25.5873C40.0268 26.3335 41.5482 28.395 41.6273 30.7508C40.0598 31.9386 38.1142 32.6523 36.0004 32.6523C33.8867 32.6523 31.9411 31.9386 30.3737 30.7509ZM42.9304 29.5548C42.5259 27.5245 41.2638 25.7667 39.4521 24.7583C40.4199 23.8541 40.9863 22.5839 40.9863 21.2156C40.9863 18.536 38.8062 16.356 36.1266 16.356C33.4467 16.356 31.2666 18.536 31.2666 21.2156C31.2666 22.5315 31.7971 23.768 32.7056 24.668C30.8051 25.6583 29.4827 27.4526 29.0691 29.5533C27.574 27.896 26.6548 25.7095 26.6548 23.3071C26.6548 18.1539 30.8472 13.9615 36.0004 13.9615C41.1536 13.9615 45.346 18.1539 45.346 23.3071C45.346 25.7102 44.4264 27.8972 42.9304 29.5548Z" fill="black"/>
</svg>
