<svg width="72" height="72" viewBox="0 0 72 72" fill="none" xmlns="http://www.w3.org/2000/svg">
<path d="M11.7502 53.7752C9.24074 53.7752 7.19922 55.8167 7.19922 58.3262C7.19922 60.8356 9.24074 62.8771 11.7502 62.8771H13.7907V64.0802C13.7907 64.4778 14.113 64.8002 14.5107 64.8002H64.0792C64.4768 64.8002 64.7992 64.4778 64.7992 64.0802V7.9202C64.7992 7.52258 64.4768 7.2002 64.0792 7.2002H14.5107C14.113 7.2002 13.7907 7.52258 13.7907 7.9202V10.5632H11.7502C9.24074 10.5632 7.19922 12.6048 7.19922 15.1142C7.19922 17.6237 9.24074 19.6652 11.7502 19.6652H13.7907V24.9675H11.7502C9.24074 24.9675 7.19922 27.009 7.19922 29.5181C7.19922 32.0275 9.24074 34.0691 11.7502 34.0691H13.7907V39.3713H11.7502C9.24074 39.3713 7.19922 41.4128 7.19922 43.9223C7.19922 46.4314 9.24074 48.4729 11.7502 48.4729H13.7907V53.7752H11.7502ZM11.7502 61.4371C10.0349 61.4371 8.63922 60.0414 8.63922 58.3262C8.63922 56.6109 10.0349 55.2152 11.7502 55.2152H13.7907V61.4371H11.7502ZM11.7502 18.2252C10.0349 18.2252 8.63922 16.8295 8.63922 15.1142C8.63922 13.3989 10.0349 12.0032 11.7502 12.0032H13.7907V18.2252H11.7502ZM11.7502 32.6291C10.0349 32.6291 8.63922 31.2334 8.63922 29.5181C8.63922 27.8028 10.0349 26.4075 11.7502 26.4075H13.7907V32.6291H11.7502ZM11.7502 47.0329C10.0349 47.0329 8.63922 45.6376 8.63922 43.9223C8.63922 42.207 10.0349 40.8113 11.7502 40.8113H13.7907V47.0329H11.7502ZM15.2307 40.8113H18.8352C19.2329 40.8113 19.5552 40.4889 19.5552 40.0913C19.5552 39.6937 19.2329 39.3713 18.8352 39.3713H15.2307V26.4075H18.8352C19.2329 26.4075 19.5552 26.0851 19.5552 25.6875C19.5552 25.2898 19.2329 24.9675 18.8352 24.9675H15.2307V12.0032H18.8352C19.2329 12.0032 19.5552 11.6809 19.5552 11.2832C19.5552 10.8856 19.2329 10.5632 18.8352 10.5632H15.2307V8.6402H63.3592V63.3602H15.2307V55.2152H18.8352C19.2329 55.2152 19.5552 54.8928 19.5552 54.4952C19.5552 54.0976 19.2329 53.7752 18.8352 53.7752H15.2307V40.8113Z" fill="black"/>
<path d="M40.4612 51.3757C48.9395 51.3757 55.8368 44.4784 55.8368 36.0001C55.8368 27.5218 48.9395 20.6245 40.4612 20.6245C31.9832 20.6245 25.0859 27.5218 25.0859 36.0001C25.0859 44.4784 31.9832 51.3757 40.4612 51.3757ZM26.5624 36.7201H34.3773C34.4775 43.0505 35.867 47.4348 37.6417 49.6483C31.5343 48.3882 26.8916 43.115 26.5624 36.7201ZM40.4612 22.1151C42.5985 22.1151 44.9658 27.489 45.1059 35.2801H35.8164C35.9566 27.489 38.3238 22.1151 40.4612 22.1151ZM45.1059 36.7201C44.9658 44.5112 42.5985 49.8851 40.4612 49.8851C38.3238 49.8851 35.9566 44.5112 35.8164 36.7201H45.1059ZM43.2806 49.6483C45.0554 47.4349 46.4449 43.0505 46.5451 36.7201H54.3603C54.0311 43.115 49.3884 48.3883 43.2806 49.6483ZM54.3603 35.2801H46.5451C46.4449 28.9497 45.0554 24.5653 43.2806 22.3519C49.3884 23.6119 54.0311 28.8852 54.3603 35.2801ZM37.6417 22.3519C35.867 24.5654 34.4775 28.9497 34.3773 35.2801H26.5624C26.8916 28.8852 31.5343 23.612 37.6417 22.3519Z" fill="black"/>
</svg>
