<svg width="78" height="69" viewBox="0 0 78 69" fill="none" xmlns="http://www.w3.org/2000/svg">
<path fill-rule="evenodd" clip-rule="evenodd" d="M43.3643 53.1891H18.5963C18.3343 52.0931 17.6602 51.1591 16.7402 50.5641L23.8542 30.3951L32.8723 33.1141C32.9873 35.3951 34.8643 37.2211 37.1733 37.2211C37.2309 37.2211 37.286 37.2133 37.3412 37.2056L37.3413 37.2055C37.379 37.2002 37.4167 37.1949 37.4553 37.1921L39.4272 43.5051C39.8402 44.7511 41.7083 44.1711 41.3353 42.9091L39.3663 36.6021C40.7573 35.7881 41.7133 34.1121 41.4463 32.4081L63.4733 21.0381C64.0513 21.5791 64.7703 21.9701 65.5773 22.1301L64.3862 33.0981C64.2542 34.4001 66.2143 34.6211 66.3743 33.3151L67.5992 22.0311C69.4072 21.5141 70.7422 19.8651 70.7422 17.8931C70.7772 13.8211 65.4433 12.0141 63.0223 15.2511L36.7093 3.81009C36.4523 1.67009 34.6473 9.05878e-05 32.4393 9.05878e-05C29.8663 -0.0229094 27.7542 2.34811 28.1752 4.90311L7.12128 20.1921C4.48028 17.7711 -0.0867172 19.8361 0.00128284 23.4601C-0.0147172 25.9451 2.18928 28.0271 4.67828 27.7471L12.1443 50.5171C10.9093 51.2791 10.0782 52.6331 10.0782 54.1871C10.1552 59.2841 17.3703 60.1031 18.5953 55.1871H43.3633C44.6783 55.1571 44.6803 53.2151 43.3633 53.1871L43.3643 53.1891ZM36.4623 5.88309L62.1833 17.0671C62.0213 17.8181 62.1053 18.6551 62.3723 19.3581L40.7723 30.5071C40.0663 29.4481 38.9013 28.7371 37.5663 28.6151L34.2872 8.21808C35.2792 7.74608 36.0613 6.91309 36.4623 5.88309ZM32.3273 8.63608L35.5833 28.8881C34.5383 29.3041 33.6963 30.1131 33.2363 31.1351L24.5212 28.5071L31.5593 8.55508C31.8073 8.60708 32.0653 8.62808 32.3273 8.63608ZM28.9323 6.83008C29.1623 7.15108 29.4403 7.4301 29.7473 7.6781L22.6042 27.9291L8.62427 23.7131C8.62642 23.6766 8.63132 23.641 8.63622 23.6055C8.64273 23.5583 8.64923 23.5112 8.64923 23.4621C8.64923 22.8741 8.52925 22.3131 8.31525 21.8021L28.9323 6.83008ZM14.1819 49.886L14.1818 49.886C14.1375 49.8922 14.0932 49.8983 14.0483 49.9021L6.58228 27.1321C7.18728 26.7591 7.68529 26.2421 8.04529 25.6271L21.9373 29.8161L14.8492 49.9101C14.8032 49.9051 14.7574 49.899 14.7116 49.8928L14.7115 49.8928H14.7115C14.6092 49.8789 14.5069 49.8651 14.4012 49.8651V49.8661C14.3263 49.8661 14.2541 49.8761 14.1819 49.886ZM76.3826 47.272H72.3156C72.0646 44.707 71.0196 42.328 69.3086 40.393L72.1566 37.5369C72.5466 37.1459 72.5465 36.5129 72.1545 36.1229C71.7635 35.7339 71.1315 35.7329 70.7405 36.125L67.8705 39.0029C65.8865 37.3759 63.4586 36.427 60.8806 36.268V32.234C60.8626 30.932 58.9036 30.91 58.8806 32.234V36.2919C56.3206 36.5439 53.9445 37.5889 52.0115 39.2969L49.1556 36.441C48.7646 36.05 48.1326 36.05 47.7416 36.441C47.3506 36.832 47.3506 37.464 47.7416 37.855L50.6216 40.735C48.9956 42.716 48.0475 45.142 47.8865 47.716H43.8436C42.5396 47.735 42.5206 49.693 43.8436 49.716H47.9095C48.1595 52.28 49.2056 54.66 50.9166 56.596L48.0685 59.4519C47.1555 60.3729 48.5516 61.792 49.4846 60.864L52.3606 57.9809C53.3266 58.7719 54.4026 59.4009 55.5706 59.8649L56.2446 67.634C56.2896 68.151 56.7225 68.547 57.2405 68.547H62.9836C63.5026 68.547 63.9346 68.151 63.9796 67.634L64.6536 59.876C65.9796 59.348 67.1806 58.611 68.2156 57.7L71.0706 60.5469C71.9916 61.4609 73.4105 60.064 72.4825 59.131L69.6025 56.259C71.1965 54.311 72.1816 51.8819 72.3456 49.2709H76.3816C77.6846 49.2529 77.7056 47.2929 76.3816 47.2709L76.3826 47.272ZM63.4095 58.2139C53.2445 61.5459 45.3756 49.221 52.6836 41.415C56.4056 37.325 63.3306 37.1849 67.2236 41.0939C72.7636 46.2269 70.6065 55.9139 63.4095 58.2139ZM60.4153 47.527H61.7913C62.5883 47.501 63.0913 48.5 62.5953 49.124L59.2833 53.584C59.0863 53.847 58.7853 53.987 58.4793 53.987C57.6873 54.011 57.1783 53.019 57.6773 52.39L59.8043 49.527H58.4252C57.6282 49.553 57.1253 48.553 57.6233 47.93L60.9902 43.407C61.3202 42.965 61.9473 42.871 62.3883 43.202C62.8313 43.531 62.9233 44.158 62.5933 44.6L60.4153 47.527Z" fill="#0D173F"/>
</svg>
