<svg width="84" height="64" viewBox="0 0 84 64" fill="none" xmlns="http://www.w3.org/2000/svg">
<path d="M73.9901 16.256L79.733 21.873L83.281 2.21301L63.967 6.453L69.51 11.874L64.579 16.699H57.332C56.779 16.699 56.332 17.147 56.332 17.699V24.777L49.098 31.856V1C49.098 0.448 48.651 0 48.098 0H36.95C36.397 0 35.95 0.448 35.95 1V24.406L28.716 17.327V9.34998C28.716 8.79798 28.269 8.34998 27.716 8.34998H16.567C16.014 8.34998 15.567 8.79798 15.567 9.34998V33.041C15.471 33.039 15.377 33.027 15.28 33.027C6.84003 33.027 0 39.867 0 48.307C0 56.747 6.84003 63.587 15.28 63.587C21.71 63.587 27.207 59.612 29.465 53.989H76.149C76.702 53.989 77.149 53.541 77.149 52.989V42.746C77.149 42.194 76.702 41.746 76.149 41.746H69.483V20.667L73.992 16.256H73.9901ZM56.331 33.532V41.746H49.097V40.604L56.331 33.532ZM37.949 2H47.097V41.746H37.949V2ZM35.949 33.163V41.746H29.071C28.954 41.5 28.845 41.249 28.715 41.011V26.092L35.949 33.163ZM17.565 10.349H26.7141V38.19C24.3911 35.57 21.189 33.761 17.565 33.216V10.349ZM17.138 54.646H16.288V57.116C16.288 57.676 15.838 58.116 15.288 58.116C14.728 58.116 14.288 57.676 14.288 57.116V54.646H11.678C11.128 54.646 10.678 54.206 10.678 53.646C10.678 53.096 11.128 52.646 11.678 52.646H17.138C18.108 52.646 18.898 51.886 18.898 50.946C18.898 50.016 18.108 49.256 17.138 49.256H13.428C11.348 49.256 9.66803 47.596 9.66803 45.556C9.66803 43.516 11.348 41.856 13.428 41.856H14.288V39.496C14.288 38.946 14.728 38.496 15.288 38.496C15.838 38.496 16.288 38.946 16.288 39.496V41.856H18.888C19.438 41.856 19.888 42.306 19.888 42.856C19.888 43.406 19.438 43.856 18.888 43.856H13.428C12.458 43.856 11.668 44.616 11.668 45.556C11.668 46.486 12.458 47.256 13.428 47.256H17.138C19.218 47.256 20.898 48.916 20.898 50.946C20.898 52.976 19.218 54.646 17.138 54.646ZM75.147 51.989H30.1021C30.3951 50.808 30.568 49.579 30.568 48.307C30.568 46.718 30.324 45.187 29.874 43.747H75.147V51.989ZM58.331 41.746V18.699H67.48V41.746H58.331Z" fill="#0D173F"/>
</svg>
