<svg width="559" height="300" viewBox="0 0 559 300" fill="none" xmlns="http://www.w3.org/2000/svg">
<g opacity="0.24">
<g clip-path="url(#clip0_197_782)">
<mask id="mask0_197_782" style="mask-type:luminance" maskUnits="userSpaceOnUse" x="0" y="0" width="300" height="300">
<path d="M300 0H0V300H300V0Z" fill="white"/>
</mask>
<g mask="url(#mask0_197_782)">
<path fill-rule="evenodd" clip-rule="evenodd" d="M0 0C41.4213 0 75 33.5786 75 75C33.5787 75 0 41.4214 0 0ZM150 0C108.579 0 75 33.5786 75 75C33.5787 75 0 108.579 0 150C0 191.421 33.5787 225 75 225C33.5787 225 0 258.579 0 300C41.4213 300 75 266.421 75 225C75 266.421 108.579 300 150 300C191.421 300 225 266.421 225 225C225 266.421 258.579 300 300 300C300 258.579 266.421 225 225 225C266.421 225 300 191.421 300 150C300 108.579 266.421 75 225 75C266.421 75 300 41.4214 300 0C258.579 0 225 33.5786 225 75C225 33.5786 191.421 0 150 0ZM225 225C225 183.579 191.421 150 150 150C150 191.421 183.579 225 225 225ZM150 150C191.421 150 225 116.421 225 75C225 116.421 258.579 150 300 150C258.579 150 225 183.579 225 225C183.579 225 150 258.579 150 300C150 258.579 116.421 225 75 225C116.421 225 150 191.421 150 150ZM150 150C108.579 150 75 183.579 75 225C75 183.579 41.4213 150 0 150C41.4213 150 75 116.421 75 75C75 116.421 108.579 150 150 150ZM150 150C150 108.579 183.579 75 225 75C183.579 75 150 41.4214 150 0C150 41.4214 116.421 75 75 75C116.421 75 150 108.579 150 150Z" fill="white"/>
</g>
<mask id="mask1_197_782" style="mask-type:luminance" maskUnits="userSpaceOnUse" x="299" y="0" width="300" height="300">
<path d="M599 0H299V300H599V0Z" fill="white"/>
</mask>
<g mask="url(#mask1_197_782)">
<path fill-rule="evenodd" clip-rule="evenodd" d="M299 0C340.421 0 374 33.5786 374 75C332.579 75 299 41.4214 299 0ZM449 0C407.579 0 374 33.5786 374 75C332.579 75 299 108.579 299 150C299 191.421 332.579 225 374 225C332.579 225 299 258.579 299 300C340.421 300 374 266.421 374 225C374 266.421 407.579 300 449 300C490.421 300 524 266.421 524 225C524 266.421 557.579 300 599 300C599 258.579 565.421 225 524 225C565.421 225 599 191.421 599 150C599 108.579 565.421 75 524 75C565.421 75 599 41.4214 599 0C557.579 0 524 33.5786 524 75C524 33.5786 490.421 0 449 0ZM524 225C524 183.579 490.421 150 449 150C449 191.421 482.579 225 524 225ZM449 150C490.421 150 524 116.421 524 75C524 116.421 557.579 150 599 150C557.579 150 524 183.579 524 225C482.579 225 449 258.579 449 300C449 258.579 415.421 225 374 225C415.421 225 449 191.421 449 150ZM449 150C407.579 150 374 183.579 374 225C374 183.579 340.421 150 299 150C340.421 150 374 116.421 374 75C374 116.421 407.579 150 449 150ZM449 150C449 108.579 482.579 75 524 75C482.579 75 449 41.4214 449 0C449 41.4214 415.421 75 374 75C415.421 75 449 108.579 449 150Z" fill="white"/>
</g>
</g>
</g>
<defs>
<clipPath id="clip0_197_782">
<path d="M0 0H559V268C559 285.673 544.673 300 527 300H0V0Z" fill="white"/>
</clipPath>
</defs>
</svg>
