<svg width="74" height="73" viewBox="0 0 74 73" fill="none" xmlns="http://www.w3.org/2000/svg">
<path fill-rule="evenodd" clip-rule="evenodd" d="M4.5 0H69.5C72 0 74 2 74 4.5V51.1C74 53.6 72 55.6 69.5 55.6H65.7C64.4 55.6 64.4 53.6 65.7 53.6H69.5C70.9 53.6 72 52.5 72 51.1V12H2V51.1C2 52.5 3.1 53.6 4.5 53.6H35.8C37.1 53.6 37.1 55.6 35.8 55.6H4.5C2 55.6 0 53.6 0 51.1V4.5C0 2 2 0 4.5 0ZM2 9.90002H72V4.5C72 3.1 70.9 2 69.5 2H4.5C3.1 2 2 3.1 2 4.5V9.90002ZM61.2 59.0001C63.2 57.6001 65.9 57.8002 67.7 59.6002L71.6 63.5001C73.6 65.5001 73.6 68.8002 71.6 70.8002C69.7 72.8002 66.2 72.8002 64.3 70.8002L60.4 66.9001C58.7 65.2001 58.5 62.4001 59.8 60.4001L58.5 59.1002C50.9 65.7002 38.6 60.1001 38.7 49.9001C39.4 33.9001 62.1 33.9001 62.8 49.9001C62.8 52.9001 61.7 55.6001 59.9 57.7001L61.2 59.0001ZM56.6 48.9001C56.6 49.5001 57 49.9001 57.6 49.9001C58.1 49.9001 58.6 49.5001 58.6 48.9001C58.6 45.1001 55.6 42.0001 51.8 42.0001C51.2 42.0001 50.8 42.5001 50.8 43.0001C50.8 43.6001 51.2 44.0001 51.8 44.0001C54.4 44.0001 56.6 46.2001 56.6 48.9001ZM65.7 69.3002C66.9 70.5002 69 70.5002 70.2 69.3002C71.4 68.1002 71.4 66.1002 70.2 64.8002L66.3 60.9001C63.2 58.1001 58.9 62.4001 61.8 65.4001L65.7 69.3002ZM6.60078 4.19995C4.20078 4.29995 4.20078 7.69999 6.60078 7.79999C9.00078 7.69999 9.00078 4.19995 6.60078 4.19995ZM11.8 4.19995C9.4 4.29995 9.4 7.69999 11.8 7.79999C14.1 7.69999 14.1 4.19995 11.8 4.19995ZM16.8996 4.19995C14.4996 4.29995 14.4996 7.69999 16.8996 7.79999C19.2996 7.69999 19.2996 4.19995 16.8996 4.19995ZM9.0005 31.8001C8.9005 19.8001 23.8005 13.7001 32.2005 22.2001C32.6005 22.5001 32.6005 23.2001 32.1005 23.7001L25.2005 30.6001C26.2005 32.5001 24.7005 35.0001 22.5005 34.9001C20.8005 34.9001 19.5005 33.6001 19.5005 31.9001C19.5005 29.7001 21.9005 28.2001 23.8005 29.2001L26.2005 26.8001C23.8005 25.0001 20.2005 25.2001 18.1005 27.4001C15.6005 29.9001 15.6005 33.8001 18.1005 36.3001C20.6005 38.8001 24.5005 38.8001 27.0005 36.3001C27.9005 35.4001 29.3005 36.8001 28.4005 37.7001C20.4005 45.2001 9.2005 34.0001 16.7005 26.0001C19.6005 23.0001 24.6005 22.7001 27.7005 25.3001L30.1005 22.9001C25.5005 19.1001 18.7005 19.3001 14.4005 23.6001C7.10051 30.8001 12.3005 43.5001 22.6005 43.4001C25.7005 43.4001 28.6005 42.2001 30.8005 40.0001C31.7005 39.1001 33.1005 40.5001 32.2005 41.4001C23.7005 50.0001 9.0005 43.9001 9.0005 31.8001ZM40.7988 24.6001H64.7988C66.0988 24.6001 66.0988 22.6001 64.7988 22.6001H40.8988C39.4988 22.6001 39.4988 24.6001 40.7988 24.6001ZM54.8992 32.9001H40.7992C39.4992 32.9001 39.4992 31.0001 40.7992 30.9001H54.8992C56.1992 30.9001 56.1992 32.9001 54.8992 32.9001Z" fill="#EA2B2B"/>
</svg>
