<svg width="78" height="69" viewBox="0 0 78 69" fill="none" xmlns="http://www.w3.org/2000/svg">
<path fill-rule="evenodd" clip-rule="evenodd" d="M43.3642 53.1892H18.5962C18.3342 52.0932 17.6602 51.1592 16.7402 50.5642L23.8542 30.3952L32.8722 33.1142C32.9872 35.3952 34.8643 37.2212 37.1733 37.2212C37.2309 37.2212 37.286 37.2134 37.3412 37.2056L37.3412 37.2056C37.3789 37.2003 37.4167 37.195 37.4552 37.1922L39.4272 43.5052C39.8402 44.7512 41.7082 44.1712 41.3352 42.9092L39.3662 36.6022C40.7572 35.7882 41.7133 34.1122 41.4463 32.4082L63.4732 21.0382C64.0512 21.5792 64.7702 21.9702 65.5772 22.1302L64.3862 33.0982C64.2542 34.4002 66.2142 34.6212 66.3742 33.3152L67.5992 22.0312C69.4072 21.5142 70.7422 19.8652 70.7422 17.8932C70.7772 13.8212 65.4433 12.0142 63.0223 15.2512L36.7093 3.81016C36.4523 1.67016 34.6472 0.000165972 32.4392 0.000165972C29.8662 -0.022834 27.7542 2.34818 28.1752 4.90318L7.12125 20.1922C4.48025 17.7712 -0.0867467 19.8362 0.00125331 23.4602C-0.0147467 25.9452 2.18925 28.0272 4.67826 27.7472L12.1443 50.5172C10.9093 51.2792 10.0782 52.6332 10.0782 54.1872C10.1552 59.2842 17.3702 60.1032 18.5952 55.1872H43.3633C44.6783 55.1572 44.6803 53.2152 43.3633 53.1872L43.3642 53.1892ZM36.4623 5.88316L62.1833 17.0672C62.0213 17.8182 62.1052 18.6552 62.3722 19.3582L40.7723 30.5072C40.0662 29.4482 38.9013 28.7372 37.5663 28.6152L34.2872 8.21815C35.2792 7.74615 36.0613 6.91316 36.4623 5.88316ZM32.3272 8.63615L35.5832 28.8882C34.5382 29.3042 33.6962 30.1132 33.2362 31.1352L24.5212 28.5072L31.5592 8.55516C31.8072 8.60716 32.0652 8.62815 32.3272 8.63615ZM28.9322 6.83015C29.1622 7.15115 29.4402 7.43017 29.7472 7.67817L22.6042 27.9292L8.62424 23.7132C8.62639 23.6767 8.63129 23.6411 8.6362 23.6056C8.6427 23.5583 8.6492 23.5112 8.6492 23.4622C8.6492 22.8742 8.52922 22.3132 8.31522 21.8022L28.9322 6.83015ZM14.1819 49.8861L14.1818 49.8861C14.1375 49.8923 14.0931 49.8984 14.0483 49.9022L6.58225 27.1322C7.18725 26.7592 7.68526 26.2422 8.04526 25.6272L21.9372 29.8162L14.8492 49.9102C14.8032 49.9052 14.7574 49.899 14.7116 49.8928L14.7115 49.8928H14.7115C14.6092 49.879 14.5069 49.8652 14.4012 49.8652V49.8662C14.3263 49.8662 14.2541 49.8761 14.1819 49.8861ZM76.3835 47.272H72.3165C72.0655 44.707 71.0205 42.328 69.3095 40.393L72.1575 37.537C72.5475 37.146 72.5475 36.513 72.1555 36.123C71.7645 35.734 71.1325 35.733 70.7415 36.125L67.8715 39.003C65.8875 37.376 63.4595 36.427 60.8815 36.268V32.234C60.8635 30.932 58.9045 30.91 58.8815 32.234V36.292C56.3215 36.544 53.9454 37.589 52.0125 39.297L49.1565 36.441C48.7655 36.05 48.1335 36.05 47.7425 36.441C47.3515 36.832 47.3515 37.464 47.7425 37.855L50.6225 40.735C48.9965 42.716 48.0485 45.142 47.8875 47.716H43.8445C42.5405 47.735 42.5215 49.693 43.8445 49.716H47.9105C48.1605 52.28 49.2065 54.66 50.9175 56.596L48.0695 59.452C47.1565 60.373 48.5525 61.792 49.4855 60.864L52.3615 57.981C53.3275 58.772 54.4035 59.401 55.5715 59.865L56.2455 67.634C56.2905 68.151 56.7235 68.547 57.2415 68.547H62.9845C63.5035 68.547 63.9355 68.151 63.9805 67.634L64.6545 59.876C65.9805 59.348 67.1815 58.611 68.2165 57.7L71.0715 60.547C71.9925 61.461 73.4115 60.064 72.4835 59.131L69.6035 56.259C71.1975 54.311 72.1825 51.882 72.3465 49.271H76.3825C77.6855 49.253 77.7065 47.293 76.3825 47.271L76.3835 47.272ZM63.4105 58.214C53.2455 61.546 45.3765 49.221 52.6845 41.415C56.4065 37.325 63.3315 37.185 67.2245 41.094C72.7645 46.227 70.6075 55.914 63.4105 58.214ZM60.4162 47.527H61.7922C62.5892 47.501 63.0922 48.5 62.5962 49.124L59.2842 53.584C59.0872 53.847 58.7862 53.987 58.4802 53.987C57.6882 54.011 57.1792 53.019 57.6782 52.39L59.8052 49.527H58.4262C57.6292 49.553 57.1262 48.553 57.6242 47.93L60.9912 43.407C61.3212 42.965 61.9482 42.871 62.3892 43.202C62.8322 43.531 62.9242 44.158 62.5942 44.6L60.4162 47.527Z" fill="#EA2B2B"/>
</svg>
