<svg width="78" height="58" viewBox="0 0 78 58" fill="none" xmlns="http://www.w3.org/2000/svg">
<path fill-rule="evenodd" clip-rule="evenodd" d="M68.141 26.076H77.001C77.551 26.076 78 26.516 78 27.076V56.436C78 56.986 77.55 57.436 77 57.436H45.1899C44.6399 57.436 44.1899 56.986 44.1899 56.436V46.941H1C0.447 46.941 0 46.494 0 45.941V1C0 0.447 0.447 0 1 0H67.14C67.418 0 67.669 0.11299 67.85 0.29599C68.03 0.49399 68.122 0.738997 68.141 1.006C68.1415 3.826 68.1412 8.63635 68.141 13.4672C68.1407 18.3117 68.1405 23.1769 68.141 26.076ZM18.671 3.81599C20.987 3.87499 20.996 7.28499 18.671 7.34599C16.351 7.30999 16.361 3.84999 18.671 3.81599ZM12.741 3.81599C15.057 3.87499 15.066 7.28499 12.741 7.34599C10.415 7.28499 10.426 3.87399 12.741 3.81599ZM6.81104 3.81599C9.12704 3.87499 9.13603 7.28499 6.81104 7.34599C4.48503 7.28499 4.49604 3.87399 6.81104 3.81599ZM44.1909 44.941V27.076C44.1909 26.516 44.6409 26.076 45.1909 26.076H66.141V11.166H2.00098V44.941H44.1909ZM46.1909 55.436H76.001V28.076H46.1909V45.924V55.436ZM55.9621 40.676H65.6722C67.8922 40.676 69.7021 38.866 69.7021 36.646C69.7021 34.426 67.8922 32.616 65.6722 32.616H55.9621C50.6391 32.787 50.6361 40.504 55.9621 40.676ZM55.9621 34.616H62.8132C61.9542 35.743 61.9531 37.548 62.8101 38.676H55.9621C53.2871 38.607 53.2841 34.685 55.9621 34.616ZM66.2322 42.8259H56.5222C54.3022 42.8259 52.4922 44.6359 52.4922 46.8559C52.4922 49.0759 54.3022 50.8859 56.5222 50.8859H66.2322C71.5552 50.7149 71.5582 42.9979 66.2322 42.8259ZM66.2322 48.8859H59.4922C59.8872 48.3079 60.1202 47.6099 60.1202 46.8559C60.1202 46.1019 59.8872 45.4039 59.4922 44.8259H66.2322C68.9072 44.8949 68.9102 48.8169 66.2322 48.8859ZM35.0335 28.7371H8.44254C7.13654 28.7561 7.12054 30.7151 8.44254 30.7371H35.0335C36.3395 30.7181 36.3555 28.7591 35.0335 28.7371ZM11.8481 21.018L9.42208 23.444C8.49008 24.366 7.09102 22.957 8.00802 22.03L11.1411 18.897C11.5321 18.506 12.164 18.506 12.555 18.897L14.981 21.323L17.4061 18.897C17.7811 18.522 18.445 18.522 18.82 18.897L21.2461 21.323L23.6721 18.897C24.0631 18.506 24.695 18.506 25.086 18.897L28.2191 22.03C28.6101 22.421 28.6101 23.053 28.2191 23.444C27.8281 23.835 27.196 23.835 26.805 23.444L24.3791 21.018C22.5284 22.8318 21.8872 23.7393 21.2458 23.7394C20.6047 23.7395 19.9634 22.8328 18.1131 21.018C16.2585 22.8317 15.6217 23.7417 14.9833 23.7428C14.3454 23.7439 13.7059 22.8374 11.8481 21.018Z" fill="#EA2B2B"/>
</svg>
