<svg width="400" height="400" viewBox="0 0 400 400" fill="none" xmlns="http://www.w3.org/2000/svg">
<path fill-rule="evenodd" clip-rule="evenodd" d="M100 200C155.228 200 200 155.228 200 100C200 155.228 244.772 200 300 200C244.772 200 200 244.772 200 300C200 244.772 155.228 200 100 200ZM100 200C44.7716 200 0 244.772 0 300C0 355.228 44.7716 400 100 400C155.228 400 200 355.228 200 300C200 355.228 244.772 400 300 400C355.228 400 400 355.228 400 300C400 244.772 355.228 200 300 200C355.228 200 400 155.228 400 100C400 44.7716 355.228 0 300 0C244.772 0 200 44.7716 200 100C200 44.7716 155.228 0 100 0C44.7716 0 0 44.7716 0 100C0 155.228 44.7716 200 100 200Z" fill="#8882EE"/>
</svg>
