<svg width="175" height="56" viewBox="0 0 175 56" fill="none" xmlns="http://www.w3.org/2000/svg">
<path d="M14 28C14 20.272 20.272 14 28 14C35.728 14 42 20.272 42 28H56C56 12.53 43.47 0 28 0C12.53 0 0 12.53 0 28C0 43.47 12.53 56 28 56V42C20.272 42 14 35.728 14 28Z" fill="#2CFFA5"/>
<path opacity="0.5" d="M28 28H42V42H28V28Z" fill="#2CFFA5"/>
<path d="M52.248 42H42V52.248C46.256 49.784 49.798 46.242 52.248 42Z" fill="#2CFFA5"/>
<path opacity="0.5" d="M99.6523 12.418C98.6863 12.418 97.8883 12.726 97.2443 13.342C96.6003 13.958 96.2783 14.728 96.2783 15.666C96.2783 16.604 96.6003 17.374 97.2443 18.004C97.8883 18.634 98.6863 18.956 99.6523 18.956C100.618 18.956 101.402 18.634 102.032 18.004C102.662 17.374 102.984 16.59 102.984 15.666C102.984 14.742 102.676 13.958 102.032 13.342C101.388 12.726 100.604 12.418 99.6523 12.418Z" fill="#2CFFA5"/>
<path opacity="0.5" d="M132.188 18.956C133.154 18.956 133.938 18.634 134.568 18.004C135.198 17.374 135.52 16.59 135.52 15.666C135.52 14.742 135.212 13.958 134.568 13.342C133.924 12.726 133.14 12.418 132.188 12.418C131.236 12.418 130.424 12.726 129.78 13.342C129.136 13.958 128.814 14.728 128.814 15.666C128.814 16.604 129.136 17.374 129.78 18.004C130.424 18.634 131.222 18.956 132.188 18.956Z" fill="#2CFFA5"/>
<path d="M88.76 14.7424C87.178 13.9584 85.372 13.5664 83.314 13.5664H71.582V42.3644H77.756V32.6904H83.314C85.372 32.6904 87.192 32.2984 88.76 31.5144C90.328 30.7304 91.56 29.6244 92.428 28.1824C93.296 26.7404 93.73 25.0604 93.73 23.1424C93.73 21.2244 93.296 19.5304 92.428 18.0884C91.56 16.6464 90.342 15.5124 88.76 14.7284V14.7424ZM86.198 26.3624C85.344 27.1604 84.196 27.5524 82.74 27.5524H77.756V18.7044H82.74C84.196 18.7044 85.344 19.0964 86.198 19.8944C87.052 20.6924 87.472 21.7704 87.472 23.1424C87.472 24.5144 87.052 25.5504 86.198 26.3484V26.3624Z" fill="#2CFFA5"/>
<path d="M102.522 21.21H96.7256V42.364H102.522V21.21Z" fill="#2CFFA5"/>
<path d="M126.756 21.21H120.54L116.06 27.468L111.664 21.21H105.028L112.518 31.584L104.664 42.364H110.88L115.696 35.742L120.54 42.364H127.162L119.308 31.584L126.756 21.21Z" fill="#2CFFA5"/>
<path d="M168.35 21.2098L163.324 36.3858L158.186 21.2098H146.258V20.2158C146.258 19.6138 146.398 19.1798 146.664 18.8998C146.944 18.6198 147.378 18.4938 147.98 18.4938H151.564V13.5518H146.832C144.718 13.5518 143.136 14.0558 142.058 15.0498C140.98 16.0438 140.448 17.4858 140.448 19.3478V21.1958H129.262V42.3498H135.058V26.0958H140.448V42.3498H146.244V26.0958H153.874L160.146 42.4758L159.614 43.8758C159.306 44.5898 158.998 45.0658 158.662 45.3178C158.326 45.5698 157.794 45.6818 157.052 45.6818H153.846V50.5818H159.488C160.552 50.5818 161.434 50.3998 162.106 50.0218C162.778 49.6578 163.338 49.0978 163.772 48.3698C164.206 47.6418 164.682 46.6338 165.172 45.3458L174.552 21.1958H168.336L168.35 21.2098Z" fill="#2CFFA5"/>
</svg>
