<svg width="175" height="56" viewBox="0 0 175 56" fill="none" xmlns="http://www.w3.org/2000/svg">
<path d="M14 28C14 20.272 20.272 14 28 14C35.728 14 42 20.272 42 28H56C56 12.53 43.47 0 28 0C12.53 0 0 12.53 0 28C0 43.47 12.53 56 28 56V42C20.272 42 14 35.728 14 28Z" fill="white"/>
<path opacity="0.5" d="M28 28H42V42H28V28Z" fill="white"/>
<path d="M52.248 42H42V52.248C46.256 49.784 49.798 46.242 52.248 42Z" fill="white"/>
<path opacity="0.5" d="M99.6521 12.4182C98.6861 12.4182 97.8881 12.7262 97.2441 13.3422C96.6001 13.9582 96.2781 14.7282 96.2781 15.6662C96.2781 16.6042 96.6001 17.3742 97.2441 18.0042C97.8881 18.6342 98.6861 18.9562 99.6521 18.9562C100.618 18.9562 101.402 18.6342 102.032 18.0042C102.662 17.3742 102.984 16.5902 102.984 15.6662C102.984 14.7422 102.676 13.9582 102.032 13.3422C101.388 12.7262 100.604 12.4182 99.6521 12.4182Z" fill="white"/>
<path opacity="0.5" d="M132.188 18.9562C133.154 18.9562 133.938 18.6342 134.568 18.0042C135.198 17.3742 135.52 16.5902 135.52 15.6662C135.52 14.7422 135.212 13.9582 134.568 13.3422C133.924 12.7262 133.14 12.4182 132.188 12.4182C131.236 12.4182 130.424 12.7262 129.78 13.3422C129.136 13.9582 128.814 14.7282 128.814 15.6662C128.814 16.6042 129.136 17.3742 129.78 18.0042C130.424 18.6342 131.222 18.9562 132.188 18.9562Z" fill="white"/>
<path d="M88.76 14.7419C87.178 13.9579 85.372 13.5659 83.314 13.5659H71.582V42.3639H77.756V32.6899H83.314C85.372 32.6899 87.192 32.2979 88.76 31.5139C90.328 30.7299 91.56 29.6239 92.428 28.1819C93.296 26.7399 93.73 25.0599 93.73 23.1419C93.73 21.2239 93.296 19.5299 92.428 18.0879C91.56 16.6459 90.342 15.5119 88.76 14.7279V14.7419ZM86.198 26.3619C85.344 27.1599 84.196 27.5519 82.74 27.5519H77.756V18.7039H82.74C84.196 18.7039 85.344 19.0959 86.198 19.8939C87.052 20.6919 87.472 21.7699 87.472 23.1419C87.472 24.5139 87.052 25.5499 86.198 26.3479V26.3619Z" fill="white"/>
<path d="M102.522 21.2099H96.7261V42.3639H102.522V21.2099Z" fill="white"/>
<path d="M126.756 21.2099H120.54L116.06 27.4679L111.664 21.2099H105.028L112.518 31.5839L104.664 42.3639H110.88L115.696 35.7419L120.54 42.3639H127.162L119.308 31.5839L126.756 21.2099Z" fill="white"/>
<path d="M168.35 21.2099L163.324 36.3859L158.186 21.2099H146.258V20.2159C146.258 19.6139 146.398 19.1799 146.664 18.8999C146.944 18.6199 147.378 18.4939 147.98 18.4939H151.564V13.5519H146.832C144.718 13.5519 143.136 14.0559 142.058 15.0499C140.98 16.0439 140.448 17.4859 140.448 19.3479V21.1959H129.262V42.3499H135.058V26.0959H140.448V42.3499H146.244V26.0959H153.874L160.146 42.4759L159.614 43.8759C159.306 44.5899 158.998 45.0659 158.662 45.3179C158.326 45.5699 157.794 45.6819 157.052 45.6819H153.846V50.5819H159.488C160.552 50.5819 161.434 50.3999 162.106 50.0219C162.778 49.6579 163.338 49.0979 163.772 48.3699C164.206 47.6419 164.682 46.6339 165.172 45.3459L174.552 21.1959H168.336L168.35 21.2099Z" fill="white"/>
</svg>
