<svg width="120" height="56" viewBox="0 0 120 56" fill="none" xmlns="http://www.w3.org/2000/svg">
<path d="M28.834 22.5161H44.5395C44.5395 22.5161 53.1682 2.07272 69.5566 10.0952C69.5566 10.0642 49.2263 -6.6622 28.834 22.5161Z" fill="white"/>
<path d="M119.777 43.1454H89.9489C89.9489 43.1454 82.4997 -10.5031 42.0254 6.31627C42.0875 6.31627 88.7695 -22.5523 119.777 43.1454Z" fill="#FC5220"/>
<path d="M9.99442 36.1141H3.01074V43.4552H0V26.1402H11.0187V28.5562H3.01074V33.6981H9.99442V36.1141Z" fill="white"/>
<path d="M11.857 36.9195C11.857 35.6495 12.1053 34.5344 12.6019 33.5122C13.0985 32.4901 13.8124 31.7157 14.7125 31.1891C15.6127 30.6316 16.668 30.3838 17.8474 30.3838C19.5856 30.3838 21.0134 30.9413 22.0687 32.0564C23.155 33.1715 23.7448 34.6583 23.8379 36.5168V37.1982C23.8379 38.4682 23.5896 39.6143 23.093 40.6055C22.5963 41.5967 21.9135 42.371 20.9823 42.9286C20.0822 43.4861 19.0269 43.7339 17.8164 43.7339C15.9851 43.7339 14.5263 43.1144 13.44 41.9064C12.3536 40.6984 11.7949 39.0877 11.7949 37.0743V36.9195H11.857ZM14.7436 37.1673C14.7436 38.4992 15.0229 39.5214 15.5506 40.2647C16.1093 41.0081 16.8542 41.3798 17.8474 41.3798C18.8096 41.3798 19.5856 41.0081 20.1443 40.2338C20.703 39.4594 20.9513 38.3443 20.9513 36.8885C20.9513 35.5875 20.672 34.5654 20.1133 33.791C19.5546 33.0166 18.7786 32.6449 17.8164 32.6449C16.8852 32.6449 16.1093 33.0166 15.5506 33.76C15.0229 34.5344 14.7436 35.6805 14.7436 37.1673Z" fill="white"/>
<path d="M32.5283 33.2334C32.1559 33.1715 31.7524 33.1405 31.3489 33.1405C30.0142 33.1405 29.1141 33.6361 28.6796 34.6583V43.4552H25.793V30.6006H28.5554L28.6175 32.0254C29.3314 30.9103 30.2936 30.3528 31.5351 30.3528C31.9386 30.3528 32.28 30.4147 32.5594 30.5077L32.5283 33.2334Z" fill="white"/>
<path d="M33.3672 36.9195C33.3672 34.9371 33.8328 33.3264 34.7639 32.1184C35.6951 30.9103 36.9677 30.3218 38.5196 30.3218C39.9784 30.3218 41.1579 30.8484 41.9959 31.8706L42.1201 30.5696H44.7273V43.0525C44.7273 44.7561 44.1996 46.088 43.1443 47.0482C42.089 48.0085 40.6613 48.5041 38.8921 48.5041C37.9609 48.5041 37.0297 48.3182 36.1296 47.9155C35.2295 47.5129 34.5467 47.0173 34.0811 46.3668L35.4468 44.6322C36.3469 45.6854 37.4332 46.2119 38.7369 46.2119C39.6991 46.2119 40.444 45.9641 41.0027 45.4376C41.5614 44.911 41.8407 44.1676 41.8407 43.1454V42.2781C41.0027 43.2074 39.8853 43.672 38.5196 43.672C36.9987 43.672 35.7882 43.0835 34.826 41.8754C33.8638 40.6984 33.3672 39.0567 33.3672 36.9195ZM36.2538 37.1673C36.2538 38.4682 36.5331 39.4904 37.0608 40.2028C37.5884 40.9462 38.3334 41.3179 39.2645 41.3179C40.444 41.3179 41.3131 40.8223 41.8718 39.8311V34.1627C41.3131 33.2025 40.475 32.7069 39.2956 32.7069C38.3334 32.7069 37.5884 33.0786 37.0608 33.822C36.5331 34.5963 36.2538 35.7114 36.2538 37.1673Z" fill="white"/>
<path d="M52.9208 43.703C51.0895 43.703 49.5997 43.1144 48.4513 41.9684C47.3028 40.8223 46.7441 39.2736 46.7441 37.3531V36.9814C46.7441 35.7114 46.9924 34.5344 47.4891 33.5432C47.9857 32.521 48.6685 31.7467 49.5686 31.1891C50.4688 30.6316 51.462 30.3528 52.5794 30.3528C54.3486 30.3528 55.6832 30.9103 56.6454 32.0254C57.6076 33.1405 58.0732 34.7202 58.0732 36.7646V37.9416H49.6618C49.7549 38.9948 50.0963 39.8311 50.7171 40.4506C51.3378 41.0701 52.1138 41.3798 53.076 41.3798C54.4107 41.3798 55.497 40.8533 56.304 39.7691L57.8559 41.2559C57.3283 42.0303 56.6454 42.6188 55.7764 43.0525C54.9383 43.4861 53.9761 43.703 52.9208 43.703ZM52.5484 32.6759C51.7413 32.6759 51.1206 32.9547 50.624 33.5122C50.1273 34.0698 49.817 34.8441 49.6928 35.8353H55.2177V35.6185C55.1556 34.6583 54.9073 33.9149 54.4417 33.4193C53.9761 32.9237 53.3554 32.6759 52.5484 32.6759Z" fill="white"/>
<path d="M66.0814 32.3971L69.7129 26.1402H73.1892L67.9747 34.7202L80.9178 55.969H77.4105L66.0814 37.0743L62.3257 43.4242H58.8184L64.188 34.6893L58.9736 26.1402H62.4499L66.0814 32.3971Z" fill="#FC5220"/>
<path d="M0.714098 55.969H0.03125V52.0042H0.714098V55.969Z" fill="white"/>
<path d="M5.67982 55.969H4.99697L3.22777 53.1503V55.969H2.54492V52.0042H3.22777L5.02801 54.823V52.0042H5.71086L5.67982 55.969Z" fill="white"/>
<path d="M7.48047 55.969V52.0042H8.65993C9.00136 52.0042 9.31174 52.0662 9.59109 52.2211C9.87044 52.3759 10.0877 52.5928 10.2119 52.8715C10.3671 53.1503 10.4291 53.491 10.4291 53.8627V54.0486C10.4291 54.4203 10.3671 54.761 10.2119 55.0398C10.0567 55.3186 9.8394 55.5354 9.56005 55.6903C9.28071 55.8451 8.97032 55.9381 8.59786 55.9381L7.48047 55.969ZM8.16332 52.5308V55.3805H8.6289C9.00136 55.3805 9.28071 55.2566 9.46694 55.0398C9.65317 54.823 9.74628 54.4822 9.74628 54.0796V53.8627C9.74628 53.4291 9.65317 53.0884 9.46694 52.8715C9.28071 52.6547 9.00136 52.5308 8.65993 52.5308H8.16332Z" fill="white"/>
<path d="M15.0227 51.9733V54.6371C15.0227 55.0708 14.8985 55.3805 14.6192 55.6283C14.3398 55.8761 13.9984 56 13.5328 56C13.0672 56 12.7258 55.8761 12.4465 55.6283C12.1671 55.3805 12.043 55.0398 12.043 54.6061V51.9423H12.7258V54.6061C12.7258 54.8849 12.7879 55.0708 12.9431 55.2256C13.0672 55.3805 13.2845 55.4425 13.5328 55.4425C14.0605 55.4425 14.3398 55.1637 14.3398 54.6061V51.9733H15.0227Z" fill="white"/>
<path d="M18.8105 54.9159C18.8105 54.73 18.7484 54.6061 18.6243 54.5132C18.5001 54.4203 18.2829 54.3274 17.9725 54.2344C17.6621 54.1415 17.3828 54.0176 17.1965 53.9247C16.8241 53.7079 16.6378 53.3981 16.6378 53.0264C16.6378 52.7167 16.762 52.4379 17.0413 52.2211C17.2896 52.0042 17.6311 51.9113 18.0656 51.9113C18.3449 51.9113 18.5933 51.9733 18.8105 52.0662C19.0278 52.1591 19.183 52.314 19.3071 52.4998C19.4313 52.6857 19.4934 52.9025 19.4934 53.1193H18.8105C18.8105 52.9025 18.7484 52.7476 18.6243 52.6237C18.5001 52.4998 18.3139 52.4379 18.0656 52.4379C17.8483 52.4379 17.6621 52.4998 17.5379 52.5928C17.4138 52.6857 17.3517 52.8096 17.3517 52.9954C17.3517 53.1503 17.4138 53.2742 17.569 53.3671C17.6931 53.4601 17.9414 53.553 18.2208 53.6459C18.5312 53.7388 18.7795 53.8318 18.9657 53.9557C19.1519 54.0796 19.2761 54.2035 19.3692 54.3583C19.4623 54.5132 19.4934 54.6991 19.4934 54.8849C19.4934 55.2256 19.3692 55.4734 19.1209 55.6903C18.8726 55.8761 18.5312 56 18.0966 56C17.8173 56 17.5379 55.9381 17.2896 55.8451C17.0413 55.7522 16.8551 55.5973 16.7309 55.4115C16.6068 55.2256 16.5137 55.0088 16.5137 54.761H17.1965C17.1965 54.9778 17.2586 55.1637 17.4138 55.2876C17.569 55.4115 17.7863 55.4734 18.0656 55.4734C18.3139 55.4734 18.5001 55.4115 18.5933 55.3186C18.7484 55.1947 18.8105 55.0708 18.8105 54.9159Z" fill="white"/>
<path d="M23.9628 52.4998H22.7213V55.9071H22.0384V52.4998H20.7969V51.9423H23.9628V52.4998Z" fill="white"/>
<path d="M26.91 54.3893H26.134V55.9071H25.4512V51.9423H26.8479C27.3135 51.9423 27.6549 52.0352 27.9032 52.252C28.1515 52.4689 28.2757 52.7476 28.2757 53.1503C28.2757 53.4291 28.2136 53.6459 28.0895 53.8318C27.9653 54.0176 27.7791 54.1415 27.5618 54.2344L28.4619 55.8761V55.9071H27.717L26.91 54.3893ZM26.1651 53.8318H26.8789C27.1273 53.8318 27.2824 53.7698 27.4376 53.6459C27.5618 53.522 27.6239 53.3671 27.6239 53.1503C27.6239 52.9335 27.5618 52.7786 27.4376 52.6547C27.3135 52.5308 27.1273 52.4689 26.91 52.4689H26.1961L26.1651 53.8318Z" fill="white"/>
<path d="M30.6672 55.8761H29.9844V51.9113H30.6672V55.8761Z" fill="white"/>
<path d="M34.7325 54.9469H33.1805L32.8701 55.8761H32.1562L33.6461 51.9113H34.2669L35.7878 55.8761H35.0739L34.7325 54.9469ZM33.3668 54.3893H34.5152L33.9255 52.7476L33.3668 54.3893Z" fill="white"/>
<path d="M37.8977 55.3186H39.6979V55.8761H37.2148V51.9113H37.8977V55.3186Z" fill="white"/>
<path d="M45.4726 54.823C45.4726 54.6371 45.4106 54.5132 45.2864 54.4203C45.1622 54.3274 44.945 54.2344 44.6346 54.1415C44.3242 54.0486 44.0449 53.9247 43.8586 53.8318C43.4862 53.6149 43.2999 53.3052 43.2999 52.9335C43.2999 52.6237 43.4241 52.345 43.7034 52.1281C43.9517 51.9113 44.2932 51.8184 44.7277 51.8184C45.0071 51.8184 45.2554 51.8803 45.4726 51.9733C45.6899 52.0662 45.8451 52.2211 45.9693 52.4069C46.0934 52.5928 46.1555 52.8096 46.1555 53.0264H45.4726C45.4726 52.8096 45.4106 52.6547 45.2864 52.5308C45.1622 52.4069 44.976 52.345 44.7277 52.345C44.5104 52.345 44.3242 52.4069 44.2 52.4998C44.0759 52.5928 44.0138 52.7167 44.0138 52.9025C44.0138 53.0574 44.0759 53.1813 44.2311 53.2742C44.3552 53.3671 44.6036 53.4601 44.8829 53.553C45.1933 53.6459 45.4416 53.7388 45.6278 53.8627C45.8141 53.9866 45.9382 54.1105 46.0313 54.2654C46.1244 54.4203 46.1555 54.6061 46.1555 54.792C46.1555 55.1327 46.0313 55.3805 45.783 55.5973C45.5347 55.7832 45.1933 55.9071 44.7587 55.9071C44.4794 55.9071 44.2001 55.8451 43.9517 55.7522C43.7034 55.6593 43.5172 55.5044 43.3931 55.3186C43.2689 55.1327 43.1758 54.9159 43.1758 54.6681H43.8586C43.8586 54.8849 43.9207 55.0708 44.0759 55.1947C44.2311 55.3186 44.4484 55.3805 44.7277 55.3805C44.976 55.3805 45.1622 55.3186 45.2554 55.2256C45.4106 55.1017 45.4726 54.9778 45.4726 54.823Z" fill="white"/>
<path d="M50.0662 54.0486H48.4211V55.2566H50.3455V55.8142H47.7383V51.8494H50.3145V52.4069H48.4211V53.491H50.0662V54.0486Z" fill="white"/>
<path d="M53.324 54.2964H52.5481V55.8142H51.8652V51.8494H53.262C53.7275 51.8494 54.069 51.9423 54.3173 52.1591C54.5656 52.3759 54.6897 52.6547 54.6897 53.0574C54.6897 53.3362 54.6277 53.553 54.5035 53.7388C54.3794 53.9247 54.1931 54.0486 53.9759 54.1415L54.876 55.7832V55.8142H54.131L53.324 54.2964ZM52.5481 53.7388H53.262C53.5103 53.7388 53.6655 53.6769 53.8207 53.553C53.9448 53.4291 54.0069 53.2742 54.0069 53.0574C54.0069 52.8406 53.9448 52.6857 53.8207 52.5618C53.6965 52.4379 53.5103 52.3759 53.293 52.3759H52.5791L52.5481 53.7388Z" fill="white"/>
<path d="M57.7006 54.9469L58.6939 51.8494H59.4388L58.011 55.8142H57.3282L55.9004 51.8494H56.6453L57.7006 54.9469Z" fill="white"/>
<path d="M61.6125 55.7832H60.9297V51.8184H61.6125V55.7832Z" fill="white"/>
<path d="M66.4843 54.4822C66.4533 54.9159 66.2981 55.2256 66.0187 55.4734C65.7394 55.7212 65.3979 55.8451 64.9324 55.8451C64.622 55.8451 64.3426 55.7832 64.0943 55.6283C63.846 55.4734 63.6598 55.2566 63.5356 54.9778C63.4115 54.6991 63.3494 54.3893 63.3184 54.0176V53.6459C63.3184 53.2742 63.3804 52.9335 63.5046 52.6547C63.6287 52.3759 63.815 52.1591 64.0633 52.0042C64.3116 51.8494 64.5909 51.7564 64.9324 51.7564C65.3669 51.7564 65.7394 51.8803 65.9877 52.0972C66.267 52.345 66.4222 52.6547 66.4533 53.0884H65.7704C65.7394 52.8096 65.6463 52.5928 65.5221 52.4689C65.3979 52.345 65.1807 52.283 64.9324 52.283C64.622 52.283 64.4047 52.4069 64.2495 52.6237C64.0943 52.8406 64.0012 53.1503 64.0012 53.584V53.9247C64.0012 54.3583 64.0943 54.6681 64.2495 54.9159C64.4047 55.1327 64.622 55.2566 64.9324 55.2566C65.2117 55.2566 65.3979 55.1947 65.5531 55.0708C65.6773 54.9469 65.7704 54.761 65.8014 54.4513L66.4843 54.4822Z" fill="white"/>
<path d="M70.3963 53.9866H68.7512V55.1947H70.6756V55.7522H68.0684V51.7874H70.6446V52.345H68.7512V53.4291H70.3963V53.9866Z" fill="white"/>
<path d="M84.6113 54.9159C84.6113 54.73 84.5492 54.6061 84.4251 54.5132C84.3009 54.4203 84.0836 54.3274 83.7733 54.2344C83.4629 54.1415 83.1835 54.0176 82.9973 53.9247C82.6248 53.7079 82.4386 53.3981 82.4386 53.0264C82.4386 52.7167 82.5628 52.4379 82.8421 52.2211C83.0904 52.0042 83.4318 51.9113 83.8664 51.9113C84.1457 51.9113 84.394 51.9733 84.6113 52.0662C84.8286 52.1591 84.9838 52.314 85.1079 52.4998C85.2321 52.6857 85.2941 52.9025 85.2941 53.1193H84.6113C84.6113 52.9025 84.5492 52.7476 84.4251 52.6237C84.3009 52.4998 84.1147 52.4379 83.8664 52.4379C83.6491 52.4379 83.4629 52.4998 83.3387 52.5928C83.2146 52.6857 83.1525 52.8096 83.1525 52.9954C83.1525 53.1503 83.2146 53.2742 83.3698 53.3671C83.4939 53.4601 83.7422 53.553 84.0216 53.6459C84.332 53.7388 84.5803 53.8318 84.7665 53.9557C84.9527 54.0796 85.0769 54.2035 85.17 54.3583C85.2631 54.5132 85.2941 54.6991 85.2941 54.8849C85.2941 55.2256 85.17 55.4734 84.9217 55.6903C84.6734 55.8761 84.3319 56 83.8974 56C83.6181 56 83.3387 55.9381 83.0904 55.8451C82.8421 55.7522 82.6559 55.5973 82.5317 55.4115C82.4076 55.2256 82.3145 55.0088 82.3145 54.761H82.9973C82.9973 54.9778 83.0594 55.1637 83.2146 55.2876C83.3698 55.4115 83.587 55.4734 83.8664 55.4734C84.1147 55.4734 84.3009 55.4115 84.394 55.3186C84.5492 55.1947 84.6113 55.0708 84.6113 54.9159Z" fill="white"/>
<path d="M90.075 54.0486C90.075 54.4513 90.013 54.792 89.8888 55.0708C89.7647 55.3495 89.5784 55.5973 89.2991 55.7522C89.0508 55.9071 88.7714 56 88.43 56C88.1196 56 87.8092 55.938 87.5609 55.7522C87.3126 55.5973 87.1264 55.3805 86.9712 55.0708C86.847 54.792 86.7539 54.4513 86.7539 54.0796V53.8627C86.7539 53.491 86.816 53.1193 86.9712 52.8406C87.0953 52.5308 87.3126 52.314 87.5609 52.1591C87.8092 52.0042 88.0886 51.9113 88.43 51.9113C88.7404 51.9113 89.0508 51.9733 89.2991 52.1281C89.5474 52.283 89.7336 52.4998 89.8888 52.8096C90.013 53.0884 90.1061 53.4291 90.1061 53.8318L90.075 54.0486ZM89.3611 53.8318C89.3611 53.3981 89.268 53.0574 89.1128 52.8096C88.9576 52.5618 88.7093 52.4689 88.3989 52.4689C88.0886 52.4689 87.8713 52.5928 87.6851 52.8096C87.5299 53.0574 87.4368 53.3671 87.4368 53.8008V54.0176C87.4368 54.4513 87.5299 54.792 87.6851 55.0398C87.8713 55.2876 88.0886 55.3805 88.3989 55.3805C88.7093 55.3805 88.9266 55.2566 89.1128 55.0398C89.268 54.792 89.3611 54.4513 89.3611 54.0176V53.8318Z" fill="white"/>
<path d="M92.4328 55.3805H94.2331V55.9381H91.75V51.9733H92.4328V55.3805Z" fill="white"/>
<path d="M98.5793 51.9423V54.6061C98.5793 55.0398 98.4552 55.3495 98.1758 55.5973C97.8965 55.8451 97.555 55.969 97.0895 55.969C96.6239 55.969 96.2825 55.8451 96.0031 55.5973C95.7238 55.3495 95.5996 55.0088 95.5996 54.5752V51.9113H96.2825V54.5752C96.2825 54.8539 96.3445 55.0398 96.4997 55.1946C96.6239 55.3495 96.8411 55.4115 97.0895 55.4115C97.6171 55.4115 97.8965 55.1327 97.8965 54.5752V51.9423H98.5793Z" fill="white"/>
<path d="M103.172 52.4689H101.93V55.8761H101.247V52.4689H100.006V51.9113H103.172V52.4689Z" fill="white"/>
<path d="M105.407 55.8761H104.725V51.9113H105.407V55.8761Z" fill="white"/>
<path d="M110.405 53.9866C110.405 54.3893 110.343 54.73 110.219 55.0088C110.095 55.2876 109.908 55.5354 109.629 55.6903C109.381 55.8451 109.101 55.9381 108.76 55.9381C108.45 55.9381 108.139 55.8761 107.891 55.6903C107.643 55.5354 107.456 55.3186 107.301 55.0088C107.177 54.73 107.084 54.3893 107.084 54.0176V53.8008C107.084 53.4291 107.146 53.0574 107.301 52.7786C107.425 52.4689 107.643 52.252 107.891 52.0972C108.139 51.9423 108.419 51.8494 108.76 51.8494C109.07 51.8494 109.381 51.9113 109.629 52.0662C109.877 52.2211 110.064 52.4379 110.219 52.7476C110.343 53.0264 110.436 53.3671 110.436 53.7698L110.405 53.9866ZM109.722 53.7698C109.722 53.3362 109.629 52.9954 109.474 52.7476C109.319 52.4998 109.07 52.4069 108.76 52.4069C108.45 52.4069 108.232 52.5308 108.046 52.7476C107.891 52.9954 107.798 53.3052 107.798 53.7388V53.9557C107.798 54.3893 107.891 54.73 108.046 54.9778C108.232 55.2256 108.45 55.3186 108.76 55.3186C109.07 55.3186 109.288 55.1947 109.474 54.9778C109.629 54.73 109.722 54.3893 109.722 53.9557V53.7698Z" fill="white"/>
<path d="M115.215 55.8451H114.532L112.763 53.0264V55.8451H112.08V51.8803H112.763L114.563 54.6991V51.8803H115.246L115.215 55.8451Z" fill="white"/>
<path d="M119.096 54.823C119.096 54.6371 119.034 54.5132 118.909 54.4203C118.785 54.3274 118.568 54.2344 118.258 54.1415C117.947 54.0486 117.668 53.9247 117.482 53.8318C117.109 53.6149 116.923 53.3052 116.923 52.9335C116.923 52.6237 117.047 52.345 117.326 52.1281C117.575 51.9113 117.916 51.8184 118.351 51.8184C118.63 51.8184 118.878 51.8803 119.096 51.9733C119.313 52.0662 119.468 52.2211 119.592 52.4069C119.716 52.5928 119.779 52.8096 119.779 53.0264H119.096C119.096 52.8096 119.034 52.6547 118.909 52.5308C118.785 52.4069 118.599 52.345 118.351 52.345C118.133 52.345 117.947 52.4069 117.823 52.4998C117.699 52.5928 117.637 52.7167 117.637 52.9025C117.637 53.0574 117.699 53.1813 117.854 53.2742C117.978 53.3671 118.227 53.4601 118.506 53.553C118.816 53.6459 119.065 53.7388 119.251 53.8627C119.437 53.9866 119.561 54.1105 119.654 54.2654C119.747 54.4203 119.779 54.6061 119.779 54.792C119.779 55.1327 119.654 55.3805 119.406 55.5973C119.158 55.7832 118.816 55.9071 118.382 55.9071C118.102 55.9071 117.823 55.8451 117.575 55.7522C117.326 55.6593 117.14 55.5044 117.016 55.3186C116.892 55.1327 116.799 54.9159 116.799 54.6681H117.482C117.482 54.8849 117.544 55.0708 117.699 55.1947C117.854 55.3186 118.071 55.3805 118.351 55.3805C118.599 55.3805 118.785 55.3186 118.878 55.2256C119.034 55.1017 119.096 54.9778 119.096 54.823Z" fill="white"/>
</svg>
