<svg width="57" height="41" viewBox="0 0 57 41" fill="none" xmlns="http://www.w3.org/2000/svg">
<g opacity="0.15">
<path fill-rule="evenodd" clip-rule="evenodd" d="M44.8042 11.1265C46.8589 8.24788 50.7427 5.14895 56.03 2.56911C57.404 1.89868 56.7842 -0.179303 55.2674 0.0125591C44.1582 1.41778 36.9577 6.28318 33.0257 13.5186C31.5632 16.2097 30.6444 19.074 30.1551 21.998C29.8325 23.9259 29.7473 25.3727 29.7473 27.0438C29.7473 34.5112 35.8008 40.5647 43.2682 40.5647C50.7356 40.5647 56.7892 34.5112 56.7892 27.0438C56.7892 19.5763 50.639 13.5186 43.5716 13.5186C43.9444 12.4949 44.034 12.2056 44.8042 11.1265ZM15.0581 11.1265C17.1128 8.24788 20.9966 5.14895 26.2839 2.56911C27.6579 1.89868 27.0381 -0.179303 25.5213 0.0125591C14.4121 1.41778 7.21165 6.28318 3.27959 13.5186C1.81715 16.2097 0.89834 19.074 0.409031 21.998C0.0864134 23.9259 0.00121215 25.3727 0.00121215 27.0438C0.00121215 34.5112 6.05474 40.5647 13.5222 40.5647C20.9896 40.5647 27.0431 34.5112 27.0431 27.0438C27.0431 19.5763 20.893 13.5186 13.8255 13.5186C14.1984 12.4949 14.2879 12.2056 15.0581 11.1265Z" fill="#2AC8D3"/>
</g>
</svg>
